<svg id="Calque_1" data-name="Calque 1" xmlns="http://www.w3.org/2000/svg" viewBox="0 0 87 87"><rect x="7.68" y="41.41" width="19.73" height="3.12" fill="#fff"/><rect x="7.68" y="41.53" width="3" height="18.82" fill="#fff"/><rect x="76.32" y="41.53" width="3" height="18.82" fill="#fff"/><rect x="59.78" y="41.41" width="19.54" height="3.12" fill="#fff"/><path d="M45.11,39.77V32.39a.82.82,0,0,1,1.64,0V34a.82.82,0,0,0,.82.82h3.28a.82.82,0,0,0,.82-.82V32.39a5.74,5.74,0,0,0-11.48,0v7.38Z" fill="#fff"/><path d="M49.21,36.49a.82.82,0,1,0,0,1.64H50v1.64h4.91V38.13h.82a.82.82,0,1,0,0-1.64H49.21Z" fill="#fff"/><path d="M31.18,38.13H32v1.64h4.92V38.13h.82a.82.82,0,0,0,0-1.64H31.18a.82.82,0,1,0,0,1.64Z" fill="#fff"/><path d="M59.48,42.94v2.85c0,4.71-3.66,7.87-9.12,7.87H36.58c-5.45,0-9.12-3.16-9.12-7.87V42.94h32m.91-1.53H26.55a.62.62,0,0,0-.62.62v3.76c0,5.54,4.38,9.4,10.65,9.4H50.36c6.28,0,10.65-3.86,10.65-9.4V42a.62.62,0,0,0-.62-.62Z" fill="#fff"/></svg>