<svg id="Calque_1" data-name="Calque 1" xmlns="http://www.w3.org/2000/svg" viewBox="0 0 87 87"><path d="M70.94,72.44H16.06a1.5,1.5,0,0,1-1.5-1.5V16.06a1.5,1.5,0,0,1,1.5-1.5H70.94a1.5,1.5,0,0,1,1.5,1.5V70.94A1.5,1.5,0,0,1,70.94,72.44Zm-53.38-3H69.44V17.56H17.56Z" fill="#fff"/><path d="M43.5,62.49a19,19,0,1,1,19-19A19,19,0,0,1,43.5,62.49Zm0-35a16,16,0,1,0,16,16A16,16,0,0,0,43.5,27.51Z" fill="#fff"/><polygon points="48.04 41.64 46.1 41.64 46.1 39.43 40.9 39.43 40.9 41.64 38.96 41.64 38.96 47.57 40.36 47.57 40.36 43.5 41.45 43.5 41.45 47.57 42.96 47.57 42.96 43.5 44.04 43.5 44.04 47.57 45.55 47.57 45.55 43.5 46.64 43.5 46.64 47.57 48.04 47.57 48.04 41.64" fill="#fff"/></svg>