<svg id="Calque_1" data-name="Calque 1" xmlns="http://www.w3.org/2000/svg" viewBox="0 0 87 87"><path d="M43.5,52.79H7.25a1.5,1.5,0,0,1-1.5-1.5V39.71a5.5,5.5,0,0,1,5.5-5.5H43.5a1.5,1.5,0,0,1,1.5,1.5V51.29A1.5,1.5,0,0,1,43.5,52.79Zm-34.75-3H42V37.21H11.25a2.5,2.5,0,0,0-2.5,2.5Z" fill="#fff"/><path d="M79.75,52.79H43.5a1.5,1.5,0,0,1-1.5-1.5V35.71a1.5,1.5,0,0,1,1.5-1.5H75.75a5.5,5.5,0,0,1,5.5,5.5V51.29A1.5,1.5,0,0,1,79.75,52.79ZM45,49.79H78.25V39.71a2.5,2.5,0,0,0-2.5-2.5H45Z" fill="#fff"/><rect x="11.08" y="46.58" width="28.79" height="1" fill="#fff"/><rect x="7.28" y="43" width="28.79" height="1" fill="#fff"/><rect x="13.93" y="39.42" width="28.79" height="1" fill="#fff"/><rect x="47.7" y="46.58" width="28.79" height="1" fill="#fff"/><rect x="43.9" y="43" width="28.79" height="1" fill="#fff"/><rect x="50.55" y="39.42" width="28.79" height="1" fill="#fff"/></svg>