<svg id="Calque_1" data-name="Calque 1" xmlns="http://www.w3.org/2000/svg" viewBox="0 0 87 87"><path d="M82,71.61,77,44.7V15.39H10V44.62l-5,27ZM8.29,68.87l.64-3.44H78.07l.64,3.44Zm3.76-20.23,62.84-.32,1,5.51H11.08Zm2.86-15.42H72.09l.82,4.42H14.09Zm.51-2.74.73-4h54.7l.73,4ZM12.75,45.11v-.24l.83-4.48H73.42L74.27,45v.16h0l.09.47-61.83.32.14-.79ZM10.57,56.57H76.43l1.13,6.11H9.44Zm2.18-38.44H74.27V29.92l-1.14-6.14H13.87l-1.12,6.06ZM43.5,67.5a3.42,3.42,0,1,0-3.41-3.42A3.42,3.42,0,0,0,43.5,67.5Z" fill="#fff"/></svg>