<svg id="Calque_1" data-name="Calque 1" xmlns="http://www.w3.org/2000/svg" viewBox="0 0 87 87"><path d="M26.46,13.5H71.69a1.81,1.81,0,0,1,1.81,1.81V68.08a1.81,1.81,0,0,1-1.81,1.8H38.75a7.85,7.85,0,0,1-3.83,2.42,27.54,27.54,0,0,1-8.46,1.2A27.59,27.59,0,0,1,18,72.3c-2.78-.94-4.5-2.47-4.5-4.37V19.07c0-1.9,1.72-3.43,4.5-4.37a27.59,27.59,0,0,1,8.46-1.2ZM69.89,55.68l-7-14,7-14V17.35L57.78,41.69,69.89,66V55.68Zm0-21.9L66,41.69l3.94,7.91V33.78ZM42.46,66.27l-3-6.11v6.11Zm-3-12.18,6.06,12.18h5.16L39.42,43.74V54.09Zm0-30.87,3-6.11H38.74a3.24,3.24,0,0,1,.68,2v4.15Zm6.06-6.11L39.42,29.29V39.64L50.64,17.11Zm8.18,0L41.42,41.69,53.66,66.27h5.15L46.58,41.69,58.81,17.11Zm8.18,0L49.6,41.69,61.83,66.27H67L54.75,41.69,67,17.11Zm-26,6c-.28.12-.58.23-.89.33a27.24,27.24,0,0,1-8.46,1.2A27.28,27.28,0,0,1,18,23.43c-.31-.1-.61-.21-.89-.33V67.93c0,.18.78.53,2,1a24,24,0,0,0,7.32,1,23.92,23.92,0,0,0,7.32-1c1.25-.43,2-.78,2-1V23.1Zm-18.7-4c0,.18.78.53,2,.95a24,24,0,0,0,7.32,1,23.92,23.92,0,0,0,7.32-1c1.25-.42,2-.77,2-.95s-.78-.53-2-1a23.92,23.92,0,0,0-7.32-1,24,24,0,0,0-7.32,1C17.89,18.54,17.11,18.89,17.11,19.07Z" fill="#fff" fill-rule="evenodd"/></svg>