<svg id="Calque_1" data-name="Calque 1" xmlns="http://www.w3.org/2000/svg" viewBox="0 0 87 87"><path d="M43.5,28A15.52,15.52,0,1,1,28,43.48,15.54,15.54,0,0,1,43.5,28m0-3.79A19.32,19.32,0,1,0,62.81,43.48,19.31,19.31,0,0,0,43.5,24.17Z" fill="#fff"/><path d="M43.5,18.48a2.57,2.57,0,0,1-1.8-.74,2.53,2.53,0,0,1,3.58-3.58,2.3,2.3,0,0,1,.32.38,2.42,2.42,0,0,1,.24.45c0,.15.1.3.14.46A4.23,4.23,0,0,1,46,16a4.07,4.07,0,0,1-.05.49c0,.16-.09.33-.14.48a2.61,2.61,0,0,1-.24.43,2.37,2.37,0,0,1-.32.39A2.5,2.5,0,0,1,43.5,18.48Z" fill="#fff"/><path d="M27.31,23.74A2.49,2.49,0,0,1,25.53,23a2.53,2.53,0,0,1-.75-1.78,2.6,2.6,0,0,1,.75-1.8,2.52,2.52,0,0,1,2.27-.68,3.36,3.36,0,0,1,.48.14,1.78,1.78,0,0,1,.43.24,3,3,0,0,1,.4.3,2.62,2.62,0,0,1,.73,1.8A2.55,2.55,0,0,1,29.11,23a2,2,0,0,1-.4.32,1.78,1.78,0,0,1-.43.24,3.36,3.36,0,0,1-.48.14A2,2,0,0,1,27.31,23.74Z" fill="#fff"/><path d="M17.32,37.5a2.62,2.62,0,0,1-1.8-.73A2.55,2.55,0,0,1,14.79,35a2.07,2.07,0,0,1,.05-.5A1.68,1.68,0,0,1,15,34a3.61,3.61,0,0,1,.22-.44,4.26,4.26,0,0,1,.32-.38,2.56,2.56,0,0,1,2.29-.7,4.26,4.26,0,0,1,.47.15,3.68,3.68,0,0,1,.44.23,2,2,0,0,1,.38.32A2.54,2.54,0,0,1,19.85,35a2.57,2.57,0,0,1-.75,1.79,3,3,0,0,1-.38.31,2.64,2.64,0,0,1-.44.23,4.26,4.26,0,0,1-.47.15A2.7,2.7,0,0,1,17.32,37.5Z" fill="#fff"/><path d="M17.32,54.52a2.83,2.83,0,0,1-.5-.05,2.21,2.21,0,0,1-.48-.15,2.89,2.89,0,0,1-.43-.22,2.47,2.47,0,0,1-.39-.32,2.56,2.56,0,0,1,0-3.58,3.17,3.17,0,0,1,.39-.32,2.18,2.18,0,0,1,.43-.22,1.74,1.74,0,0,1,.48-.14,2.54,2.54,0,0,1,2.28.68,2.51,2.51,0,0,1,0,3.58A2.54,2.54,0,0,1,17.32,54.52Z" fill="#fff"/><path d="M27.31,68.29a2.72,2.72,0,0,1-.49-.05,2.54,2.54,0,0,1-.47-.14,2.7,2.7,0,0,1-.44-.24,1.91,1.91,0,0,1-.38-.31,2.37,2.37,0,0,1-.32-.39,3.55,3.55,0,0,1-.23-.43,3.82,3.82,0,0,1-.15-.48,4,4,0,0,1,0-.49,2.53,2.53,0,0,1,3-2.48,2.69,2.69,0,0,1,.46.14,1.78,1.78,0,0,1,.43.24,2.38,2.38,0,0,1,.4.31,2.59,2.59,0,0,1,.74,1.79,2.72,2.72,0,0,1-.05.49,3.82,3.82,0,0,1-.15.48,2.55,2.55,0,0,1-.23.43,4.08,4.08,0,0,1-.31.39,2.38,2.38,0,0,1-.4.31,1.78,1.78,0,0,1-.43.24,2.69,2.69,0,0,1-.46.14A2.84,2.84,0,0,1,27.31,68.29Z" fill="#fff"/><path d="M43.5,73.55a2.6,2.6,0,0,1-1.8-.75,2.28,2.28,0,0,1-.3-.38,2.11,2.11,0,0,1-.24-.44,2.33,2.33,0,0,1-.14-.47A2,2,0,0,1,41,71a2.6,2.6,0,0,1,.73-1.8,2.65,2.65,0,0,1,3.58,0,3.66,3.66,0,0,1,.32.39,2.61,2.61,0,0,1,.24.43c0,.16.1.32.14.49A2,2,0,0,1,46,71a2,2,0,0,1-.05.49c0,.17-.09.32-.14.47a2.7,2.7,0,0,1-.24.44,2,2,0,0,1-.32.38A2.53,2.53,0,0,1,43.5,73.55Z" fill="#fff"/><path d="M59.68,68.29a2.83,2.83,0,0,1-.5-.05,2.69,2.69,0,0,1-.46-.14,2.42,2.42,0,0,1-.45-.24,1.9,1.9,0,0,1-.38-.32,2.52,2.52,0,0,1,0-3.57,2.24,2.24,0,0,1,.38-.31,2.42,2.42,0,0,1,.45-.24,2.69,2.69,0,0,1,.46-.14,2.53,2.53,0,0,1,2.29,4.26A2.49,2.49,0,0,1,59.68,68.29Z" fill="#fff"/><path d="M69.68,54.52a2.52,2.52,0,0,1-1.78-.74,1.9,1.9,0,0,1-.32-.38,3.75,3.75,0,0,1-.24-.44c-.06-.16-.1-.32-.14-.47a2.84,2.84,0,0,1,0-.51,2.52,2.52,0,0,1,.75-1.78,2.62,2.62,0,0,1,3.58,0A2.55,2.55,0,0,1,72.21,52a2.15,2.15,0,0,1,0,.51A1.79,1.79,0,0,1,72,53a2.11,2.11,0,0,1-.24.44,2.79,2.79,0,0,1-.3.38A2.59,2.59,0,0,1,69.68,54.52Z" fill="#fff"/><path d="M69.68,37.5A2.53,2.53,0,0,1,67.15,35a2.72,2.72,0,0,1,0-.49,3.23,3.23,0,0,1,.14-.47,3.75,3.75,0,0,1,.24-.44,1.66,1.66,0,0,1,.32-.38,2.61,2.61,0,0,1,3.58,0,2.28,2.28,0,0,1,.3.38A2.11,2.11,0,0,1,72,34a1.5,1.5,0,0,1,.14.47,2,2,0,0,1,0,.49,2.56,2.56,0,0,1-.73,1.8A2.62,2.62,0,0,1,69.68,37.5Z" fill="#fff"/><path d="M59.68,23.74A2.53,2.53,0,0,1,57.89,23a2.56,2.56,0,0,1-.74-1.78,2.63,2.63,0,0,1,.05-.49,4.58,4.58,0,0,1,.15-.49,2.55,2.55,0,0,1,.23-.43c.09-.13.2-.26.31-.39a2.65,2.65,0,0,1,3.58,0c.12.13.22.26.32.39a3.55,3.55,0,0,1,.23.43,3,3,0,0,1,.14.49,2.63,2.63,0,0,1,.05.49A2.52,2.52,0,0,1,61.47,23,2.49,2.49,0,0,1,59.68,23.74Z" fill="#fff"/></svg>