<svg id="Calque_1" data-name="Calque 1" xmlns="http://www.w3.org/2000/svg" viewBox="0 0 87 87"><path d="M74.75,76.25H12.25a1.5,1.5,0,0,1-1.5-1.5V12.25a1.5,1.5,0,0,1,1.5-1.5h62.5a1.5,1.5,0,0,1,1.5,1.5v62.5A1.5,1.5,0,0,1,74.75,76.25Zm-61-3h59.5V13.75H13.75Z" fill="#fff"/><path d="M29.3,49.59H26.62l-1.06-2.77H20.69l-1,2.77H17.08l4.74-12.18h2.6Zm-4.53-4.82-1.68-4.52-1.64,4.52Z" fill="#fff"/><path d="M38.39,45.11l2.39.76a5.38,5.38,0,0,1-1.82,3,5.74,5.74,0,0,1-7.23-.69,6.36,6.36,0,0,1-1.56-4.53,6.67,6.67,0,0,1,1.57-4.73,5.39,5.39,0,0,1,4.13-1.68,5.07,5.07,0,0,1,3.63,1.32,4.86,4.86,0,0,1,1.25,2.25l-2.44.58a2.57,2.57,0,0,0-.9-1.5,2.62,2.62,0,0,0-1.67-.55,2.76,2.76,0,0,0-2.19,1,4.75,4.75,0,0,0-.85,3.15,5.16,5.16,0,0,0,.83,3.29,2.73,2.73,0,0,0,2.16,1,2.44,2.44,0,0,0,1.69-.63A3.57,3.57,0,0,0,38.39,45.11Z" fill="#fff"/><path d="M42.81,49.59V37.41h2.46V49.59Z" fill="#fff"/><path d="M47.62,49.59V37.41h9v2.06H50.08v2.7h6.11v2H50.08v3.32h6.8v2.05Z" fill="#fff"/><path d="M59,49.59V37.41h5.18a8.84,8.84,0,0,1,2.84.33,2.77,2.77,0,0,1,1.41,1.17,3.43,3.43,0,0,1,.53,1.91,3.25,3.25,0,0,1-.8,2.27,3.87,3.87,0,0,1-2.41,1.12,5.93,5.93,0,0,1,1.32,1,14.88,14.88,0,0,1,1.4,2l1.48,2.38H67L65.2,46.94a17.74,17.74,0,0,0-1.29-1.79,1.83,1.83,0,0,0-.74-.51,4.14,4.14,0,0,0-1.24-.13h-.5v5.08Zm2.46-7h1.82a9.35,9.35,0,0,0,2.21-.15,1.29,1.29,0,0,0,.69-.51A1.58,1.58,0,0,0,66.4,41a1.44,1.44,0,0,0-.33-1,1.55,1.55,0,0,0-.92-.48c-.2,0-.8,0-1.8,0H61.43Z" fill="#fff"/></svg>