<svg id="Calque_1" data-name="Calque 1" xmlns="http://www.w3.org/2000/svg" viewBox="0 0 87 87"><path d="M46.35,10.55h0a11.86,11.86,0,0,1,8.74,3.85C56,15.46,56.18,18,56,18.84a9.76,9.76,0,0,1-3.77,3.66A16.75,16.75,0,0,0,48,26a9.39,9.39,0,0,0-1.75,3.34,14.11,14.11,0,0,0-2.76-.27,14.38,14.38,0,0,0-4.78.82,14.18,14.18,0,0,1-2.94-11.73,9.42,9.42,0,0,1,6.69-7,12.74,12.74,0,0,1,3.88-.62m0-3a15.62,15.62,0,0,0-4.81.77c-11.11,3.58-11.65,17.18-3.6,25.2a11.37,11.37,0,0,1,11,0,6.91,6.91,0,0,1,1.34-5.57c2.62-3.18,5.88-3.24,8.33-7.73.66-1.21.67-5.54-1.32-7.77a14.79,14.79,0,0,0-11-4.86Z" fill="#fff"/><path d="M46.35,7.52a15.75,15.75,0,0,0-4.82.76,12.53,12.53,0,0,0-8.7,9.17,15.87,15.87,0,0,0,.37,8.34,18.88,18.88,0,0,0,4.72,7.76h0a11.41,11.41,0,0,1,5.54-1.44A11.29,11.29,0,0,1,49,33.51l.06,0v-.07a6.88,6.88,0,0,1,1.34-5.54A14.29,14.29,0,0,1,53.84,25a12.53,12.53,0,0,0,4.84-4.84A7.26,7.26,0,0,0,59,16.67a8,8,0,0,0-1.66-4.28,14.83,14.83,0,0,0-6.8-4.27,15,15,0,0,0-4.21-.6Zm-8.4,26c-4.36-4.35-6.35-10.63-5.05-16a12.43,12.43,0,0,1,8.65-9.12,15.48,15.48,0,0,1,4.79-.77,14.93,14.93,0,0,1,11,4.85A7.93,7.93,0,0,1,59,16.68a7,7,0,0,1-.33,3.49A12.51,12.51,0,0,1,53.81,25a14.28,14.28,0,0,0-3.51,2.91,6.89,6.89,0,0,0-1.36,5.53,11.41,11.41,0,0,0-11,.06Z" fill="#fff"/><path d="M17.84,31a4.9,4.9,0,0,1,1,.09,9.73,9.73,0,0,1,3.65,3.77A16.75,16.75,0,0,0,26,39a9.38,9.38,0,0,0,3.34,1.75,14.11,14.11,0,0,0-.27,2.76,14.38,14.38,0,0,0,.82,4.78,14.81,14.81,0,0,1-9,3.25,9.65,9.65,0,0,1-9.69-7A12,12,0,0,1,14.4,31.91a5.71,5.71,0,0,1,3.44-1h0m0-3a8.5,8.5,0,0,0-5.43,1.72A14.9,14.9,0,0,0,8.32,45.46a12.64,12.64,0,0,0,12.54,9.07,18.13,18.13,0,0,0,12.66-5.47,11.37,11.37,0,0,1,0-11,8.37,8.37,0,0,1-1.31.11,6.68,6.68,0,0,1-4.26-1.45c-3.18-2.62-3.24-5.88-7.73-8.33a5.49,5.49,0,0,0-2.34-.4Z" fill="#fff"/><path d="M17.83,27.92a11.41,11.41,0,0,0-1.16.06,8,8,0,0,0-4.28,1.66,14.83,14.83,0,0,0-4.27,6.8,15.29,15.29,0,0,0,.16,9,12.53,12.53,0,0,0,9.17,8.7,14.8,14.8,0,0,0,3.41.39,16.7,16.7,0,0,0,4.93-.76,18.88,18.88,0,0,0,7.76-4.72v0a11.41,11.41,0,0,1-1.44-5.54A11.29,11.29,0,0,1,33.51,38l0-.06h-.07a8.25,8.25,0,0,1-1.3.11,6.66,6.66,0,0,1-4.24-1.45A14.29,14.29,0,0,1,25,33.16a12.59,12.59,0,0,0-4.84-4.84,5.53,5.53,0,0,0-2.37-.4Zm3,26.57a14,14,0,0,1-3.36-.39,12.43,12.43,0,0,1-9.12-8.66,14.93,14.93,0,0,1,4.08-15.75,7.93,7.93,0,0,1,4.25-1.64A11.37,11.37,0,0,1,17.83,28a5.59,5.59,0,0,1,2.34.39A12.58,12.58,0,0,1,25,33.19a14.28,14.28,0,0,0,2.91,3.51,6.66,6.66,0,0,0,4.28,1.46,7.61,7.61,0,0,0,1.25-.1,11.41,11.41,0,0,0,.06,11,18.24,18.24,0,0,1-12.65,5.44Z" fill="#fff"/><path d="M48.28,57.11a14.18,14.18,0,0,1,2.94,11.73,9.42,9.42,0,0,1-6.69,7,12.74,12.74,0,0,1-3.88.62,11.83,11.83,0,0,1-8.74-3.86c-.94-1-1.09-3.62-.87-4.43a9.76,9.76,0,0,1,3.77-3.66A16.75,16.75,0,0,0,39,61a9.39,9.39,0,0,0,1.75-3.34,14.11,14.11,0,0,0,2.76.27,14.38,14.38,0,0,0,4.78-.82m.78-3.63a11.37,11.37,0,0,1-11,0,6.91,6.91,0,0,1-1.34,5.57c-2.62,3.18-5.88,3.24-8.33,7.73-.66,1.21-.67,5.54,1.32,7.77a14.79,14.79,0,0,0,11,4.86,15.62,15.62,0,0,0,4.81-.77c11.11-3.58,11.65-17.18,3.6-25.2Z" fill="#fff"/><path d="M49.06,53.44h0a11.41,11.41,0,0,1-5.54,1.44A11.29,11.29,0,0,1,38,53.49l-.06,0v.07a6.88,6.88,0,0,1-1.34,5.54A14.29,14.29,0,0,1,33.16,62a12.53,12.53,0,0,0-4.84,4.84A7.26,7.26,0,0,0,28,70.33a8,8,0,0,0,1.66,4.28,14.83,14.83,0,0,0,6.8,4.27,15,15,0,0,0,4.21.6,15.75,15.75,0,0,0,4.82-.76,12.53,12.53,0,0,0,8.7-9.17,15.82,15.82,0,0,0-.37-8.33,18.85,18.85,0,0,0-4.72-7.77ZM43.5,55a11.45,11.45,0,0,0,5.55-1.44c4.36,4.35,6.35,10.63,5.05,16a12.43,12.43,0,0,1-8.66,9.12,15.37,15.37,0,0,1-4.78.77,14.93,14.93,0,0,1-11-4.85,7.93,7.93,0,0,1-1.64-4.25,7,7,0,0,1,.33-3.49A12.58,12.58,0,0,1,33.19,62a14.28,14.28,0,0,0,3.51-2.91,6.89,6.89,0,0,0,1.36-5.53A11.48,11.48,0,0,0,43.5,55Z" fill="#fff"/><path d="M66.14,35.47a9.65,9.65,0,0,1,9.69,7A12,12,0,0,1,72.6,55.09a5.71,5.71,0,0,1-3.44,1,4.9,4.9,0,0,1-1-.09,9.8,9.8,0,0,1-3.65-3.77A16.75,16.75,0,0,0,61,48a9.38,9.38,0,0,0-3.34-1.75,14.11,14.11,0,0,0,.27-2.76,14.38,14.38,0,0,0-.82-4.78,14.81,14.81,0,0,1,9-3.25m0-3a18.13,18.13,0,0,0-12.66,5.47,11.37,11.37,0,0,1,0,11,8.37,8.37,0,0,1,1.31-.11,6.68,6.68,0,0,1,4.26,1.45c3.18,2.62,3.24,5.88,7.73,8.33a5.49,5.49,0,0,0,2.34.4,8.5,8.5,0,0,0,5.43-1.72,14.9,14.9,0,0,0,4.09-15.79,12.64,12.64,0,0,0-12.54-9.07Z" fill="#fff"/><path d="M66.14,32.44a16.7,16.7,0,0,0-4.93.76,18.88,18.88,0,0,0-7.76,4.72v0a11.41,11.41,0,0,1,1.44,5.54A11.29,11.29,0,0,1,53.49,49l0,.06h.07a8.25,8.25,0,0,1,1.3-.11,6.6,6.6,0,0,1,4.24,1.45A14.29,14.29,0,0,1,62,53.84a12.53,12.53,0,0,0,4.84,4.84,5.53,5.53,0,0,0,2.37.4A11.41,11.41,0,0,0,70.33,59a8,8,0,0,0,4.28-1.66,14.83,14.83,0,0,0,4.27-6.8,15.29,15.29,0,0,0-.16-9,12.53,12.53,0,0,0-9.17-8.7,14.8,14.8,0,0,0-3.41-.39ZM53.58,48.94a11.41,11.41,0,0,0-.06-11,18.22,18.22,0,0,1,12.65-5.44,14.49,14.49,0,0,1,3.36.38,12.46,12.46,0,0,1,9.12,8.67,14.93,14.93,0,0,1-4.08,15.75A7.93,7.93,0,0,1,70.32,59a11.43,11.43,0,0,1-1.15.07,5.56,5.56,0,0,1-2.34-.4A12.58,12.58,0,0,1,62,53.81a14.28,14.28,0,0,0-2.91-3.51,6.66,6.66,0,0,0-4.28-1.46,7.61,7.61,0,0,0-1.25.1Z" fill="#fff"/><path d="M43.5,35.15a8.35,8.35,0,1,0,8.35,8.35,8.36,8.36,0,0,0-8.35-8.35Zm0,12.42a4.07,4.07,0,1,1,4.07-4.07,4.08,4.08,0,0,1-4.07,4.07Z" fill="#fff"/></svg>