<svg id="Calque_1" data-name="Calque 1" xmlns="http://www.w3.org/2000/svg" viewBox="0 0 87 87"><path d="M79.9,38.38l5.71-8.31a2.26,2.26,0,0,0-3.72-2.55l-3.43,5A36.75,36.75,0,0,0,7.35,36.36a2.25,2.25,0,1,0,4.42.87,32.25,32.25,0,0,1,62.42-3.31L68.7,32.65a2.25,2.25,0,1,0-1,4.39l9.83,2.27.08,0H78a2.19,2.19,0,0,0,.77-.13h0l.09,0h0l.09,0,0,0,.05,0,.1-.06,0,0,.06,0,0,0,.07,0,.06-.05,0,0,.06,0,0,0,.08-.09h0A1.3,1.3,0,0,0,79.9,38.38Z" fill="#fff"/><path d="M77.67,48A2.26,2.26,0,0,0,75,49.77,32.24,32.24,0,0,1,12.59,53l5.71,1.32a2.21,2.21,0,0,0,.51,0,2.25,2.25,0,0,0,.5-4.44L9.52,47.7h0l-.11,0h-.6a2,2,0,0,0-.42.07h0l-.09,0h0l-.06,0-.06,0,0,0-.08,0H8l-.09,0h0a2.4,2.4,0,0,0-.26.18h0l-.07.06h0l0,.06,0,0,0,0,0,0,0,0-.06,0v0l-.06.08h0l-.06.08h0l0,0v0L1.39,56.93A2.25,2.25,0,0,0,2,60.06a2.22,2.22,0,0,0,1.27.4,2.24,2.24,0,0,0,1.86-1L8.4,54.69a36.74,36.74,0,0,0,71-4A2.25,2.25,0,0,0,77.67,48Z" fill="#fff"/><path d="M58.66,59.49H28.34a.83.83,0,0,1-.83-.83V28.34a.83.83,0,0,1,.83-.83H58.66a.83.83,0,0,1,.83.83V58.66A.83.83,0,0,1,58.66,59.49ZM29.17,57.83H57.83V29.17H29.17Z" fill="#fff"/><path d="M52.15,53H34.85a.83.83,0,0,1-.83-.82V43.56L32.75,35a.82.82,0,0,1,.82-.95H53.43a.82.82,0,0,1,.82.95L53,43.56v8.59A.83.83,0,0,1,52.15,53ZM35.68,51.32H51.32V43.5a.49.49,0,0,1,0-.12l1.14-7.7H34.53l1.14,7.7a.49.49,0,0,1,0,.12Z" fill="#fff"/><path d="M52.15,44.33H34.85a.83.83,0,1,1,0-1.66h17.3a.83.83,0,1,1,0,1.66Z" fill="#fff"/></svg>