<svg id="Calque_1" data-name="Calque 1" xmlns="http://www.w3.org/2000/svg" viewBox="0 0 87 87"><path d="M83.26,35.83a1.51,1.51,0,0,0-1.46-1.14h-8l8.65-4.48a1.5,1.5,0,0,0-.69-2.84H33.43a1.53,1.53,0,0,0-.69.17L4.51,42.17A1.5,1.5,0,0,0,5.2,45h8L4.51,49.48a1.5,1.5,0,0,0,.69,2.83h8L4.51,56.79a1.5,1.5,0,0,0,.69,2.84H53.57a1.53,1.53,0,0,0,.69-.17L82.49,44.83A1.5,1.5,0,0,0,81.8,42h-8l8.65-4.48A1.52,1.52,0,0,0,83.26,35.83ZM11.36,42,33.8,30.37H75.64l-8.32,4.32-5.79,3L53.2,42H11.36Zm64.28,3L53.2,56.63H11.36l8.32-4.32H53.57a1.52,1.52,0,0,0,.69-.16L68.05,45Zm-8.32-3-5.79,3L53.2,49.31H11.36L19.68,45H53.57a1.53,1.53,0,0,0,.69-.17L59.72,42l8.33-4.31h7.59Z" fill="#fff"/></svg>