<svg id="Calque_1" data-name="Calque 1" xmlns="http://www.w3.org/2000/svg" viewBox="0 0 68 83"><path d="M34,40.64A14.49,14.49,0,1,1,48.48,26.16,14.5,14.5,0,0,1,34,40.64ZM34,14a12.2,12.2,0,1,0,12.19,12.2A12.21,12.21,0,0,0,34,14Z" fill="#82cef3"/><path d="M34,40.27A14.11,14.11,0,1,1,48.11,26.16,14.13,14.13,0,0,1,34,40.27Zm0-26.69A12.58,12.58,0,1,0,46.57,26.16,12.6,12.6,0,0,0,34,13.58Z" fill="#82cef3"/><path d="M51.34,82a1.15,1.15,0,0,1-.84-.37l-9.16-10-9.16,10a1.19,1.19,0,0,1-.85.37,1.15,1.15,0,0,1-.41-.08,1.13,1.13,0,0,1-.73-1.07V64L27.88,61.6,18.82,71a1.17,1.17,0,0,1-.83.36,1.07,1.07,0,0,1-.43-.09,1.13,1.13,0,0,1-.71-1.06V44.74l0-.25a24.91,24.91,0,0,1-8-18.33,25.16,25.16,0,1,1,43.65,17l-.06.06.06.28V80.85a1.14,1.14,0,0,1-.73,1.07A1.25,1.25,0,0,1,51.34,82Zm-10-13.24a1.11,1.11,0,0,1,.84.36l8,8.78V45.39l-.31.25A25.19,25.19,0,0,1,34,51.32c-.3,0-.6,0-.89,0l-.63,0V77.9l8-8.78A1.15,1.15,0,0,1,41.34,68.76Zm-22.2-1.4,7.93-8.43c.24-.24.55-.57.82-.57s.6.33.82.57l1.48,1.62V51L30,51a25.22,25.22,0,0,1-10.6-4.34l-.29-.21ZM34,3.29A22.87,22.87,0,1,0,56.87,26.16,22.9,22.9,0,0,0,34,3.29Z" fill="#0a2d81"/><path d="M51.34,81.62a.75.75,0,0,1-.56-.25L41.34,71,31.9,81.37a.77.77,0,0,1-.57.25.87.87,0,0,1-.28-.05.78.78,0,0,1-.49-.72v-17l-2.68-2.82-9.34,9.66A.77.77,0,0,1,18,71a.67.67,0,0,1-.28-.06.75.75,0,0,1-.49-.71V44.84l0-.17-.11-.38A24.79,24.79,0,1,1,52.22,42.9l-.19.2,0,.27,0,.18v37.3a.77.77,0,0,1-.49.72A.87.87,0,0,1,51.34,81.62Zm-10-12.48a.78.78,0,0,1,.56.23l8.68,9.51V44.59l-.93.76A24.83,24.83,0,0,1,34,50.94c-.27,0-.55,0-.82,0l-1.08-.06v28l8.67-9.51A.8.8,0,0,1,41.34,69.14Zm-22.58-.82,8.59-9.13q.42-.44.54-.45t.54.45l2.13,2.33V50.67l-.47-.07a25,25,0,0,1-10.44-4.27l-.89-.65ZM34,2.91A23.25,23.25,0,1,0,57.25,26.16,23.28,23.28,0,0,0,34,2.91Z" fill="#0a2d81"/></svg>