<svg id="Calque_1" data-name="Calque 1" xmlns="http://www.w3.org/2000/svg" viewBox="0 0 87 87"><path d="M80.08,34,62.64,47.65H6.92L24.36,34H80.08M83,33H24L4,48.65H63L83,33Z" fill="#fff"/><polygon points="4.01 48.61 4.01 54.02 63.47 54.02 82.99 37.81 82.99 32.98 62.99 48.61 4.01 48.61" fill="#fff"/><path d="M26.52,46.45c-7.13,0-13.21-.42-16.26-1.6A.51.51,0,0,1,10,44.2a.5.5,0,0,1,.64-.28c10,3.86,55.35-.82,58.24-1.12l7.58-5.91C61.33,32,18.08,39.16,17.66,39.24a.49.49,0,0,1-.58-.39.49.49,0,0,1,.39-.59c.44-.08,45.69-7.53,60.18-2a.47.47,0,0,1,.31.39.49.49,0,0,1-.18.47l-8.42,6.56a.55.55,0,0,1-.25.1C67.71,43.93,44,46.45,26.52,46.45Z" fill="#fff"/><path d="M32.11,43.77c-7.41,0-13.13-.52-14.08-2a.49.49,0,0,1,0-.47.49.49,0,0,1,.36-.29c.31-.07,32-6.55,56.34-2.54a.49.49,0,0,1,.41.37.5.5,0,0,1-.18.52l-2.43,1.89a.52.52,0,0,1-.26.1C68.73,41.69,47,43.77,32.11,43.77Zm-12.46-2C25,44,53.73,42.16,72,40.36l1.41-1.09C51.94,36.05,25.35,40.68,19.65,41.76Z" fill="#fff"/><path d="M50.09,41.8A127.51,127.51,0,0,1,37.27,41a.5.5,0,0,1-.44-.5.49.49,0,0,1,.45-.49c20.67-2,21.11-.72,21.25-.3.08.25.06.63-.54,1h0C56.62,41.53,53.5,41.8,50.09,41.8Zm-7.25-1.3c5.29.38,12,.57,14.32-.5C55.31,39.71,49.35,40,42.84,40.5Zm14.89-.24h0Z" fill="#fff"/></svg>