<svg id="Calque_1" data-name="Calque 1" xmlns="http://www.w3.org/2000/svg" viewBox="0 0 87 87"><path d="M70.54,39.18a.9.9,0,0,0-.73-.61L57.87,36.83,52.52,26a.91.91,0,0,0-.81-.51.9.9,0,0,0-.81.51l-4,8.08,7,1a4.41,4.41,0,0,1,2.44,7.52L49,49.76l1.17,6.82,1.53-.8,10.68,5.61a.9.9,0,0,0,1-.06.91.91,0,0,0,.36-.89l-2-11.9,8.64-8.43A.89.89,0,0,0,70.54,39.18Z" fill="#fff"/><path d="M54.12,39.18a.9.9,0,0,0-.73-.61L41.45,36.83,36.1,26a.9.9,0,0,0-.81-.51.91.91,0,0,0-.81.51L29.13,36.83,17.19,38.57a.9.9,0,0,0-.73.61.89.89,0,0,0,.23.93l8.64,8.43-2,11.9a.91.91,0,0,0,.36.89.9.9,0,0,0,1,.06l10.68-5.61L46,61.39a.88.88,0,0,0,.42.11.93.93,0,0,0,.53-.17.91.91,0,0,0,.36-.89l-2-11.9,8.65-8.43A.91.91,0,0,0,54.12,39.18Z" fill="#fff"/></svg>