<svg id="Calque_1" data-name="Calque 1" xmlns="http://www.w3.org/2000/svg" viewBox="0 0 87 87"><path d="M43.5,76.39A32.89,32.89,0,1,1,76.39,43.5,32.92,32.92,0,0,1,43.5,76.39Zm0-62.78A29.89,29.89,0,1,0,73.39,43.5,29.93,29.93,0,0,0,43.5,13.61Z" fill="#fff"/><path d="M43.5,30.45A1.5,1.5,0,0,1,42,29V18.58a1.5,1.5,0,0,1,3,0V29A1.5,1.5,0,0,1,43.5,30.45Z" fill="#fff"/><path d="M36.23,32.4a1.49,1.49,0,0,1-1.3-.75l-5.19-9a1.5,1.5,0,0,1,2.6-1.5l5.18,9A1.5,1.5,0,0,1,37,32.2,1.48,1.48,0,0,1,36.23,32.4Z" fill="#fff"/><path d="M30.9,37.73a1.47,1.47,0,0,1-.75-.21l-9-5.18a1.5,1.5,0,0,1,1.5-2.6l9,5.19a1.5,1.5,0,0,1-.75,2.8Z" fill="#fff"/><path d="M29,45H18.58a1.5,1.5,0,0,1,0-3H29a1.5,1.5,0,1,1,0,3Z" fill="#fff"/><path d="M21.92,57.46a1.5,1.5,0,0,1-.75-2.8l9-5.18a1.5,1.5,0,1,1,1.5,2.59l-9,5.19A1.48,1.48,0,0,1,21.92,57.46Z" fill="#fff"/><path d="M31,66.58a1.43,1.43,0,0,1-.75-.2,1.49,1.49,0,0,1-.55-2l5.19-9a1.5,1.5,0,1,1,2.59,1.5l-5.18,9A1.48,1.48,0,0,1,31,66.58Z" fill="#fff"/><path d="M43.5,69.92a1.5,1.5,0,0,1-1.5-1.5V58.05a1.5,1.5,0,0,1,3,0V68.42A1.5,1.5,0,0,1,43.5,69.92Z" fill="#fff"/><path d="M56,66.58a1.49,1.49,0,0,1-1.3-.75l-5.18-9a1.5,1.5,0,1,1,2.59-1.5l5.19,9a1.5,1.5,0,0,1-.55,2A1.43,1.43,0,0,1,56,66.58Z" fill="#fff"/><path d="M65.08,57.46a1.48,1.48,0,0,1-.75-.2l-9-5.19a1.5,1.5,0,1,1,1.5-2.59l9,5.18a1.5,1.5,0,0,1-.75,2.8Z" fill="#fff"/><path d="M68.42,45H58.05a1.5,1.5,0,0,1,0-3H68.42a1.5,1.5,0,0,1,0,3Z" fill="#fff"/><path d="M56.1,37.73a1.5,1.5,0,0,1-.75-2.8l9-5.19a1.5,1.5,0,1,1,1.5,2.6l-9,5.18A1.47,1.47,0,0,1,56.1,37.73Z" fill="#fff"/><path d="M50.77,32.4a1.48,1.48,0,0,1-.75-.2,1.5,1.5,0,0,1-.54-2.05l5.18-9a1.5,1.5,0,1,1,2.6,1.5l-5.19,9A1.49,1.49,0,0,1,50.77,32.4Z" fill="#fff"/></svg>