<svg id="Calque_1" data-name="Calque 1" xmlns="http://www.w3.org/2000/svg" viewBox="0 0 87 87"><path d="M43.5,84.28c-11.17,0-18.14-2.85-20.72-8.45-5.13-11.19,9.71-28.94,10.87-30.3a22.69,22.69,0,0,0,4-9.36,4,4,0,0,1,4-3.38h3.8a4,4,0,0,1,4,3.38,22.69,22.69,0,0,0,4,9.36c1.16,1.36,16,19.11,10.87,30.3C61.64,81.43,54.67,84.28,43.5,84.28ZM41.6,35.79a1,1,0,0,0-1,.85,25.58,25.58,0,0,1-4.54,10.67l-.09.12a70.92,70.92,0,0,0-7,10.18c-2.82,5-5.7,12-3.44,17,2,4.44,8.09,6.7,18,6.7s16-2.26,18-6.7c2.26-4.92-.62-11.94-3.44-17a70.92,70.92,0,0,0-7-10.18l-.09-.12A25.58,25.58,0,0,1,46.4,36.64a1,1,0,0,0-1-.85Z" fill="#fff"/><rect x="34.7" y="18.7" width="29.25" height="3" transform="translate(16.64 62.3) rotate(-74.44)" fill="#fff"/><rect x="37.12" y="12.32" width="3" height="22.37" transform="translate(-4.86 11.13) rotate(-15.44)" fill="#fff"/><rect x="41.95" y="2.72" width="3" height="31.56" fill="#fff"/></svg>