<svg id="Calque_1" data-name="Calque 1" xmlns="http://www.w3.org/2000/svg" viewBox="0 0 87 87"><path d="M43.5,4A39.5,39.5,0,1,1,4,43.5,39.55,39.55,0,0,1,43.5,4m0-3A42.5,42.5,0,1,0,86,43.5,42.5,42.5,0,0,0,43.5,1Z" fill="#fff"/><path d="M46.12,29.5h0m-3,1.74V55.76L30.59,48.5a4,4,0,0,0-2-.53h-4V39h4a4,4,0,0,0,2-.53l12.52-7.26m2-4.47a1,1,0,0,0-.5.13l-15.52,9a1,1,0,0,1-.5.13h-6a1,1,0,0,0-1,1V50a1,1,0,0,0,1,1h6a1,1,0,0,1,.5.13l15.52,9a1,1,0,0,0,1.5-.87V27.77a1,1,0,0,0-1-1Z" fill="#fff"/><path d="M51.12,56a1.5,1.5,0,0,1-.61-2.88,10.52,10.52,0,0,0-.16-19.31,1.5,1.5,0,1,1,1.17-2.77,13.53,13.53,0,0,1,.2,24.83A1.62,1.62,0,0,1,51.12,56Z" fill="#fff"/><path d="M51.11,63.52a1.5,1.5,0,0,1-.38-3,17.65,17.65,0,0,0,0-34.14,1.5,1.5,0,0,1,.76-2.9,20.64,20.64,0,0,1,0,39.94A1.58,1.58,0,0,1,51.11,63.52Z" fill="#fff"/></svg>