<svg id="Calque_1" data-name="Calque 1" xmlns="http://www.w3.org/2000/svg" viewBox="0 0 87 87"><path d="M80.83,67H6.17a1.5,1.5,0,0,1,0-3H80.83a1.5,1.5,0,0,1,0,3Z" fill="#fff"/><path d="M42.5,34.5a1,1,0,0,1-.45-.11,1,1,0,0,1-.55-.89c0-5.58.52-13,5-13a3.83,3.83,0,0,1,4,4c0,4.27-6.65,9.25-7.41,9.81A1,1,0,0,1,42.5,34.5Zm4-12c-.83,0-2.69.92-3,8.89,2.14-1.84,5-4.76,5-6.89A1.85,1.85,0,0,0,46.5,22.5Z" fill="#fff"/><path d="M42.5,34.5a1,1,0,0,1-.8-.4c-.13-.18-3.2-4.36-3.2-8.6,0-3.67,2.39-5,4-5a3.15,3.15,0,0,1,2.68,2,1,1,0,1,1-1.84.8c-.07-.16-.43-.77-.84-.77-.69,0-2,.63-2,3,0,2.88,1.81,5.91,2.52,7,5.91-.17,8.48-3.35,8.48-5,0-.55-.19-.7-.25-.75a2.42,2.42,0,0,0-1.69-.12,1,1,0,0,1-.5-1.94,4.32,4.32,0,0,1,3.41.48,2.77,2.77,0,0,1,1,2.33C53.5,30.43,49.68,34.5,42.5,34.5Z" fill="#fff"/><path d="M43.5,66.5a1,1,0,0,1-1-.73,76.42,76.42,0,0,1-3-20.27c0-8,2-12.26,2.1-12.44a1,1,0,0,1,1.8.87h0S41.5,38,41.5,45.5a74.3,74.3,0,0,0,3,19.73,1,1,0,0,1-.69,1.23A.84.84,0,0,1,43.5,66.5Z" fill="#fff"/><path d="M43.5,66.5a.78.78,0,0,1-.26,0,1,1,0,0,1-.7-1.22,29.51,29.51,0,0,0,1-7.75,20.44,20.44,0,0,0-.85-6.58,1,1,0,0,1,1.87-.7,22,22,0,0,1,1,7.3,31,31,0,0,1-1,8.25A1,1,0,0,1,43.5,66.5Z" fill="#fff"/><path d="M44.5,61.5A1,1,0,0,1,44,59.65c2-1.23,2.54-2.14,2.52-6.15a1,1,0,0,1,1-1h0a1,1,0,0,1,1,1c0,4.2-.5,6-3.47,7.85A1,1,0,0,1,44.5,61.5Z" fill="#fff"/><path d="M54.5,45.5h0a1,1,0,0,1-1-1,12.3,12.3,0,0,1,.37-2.27c.82-3,2.43-3.68,3.63-3.68a2.93,2.93,0,0,1,3,3c0,1.41-1.55,3-3.61,3.63a1,1,0,1,1-.62-1.9A3.3,3.3,0,0,0,58.5,41.5a1,1,0,0,0-1-1c-.91,0-1.43,1.2-1.69,2.2a10,10,0,0,0-.31,1.85A1,1,0,0,1,54.5,45.5Z" fill="#fff"/><path d="M54.5,45.5a1,1,0,0,1-.44-.1,11.1,11.1,0,0,1-2-1c-2.77-1.77-2.68-3.62-2.37-4.57a2.95,2.95,0,0,1,3.78-1.92c1.34.44,2.35,2.4,2.34,4.57a1,1,0,0,1-1,1h0a1,1,0,0,1-1-1,3.29,3.29,0,0,0-1-2.66,1,1,0,0,0-.78,0,1,1,0,0,0-.48.6c-.28.87.69,1.72,1.56,2.28a9.22,9.22,0,0,0,1.61.85h0a1,1,0,0,1,.42.25,1,1,0,0,1,0,1.42A1,1,0,0,1,54.5,45.5Z" fill="#fff"/><path d="M50.34,48.18a3.07,3.07,0,0,1-1.8-.59,3,3,0,0,1-1.21-1.94,3,3,0,0,1,.55-2.25c.83-1.14,3-1.49,5.07-.82l.15.06a1,1,0,0,1-.82,1.82,3.27,3.27,0,0,0-2.78.12,1,1,0,0,0-.2.75,1,1,0,0,0,.42.64c.74.54,1.86-.13,2.67-.79a11.89,11.89,0,0,0,1.16-1.11,1,1,0,0,1,.91-.59,1.15,1.15,0,0,1,.75.31,1,1,0,0,1,.07,1.34,12.08,12.08,0,0,1-1.63,1.6A5.38,5.38,0,0,1,50.34,48.18Z" fill="#fff"/><path d="M53.81,51.72a3,3,0,0,1-2.4-1.26c-.84-1.16-.49-3.35.81-5.1a1,1,0,1,1,1.6,1.2A3.25,3.25,0,0,0,53,49.28a.94.94,0,0,0,1.39.22c.75-.54.45-1.82.07-2.81A10.53,10.53,0,0,0,53.66,45l.8-.52-.67-.72a1.06,1.06,0,0,1,.81-.29,1,1,0,0,1,.74.45,11.7,11.7,0,0,1,1,2c1.22,3.12,0,4.57-.75,5.15A3.08,3.08,0,0,1,53.81,51.72Zm1.4-6.51h0ZM53.8,43.79l.66.73Z" fill="#fff"/><path d="M58.53,49.38A5.31,5.31,0,0,1,54.64,47a1.28,1.28,0,0,1-.15-.25,1,1,0,0,1,.22-1.1,1.16,1.16,0,0,1,.36-.23h0a1,1,0,0,1-1.25-.19,1.09,1.09,0,0,1-.28-.71,1,1,0,0,1,.74-1,11.32,11.32,0,0,1,2.29-.36c3.31-.15,4.3,1.39,4.6,2.32a2.93,2.93,0,0,1-1.92,3.78A2.15,2.15,0,0,1,58.53,49.38Zm-2.24-3.54a3.25,3.25,0,0,0,2.31,1.54,1,1,0,0,0,.63-1.26c-.28-.87-1.57-1-2.6-.94a9.32,9.32,0,0,0-1.25.15,1,1,0,0,1,.75.29A1.12,1.12,0,0,1,56.29,45.84Z" fill="#fff"/><path d="M58.54,66.5a1,1,0,0,1-1-1c0-11.21-2-16.6-2-16.65a1,1,0,1,1,1.88-.7c.08.23,2.1,5.72,2.1,17.35A1,1,0,0,1,58.54,66.5Z" fill="#fff"/><path d="M66.59,37.5a2.73,2.73,0,0,1-.41,0,2.84,2.84,0,0,1-1.88-1.18,3.79,3.79,0,0,1-.5-1,3,3,0,0,1-2.12-.6,2.85,2.85,0,0,1-.63-4,3.63,3.63,0,0,1,.77-.79,3,3,0,0,1-.11-2.25A2.83,2.83,0,0,1,63.13,26a2.76,2.76,0,0,1,2.17-.14,3.32,3.32,0,0,1,.94.48,2.93,2.93,0,0,1,2.06-.79,2.8,2.8,0,0,1,2.84,2.88,3.6,3.6,0,0,1-.16,1.1,3,3,0,0,1,1.37,1.76,2.83,2.83,0,0,1-1.81,3.63,3.8,3.8,0,0,1-1.06.18,3.05,3.05,0,0,1-1.21,1.88A2.84,2.84,0,0,1,66.59,37.5Zm-1.87-4.72a1,1,0,0,1,.51.14,1,1,0,0,1,.44,1.17,1.19,1.19,0,0,0,.25,1,.85.85,0,0,0,.56.37.77.77,0,0,0,.6-.17.92.92,0,0,0,.36-1.14,1,1,0,0,1,1.48-1.27,1.12,1.12,0,0,0,1,.06.85.85,0,0,0,.54-1.12c-.06-.19-.31-.79-.91-.69h-.16a1,1,0,0,1-.59-1.82,1.29,1.29,0,0,0,.35-1,.82.82,0,0,0-.84-.88.84.84,0,0,0-.9.68,1,1,0,0,1-2,.18,1.26,1.26,0,0,0-.8-.66.78.78,0,0,0-.62,0,.88.88,0,0,0-.42.53c0,.14-.23.83.34,1.13a1,1,0,0,1-.42,1.9,1.16,1.16,0,0,0-.84.57.87.87,0,0,0,.18,1.25.81.81,0,0,0,1.11,0A1,1,0,0,1,64.72,32.78Z" fill="#fff"/><circle cx="66.5" cy="31.5" r="1" fill="#fff"/><path d="M71.5,66.5a1,1,0,0,1-1-.73,29.94,29.94,0,0,1-1-7.27,17.64,17.64,0,0,1,.71-4.26A36,36,0,0,0,71.5,44.5c0-6.26-3.47-9.1-3.62-9.21a1,1,0,0,1-.16-1.41,1,1,0,0,1,1.4-.17c.17.14,4.38,3.51,4.38,10.79a37.86,37.86,0,0,1-1.35,10.22,16.28,16.28,0,0,0-.65,3.78,28.61,28.61,0,0,0,1,6.73,1,1,0,0,1-.69,1.23A.84.84,0,0,1,71.5,66.5Z" fill="#fff"/><path d="M71,64.37a1,1,0,0,1-1-1c0-1.33.73-2.46,1.65-3.9a21.31,21.31,0,0,0,3.84-13,1,1,0,0,1,2,0,23.27,23.27,0,0,1-4.16,14A6.6,6.6,0,0,0,72,63.37,1,1,0,0,1,71,64.37Z" fill="#fff"/><path d="M71.18,55.5a1,1,0,0,1-.53-.15c-3.24-2-3.9-8.29-3.13-12.05a1,1,0,0,1,2,.4c-.72,3.51.1,8.63,2.23,9.95A1,1,0,0,1,72,55,1,1,0,0,1,71.18,55.5Z" fill="#fff"/><path d="M58.5,64.5a.94.94,0,0,1-.58-.19,1,1,0,0,1-.42-.81c0-3.44,3.69-10.65,4.11-11.46a1,1,0,0,1,.93-.54,1,1,0,0,1,.88.61A15.47,15.47,0,0,1,64.5,57.5c0,3.14-2.12,5.74-5.68,7A1.13,1.13,0,0,1,58.5,64.5Zm3.77-9.23a42.16,42.16,0,0,0-2.52,6.58A5,5,0,0,0,62.5,57.5,12.2,12.2,0,0,0,62.27,55.27Z" fill="#fff"/><path d="M58.5,64.5c-3.43,0-7-1.87-7-5,0-1.45.62-3.41,1.54-3.89a1,1,0,0,1,1.24.26s2.86,3.52,5,6A1,1,0,0,1,59.37,63a1.06,1.06,0,0,1,.13.5A1,1,0,0,1,58.5,64.5Zm-4.83-6.21a4.65,4.65,0,0,0-.17,1.21c0,1.59,1.81,2.52,3.56,2.86C55.85,60.93,54.53,59.34,53.67,58.29Zm.43-1Z" fill="#fff"/><path d="M16.5,36.5c-2,0-3-1.68-3-5,0-2.9,2.05-6.37,2.14-6.51a1,1,0,0,1,1.72,0c.09.14,2.14,3.61,2.14,6.51C19.5,34.82,18.49,36.5,16.5,36.5Zm0-8.79a10.15,10.15,0,0,0-1,3.79c0,2,.34,3,1,3s1-1,1-3A10.15,10.15,0,0,0,16.5,27.71Z" fill="#fff"/><path d="M18.5,36.5a2.27,2.27,0,0,1-1.77-.65,1,1,0,0,1,1.42-1.4,1,1,0,0,0,.35,0c.68,0,2-1.41,2-4A12,12,0,0,0,20,27l-2,1.3A1,1,0,1,1,17,26.67l3-2a1,1,0,0,1,.8-.14,1,1,0,0,1,.64.51A12.66,12.66,0,0,1,22.5,30.5C22.5,34.21,20.42,36.5,18.5,36.5Zm-.27-2Zm0,0Zm0,0Zm0,0Zm0,0Z" fill="#fff"/><path d="M14.5,36.5c-1.92,0-4-2.29-4-6A12.66,12.66,0,0,1,11.61,25a1,1,0,0,1,.64-.51,1,1,0,0,1,.8.14l3,2A1,1,0,0,1,15,28.33L13,27a12,12,0,0,0-.49,3.47c0,2.59,1.32,4,2,4a1,1,0,0,0,.35,0,1,1,0,0,1,1.42,1.4A2.27,2.27,0,0,1,14.5,36.5Zm.27-2Zm0,0Zm0,0Zm0,0Z" fill="#fff"/><path d="M16.5,66.5a1,1,0,0,1-1-1v-30a1,1,0,0,1,2,0v30A1,1,0,0,1,16.5,66.5Z" fill="#fff"/><path d="M16.5,64.5a1,1,0,0,1-.87-1.5,1.06,1.06,0,0,1-.13-.5c0-4.81,4.87-16.86,5.07-17.38a1,1,0,0,1,1-.62,1,1,0,0,1,.91.69A26.32,26.32,0,0,1,23.5,52.5c0,4.37-2.53,10.17-6.61,11.92A1,1,0,0,1,16.5,64.5ZM21.23,49c-1.34,3.59-3.36,9.43-3.69,12.7,2.42-2,4-6,4-9.18A24.37,24.37,0,0,0,21.23,49Z" fill="#fff"/><path d="M16.5,64.5a1,1,0,0,1-.39-.08C12,62.67,9.5,56.87,9.5,52.5a26.32,26.32,0,0,1,1.05-7.31,1,1,0,0,1,.91-.69,1,1,0,0,1,1,.62c.2.52,5.07,12.57,5.07,17.38a1.06,1.06,0,0,1-.13.5,1,1,0,0,1-.87,1.5ZM11.77,49a24.37,24.37,0,0,0-.27,3.52c0,3.16,1.54,7.17,4,9.18C15.13,58.41,13.11,52.57,11.77,49Z" fill="#fff"/><path d="M31.5,40.5a12.9,12.9,0,0,1,2,.33s-.34,2.67-2,2.67-2-2.67-2-2.67A12.9,12.9,0,0,1,31.5,40.5Z" fill="#fff"/><path d="M32.5,42.5a1,1,0,0,1-.93-.63,1,1,0,0,1-.07-.35,1,1,0,0,1-.07.35,1,1,0,0,1-1.3.56,6.06,6.06,0,0,1-3.54-3.24,7.29,7.29,0,0,1,0-5.07,1,1,0,0,1,.58-.56,1,1,0,0,1,.8,0l1.33.67,1.48-1.49a1,1,0,0,1,1.42,0l1.48,1.49L35,33.61a1,1,0,0,1,.8,0,1,1,0,0,1,.58.56,7.29,7.29,0,0,1,0,5.07,6.06,6.06,0,0,1-3.54,3.24A1,1,0,0,1,32.5,42.5ZM28.17,36a4,4,0,0,0,2.7,4.62,1,1,0,0,1,.63.91,1,1,0,0,1,.63-.91A4,4,0,0,0,34.83,36l-.88.44a1,1,0,0,1-1.16-.18l-1.29-1.3-1.29,1.3a1,1,0,0,1-1.16.18Z" fill="#fff"/><path d="M31.5,66.5a1,1,0,0,1-.61-.21C28.61,64.55,27.5,62,27.5,58.5c0-2,1-4.08,2-6.07s2-4,2-5.93A7.82,7.82,0,0,0,30.63,43a1,1,0,0,1,1.73-1A9.73,9.73,0,0,1,33.5,46.5c0,2.41-1.12,4.65-2.2,6.83-.93,1.85-1.8,3.61-1.8,5.17,0,2.88.83,4.85,2.61,6.21a1,1,0,0,1-.61,1.79Z" fill="#fff"/><path d="M31.26,66.31a1,1,0,0,1-1-.68.19.19,0,0,0,0-.07,1,1,0,0,1-.78-.84C28.83,60,30.58,57.31,32,55.17a11.33,11.33,0,0,0,1.56-2.94,1,1,0,0,1,2,.2,15.1,15.1,0,0,0,.44,2.64,16.8,16.8,0,0,1,.56,4.43,7.32,7.32,0,0,1-4.92,6.75A.91.91,0,0,1,31.26,66.31ZM34,55.68c-.12.2-.25.4-.38.59-1.31,2-2.66,4.07-2.2,7.88A5.23,5.23,0,0,0,34.5,59.5,14.68,14.68,0,0,0,34,55.68Z" fill="#fff"/></svg>