<svg id="Calque_1" data-name="Calque 1" xmlns="http://www.w3.org/2000/svg" viewBox="0 0 87 87"><path d="M15.89,66.49,22,40.86H21.2V40a19,19,0,0,1,2.33-9C25.39,27.73,28.05,26,31,26.19a9.76,9.76,0,0,1,4,1c11.47-5.84,20.31-6.72,24.58-6.72h.86a2.5,2.5,0,0,1,.1,5c-2.64.18-9.88,1.34-20.48,8.25A37.46,37.46,0,0,1,40.67,40v.86h-2v2.43c12.07-8.82,22.69-10.17,28.05-10.17a22.44,22.44,0,0,1,3.22.2h1.17v8.14H69.73l.41,5.75a2.11,2.11,0,0,1-1.65,2.2l-4.75,1a2.08,2.08,0,0,1-2.41-1.32L59.46,44C54,46.5,46.59,51.33,38.67,60.76v5.73Zm43-24.08.8-.35c1.18-.49,2.27-.89,3.26-1.2a25.91,25.91,0,0,1,5.14-1.1c.28,0,.51,0,.68,0h.64V35a20.74,20.74,0,0,0-2.66-.15c-5.35,0-16.15,1.41-28.38,10.86L37,46.78V40.86H23.82L18.08,64.77H37V60.14l.2-.24c6.76-8.12,14-14,21.41-17.35Zm4.52,6.34,4.75-1a.37.37,0,0,0,.29-.38L68,41.5a27,27,0,0,0-7,1.85L63,48.51A.4.4,0,0,0,63.38,48.75ZM38.36,34c0-.11-.06-.2-.09-.28L38,33l.57-.38c11.22-7.43,19-8.68,21.84-8.87a.78.78,0,0,0,0-1.55H59.6c-4.17,0-12.86.88-24.21,6.75L35,29.2,34.55,29a7.71,7.71,0,0,0-3.66-1H30.6c-2.74,0-4.54,2.13-5.57,3.92A15,15,0,0,0,24,34,17.59,17.59,0,0,0,23,39.14h16c0-1-.12-2.2-.25-3.29A15.8,15.8,0,0,0,38.36,34Z" fill="#fff"/></svg>