<svg id="Calque_1" data-name="Calque 1" xmlns="http://www.w3.org/2000/svg" viewBox="0 0 87 87"><path d="M49.62,79.61a1.58,1.58,0,0,1-.71-.17L32,70.44a1.48,1.48,0,0,1-.79-1.32V17.88A1.51,1.51,0,0,1,32,16.55l16.88-9a1.5,1.5,0,0,1,2.21,1.32V78.11a1.51,1.51,0,0,1-.73,1.29A1.54,1.54,0,0,1,49.62,79.61ZM34.24,68.22l13.88,7.39V11.39L34.24,18.78Z" fill="#fff"/><path d="M54.26,79.61H49.62a1.5,1.5,0,0,1-1.5-1.5V8.89a1.5,1.5,0,0,1,1.5-1.5h4.64a1.5,1.5,0,0,1,1.5,1.5V78.11A1.5,1.5,0,0,1,54.26,79.61Zm-3.14-3h1.64V10.39H51.12Z" fill="#fff"/><path d="M38.85,64.25l-.24,0a1.5,1.5,0,0,1-1.24-1.72L43.73,24a1.5,1.5,0,1,1,3,.48L40.33,63A1.5,1.5,0,0,1,38.85,64.25Z" fill="#fff"/><path d="M37.65,40.62l-.24,0a1.51,1.51,0,0,1-1.24-1.73l1.45-8.74a1.5,1.5,0,0,1,3,.49l-1.45,8.74A1.49,1.49,0,0,1,37.65,40.62Z" fill="#fff"/></svg>