<svg id="Calque_1" data-name="Calque 1" xmlns="http://www.w3.org/2000/svg" viewBox="0 0 87 87"><path d="M34.13,49.5h-23V37.06h23Zm-20.2-2.83H31.31V39.89H13.93Z" fill="#fff"/><path d="M60.07,49.5H37V37.06h23ZM39.86,46.67H57.24V39.89H39.86Z" fill="#fff"/><path d="M86,49.5H63V37.06H86ZM65.79,46.67H83.18V39.89H65.79Z" fill="#fff"/><path d="M24,64.48H1V52.05H24ZM3.82,61.66H21.21V54.87H3.82Z" fill="#fff"/><path d="M50,64.48h-23V52.05H50Zm-20.2-2.82H47.14V54.87H29.76Z" fill="#fff"/><path d="M75.9,64.48h-23V52.05h23ZM55.69,61.66H73.07V54.87H55.69Z" fill="#fff"/><path d="M24,35H1V22.52H24ZM3.82,32.13H21.21V25.34H3.82Z" fill="#fff"/><path d="M50,35h-23V22.52H50Zm-20.2-2.82H47.14V25.34H29.76Z" fill="#fff"/><path d="M75.9,35h-23V22.52h23ZM55.69,32.13H73.07V25.34H55.69Z" fill="#fff"/></svg>