<svg id="Calque_1" data-name="Calque 1" xmlns="http://www.w3.org/2000/svg" viewBox="0 0 87 87"><path d="M77.52,69.7h-68A1.5,1.5,0,0,1,8,68.2V43.5A1.5,1.5,0,0,1,9.48,42h68A1.5,1.5,0,0,1,79,43.5V68.2A1.5,1.5,0,0,1,77.52,69.7ZM11,66.7H76V45H11Z" fill="#fff"/><path d="M62.52,34.72h-38a1.5,1.5,0,0,1-1.5-1.5V18.8a1.5,1.5,0,0,1,1.5-1.5h38A1.5,1.5,0,0,1,64,18.8V33.22A1.5,1.5,0,0,1,62.52,34.72ZM26,31.72H61V20.3H26Z" fill="#fff"/><path d="M77.52,45h-68A1.49,1.49,0,0,1,8.2,42.72L23.2,18a1.48,1.48,0,0,1,1.28-.72h38A1.48,1.48,0,0,1,63.8,18l15,24.7A1.49,1.49,0,0,1,77.52,45ZM12.14,42H74.86L61.68,20.3H25.32Z" fill="#fff"/><circle cx="43.5" cy="55.85" r="3.15" fill="#fff"/><path d="M19.23,45a1.49,1.49,0,0,1-1.33-2.18l5.24-10.28a1.5,1.5,0,0,1,2.67,1.36L20.57,44.18A1.51,1.51,0,0,1,19.23,45Z" fill="#fff"/><path d="M67.77,45a1.51,1.51,0,0,1-1.34-.82L61.19,33.9a1.5,1.5,0,0,1,2.67-1.36L69.1,42.82A1.49,1.49,0,0,1,67.77,45Z" fill="#fff"/></svg>