<svg id="Calque_1" data-name="Calque 1" xmlns="http://www.w3.org/2000/svg" viewBox="0 0 87 87"><path d="M6.89,24.47V62.53H31.37V24.47Zm22.8,36.38H8.57V58.14H29.69Zm0-4.28H8.57V26.15H18.75v1.48h1.4V26.15h9.54Z" fill="#fff"/><path d="M17.61,31.56a.26.26,0,0,0-.07-.18.27.27,0,0,0-.37,0,.27.27,0,0,0-.08.18.27.27,0,0,0,.08.19.25.25,0,0,0,.18.08.27.27,0,0,0,.19-.08A.26.26,0,0,0,17.61,31.56Z" fill="#fff"/><path d="M17.13,32.5a.26.26,0,0,0-.31.19A.26.26,0,0,0,17,33h.06a.28.28,0,0,0,.26-.21A.26.26,0,0,0,17.13,32.5Z" fill="#fff"/><path d="M16.85,33.69a.25.25,0,0,0-.31.19.26.26,0,0,0,.19.32h.06a.27.27,0,0,0,.26-.2A.26.26,0,0,0,16.85,33.69Z" fill="#fff"/><path d="M16.29,36.06a.26.26,0,0,0-.31.2.26.26,0,0,0,.19.31h.06a.27.27,0,0,0,.26-.2A.28.28,0,0,0,16.29,36.06Z" fill="#fff"/><path d="M16.57,34.88a.25.25,0,0,0-.31.19.26.26,0,0,0,.19.32h.06a.27.27,0,0,0,.26-.2A.26.26,0,0,0,16.57,34.88Z" fill="#fff"/><path d="M15.77,37.32a.27.27,0,0,0-.08.19.27.27,0,0,0,.26.26.27.27,0,0,0,.19-.08.25.25,0,0,0,.08-.18.27.27,0,0,0-.08-.19A.27.27,0,0,0,15.77,37.32Z" fill="#fff"/><path d="M18.22,31.38a.27.27,0,0,0-.08.18.27.27,0,0,0,.08.19.23.23,0,0,0,.18.08.27.27,0,0,0,.19-.08.32.32,0,0,0,.07-.19.31.31,0,0,0-.07-.18A.27.27,0,0,0,18.22,31.38Z" fill="#fff"/><path d="M18.29,32.49a.27.27,0,0,0-.29.23.25.25,0,0,0,.23.29h0a.27.27,0,0,0,0-.53Z" fill="#fff"/><path d="M18,34.87a.26.26,0,0,0-.06.52h0a.26.26,0,0,0,.26-.23A.27.27,0,0,0,18,34.87Z" fill="#fff"/><path d="M18.15,33.68a.27.27,0,0,0-.29.23.26.26,0,0,0,.23.29h0a.25.25,0,0,0,.26-.23A.26.26,0,0,0,18.15,33.68Z" fill="#fff"/><path d="M17.87,36.06a.26.26,0,0,0-.29.23.27.27,0,0,0,.23.29h0a.26.26,0,0,0,.26-.23A.25.25,0,0,0,17.87,36.06Z" fill="#fff"/><path d="M17.52,37.32a.27.27,0,0,0-.08.19.27.27,0,0,0,.26.26.27.27,0,0,0,.19-.08.24.24,0,0,0,.07-.18.26.26,0,0,0-.44-.19Z" fill="#fff"/><path d="M21.81,31.56a.27.27,0,0,0-.08-.18.27.27,0,0,0-.37,0,.27.27,0,0,0-.08.18.27.27,0,0,0,.27.27.25.25,0,0,0,.18-.08A.27.27,0,0,0,21.81,31.56Z" fill="#fff"/><path d="M22.08,32.69a.26.26,0,0,0-.51.12.28.28,0,0,0,.26.21h.06A.27.27,0,0,0,22.08,32.69Z" fill="#fff"/><path d="M22.13,35.19a.27.27,0,0,0,.26.2h.06a.27.27,0,0,0,.19-.32.25.25,0,0,0-.31-.19A.25.25,0,0,0,22.13,35.19Z" fill="#fff"/><path d="M22.05,33.69a.25.25,0,0,0-.2.31.27.27,0,0,0,.26.2h.06a.27.27,0,0,0,.19-.32A.25.25,0,0,0,22.05,33.69Z" fill="#fff"/><path d="M22.41,36.38a.27.27,0,0,0,.26.2h.06a.26.26,0,0,0,.19-.31.27.27,0,0,0-.32-.2A.27.27,0,0,0,22.41,36.38Z" fill="#fff"/><path d="M22.68,37.51a.25.25,0,0,0,.08.18.27.27,0,0,0,.18.08.27.27,0,0,0,.19-.08.25.25,0,0,0,.08-.18.27.27,0,0,0-.08-.19.27.27,0,0,0-.37,0A.27.27,0,0,0,22.68,37.51Z" fill="#fff"/><path d="M20.68,31.75a.27.27,0,0,0,.08-.19.27.27,0,0,0-.08-.18.27.27,0,0,0-.37,0,.26.26,0,0,0-.07.18.26.26,0,0,0,.07.19.27.27,0,0,0,.19.08A.25.25,0,0,0,20.68,31.75Z" fill="#fff"/><path d="M21,35.39a.27.27,0,0,0,.23-.29.27.27,0,0,0-.29-.23.26.26,0,0,0,0,.52Z" fill="#fff"/><path d="M21.09,36.58a.27.27,0,0,0,.23-.29.26.26,0,0,0-.29-.23.25.25,0,0,0-.23.29.26.26,0,0,0,.26.23Z" fill="#fff"/><path d="M20.81,34.2a.26.26,0,0,0-.06-.52.26.26,0,0,0-.23.29.25.25,0,0,0,.26.23Z" fill="#fff"/><path d="M20.67,33a.26.26,0,0,0,.23-.29.27.27,0,0,0-.29-.23.27.27,0,0,0,0,.53Z" fill="#fff"/><path d="M21,37.32a.27.27,0,0,0-.08.19.25.25,0,0,0,.08.18.27.27,0,0,0,.19.08.27.27,0,0,0,.26-.26.27.27,0,0,0-.08-.19A.27.27,0,0,0,21,37.32Z" fill="#fff"/><path d="M19.26,31.38a.31.31,0,0,0-.07.18.32.32,0,0,0,.07.19.27.27,0,0,0,.19.08.23.23,0,0,0,.18-.08.27.27,0,0,0,.08-.19.27.27,0,0,0-.08-.18A.27.27,0,0,0,19.26,31.38Z" fill="#fff"/><path d="M19.45,36.06a.25.25,0,0,0-.26.26.26.26,0,0,0,.26.26.26.26,0,0,0,.26-.26A.26.26,0,0,0,19.45,36.06Z" fill="#fff"/><path d="M19.45,33.68a.26.26,0,0,0-.26.26.25.25,0,0,0,.26.26.26.26,0,0,0,.26-.26A.26.26,0,0,0,19.45,33.68Z" fill="#fff"/><path d="M19.45,32.49a.27.27,0,0,0,0,.53.27.27,0,0,0,0-.53Z" fill="#fff"/><path d="M19.45,34.87a.26.26,0,0,0-.26.26.25.25,0,0,0,.26.26.26.26,0,0,0,.26-.26A.26.26,0,0,0,19.45,34.87Z" fill="#fff"/><path d="M19.26,37.32a.32.32,0,0,0-.07.19.29.29,0,0,0,.07.18.27.27,0,0,0,.19.08.23.23,0,0,0,.18-.08.25.25,0,0,0,.08-.18.27.27,0,0,0-.08-.19A.27.27,0,0,0,19.26,37.32Z" fill="#fff"/><path d="M16.65,30.43a.27.27,0,0,0,.27.26H22a.27.27,0,0,0,.27-.26V30h-5.6Z" fill="#fff"/><polygon points="20.15 27.81 18.75 27.81 16.74 29.82 22.16 29.82 20.15 27.81" fill="#fff"/><path d="M11.63,43.5A1.52,1.52,0,1,0,13.15,45,1.52,1.52,0,0,0,11.63,43.5Z" fill="#fff"/><path d="M76.24,41,75,45.83a6.63,6.63,0,0,1-6.43,5H47.88a6.63,6.63,0,0,1-6.43-5L40.23,41h36m2-1.54h-40L40,46.21a8.18,8.18,0,0,0,7.93,6.17H68.59a8.18,8.18,0,0,0,7.93-6.17l1.7-6.74Z" fill="#fff"/><path d="M77.84,38.09a.74.74,0,0,1,0,1.47H38.63a.74.74,0,0,1,0-1.47H77.84m0-1.54H38.63a2.28,2.28,0,0,0,0,4.56H77.84a2.28,2.28,0,0,0,0-4.56Z" fill="#fff"/><circle cx="48.42" cy="52.83" r="1.62" fill="#fff"/><circle cx="68.05" cy="52.83" r="1.62" fill="#fff"/></svg>