<svg id="Calque_1" data-name="Calque 1" xmlns="http://www.w3.org/2000/svg" viewBox="0 0 87 87"><path d="M71,4a4,4,0,0,1,4,4V79a4,4,0,0,1-4,4H16a4,4,0,0,1-4-4V8a4,4,0,0,1,4-4H71m0-3H16A7,7,0,0,0,9,8V79a7,7,0,0,0,7,7H71a7,7,0,0,0,7-7V8a7,7,0,0,0-7-7Z" fill="#fff"/><rect x="10.15" y="22" width="65.72" height="3" fill="#fff"/><rect x="10.15" y="62" width="65.72" height="3" fill="#fff"/><circle cx="23.54" cy="9.86" r="2.08" fill="#fff"/><circle cx="31.52" cy="9.86" r="2.08" fill="#fff"/><circle cx="39.51" cy="9.86" r="2.08" fill="#fff"/><circle cx="47.49" cy="9.86" r="2.08" fill="#fff"/><circle cx="55.48" cy="9.86" r="2.08" fill="#fff"/><circle cx="63.46" cy="9.86" r="2.08" fill="#fff"/><circle cx="23.54" cy="16.32" r="2.08" fill="#fff"/><circle cx="31.52" cy="16.32" r="2.08" fill="#fff"/><circle cx="39.51" cy="16.32" r="2.08" fill="#fff"/><circle cx="47.49" cy="16.32" r="2.08" fill="#fff"/><circle cx="55.48" cy="16.32" r="2.08" fill="#fff"/><circle cx="63.46" cy="16.32" r="2.08" fill="#fff"/><circle cx="23.54" cy="70.82" r="2.08" fill="#fff"/><circle cx="31.52" cy="70.82" r="2.08" fill="#fff"/><circle cx="39.51" cy="70.82" r="2.08" fill="#fff"/><circle cx="47.49" cy="70.82" r="2.08" fill="#fff"/><circle cx="55.48" cy="70.82" r="2.08" fill="#fff"/><circle cx="63.46" cy="70.82" r="2.08" fill="#fff"/><circle cx="23.54" cy="77.28" r="2.08" fill="#fff"/><circle cx="31.52" cy="77.28" r="2.08" fill="#fff"/><circle cx="39.51" cy="77.28" r="2.08" fill="#fff"/><circle cx="47.49" cy="77.28" r="2.08" fill="#fff"/><circle cx="55.48" cy="77.28" r="2.08" fill="#fff"/><circle cx="63.46" cy="77.28" r="2.08" fill="#fff"/><path d="M31.2,55.15H20.3V31.85H31.2Zm-7.9-3h4.9V34.85H23.3Z" fill="#fff"/><path d="M49,55.15H38.05V31.85H49Zm-7.9-3H46V34.85h-4.9Z" fill="#fff"/><rect x="37.43" y="33.35" width="12.14" height="3.36" fill="#fff"/><path d="M51.07,38.22H35.93V31.85H51.07Zm-12.14-3h9.14v-.37H38.93Z" fill="#fff"/><rect x="19.55" y="50.28" width="12.14" height="3.36" fill="#fff"/><path d="M33.19,55.15H18.05V48.78H33.19Zm-12.14-3h9.14v-.37H21.05Z" fill="#fff"/><rect x="55.32" y="50.28" width="12.14" height="3.36" fill="#fff"/><path d="M69,55.15H53.81V48.78H69Zm-12.14-3H66v-.37H56.81Z" fill="#fff"/><path d="M66.7,55.15H55.8V31.85H66.7Zm-7.9-3h4.9V34.85H58.8Z" fill="#fff"/></svg>