<svg id="Calque_1" data-name="Calque 1" xmlns="http://www.w3.org/2000/svg" viewBox="0 0 87 87"><path d="M45.65,29.18a1.08,1.08,0,0,1,2.16,0v2.16a1.07,1.07,0,0,0,1.07,1.07h4.31a1.07,1.07,0,0,0,1.07-1.07V29.18a7.54,7.54,0,0,0-15.07,0v9.69h6.46Z" fill="#fff"/><path d="M51,34.56a1.08,1.08,0,0,0,0,2.16h1.08v2.15h6.46V36.72h1.07a1.08,1.08,0,0,0,0-2.16H51Z" fill="#fff"/><path d="M27.36,36.72h1.07v2.15h6.46V36.72H36a1.08,1.08,0,0,0,0-2.16H27.36a1.08,1.08,0,0,0,0,2.16Z" fill="#fff"/><path d="M45,42H8.53V56.32a9,9,0,0,0,9,9H67.93A10.55,10.55,0,0,0,78.47,54.81V42ZM42,62.34H17.56a6,6,0,0,1-6-6V45H42Zm33.47-7.53a7.54,7.54,0,0,1-7.53,7.53H45V45H75.46Z" fill="#fff"/></svg>