<svg id="Calque_1" data-name="Calque 1" xmlns="http://www.w3.org/2000/svg" viewBox="0 0 87 87"><path d="M78.47,44,76.1,53.4a12.88,12.88,0,0,1-12.49,9.72H23.39A12.88,12.88,0,0,1,10.9,53.4L8.53,44H78.47m3.86-3H4.67L8,54.14a15.89,15.89,0,0,0,15.4,12H63.61a15.89,15.89,0,0,0,15.4-12L82.33,41Z" fill="#fff"/><path d="M81.57,38.37a1.43,1.43,0,1,1,0,2.85H5.43a1.43,1.43,0,1,1,0-2.85H81.57m0-3H5.43a4.43,4.43,0,1,0,0,8.85H81.57a4.43,4.43,0,1,0,0-8.85Z" fill="#fff"/><circle cx="24.43" cy="66.99" r="3.15" fill="#fff"/><circle cx="44.92" cy="30.44" r="3.15" fill="#fff"/><circle cx="62.57" cy="20.01" r="3.15" fill="#fff"/><circle cx="62.57" cy="66.99" r="3.15" fill="#fff"/><path d="M11.39,35.37h-3V27.18a7.76,7.76,0,1,1,15.51,0h-3a4.76,4.76,0,1,0-9.51,0Z" fill="#fff"/><rect x="43.49" y="23.73" width="20.51" height="3" transform="matrix(0.86, -0.51, 0.51, 0.86, -5.36, 30.88)" fill="#fff"/></svg>