<svg id="Calque_1" data-name="Calque 1" xmlns="http://www.w3.org/2000/svg" viewBox="0 0 87 87"><path d="M65.71,49.93H21.29a3,3,0,0,1-2.6-4.64L32.2,23.08a3.08,3.08,0,0,1,2.61-1.46H52.19a3.08,3.08,0,0,1,2.61,1.46L68.31,45.29a3,3,0,0,1-2.6,4.64ZM23.43,45.67H63.57L51.51,25.87h-16Z" fill="#fff"/><path d="M43.5,61c-6.78,0-12.3-5.14-12.3-11.46a7.66,7.66,0,0,1,.08-1l0-.2a3,3,0,0,1,3-2.69H52.66a3,3,0,0,1,3,2.72l0,.18a7.37,7.37,0,0,1,.08,1C55.8,55.89,50.28,61,43.5,61Zm-8-11.1c.21,3.81,3.74,6.85,8,6.85s7.83-3,8-6.85Z" fill="#fff"/><path d="M43.5,25a2.14,2.14,0,0,1-2.13-2.13V14.49a2.13,2.13,0,0,1,4.26,0v8.33A2.14,2.14,0,0,1,43.5,25Z" fill="#fff"/><path d="M43.5,74.63a1.5,1.5,0,0,1-1.5-1.5V65a1.5,1.5,0,0,1,3,0v8.16A1.5,1.5,0,0,1,43.5,74.63Z" fill="#fff"/><path d="M60.4,68.37a1.53,1.53,0,0,1-1.06-.44l-5.77-5.77A1.5,1.5,0,1,1,55.69,60l5.77,5.78a1.5,1.5,0,0,1-1.06,2.56Z" fill="#fff"/><path d="M26.65,68.24a1.48,1.48,0,0,1-1.06-.43,1.5,1.5,0,0,1,0-2.13l5.77-5.77A1.5,1.5,0,1,1,33.48,62l-5.77,5.78A1.52,1.52,0,0,1,26.65,68.24Z" fill="#fff"/></svg>