<svg id="Calque_1" data-name="Calque 1" xmlns="http://www.w3.org/2000/svg" viewBox="0 0 87 87"><path d="M72.1,13.51H45.27a.91.91,0,0,0-.91.91V72.58a.91.91,0,0,0,.91.91H72.1a.91.91,0,0,0,.91-.91V14.42A.91.91,0,0,0,72.1,13.51ZM46.18,71.67V18.27l3.63,7.27v7.05a1,1,0,0,0,.15.51L56.9,43.5,50,53.9a.91.91,0,0,0,.12,1.15L69.9,71.67Zm6-38.59,8.2-2.73L57.61,41.29Zm19,37.3L51.89,54.29,58.75,44a1.18,1.18,0,0,0,.12-.28L62.4,29.59l8.79-2.79Zm0-45.62-9.91,3.36-9.65,3.21v-6a.83.83,0,0,0-.1-.41l-4.79-9.59H71.19Z" fill="#fff"/><path d="M14.33,73.48H41.88a.81.81,0,0,0,.81-.81V14.32a.81.81,0,0,0-.81-.81H14.33a.85.85,0,0,0-.82.81V72.67A.83.83,0,0,0,14.33,73.48ZM41.07,15.13V71.86H19.72L35.63,67a.81.81,0,0,0,.58-.77V20.81a.83.83,0,0,0-.58-.78l-15.92-4.9Zm-25.93.29,19.45,6V65.59l-19.45,6Z" fill="#fff"/><path d="M75.92,10.27H11.08a.82.82,0,0,0-.81.81V75.92a.82.82,0,0,0,.81.81H75.92a.82.82,0,0,0,.81-.81V11.08A.82.82,0,0,0,75.92,10.27Zm-.81,64.84H11.89V11.89H75.11Z" fill="#fff"/></svg>