<svg id="Calque_1" data-name="Calque 1" xmlns="http://www.w3.org/2000/svg" viewBox="0 0 87 87"><path d="M60.08,61.69H26.92V13.89H60.08ZM29.36,59.25H57.64V16.33H29.36Z" fill="#fff"/><path d="M61.51,16.33h-36V15.11a4.89,4.89,0,0,1,4.88-4.89H56.63a4.89,4.89,0,0,1,4.88,4.89ZM28.26,13.89H58.74a2.42,2.42,0,0,0-2.11-1.23H30.37A2.42,2.42,0,0,0,28.26,13.89Z" fill="#fff"/><path d="M56.63,65.36H30.37a4.89,4.89,0,0,1-4.88-4.89V59.25h36v1.22A4.89,4.89,0,0,1,56.63,65.36ZM28.26,61.69a2.44,2.44,0,0,0,2.11,1.23H56.63a2.44,2.44,0,0,0,2.11-1.23Z" fill="#fff"/><polygon points="37.42 64.96 49.58 64.96 47.95 68.62 39.05 68.62 37.42 64.96" fill="#fff"/><rect x="40.27" y="67.12" width="2.44" height="9.66" fill="#fff"/><polygon points="60.29 76.64 44.92 76.64 44.92 66.79 47.36 66.79 47.36 74.2 60.29 74.2 60.29 76.64" fill="#fff"/></svg>