<svg id="Calque_1" data-name="Calque 1" xmlns="http://www.w3.org/2000/svg" viewBox="0 0 87 87"><path d="M79.15,36.19a2,2,0,0,0,1.85-2h0a2,2,0,0,0-2.07-2A28.43,28.43,0,0,0,52.36,58.83a2,2,0,0,0,2,2.07h0a2,2,0,0,0,2-1.85A24.48,24.48,0,0,1,79.15,36.19Z" fill="#fff"/><path d="M79.23,43.55A2,2,0,0,0,81,41.6h0a2,2,0,0,0-2.14-2A21.07,21.07,0,0,0,59.73,58.76a2,2,0,0,0,2,2.14h0a2,2,0,0,0,1.95-1.77A17.16,17.16,0,0,1,79.23,43.55Z" fill="#fff"/><path d="M81,49A2,2,0,0,0,78.72,47a13.78,13.78,0,0,0-11.6,11.6,2,2,0,0,0,1.95,2.28h0a2,2,0,0,0,2-1.72,9.83,9.83,0,0,1,8.26-8.26A2,2,0,0,0,81,49Z" fill="#fff"/><circle cx="78.96" cy="58.86" r="4.14" fill="#fff"/><path d="M49.37,41.65a33.74,33.74,0,0,1,3.54-5V27.74H49.75V38.49H45.08V23.82H41.92V38.49H37.25V27.74H34.09V38.49H29.41V31.82H26.26v6.67H21.58V34.88H18.43v3.61H13.69V25.19H3.9v38h9.79V56.34h4.74v6.84h3.15V56.34h4.68v6.84h3.15V56.34h4.68v6.84h3.16V56.34h4.67v6.84H45a33.68,33.68,0,0,1,.2-10h-.13V41.65ZM10.53,60H7.06V28.35h3.47Zm7.9-6.84H13.69V41.65h4.74Zm7.83,0H21.58V41.65h4.68Zm7.83,0H29.41V41.65h4.68Zm7.83,0H37.25V41.65h4.67Z" fill="#fff"/></svg>