<svg id="Calque_1" data-name="Calque 1" xmlns="http://www.w3.org/2000/svg" viewBox="0 0 87 87"><path d="M70.94,72.44H16.06a1.5,1.5,0,0,1-1.5-1.5V16.06a1.5,1.5,0,0,1,1.5-1.5H70.94a1.5,1.5,0,0,1,1.5,1.5V70.94A1.5,1.5,0,0,1,70.94,72.44Zm-53.38-3H69.44V17.56H17.56Z" fill="#fff"/><path d="M43.5,62.49a19,19,0,1,1,19-19A19,19,0,0,1,43.5,62.49Zm0-35a16,16,0,1,0,16,16A16,16,0,0,0,43.5,27.51Z" fill="#fff"/><polygon points="51.2 40.75 47.34 40.75 47.34 37.49 39.66 37.49 39.66 40.75 35.8 40.75 35.8 49.51 37.16 49.51 37.16 43.5 38.2 43.5 38.2 49.51 39.49 49.51 39.49 43.5 40.53 43.5 40.53 49.51 41.82 49.51 41.82 43.5 42.86 43.5 42.86 49.51 44.14 49.51 44.14 43.5 45.18 43.5 45.18 49.51 46.47 49.51 46.47 43.5 47.51 43.5 47.51 49.51 48.8 49.51 48.8 43.5 49.84 43.5 49.84 49.51 51.2 49.51 51.2 40.75" fill="#fff"/></svg>