<svg id="Calque_1" data-name="Calque 1" xmlns="http://www.w3.org/2000/svg" viewBox="0 0 87 87"><path d="M56.72,61.12a2,2,0,0,0-2,2v8.14A.69.69,0,0,1,54,72H21.47a.69.69,0,0,1-.67-.68V15.71a.69.69,0,0,1,.67-.68H54a.69.69,0,0,1,.67.68v8.14a2,2,0,0,0,4.07,0V15.71A4.75,4.75,0,0,0,54,11H21.47a4.75,4.75,0,0,0-4.74,4.74V71.29A4.75,4.75,0,0,0,21.47,76H54a4.75,4.75,0,0,0,4.74-4.74V63.15A2,2,0,0,0,56.72,61.12Z" fill="#fff"/><path d="M22.83,34V47.57a1.36,1.36,0,0,0,2.71,0V34a1.36,1.36,0,0,0-2.71,0Z" fill="#fff"/><path d="M68.55,44.58l-4.89,1.36L59.43,43.5l4.23-2.44,4.89,1.36a1.18,1.18,0,0,0,.37,0,1.36,1.36,0,0,0,.36-2.66l-2.34-.65,1.7-1a1.35,1.35,0,0,0-1.36-2.34l-1.69,1,.6-2.35a1.35,1.35,0,1,0-2.62-.67L62.3,38.71l-4.23,2.44V36.27l3.63-3.56a1.35,1.35,0,0,0-1.89-1.93l-1.74,1.69V30.52a1.36,1.36,0,1,0-2.71,0v1.95l-1.73-1.69a1.35,1.35,0,1,0-1.9,1.93l3.63,3.56v4.88l-4.23-2.44-1.26-4.92a1.36,1.36,0,0,0-2.63.67l.6,2.35-1.69-1a1.35,1.35,0,1,0-1.35,2.34l1.69,1-2.34.65a1.36,1.36,0,0,0,.37,2.66,1.12,1.12,0,0,0,.36,0l4.89-1.36L54,43.5l-4.24,2.44-4.89-1.36a1.36,1.36,0,1,0-.73,2.61l2.34.65-1.69,1a1.35,1.35,0,0,0-.5,1.85,1.37,1.37,0,0,0,1.18.68,1.26,1.26,0,0,0,.67-.19l1.69-1-.6,2.35a1.36,1.36,0,0,0,1,1.65,1.27,1.27,0,0,0,.34,0,1.36,1.36,0,0,0,1.31-1l1.26-4.92,4.23-2.44v4.88l-3.63,3.56a1.35,1.35,0,0,0,1,2.32,1.4,1.4,0,0,0,1-.38l1.73-1.7v1.95a1.36,1.36,0,1,0,2.71,0V54.53l1.74,1.7a1.36,1.36,0,0,0,.94.38,1.33,1.33,0,0,0,1-.4,1.35,1.35,0,0,0,0-1.92l-3.63-3.56V45.85l4.23,2.44,1.27,4.92a1.35,1.35,0,0,0,1.31,1,1.24,1.24,0,0,0,.33,0,1.36,1.36,0,0,0,1-1.65l-.6-2.35,1.69,1a1.3,1.3,0,0,0,.68.19,1.36,1.36,0,0,0,.68-2.53l-1.7-1,2.34-.65a1.36,1.36,0,1,0-.73-2.61Z" fill="#fff"/></svg>