<svg id="Calque_1" data-name="Calque 1" xmlns="http://www.w3.org/2000/svg" viewBox="0 0 87 87"><path d="M62.08,21.07H25.4L8.85,9.73V77.27L25.4,65.93H62.08L78.63,77.27V9.73ZM23.44,63.64,11.85,71.58V60.26l11.59-4.1Zm0-10.66-11.59,4.1V45h.34a3.4,3.4,0,0,0,6.15,0h5.1Zm0-11H18.29a3.38,3.38,0,0,0-6.06,0h-.38V29.92L23.44,34Zm0-11.16-11.59-4.1V15.42l11.59,7.94ZM60.56,62.93H26.44V24.07H60.56Zm15.07,8.65L64,63.64V56.16l11.59,4.1Zm0-14.5L64,53V45h5.12a3.39,3.39,0,0,0,6.11,0h.36Zm0-15.08h-.36a3.39,3.39,0,0,0-6.11,0H64V34l11.59-4.1Zm0-15.26L64,30.84V23.36l11.59-7.94Z" fill="#fff"/></svg>