<svg id="Calque_1" data-name="Calque 1" xmlns="http://www.w3.org/2000/svg" viewBox="0 0 87 87"><path d="M79.9,38.38l5.71-8.31a2.26,2.26,0,0,0-3.72-2.55l-3.43,5A36.75,36.75,0,0,0,7.35,36.36a2.25,2.25,0,1,0,4.42.87,32.25,32.25,0,0,1,62.42-3.31L68.7,32.65a2.25,2.25,0,1,0-1,4.39l9.83,2.27.08,0H78a2.19,2.19,0,0,0,.77-.13h0l.09,0h0l.09,0,0,0,.05,0,.1-.06,0,0,.06,0,0,0,.07,0,.06-.05,0,0,.06,0,0,0,.08-.09h0A1.3,1.3,0,0,0,79.9,38.38Z" fill="#fff"/><path d="M77.67,48A2.26,2.26,0,0,0,75,49.77,32.24,32.24,0,0,1,12.59,53l5.71,1.32a2.21,2.21,0,0,0,.51,0,2.25,2.25,0,0,0,.5-4.44L9.52,47.7h0l-.11,0h-.6a2,2,0,0,0-.42.07h0l-.09,0h0l-.06,0-.06,0,0,0-.08,0H8l-.09,0h0a2.4,2.4,0,0,0-.26.18h0l-.07.06h0l0,.06,0,0,0,0,0,0,0,0-.06,0v0l-.06.08h0l-.06.08h0l0,0v0L1.39,56.93A2.25,2.25,0,0,0,2,60.06a2.22,2.22,0,0,0,1.27.4,2.24,2.24,0,0,0,1.86-1L8.4,54.69a36.74,36.74,0,0,0,71-4A2.25,2.25,0,0,0,77.67,48Z" fill="#fff"/><path d="M59.4,36.54H30.46V32.69a2.74,2.74,0,0,1,5.47,0h1.73a4.47,4.47,0,0,0-8.93,0v3.85H27.6a2.58,2.58,0,0,0,0,5.15h1.24l3,6.79c-2.06,3.44-1.74,8-1.59,9.37a1,1,0,0,0,1,.92H47.51a1.08,1.08,0,0,0,1-.82l1-4.33a11.57,11.57,0,0,0,3.84-2.17c3.66-3.15,4.56-7.9,4.78-9.76H59.4a2.58,2.58,0,0,0,0-5.15Zm-7,13.69c-2.35,2-5.55,2.82-9.49,2.38l-.18,1.59a17.65,17.65,0,0,0,5.12-.13l-.75,3.1H31.83c-.11-1.54-.2-5.45,1.61-8.17l.24-.36-2.94-7H56.6C56.36,43.45,55.49,47.57,52.39,50.23ZM59.4,40H27.6a.85.85,0,1,1,0-1.69H59.4a.85.85,0,1,1,0,1.69Z" fill="#fff"/></svg>