<svg id="Calque_1" data-name="Calque 1" xmlns="http://www.w3.org/2000/svg" viewBox="0 0 87 87"><path d="M76.85,13.75H10.15A1.34,1.34,0,0,0,8.81,15.1v7.14a1.34,1.34,0,0,0,1.34,1.34h2.34v41.5a1.35,1.35,0,0,0,1.34,1.35h5.48V71.9a1.35,1.35,0,0,0,1.35,1.35h6.82a1.34,1.34,0,0,0,1.35-1.35V66.43H58.17V71.9a1.34,1.34,0,0,0,1.35,1.35h6.82a1.35,1.35,0,0,0,1.35-1.35V66.43h5.48a1.35,1.35,0,0,0,1.34-1.35V23.58h2.34a1.34,1.34,0,0,0,1.34-1.34V15.1A1.34,1.34,0,0,0,76.85,13.75Zm-5,35.7H15.18V37.86H71.82ZM26.14,70.56H22V66.43h4.13Zm38.85,0H60.86V66.43H65Zm6.83-6.83H15.18V52.14H71.82Zm0-28.56H15.18V23.58H71.82ZM75.5,20.89h-64V16.44h64Z" fill="#fff"/><path d="M43.5,62.7a4.76,4.76,0,1,0-4.76-4.76A4.77,4.77,0,0,0,43.5,62.7Zm0-6.83a2.07,2.07,0,1,1-2.07,2.07A2.07,2.07,0,0,1,43.5,55.87Z" fill="#fff"/><path d="M43.5,48.42a4.76,4.76,0,1,0-4.76-4.76A4.77,4.77,0,0,0,43.5,48.42Zm0-6.83a2.07,2.07,0,1,1-2.07,2.07A2.07,2.07,0,0,1,43.5,41.59Z" fill="#fff"/><path d="M43.5,34.14a4.76,4.76,0,1,0-4.76-4.76A4.77,4.77,0,0,0,43.5,34.14Zm0-6.83a2.07,2.07,0,1,1-2.07,2.07A2.07,2.07,0,0,1,43.5,27.31Z" fill="#fff"/></svg>