<svg id="Calque_1" data-name="Calque 1" xmlns="http://www.w3.org/2000/svg" viewBox="0 0 87 87"><path d="M67.33,50.4H19.67a3.28,3.28,0,0,1-2.8-5L31.38,21.59A3.29,3.29,0,0,1,34.17,20H52.83a3.29,3.29,0,0,1,2.79,1.58L70.13,45.42a3.27,3.27,0,0,1-2.8,5ZM22,45.83H65L52.1,24.58H34.9Z" fill="#fff"/><path d="M43.5,62.31c-7.28,0-13.21-5.52-13.21-12.3a7.09,7.09,0,0,1,.1-1.08l0-.21a3.27,3.27,0,0,1,3.25-2.89H53.33a3.28,3.28,0,0,1,3.26,2.92l0,.19a6.83,6.83,0,0,1,.1,1.07C56.71,56.79,50.78,62.31,43.5,62.31ZM34.87,50.4c.23,4.09,4,7.35,8.63,7.35s8.4-3.26,8.63-7.35Z" fill="#fff"/><path d="M43.5,23.59a2.29,2.29,0,0,1-2.28-2.29V12.37a2.28,2.28,0,1,1,4.56,0V21.3A2.29,2.29,0,0,1,43.5,23.59Z" fill="#fff"/><path d="M43.5,76.92a1.61,1.61,0,0,1-1.61-1.61V66.54a1.61,1.61,0,0,1,3.22,0v8.77A1.61,1.61,0,0,1,43.5,76.92Z" fill="#fff"/><path d="M61.64,70.19a1.6,1.6,0,0,1-1.13-.47l-6.2-6.2a1.61,1.61,0,0,1,2.28-2.27l6.19,6.19a1.61,1.61,0,0,1-1.14,2.75Z" fill="#fff"/><path d="M25.41,70.06a1.64,1.64,0,0,1-1.14-.47,1.61,1.61,0,0,1,0-2.28l6.2-6.2a1.61,1.61,0,0,1,2.28,0,1.63,1.63,0,0,1,0,2.28l-6.2,6.2A1.64,1.64,0,0,1,25.41,70.06Z" fill="#fff"/></svg>