<svg id="Calque_1" data-name="Calque 1" xmlns="http://www.w3.org/2000/svg" viewBox="0 0 87 87"><path d="M44.43,18.59H26.18a1.43,1.43,0,0,0-1.33.92L14.15,48a1.42,1.42,0,0,0,1.32,1.92h7.81a1.41,1.41,0,0,1,1.31,1.95l-6,14.57A1.42,1.42,0,0,0,21,67.9L44,41a1.42,1.42,0,0,0-1.05-2.34l-7.23-.11a1.42,1.42,0,0,1-1.13-2.24l11-15.5A1.42,1.42,0,0,0,44.43,18.59Z" fill="#fff"/><path d="M71.44,57.33H50.75a1.5,1.5,0,0,1-1.45-1.9L59.65,18.19a1.5,1.5,0,0,1,2.89,0L72.89,55.43a1.5,1.5,0,0,1-1.45,1.9Zm-18.72-3H69.47L61.1,24.19Z" fill="#fff"/><path d="M61.1,69.91a1.5,1.5,0,0,1-1.5-1.5V55.83a1.5,1.5,0,0,1,3,0V68.41A1.5,1.5,0,0,1,61.1,69.91Z" fill="#fff"/></svg>