<svg id="Calque_1" data-name="Calque 1" xmlns="http://www.w3.org/2000/svg" viewBox="0 0 87 87"><path d="M37.15,9.08H21.39a.91.91,0,0,0-.91.91V13.9a.92.92,0,0,0,.91.92h5.07v49H11.2a.91.91,0,0,0-.92.91V77a.92.92,0,0,0,.92.91.92.92,0,0,0,.91-.91V70.07h3.34V77a.91.91,0,1,0,1.82,0V70.07h3.34V77a.92.92,0,0,0,.92.91.92.92,0,0,0,.91-.91V70.07h3.34V77a.91.91,0,1,0,1.82,0V70.07h3.34V77a.92.92,0,0,0,.92.91.92.92,0,0,0,.91-.91V70.07h3.34V77a.91.91,0,1,0,1.82,0V70.07h3.34V77a.92.92,0,0,0,.92.91A.92.92,0,0,0,43.1,77V70.07h3.34V77a.91.91,0,0,0,1.56.64.87.87,0,0,0,.26-.64V64.76a.89.89,0,0,0-.91-.91H32.09v-49h5.07a.94.94,0,0,0,.91-.92V10A.92.92,0,0,0,37.15,9.08ZM36.24,13H31.18a.91.91,0,0,0-.91.91V64.76a.91.91,0,0,0,.91.91H46.44v2.57H12.11V65.67H27.37a.91.91,0,0,0,.91-.91V13.9a.9.9,0,0,0-.26-.64.93.93,0,0,0-.65-.27H22.31V10.91H36.24Z" fill="#fff"/><path d="M47.35,78.42A1.41,1.41,0,0,1,45.94,77V70.57H43.6V77a1.42,1.42,0,0,1-1.41,1.41A1.42,1.42,0,0,1,40.77,77V70.57H38.43V77A1.41,1.41,0,0,1,38,78a1.43,1.43,0,0,1-1,.41A1.41,1.41,0,0,1,35.61,77V70.57H33.27V77a1.45,1.45,0,0,1-.41,1,1.43,1.43,0,0,1-1,.41A1.42,1.42,0,0,1,30.44,77V70.57H28.1V77a1.39,1.39,0,0,1-.41,1,1.43,1.43,0,0,1-1,.41A1.41,1.41,0,0,1,25.28,77V70.57H22.94V77a1.4,1.4,0,0,1-1.41,1.41A1.42,1.42,0,0,1,20.11,77V70.57H17.77V77a1.41,1.41,0,0,1-.41,1,1.43,1.43,0,0,1-1,.41A1.41,1.41,0,0,1,15,77V70.57H12.61V77a1.4,1.4,0,0,1-1.41,1.41A1.42,1.42,0,0,1,9.78,77V64.76a1.42,1.42,0,0,1,1.42-1.41H26v-48H21.39A1.43,1.43,0,0,1,20,13.9V10a1.41,1.41,0,0,1,1.41-1.41H37.16A1.41,1.41,0,0,1,38.57,10V13.9a1.45,1.45,0,0,1-1.41,1.42H32.59v48H47.35a1.41,1.41,0,0,1,1.41,1.41V77a1.41,1.41,0,0,1-.41,1A1.43,1.43,0,0,1,47.35,78.42ZM42.6,69.57h4.34V77a.43.43,0,0,0,.7.29.4.4,0,0,0,.12-.29V64.76a.41.41,0,0,0-.41-.41H31.59v-50h5.57a.45.45,0,0,0,.41-.42V10a.42.42,0,0,0-.41-.41H21.39A.42.42,0,0,0,21,10V13.9a.42.42,0,0,0,.12.3.47.47,0,0,0,.29.12H27v50H11.2a.41.41,0,0,0-.42.41V77a.43.43,0,0,0,.71.29.4.4,0,0,0,.12-.29V69.57H16V77a.43.43,0,0,0,.7.29.4.4,0,0,0,.12-.29V69.57h4.34V77a.43.43,0,0,0,.71.29.4.4,0,0,0,.12-.29V69.57h4.34V77a.43.43,0,0,0,.7.29A.4.4,0,0,0,27.1,77V69.57h4.34V77a.43.43,0,0,0,.71.29.4.4,0,0,0,.12-.29V69.57h4.34V77a.41.41,0,1,0,.82,0V69.57h4.34V77a.43.43,0,0,0,.71.29A.4.4,0,0,0,42.6,77Zm4.34-.83H11.61V65.17H27.37a.41.41,0,0,0,.41-.41V13.9a.41.41,0,0,0-.41-.41H21.81V10.41H36.74v3.08H31.18a.41.41,0,0,0-.41.41V64.76a.41.41,0,0,0,.41.41H46.94Zm-34.33-1H45.94V66.17H31.18a1.41,1.41,0,0,1-1.41-1.41V13.9a1.41,1.41,0,0,1,1.41-1.41h4.56V11.41H22.81v1.08h4.56a1.43,1.43,0,0,1,1,.41,1.45,1.45,0,0,1,.41,1V64.76a1.41,1.41,0,0,1-.41,1,1.43,1.43,0,0,1-1,.41H12.61Z" fill="#fff"/><path d="M64.89,69.74h-.21c-.35,0-8.63-1.3-11.88-8.85-3.43-8,.22-19.6,10.87-34.5a1.55,1.55,0,0,1,2.44,0c10.64,14.9,14.3,26.5,10.87,34.5-3.25,7.55-11.53,8.8-11.88,8.85Zm0-39.88c-8.92,13-12.15,23.23-9.35,29.81,2.31,5.41,8.16,6.82,9.35,7,1.18-.23,7-1.64,9.34-7C77,53.09,73.8,42.81,64.89,29.86Z" fill="#fff"/><path d="M64.89,79.42a1.5,1.5,0,0,1-1.5-1.5V46.26a1.5,1.5,0,0,1,3,0V77.92A1.5,1.5,0,0,1,64.89,79.42Z" fill="#fff"/><path d="M64.82,56.34a1.48,1.48,0,0,1-1.06-.44l-7-7a1.5,1.5,0,0,1,2.13-2.12l5.9,5.91,6-6A1.5,1.5,0,0,1,73,48.81l-7.1,7.09A1.45,1.45,0,0,1,64.82,56.34Z" fill="#fff"/><path d="M64.82,64.74h0a1.52,1.52,0,0,1-1.06-.44l-7-7a1.5,1.5,0,0,1,2.13-2.12l5.9,5.91,6-6A1.5,1.5,0,1,1,73,57.21l-7.1,7.09A1.5,1.5,0,0,1,64.82,64.74Z" fill="#fff"/></svg>