<svg id="Calque_1" data-name="Calque 1" xmlns="http://www.w3.org/2000/svg" viewBox="0 0 87 87"><path d="M72.5,13.5h-58a1,1,0,0,0-1,1v58a1,1,0,0,0,1,1h58a1,1,0,0,0,1-1v-58A1,1,0,0,0,72.5,13.5ZM61.67,33.63a1.9,1.9,0,1,1,1.9,1.89A1.89,1.89,0,0,1,61.67,33.63Zm1.79,11.44A1.9,1.9,0,1,1,61.57,47,1.9,1.9,0,0,1,63.46,45.07Zm0-22.94A1.89,1.89,0,1,1,61.52,24,1.89,1.89,0,0,1,63.42,22.13Zm-4.34,3.49a1.9,1.9,0,1,1-1.89,1.9A1.9,1.9,0,0,1,59.08,25.62ZM56.49,42.36a1.9,1.9,0,1,1-1.89,1.89A1.9,1.9,0,0,1,56.49,42.36Zm-1.78-8.82a1.9,1.9,0,1,1,1.89,1.89A1.89,1.89,0,0,1,54.71,33.54ZM57,38.68a1.9,1.9,0,1,1,1.89,1.89A1.89,1.89,0,0,1,57,38.68ZM55.34,19.79a1.89,1.89,0,1,1-1.9,1.89A1.89,1.89,0,0,1,55.34,19.79Zm-3.26,6.09a2.54,2.54,0,1,1-2.54,2.54A2.54,2.54,0,0,1,52.08,25.88Zm-6,19A1.9,1.9,0,1,1,48,46.8,1.9,1.9,0,0,1,46.07,44.9Zm.63,9.28a1.9,1.9,0,1,1-1.9-1.89A1.9,1.9,0,0,1,46.7,54.18ZM44.21,34.12A1.9,1.9,0,1,1,46.11,36,1.89,1.89,0,0,1,44.21,34.12Zm5.12,4.31a1.9,1.9,0,1,1,1.89,1.9A1.89,1.89,0,0,1,49.33,38.43ZM47.94,21a1.9,1.9,0,1,1-1.89,1.89A1.89,1.89,0,0,1,47.94,21Zm-2.08,5A1.89,1.89,0,1,1,44,27.88,1.89,1.89,0,0,1,45.86,26Zm-.42,15A2.54,2.54,0,1,1,42.9,38.4,2.54,2.54,0,0,1,45.44,40.94Zm-3.36,7.53a1.89,1.89,0,1,1-1.89-1.9A1.89,1.89,0,0,1,42.08,48.47Zm.81-17.26A1.9,1.9,0,1,1,41,29.32,1.89,1.89,0,0,1,42.89,31.21Zm-2.55-10.6a1.9,1.9,0,1,1-1.9,1.9A1.9,1.9,0,0,1,40.34,20.61Zm-1.57,16a1.89,1.89,0,1,1-1.89-1.9A1.89,1.89,0,0,1,38.77,36.63ZM35.27,25a2.54,2.54,0,1,1-2.54,2.54A2.54,2.54,0,0,1,35.27,25Zm-4.38-4.25A1.9,1.9,0,1,1,29,22.63,1.89,1.89,0,0,1,30.89,20.74Zm-.36,8.84a1.9,1.9,0,1,1-1.89,1.89A1.9,1.9,0,0,1,30.53,29.58ZM30.22,35a1.9,1.9,0,1,1-1.89,1.9A1.9,1.9,0,0,1,30.22,35Zm-3.29-6.6A1.9,1.9,0,1,1,25,26.53,1.9,1.9,0,0,1,26.93,28.42Zm-2.41,7.9a1.9,1.9,0,1,1,1.9-1.9A1.9,1.9,0,0,1,24.52,36.32Zm1.11,11.34a1.9,1.9,0,1,1-1.89-1.89A1.9,1.9,0,0,1,25.63,47.66ZM22.82,21.5a1.89,1.89,0,1,1-1.9,1.89A1.89,1.89,0,0,1,22.82,21.5ZM22.43,38a1.9,1.9,0,1,1-1.89,1.9A1.9,1.9,0,0,1,22.43,38ZM19.79,53.52a1.89,1.89,0,1,1,1.89,1.9A1.89,1.89,0,0,1,19.79,53.52Zm3.4,12.29a1.9,1.9,0,1,1,1.89-1.9A1.9,1.9,0,0,1,23.19,65.81Zm2.25-4.42a1.89,1.89,0,1,1,1.9-1.89A1.89,1.89,0,0,1,25.44,61.39Zm1.52-18a1.9,1.9,0,1,1,1.89,1.89A1.89,1.89,0,0,1,27,43.35Zm1.6,11.94a1.9,1.9,0,1,1,1.9,1.89A1.9,1.9,0,0,1,28.56,55.29Zm3.37,10.46a2.54,2.54,0,1,1,2.54-2.54A2.54,2.54,0,0,1,31.93,65.75Zm.52-13.94A2.54,2.54,0,1,1,35,49.27,2.54,2.54,0,0,1,32.45,51.81Zm1.23-8.46a1.89,1.89,0,1,1,1.89,1.9A1.89,1.89,0,0,1,33.68,43.35Zm4.2,11.85A1.9,1.9,0,1,1,36,57.09,1.9,1.9,0,0,1,37.88,55.2Zm.5,10.09a1.9,1.9,0,1,1,1.89-1.9A1.9,1.9,0,0,1,38.38,65.29Zm2.83-5.59a1.89,1.89,0,1,1,1.89,1.9A1.89,1.89,0,0,1,41.21,59.7Zm4.1,7.51a1.89,1.89,0,1,1,1.89-1.89A1.9,1.9,0,0,1,45.31,67.21ZM49.65,62a1.9,1.9,0,1,1,1.9-1.9A1.9,1.9,0,0,1,49.65,62Zm.63-8.66a1.9,1.9,0,1,1,1.9-1.89A1.89,1.89,0,0,1,50.28,53.29Zm1.66,2.92a1.89,1.89,0,1,1,1.89,1.89A1.89,1.89,0,0,1,51.94,56.21Zm3,9.28a1.89,1.89,0,1,1,1.89-1.89A1.88,1.88,0,0,1,54.9,65.49Zm.64-12.92a1.9,1.9,0,1,1,1.89-1.9A1.9,1.9,0,0,1,55.54,52.57Zm1.64,4.69a2.54,2.54,0,1,1,2.54,2.54A2.54,2.54,0,0,1,57.18,57.26Zm4,9.26a1.9,1.9,0,1,1,1.9-1.89A1.89,1.89,0,0,1,61.18,66.52Zm3.05-3.82a1.89,1.89,0,1,1,1.9-1.89A1.89,1.89,0,0,1,64.23,62.7Zm.39-8a1.9,1.9,0,1,1,1.9-1.9A1.9,1.9,0,0,1,64.62,54.7Zm.7-13a1.9,1.9,0,1,1,1.89-1.89A1.89,1.89,0,0,1,65.32,41.69Z" fill="#fff"/></svg>