<svg id="Calque_1" data-name="Calque 1" xmlns="http://www.w3.org/2000/svg" viewBox="0 0 87 87"><path d="M23.88,73.33H63.12V19.63H23.88Zm3-25.35H42V70.33H26.88ZM45,70.33V48H60.12V70.33ZM60.12,45H45V22.63H60.12ZM42,22.63V45H26.88V22.63Z" fill="#fff"/><path d="M81.25,13.67H5.75v3h1.5V73.33H21.79V16.67H64.84V73.33H79.38V16.67h1.87Zm-71,46.73h8.54v2.14H10.25Zm0-3V55.27h8.54V57.4Zm0-5.13V50.13h8.54v2.14Zm0-5.14V45h8.54v2.13Zm0-5.13V39.87h8.54V42Zm0-5.13V34.73h8.54v2.14Zm0-5.14V29.6h8.54v2.13Zm0-5.13V24.46h8.54V26.6Zm0,43.73V65.54h8.54v4.79Zm8.54-48.87H10.25V16.67h8.54ZM67.84,60.4h8.54v2.14H67.84Zm0-3V55.27h8.54V57.4Zm0-5.13V50.13h8.54v2.14Zm0-5.14V45h8.54v2.13Zm0-5.13V39.87h8.54V42Zm0-5.13V34.73h8.54v2.14Zm0-5.14V29.6h8.54v2.13Zm0-5.13V24.46h8.54V26.6Zm0,43.73V65.54h8.54v4.79Zm8.54-48.87H67.84V16.67h8.54Z" fill="#fff"/></svg>