<svg id="Calque_1" data-name="Calque 1" xmlns="http://www.w3.org/2000/svg" viewBox="0 0 87 87"><path d="M80,46.29l-.24.08v8.42H71.49v3h4.29v16H11.22v-16h44.6v-3H7.22V45H57.47a6.1,6.1,0,0,1,.88-3H7.22V32.13H46.84v-.5a7.38,7.38,0,0,1,.44-2.5H8.63L13.5,22.3h60l1.58,2.22a7.41,7.41,0,0,1,3.68,2.37,6.44,6.44,0,0,1,2.17.66l-2.15-3V10.18H8.22V24.54L4.5,29.76h0a1.71,1.71,0,0,0-.17.33s0,.06,0,.08a1.4,1.4,0,0,0-.06.28s0,.07,0,.11,0,0,0,.06V56.29a1.5,1.5,0,0,0,1.5,1.5h2.5v19H78.78v-19h2.5a1.5,1.5,0,0,0,1.5-1.5V44.42A6.21,6.21,0,0,1,80,46.29ZM11.22,13.18H75.78v7.14l-.28-.39a1.52,1.52,0,0,0-1.22-.63H12.72a1.52,1.52,0,0,0-1.22.63l-.28.39Z" fill="#fff"/><circle cx="43.5" cy="49.88" r="3.42" fill="#fff"/><path d="M78.08,29.86H75.47v-.23a2.41,2.41,0,0,0-2.4-2.4H54.24a2.41,2.41,0,0,0-2.4,2.4v2.86a2.41,2.41,0,0,0,2.4,2.4H73.07a2.41,2.41,0,0,0,2.4-2.4v-.23h1.41v5.27L63.28,42a1.2,1.2,0,0,0-.82,1.14v3.29a2.41,2.41,0,0,0-1.64,2.27v8.65a2.41,2.41,0,0,0,2.4,2.4h.87a2.41,2.41,0,0,0,2.4-2.4V48.72a2.41,2.41,0,0,0-1.63-2.27V44l13.59-4.48a1.2,1.2,0,0,0,.83-1.14V31.06A1.2,1.2,0,0,0,78.08,29.86Zm-4.1,2a1.54,1.54,0,0,1-1.54,1.54H54.81a1.54,1.54,0,0,1-1.54-1.54V30.13a1.55,1.55,0,0,1,1.54-1.54H72.44A1.55,1.55,0,0,1,74,30.13Z" fill="#fff"/></svg>