<svg id="Calque_1" data-name="Calque 1" xmlns="http://www.w3.org/2000/svg" viewBox="0 0 87 87"><path d="M12.1,12a6.63,6.63,0,0,0-6.63,6.63V68.14a6.63,6.63,0,1,0,13.25.51v-50A6.64,6.64,0,0,0,12.1,12Zm3.34,56.16a3.35,3.35,0,0,1-6.69.36,2.16,2.16,0,0,1,0-.36V18.61a3.35,3.35,0,1,1,6.69-.37v49.9Z" fill="#fff"/><path d="M27.73,12a6.63,6.63,0,0,0-6.63,6.63V68.14a6.63,6.63,0,0,0,13.26,0V18.61A6.64,6.64,0,0,0,27.73,12Zm3.35,56.16a3.35,3.35,0,1,1-6.7,0V18.61a3.35,3.35,0,1,1,6.7,0h0Z" fill="#fff"/><path d="M43.36,12a6.63,6.63,0,0,0-6.62,6.63V68.14A6.63,6.63,0,1,0,50,68.65v-50A6.64,6.64,0,0,0,43.36,12Zm3.35,56.16A3.35,3.35,0,0,1,40,68.5a2.16,2.16,0,0,1,0-.36V18.61a3.35,3.35,0,1,1,6.69-.37v49.9Z" fill="#fff"/><path d="M69.78,18.55H65.62a6.63,6.63,0,0,0-13.25.06V68.14a6.63,6.63,0,1,0,13.26,0V29.73h4.15A3.75,3.75,0,0,0,73.53,26h0V22.27A3.75,3.75,0,0,0,69.78,18.55ZM62.35,68.14a3.35,3.35,0,0,1-6.7,0V18.61a3.35,3.35,0,1,1,6.7,0h0ZM70.25,26a.47.47,0,0,1-.47.47H65.63V21.83h4.15a.47.47,0,0,1,.47.47h0Z" fill="#fff"/><path d="M75.79,31.06c.37.45,1,1.24,1.66,2.17a15.47,15.47,0,0,1,1.31,2.25,4.88,4.88,0,0,1,.52,2.05h0A3.34,3.34,0,0,1,79,38.88,3.37,3.37,0,0,1,78.25,40a3.54,3.54,0,0,1-2.46,1,3.51,3.51,0,0,1-1.36-.27A3.45,3.45,0,0,1,73.32,40a3.54,3.54,0,0,1-.75-1.09,3.33,3.33,0,0,1-.27-1.33h0a4.74,4.74,0,0,1,.52-2.05,14.47,14.47,0,0,1,1.3-2.25c.64-.93,1.29-1.72,1.67-2.17m0-3.71-.2.21a39.36,39.36,0,0,0-2.86,3.65,21.4,21.4,0,0,0-1.89,3.27,7.31,7.31,0,0,0-.8,3.24,5.47,5.47,0,0,0,.45,2.19,5.61,5.61,0,0,0,1.23,1.79,5.77,5.77,0,0,0,4.07,1.65,5.77,5.77,0,0,0,4.06-1.65,5.62,5.62,0,0,0,1.69-4,7.48,7.48,0,0,0-.81-3.24,20.6,20.6,0,0,0-1.89-3.27A37.51,37.51,0,0,0,76,27.56l-.19-.21Z" fill="#fff"/></svg>