<svg id="Calque_1" data-name="Calque 1" xmlns="http://www.w3.org/2000/svg" viewBox="0 0 68 83"><path d="M54.25,39.94V21.25a20.25,20.25,0,0,0-40.5,0V39.94H2.85V82h62.3V39.94ZM16.87,21.25a17.13,17.13,0,0,1,34.26,0V39.94H16.87ZM62,78.88H6V43.06H62Z" fill="#0a2d81"/><path d="M36.43,51.74a5.12,5.12,0,0,0-3.67,1.34,7.06,7.06,0,0,0-1.9,4h7.26v2.46h-7.5l0,.71v.88l0,.62h6.5v2.44H30.89q1,5,5.8,5a12.18,12.18,0,0,0,4.67-1v3.24a11.36,11.36,0,0,1-4.86,1,9.09,9.09,0,0,1-6.24-2.11,10.22,10.22,0,0,1-3.13-6.08H24.71V61.79h2.17l0-.59v-.59l0-1H24.71V57.12H27.1a10.39,10.39,0,0,1,3-6.27,8.84,8.84,0,0,1,6.29-2.28A11.48,11.48,0,0,1,42.14,50L40.8,53A10.06,10.06,0,0,0,36.43,51.74Z" fill="#82cef3"/></svg>