<svg id="Calque_1" data-name="Calque 1" xmlns="http://www.w3.org/2000/svg" viewBox="0 0 87 87"><rect x="13.15" y="10.09" width="60.7" height="3" fill="#fff"/><circle cx="13.15" cy="11.59" r="2.64" fill="#fff"/><circle cx="73.85" cy="11.59" r="2.64" fill="#fff"/><path d="M38.2,22.4V72.61a1.14,1.14,0,0,1-1.13,1.14,1.33,1.33,0,0,1-.34,0,7.11,7.11,0,0,0-3.94-.08L27.53,75a1.36,1.36,0,0,1-.29,0,1.24,1.24,0,0,1-.33,0l-4.44-1.33a7.17,7.17,0,0,0-3.93-.05l-.95.26a1.18,1.18,0,0,1-.31,0,1.14,1.14,0,0,1-1.13-1.14V22.4H38.2m3-3H13.15V72.8a4.15,4.15,0,0,0,4.13,4.14,4.22,4.22,0,0,0,1.1-.15l.95-.26a4.09,4.09,0,0,1,1.09-.15,4.39,4.39,0,0,1,1.19.17l4.45,1.33a3.92,3.92,0,0,0,1.18.17,4.22,4.22,0,0,0,1.06-.13l5.26-1.4a4.29,4.29,0,0,1,1.06-.14,4.19,4.19,0,0,1,1.22.18h0a4.09,4.09,0,0,0,1.23.19,4.15,4.15,0,0,0,4.13-4.14V19.4Z" fill="#fff"/><path d="M20.57,26.23a1.5,1.5,0,0,1-1.5-1.5V15.52a1.5,1.5,0,0,1,3,0v9.21A1.5,1.5,0,0,1,20.57,26.23Z" fill="#fff"/><path d="M27.17,26.23a1.5,1.5,0,0,1-1.5-1.5V15.52a1.5,1.5,0,1,1,3,0v9.21A1.5,1.5,0,0,1,27.17,26.23Z" fill="#fff"/><path d="M33.78,26.23a1.5,1.5,0,0,1-1.5-1.5V15.52a1.5,1.5,0,1,1,3,0v9.21A1.5,1.5,0,0,1,33.78,26.23Z" fill="#fff"/><path d="M70.85,22.4V72.61a1.14,1.14,0,0,1-1.13,1.14,1.33,1.33,0,0,1-.34,0,7.13,7.13,0,0,0-2.1-.32,7,7,0,0,0-1.83.24L60.18,75a1.36,1.36,0,0,1-.29,0,1.12,1.12,0,0,1-.32,0l-4.45-1.33a7.14,7.14,0,0,0-3.92-.05l-1,.26a1.12,1.12,0,0,1-.31,0A1.14,1.14,0,0,1,48.8,72.8V22.4h22m3-3h-28V72.8a4.15,4.15,0,0,0,4.13,4.14,4.22,4.22,0,0,0,1.1-.15l1-.26a4,4,0,0,1,1.09-.15,4.26,4.26,0,0,1,1.18.17l4.45,1.33a4,4,0,0,0,1.18.17A4.16,4.16,0,0,0,61,77.92l5.27-1.4a4.17,4.17,0,0,1,1.06-.14,4.24,4.24,0,0,1,1.22.18h0a4,4,0,0,0,1.22.19,4.15,4.15,0,0,0,4.13-4.14V19.4Z" fill="#fff"/><path d="M53.22,26.23a1.5,1.5,0,0,1-1.5-1.5V15.52a1.5,1.5,0,1,1,3,0v9.21A1.5,1.5,0,0,1,53.22,26.23Z" fill="#fff"/><path d="M59.83,26.23a1.5,1.5,0,0,1-1.5-1.5V15.52a1.5,1.5,0,1,1,3,0v9.21A1.5,1.5,0,0,1,59.83,26.23Z" fill="#fff"/><path d="M66.43,26.23a1.5,1.5,0,0,1-1.5-1.5V15.52a1.5,1.5,0,1,1,3,0v9.21A1.5,1.5,0,0,1,66.43,26.23Z" fill="#fff"/></svg>