<svg id="Calque_1" data-name="Calque 1" xmlns="http://www.w3.org/2000/svg" viewBox="0 0 87 87"><path d="M24,23.38a111.37,111.37,0,0,1,6.86,9.11,63.56,63.56,0,0,1,5.35,9.43,20.36,20.36,0,0,1,2.14,8.62v.09a14.2,14.2,0,0,1-1.13,5.58,14.37,14.37,0,0,1-26.45,0,14.2,14.2,0,0,1-1.13-5.58v-.09a20.36,20.36,0,0,1,2.14-8.62,63.56,63.56,0,0,1,5.35-9.43A111,111,0,0,1,24,23.38m0-3.94-.58.65a111.85,111.85,0,0,0-8.43,11,67.5,67.5,0,0,0-5.57,9.83,22.83,22.83,0,0,0-2.35,9.76,16.59,16.59,0,0,0,1.33,6.57A16.92,16.92,0,0,0,36,62.59a16.86,16.86,0,0,0,5-12,22.86,22.86,0,0,0-2.36-9.76A66.57,66.57,0,0,0,33,31.05a114.5,114.5,0,0,0-8.42-11L24,19.44Z" fill="#fff"/><path d="M24,62.58A12.3,12.3,0,0,1,11.7,50.29a1.72,1.72,0,1,1,3.43,0A8.86,8.86,0,0,0,24,59.14a1.72,1.72,0,0,1,0,3.44Z" fill="#fff"/><path d="M78.23,33.42h-4V22.28a2.85,2.85,0,0,0-2.84-2.84h0a2.84,2.84,0,0,0-2.83,2.84V33.42H57.26V22.28a2.84,2.84,0,0,0-2.83-2.84h0a2.84,2.84,0,0,0-2.84,2.84V33.42h-4a1.72,1.72,0,0,0-1.72,1.72v7.44A10.37,10.37,0,0,0,50.1,50.9l4.33,3.21h17l4.33-3.21A10.37,10.37,0,0,0,80,42.58V35.14A1.72,1.72,0,0,0,78.23,33.42Zm-.85,9.16a7.82,7.82,0,0,1-3.15,6.25l-3.64,2.7H55.28l-3.64-2.7a7.82,7.82,0,0,1-3.15-6.25V36H77.38Z" fill="#fff"/><path d="M54.43,59v2a.86.86,0,0,0,.86.86h3.94a.87.87,0,0,1,.87.86v2A2.91,2.91,0,0,0,63,67.56a2.84,2.84,0,0,0,2.8-2.84v-2a.87.87,0,0,1,.86-.86h4a.86.86,0,0,0,.86-.86V57.56h-17Z" fill="#fff"/></svg>