<svg id="Calque_1" data-name="Calque 1" xmlns="http://www.w3.org/2000/svg" viewBox="0 0 87 87"><path d="M55,62.46H42.09a9.79,9.79,0,0,1-1.16,2.67h14.7a7.7,7.7,0,0,1-.6-2.67Z" fill="#fff"/><path d="M32.6,43l.82,0a2.2,2.2,0,0,1,.55.13l23.81,9.52a10.57,10.57,0,0,0-4.36,4.18H45a12.6,12.6,0,0,0-12.15-9.41c-.42,0-.84,0-1.25.06V44.8A1.67,1.67,0,0,1,32,43.66L32.6,43M17.7,18.79h-6a2.57,2.57,0,1,0,0,5.13h6.15l12,17.75A4.69,4.69,0,0,0,28.6,44.8v6.69A9.55,9.55,0,0,1,42.4,59.9h13a7.61,7.61,0,0,1,11.27-4.21,4.75,4.75,0,0,0-2.94-3.83L35.08,40.41a5,5,0,0,0-1.49-.33L20.19,20.2l-.15.1a2.57,2.57,0,0,0-2.34-1.51Z" fill="#fff"/><rect x="4.32" y="64.51" width="1" height="3.47" fill="#fff"/><rect x="7.54" y="64.51" width="1" height="3.47" fill="#fff"/><rect x="10.77" y="64.51" width="1" height="3.47" fill="#fff"/><rect x="13.99" y="64.51" width="1" height="3.47" fill="#fff"/><rect x="17.21" y="64.51" width="1" height="3.47" fill="#fff"/><rect x="20.44" y="64.51" width="1" height="3.47" fill="#fff"/><rect x="23.66" y="64.51" width="1" height="3.47" fill="#fff"/><rect x="26.88" y="64.51" width="1" height="3.47" fill="#fff"/><rect x="30.11" y="64.51" width="1" height="3.47" fill="#fff"/><rect x="33.33" y="64.51" width="1" height="3.47" fill="#fff"/><rect x="37.38" y="64.51" width="1" height="3.47" fill="#fff"/><rect x="41.42" y="64.51" width="1" height="3.47" fill="#fff"/><rect x="45.46" y="64.51" width="1" height="3.47" fill="#fff"/><rect x="49.51" y="64.51" width="1" height="3.47" fill="#fff"/><rect x="53.56" y="64.51" width="1" height="3.47" fill="#fff"/><rect x="57.6" y="64.51" width="1" height="3.47" fill="#fff"/><rect x="61.65" y="64.51" width="1" height="3.47" fill="#fff"/><rect x="65.56" y="59.83" width="1" height="8.16" fill="#fff"/><rect x="68.79" y="59.83" width="1" height="8.16" fill="#fff"/><rect x="72.01" y="59.83" width="1" height="8.16" fill="#fff"/><rect x="75.23" y="59.83" width="1" height="8.16" fill="#fff"/><rect x="78.46" y="59.83" width="1" height="8.16" fill="#fff"/><rect x="81.68" y="59.83" width="1" height="8.16" fill="#fff"/><path d="M57.55,47.7a4.14,4.14,0,0,0,.31-.59h0a4.28,4.28,0,0,0-2.29-5.59L42.8,36.16a4.31,4.31,0,0,0-5.6,2.29h0a4.11,4.11,0,0,0-.15.46Z" fill="#fff"/><path d="M32.85,52.05a8,8,0,1,0,8,8A8,8,0,0,0,32.85,52.05Zm0,10.9A2.92,2.92,0,1,1,35.77,60,2.92,2.92,0,0,1,32.85,63Z" fill="#fff"/><path d="M62.64,56.12a6,6,0,1,0,6,6.05A6.05,6.05,0,0,0,62.64,56.12Zm0,8.39A2.34,2.34,0,1,1,65,62.17,2.34,2.34,0,0,1,62.64,64.51Z" fill="#fff"/><path d="M17.18,25.28l10.3,15.29s-3.81,1.75-6.94-.5S12,28.78,12,28.78Z" fill="#fff"/></svg>