<svg id="Calque_1" data-name="Calque 1" xmlns="http://www.w3.org/2000/svg" viewBox="0 0 87 87"><path d="M79.9,38.38l5.71-8.31a2.26,2.26,0,0,0-3.72-2.55l-3.43,5A36.75,36.75,0,0,0,7.35,36.36a2.25,2.25,0,1,0,4.42.87,32.25,32.25,0,0,1,62.42-3.31L68.7,32.65a2.25,2.25,0,1,0-1,4.39l9.83,2.27.08,0H78a2.19,2.19,0,0,0,.77-.13h0l.09,0h0l.09,0,0,0,.05,0,.1-.06,0,0,.06,0,0,0,.07,0,.06-.05,0,0,.06,0,0,0,.08-.09h0A1.3,1.3,0,0,0,79.9,38.38Z" fill="#fff"/><path d="M77.67,48A2.26,2.26,0,0,0,75,49.77,32.24,32.24,0,0,1,12.59,53l5.71,1.32a2.21,2.21,0,0,0,.51,0,2.25,2.25,0,0,0,.5-4.44L9.52,47.7h0l-.11,0h-.6a2,2,0,0,0-.42.07h0l-.09,0h0l-.06,0-.06,0,0,0-.08,0H8l-.09,0h0a2.4,2.4,0,0,0-.26.18h0l-.07.06h0l0,.06,0,0,0,0,0,0,0,0-.06,0v0l-.06.08h0l-.06.08h0l0,0v0L1.39,56.93A2.25,2.25,0,0,0,2,60.06a2.22,2.22,0,0,0,1.27.4,2.24,2.24,0,0,0,1.86-1L8.4,54.69a36.74,36.74,0,0,0,71-4A2.25,2.25,0,0,0,77.67,48Z" fill="#fff"/><path d="M45.14,42.34V35a.82.82,0,0,1,1.64,0v1.64a.82.82,0,0,0,.82.82h3.28a.82.82,0,0,0,.81-.82V35a5.74,5.74,0,1,0-11.47,0v7.37Z" fill="#fff"/><path d="M49.24,39.07a.82.82,0,1,0,0,1.64h.82v1.63H55V40.71h.82a.82.82,0,1,0,0-1.64H49.24Z" fill="#fff"/><path d="M31.21,40.71H32v1.63h4.91V40.71h.82a.82.82,0,1,0,0-1.64H31.21a.82.82,0,1,0,0,1.64Z" fill="#fff"/><path d="M59.51,45.52v2.85c0,4.7-3.66,7.86-9.12,7.86H36.61c-5.46,0-9.12-3.16-9.12-7.86V45.52h32M60.42,44H26.58a.63.63,0,0,0-.62.63v3.76c0,5.53,4.38,9.4,10.65,9.4H50.39c6.27,0,10.65-3.87,10.65-9.4V44.61a.63.63,0,0,0-.62-.63Z" fill="#fff"/></svg>