<svg id="Calque_1" data-name="Calque 1" xmlns="http://www.w3.org/2000/svg" viewBox="0 0 87 87"><path d="M72.12,58H50.39a1.58,1.58,0,0,1-1.25-.62A1.53,1.53,0,0,1,48.88,56l10.86-39.1a1.57,1.57,0,0,1,3,0L73.64,56a1.57,1.57,0,0,1-1.52,2ZM52.47,54.87H70.05L61.26,23.23Z" fill="#fff"/><path d="M61.26,71.23a1.58,1.58,0,0,1-1.58-1.58V56.45a1.58,1.58,0,1,1,3.15,0v13.2A1.57,1.57,0,0,1,61.26,71.23Z" fill="#fff"/><path d="M36.09,58.33H27.52a.93.93,0,0,0-.93.92v.28a.93.93,0,0,0,.93.92h8.57a.93.93,0,0,0,.93-.92v-.28a.93.93,0,0,0-.93-.92Z" fill="#fff"/><path d="M35,61.32H28.6a1,1,0,0,0-1,.93v.27a1,1,0,0,0,1,.93H35a1,1,0,0,0,1-.93v-.27a1,1,0,0,0-1-.93Z" fill="#fff"/><path d="M33.68,64.32H29.93a1,1,0,0,0-1.11.92v.28a1,1,0,0,0,1.11.92h3.75a1,1,0,0,0,1.11-.92v-.28a1,1,0,0,0-1.11-.92Z" fill="#fff"/><path d="M31.8,33.42a9.34,9.34,0,0,1,9.34,9.33,9.22,9.22,0,0,1-1.8,5.5l0,0,0,0a25.62,25.62,0,0,0-3.52,7.39H27.85a25.62,25.62,0,0,0-3.52-7.39l0,0,0,0a9.22,9.22,0,0,1-1.8-5.5,9.34,9.34,0,0,1,9.33-9.33m0-1.74a11.08,11.08,0,0,0-8.94,17.6c1.95,3.06,3,5.28,3.43,7.45a.93.93,0,0,0,.91.74h9.21a.92.92,0,0,0,.91-.74c.42-2.17,1.48-4.39,3.43-7.45a11.08,11.08,0,0,0-8.95-17.6Z" fill="#fff"/><path d="M31.8,26.41a1,1,0,0,1-1-1V21.56a1,1,0,1,1,2,0v3.85A1,1,0,0,1,31.8,26.41Z" fill="#fff"/><path d="M23.63,28.56a1,1,0,0,1-.86-.5l-1.93-3.33a1,1,0,0,1,1.74-1l1.92,3.33a1,1,0,0,1-.37,1.37A1,1,0,0,1,23.63,28.56Z" fill="#fff"/><path d="M17.63,34.52a1,1,0,0,1-.5-.14L13.8,32.46a1,1,0,0,1-.36-1.37,1,1,0,0,1,1.36-.36l3.33,1.92a1,1,0,0,1-.5,1.87Z" fill="#fff"/><path d="M45.91,34.62a1,1,0,0,1-.5-1.86l3.33-1.93a1,1,0,0,1,1,1.74l-3.33,1.92A1,1,0,0,1,45.91,34.62Z" fill="#fff"/><path d="M40,28.62a1,1,0,0,1-.87-1.5L41,23.79a1,1,0,0,1,1.73,1l-1.92,3.33A1,1,0,0,1,40,28.62Z" fill="#fff"/></svg>