<svg id="Calque_1" data-name="Calque 1" xmlns="http://www.w3.org/2000/svg" viewBox="0 0 87 87"><g id="NewGroupe4"><g id="NewGroup65-1"><path d="M13.1,26a.8.8,0,0,1,.8-.8H44.68a.8.8,0,0,1,.8.8V61a.8.8,0,0,1-.8.8H13.9a.8.8,0,0,1-.8-.8V26Zm9.28-9a.79.79,0,0,1,.75-.55H35.45a.8.8,0,0,1,.76.55l1.65,5H20.72l1.66-5ZM36.21,70.07a.8.8,0,0,1-.76.55H23.13a.78.78,0,0,1-.75-.55l-1.66-5H37.86l-1.65,5ZM44.68,22H41.81a.8.8,0,0,1-.76-.54l-1.8-5.5a4,4,0,0,0-3.8-2.75H23.13a4,4,0,0,0-3.79,2.75l-1.81,5.5a.79.79,0,0,1-.75.54H13.9a4,4,0,0,0-4,4V61a4,4,0,0,0,4,4h2.88a.8.8,0,0,1,.76.55l1.8,5.48a4,4,0,0,0,3.79,2.75H35.45a4,4,0,0,0,3.79-2.75l1.81-5.48A.78.78,0,0,1,41.8,65h2.88a4,4,0,0,0,4-4V26a4,4,0,0,0-4-4Z" fill="#fff"/><path d="M25.07,45.11h8.44v6.37a.94.94,0,0,1-.94.94H26a.94.94,0,0,1-.94-.94V45.11Zm8.44-3.2H25.07V35.53a.94.94,0,0,1,.94-.94h6.56a.94.94,0,0,1,.94.94v6.38ZM26,55.62h6.56a4.14,4.14,0,0,0,4.14-4.14V35.53a4.14,4.14,0,0,0-4.14-4.14H26a4.15,4.15,0,0,0-4.14,4.14V51.48A4.14,4.14,0,0,0,26,55.62Z" fill="#fff"/><path d="M29.29,21.37a2.2,2.2,0,1,0-2.19-2.19,2.2,2.2,0,0,0,2.19,2.19Z" fill="#fff"/><path d="M29.29,70a2.2,2.2,0,1,0-2.19-2.19A2.2,2.2,0,0,0,29.29,70Z" fill="#fff"/></g></g><path d="M76.05,25.21H62.65a1.05,1.05,0,0,0-1,.67L53.81,46.8a1,1,0,0,0,1,1.41h5.73a1,1,0,0,1,1,1.44L57.1,60.35a1,1,0,0,0,1.76,1.07L75.71,41.68A1,1,0,0,0,74.93,40l-5.31-.08a1,1,0,0,1-.83-1.64L76.9,26.85A1,1,0,0,0,76.05,25.21Z" fill="#fff"/></svg>