<svg id="Calque_1" data-name="Calque 1" xmlns="http://www.w3.org/2000/svg" viewBox="0 0 87 87"><rect x="7.6" y="57.42" width="71.8" height="3" fill="#fff"/><path d="M45.14,39.7V32.32a.82.82,0,0,1,1.64,0V34a.82.82,0,0,0,.82.82h3.28a.82.82,0,0,0,.81-.82V32.32a5.74,5.74,0,1,0-11.47,0V39.7Z" fill="#fff"/><path d="M49.24,36.42a.82.82,0,0,0,0,1.64h.82V39.7H55V38.06h.82a.82.82,0,0,0,0-1.64H49.24Z" fill="#fff"/><path d="M31.21,38.06H32V39.7h4.91V38.06h.82a.82.82,0,0,0,0-1.64H31.21a.82.82,0,0,0,0,1.64Z" fill="#fff"/><path d="M59.51,42.87v2.85c0,4.7-3.66,7.87-9.12,7.87H36.61c-5.46,0-9.12-3.17-9.12-7.87V42.87h32m.91-1.54H26.58A.63.63,0,0,0,26,42v3.76c0,5.53,4.38,9.4,10.65,9.4H50.39c6.27,0,10.65-3.87,10.65-9.4V42a.63.63,0,0,0-.62-.63Z" fill="#fff"/></svg>