<svg id="Calque_1" data-name="Calque 1" xmlns="http://www.w3.org/2000/svg" viewBox="0 0 87 87"><path d="M73.06,10.66H63a.45.45,0,0,0-.11,0,1.49,1.49,0,0,0-.42.08,2.47,2.47,0,0,0-.36.11c-.11.06-.2.14-.31.21a4.15,4.15,0,0,0-.32.27l-.09.08L48.25,28l-4.74-4.73a2.05,2.05,0,0,0-2.9,2.9l5.07,5.07-14.29,18-1-.6c-.08,0-.16,0-.23-.08a2.84,2.84,0,0,0-.38-.13,1.75,1.75,0,0,0-.4,0,2.48,2.48,0,0,0-.38,0,1.94,1.94,0,0,0-.39.12,1.55,1.55,0,0,0-.23.07c-4.33,2.3-10.6,9-10.6,15.13v4.71a2,2,0,0,0,1.49,1.93l.27.55c-2.57-.06-3.31-.44-5.29-2.5a1.37,1.37,0,0,0-2,1.9c3,3.14,4.59,3.34,8.63,3.35l.41.83s.05,0,.07.06a1.18,1.18,0,0,0,.38.42l.14.1a1.35,1.35,0,0,0,.64.17h6.39a1.28,1.28,0,0,0,.64-.18.55.55,0,0,0,.14-.09,1.31,1.31,0,0,0,.39-.42s0,0,0-.06l2-4c4.15.13,5.52,1.81,6.22,4.32a2,2,0,0,0,2,1.5,2.16,2.16,0,0,0,.56-.08,2.05,2.05,0,0,0,1.42-2.53c-1.21-4.32-4-6.7-8.61-7.22V63.74c0-5.39,1.36-7.5,2.46-9.2,0,0,0,0,0,0l0,0a1.45,1.45,0,0,0,.12-.35,1.74,1.74,0,0,0,.14-.38,7.64,7.64,0,0,0,0-.78,1.76,1.76,0,0,0-.15-.35,1.69,1.69,0,0,0-.17-.36,2.65,2.65,0,0,0-.29-.29,2.06,2.06,0,0,0-.26-.25l0,0,0,0L35,51.35,48.6,34.16l.17.16a2.05,2.05,0,0,0,2.9-2.9l-.5-.49,6.16-7.76L68.64,21.7h0c3.9-.61,6.43-4.13,6.43-9A2.06,2.06,0,0,0,73.06,10.66Zm-45,61.87H23.39l-1-2h6.72Zm-6.21-6.14V65.11h7.72v1.28Zm7.49-13.57,2.26,1.33a18.55,18.55,0,0,0-2,8.22H22.06C22.84,59,26.2,54.89,29.36,52.82ZM64,14.77h6.74a3.46,3.46,0,0,1-2.68,2.86L61,18.55Z" fill="#fff"/></svg>