<svg id="Calque_1" data-name="Calque 1" xmlns="http://www.w3.org/2000/svg" viewBox="0 0 87 87"><path d="M73.42,30.41H19V23.17a5.15,5.15,0,0,1,10.3,0h3.25a8.4,8.4,0,1,0-16.8,0v7.24H13.58a4.84,4.84,0,1,0,0,9.68h2.34l5.7,12.79c-3.87,6.47-3.26,15.08-3,17.63a2,2,0,0,0,1.93,1.72H51.05a2,2,0,0,0,2-1.53l2-8.16a21.35,21.35,0,0,0,7.23-4.08c6.88-5.92,8.58-14.86,9-18.37h2.24a4.84,4.84,0,1,0,0-9.68ZM60.23,56.17c-4.43,3.8-10.44,5.3-17.86,4.47l-.34,3a32.58,32.58,0,0,0,9.63-.24l-1.4,5.83H21.55c-.23-2.9-.39-10.26,3-15.37l.45-.67L19.49,40.09H68.14C67.7,43.4,66.07,51.16,60.23,56.17ZM73.42,36.84H13.58a1.6,1.6,0,0,1,0-3.19H73.42a1.6,1.6,0,0,1,0,3.19Z" fill="#fff"/></svg>