<svg id="Calque_1" data-name="Calque 1" xmlns="http://www.w3.org/2000/svg" viewBox="0 0 87 87"><path d="M79.08,82.49v-51H83.8L79.3,9.05H28.82V1H17.19V9.05H7.7L3.2,31.46H7.92v51H2.22V86H84.78V82.49Zm-67.75-51H75.67v51H50V66H37V82.49H11.33Z" fill="#fff"/><rect x="19.11" y="66.6" width="7.8" height="10.16" fill="#fff"/><rect x="60.09" y="66.6" width="7.8" height="10.16" fill="#fff"/><rect x="19.11" y="51.08" width="7.8" height="10.16" fill="#fff"/><rect x="60.09" y="51.08" width="7.8" height="10.16" fill="#fff"/><rect x="39.6" y="51.08" width="7.8" height="10.16" fill="#fff"/><rect x="19.11" y="35.55" width="7.8" height="10.16" fill="#fff"/><rect x="60.09" y="35.55" width="7.8" height="10.16" fill="#fff"/><rect x="39.6" y="35.55" width="7.8" height="10.16" fill="#fff"/></svg>