<svg id="Calque_1" data-name="Calque 1" xmlns="http://www.w3.org/2000/svg" viewBox="0 0 87 87"><path d="M55.6,52.23H67a.61.61,0,0,1,.59.63V55a.61.61,0,0,1-.59.63H55.6A.61.61,0,0,1,55,55V52.86A.61.61,0,0,1,55.6,52.23Z" fill="#fff"/><path d="M27,18.72a3.38,3.38,0,0,1-1.1,0,3.67,3.67,0,0,1-2.88-4.22,3.52,3.52,0,0,1,4-3.06l10,1.71a3.87,3.87,0,0,1,7.73,0l10-1.71a3.51,3.51,0,0,1,4,4.23,3.51,3.51,0,0,1-4,3l-10-1.7v4.76h3.08a.62.62,0,0,1,.59.64v3a.61.61,0,0,1-.59.63h-1.3a10.29,10.29,0,0,1,2.92,3.45c17.11.21,16.69,14.62,16.69,14.62v7.18H56.43V44.84c-.28-4.77-5.78-5-7.06-4.93a9.56,9.56,0,0,1-17.06-.2H23.87V29.48h8.44A10.29,10.29,0,0,1,35.23,26h-1.3a.62.62,0,0,1-.6-.63v-3a.62.62,0,0,1,.6-.64H37V17Z" fill="#fff"/><path d="M21,27.15a1.69,1.69,0,0,1,1.64,1.74V40.3a1.64,1.64,0,1,1-3.27,0V28.89A1.69,1.69,0,0,1,21,27.15Z" fill="#fff"/><path d="M66.57,71.66a5.6,5.6,0,0,1-5.27,5.91A5.61,5.61,0,0,1,56,71.66c0-3.6,5.27-10.78,5.27-10.78S66.57,68.06,66.57,71.66Z" fill="#fff"/></svg>