<svg id="Calque_1" data-name="Calque 1" xmlns="http://www.w3.org/2000/svg" viewBox="0 0 87 87"><path d="M71.52,38.35H41.1a2.85,2.85,0,0,0-2.84,2.85V42c0,.12,0,.24,0,.37H36.64l1.47-19.16a2.84,2.84,0,0,0,2-2.71V19.7a2.85,2.85,0,0,0-2.84-2.85H31.57V15.76H27.33v1.09H17.48a2.85,2.85,0,0,0-2.84,2.85v.75a2.83,2.83,0,0,0,2,2.69l.06,22.7v.09a1.59,1.59,0,0,0,1.58,1.46H26.5l3.35,7.94c-3.18,5.32-2.68,12.4-2.44,14.5A1.62,1.62,0,0,0,29,71.24H54.06A1.67,1.67,0,0,0,55.66,70l1.61-6.7a17.79,17.79,0,0,0,5.95-3.37c5.67-4.87,7.06-12.25,7.4-15.12h.9A2.84,2.84,0,0,0,74.36,42V41.2A2.85,2.85,0,0,0,71.52,38.35ZM17.12,19.7a.37.37,0,0,1,.36-.37H37.3a.38.38,0,0,1,.37.37v.75a.38.38,0,0,1-.37.37H17.48a.37.37,0,0,1-.36-.37Zm2,3.59H35.62l-1.46,19H31.1l-4.9,2.6h-7ZM61.6,58C58,61.16,53,62.4,46.91,61.71l-.27,2.46A26.91,26.91,0,0,0,54.56,64L53.4,68.77H29.79c-.18-2.38-.31-8.44,2.49-12.64l.37-.56-3.89-9.21,3-1.57h36.4C67.76,47.5,66.42,53.9,61.6,58ZM71.88,42a.37.37,0,0,1-.36.37H41.1a.38.38,0,0,1-.37-.37V41.2a.38.38,0,0,1,.37-.37H71.52a.37.37,0,0,1,.36.37Z" fill="#fff"/></svg>