<svg id="Calque_1" data-name="Calque 1" xmlns="http://www.w3.org/2000/svg" viewBox="0 0 87 87"><g id="NewGroupe4"><g id="NewGroup65-1"><path d="M21.16,24.73a.86.86,0,0,1,.86-.86H65a.86.86,0,0,1,.86.86V62.29a.86.86,0,0,1-.86.85H22a.86.86,0,0,1-.86-.85V24.73Zm9.93-9.68a.87.87,0,0,1,.82-.59H55.09a.86.86,0,0,1,.82.59l1.77,5.4H29.32l1.77-5.4ZM55.9,72a.85.85,0,0,1-.81.59H31.91a.86.86,0,0,1-.82-.59l-1.77-5.38H57.68L55.9,72ZM65,20.45H61.9a.86.86,0,0,1-.81-.59L59.16,14a4.28,4.28,0,0,0-4.07-3H31.91a4.28,4.28,0,0,0-4.07,3l-1.93,5.88a.86.86,0,0,1-.81.59H22a4.28,4.28,0,0,0-4.28,4.28V62.29A4.28,4.28,0,0,0,22,66.57H25.1a.84.84,0,0,1,.81.58L27.84,73a4.28,4.28,0,0,0,4.07,3H55.09a4.28,4.28,0,0,0,4.07-3l1.93-5.87a.84.84,0,0,1,.81-.58H65a4.28,4.28,0,0,0,4.28-4.28V24.73A4.28,4.28,0,0,0,65,20.45Z" fill="#fff"/><path d="M29.25,45.22h9v6.83a1,1,0,0,1-1,1h-7a1,1,0,0,1-1-1V45.22Zm9-3.43h-9V35a1,1,0,0,1,1-1h7a1,1,0,0,1,1,1v6.83Zm-8,14.69h7a4.43,4.43,0,0,0,4.43-4.43V35a4.43,4.43,0,0,0-4.43-4.43h-7A4.44,4.44,0,0,0,25.83,35V52.05a4.44,4.44,0,0,0,4.43,4.43Z" fill="#fff"/><path d="M48.87,45.22h9v6.83a1,1,0,0,1-1,1h-7a1,1,0,0,1-1-1V45.22Zm9-3.43h-9V35a1,1,0,0,1,1-1h7a1,1,0,0,1,1,1v6.83Zm-8,14.69h7a4.44,4.44,0,0,0,4.44-4.43V35a4.44,4.44,0,0,0-4.44-4.43h-7A4.44,4.44,0,0,0,45.44,35V52.05a4.44,4.44,0,0,0,4.43,4.43Z" fill="#fff"/><path d="M38.34,19.8A2.35,2.35,0,1,0,36,17.45a2.36,2.36,0,0,0,2.35,2.35Z" fill="#fff"/><path d="M48.65,19.8a2.35,2.35,0,1,0-2.35-2.35,2.36,2.36,0,0,0,2.35,2.35Z" fill="#fff"/><path d="M38.34,71.9A2.35,2.35,0,1,0,36,69.55a2.36,2.36,0,0,0,2.35,2.35Z" fill="#fff"/><path d="M48.65,71.9a2.35,2.35,0,1,0-2.35-2.35,2.36,2.36,0,0,0,2.35,2.35Z" fill="#fff"/></g></g></svg>