<svg id="Calque_1" data-name="Calque 1" xmlns="http://www.w3.org/2000/svg" viewBox="0 0 87 87"><path d="M76.86,8.51H60.18l-.25,0H43.79a1.43,1.43,0,0,0-.29,0H10.14a1.61,1.61,0,0,0-1.61,1.61V76.89a1.61,1.61,0,0,0,1.61,1.61H76.86a1.61,1.61,0,0,0,1.61-1.61V10.12A1.61,1.61,0,0,0,76.86,8.51ZM75.25,28.44V75.28H61.79V28.44Zm0-16.67V25.2H61.79V11.77ZM45.11,26.52V11.77H58.57V58.59H45.11V27.08a1.37,1.37,0,0,0,0-.28A1.27,1.27,0,0,0,45.11,26.52ZM58.57,61.81V75.28H45.11V61.81ZM41.89,75.25H28.43V28.41H41.89V60.15h0Zm0-63.48V25.19H28.43V11.77Zm-16.68,50V75.27H11.75V61.8Zm0-3.24H11.75V11.77H25.21Z" fill="#fff"/></svg>