<svg id="Calque_1" data-name="Calque 1" xmlns="http://www.w3.org/2000/svg" viewBox="0 0 87 87"><path d="M79.9,38.38l5.71-8.31a2.26,2.26,0,0,0-3.72-2.55l-3.43,5A36.75,36.75,0,0,0,7.35,36.36a2.25,2.25,0,1,0,4.42.87,32.25,32.25,0,0,1,62.42-3.31L68.7,32.65a2.25,2.25,0,1,0-1,4.39l9.83,2.27.08,0H78a2.19,2.19,0,0,0,.77-.13h0l.09,0h0l.09,0,0,0,.05,0,.1-.06,0,0,.06,0,0,0,.07,0,.06-.05,0,0,.06,0,0,0,.08-.09h0A1.3,1.3,0,0,0,79.9,38.38Z" fill="#fff"/><path d="M77.67,48A2.26,2.26,0,0,0,75,49.77,32.24,32.24,0,0,1,12.59,53l5.71,1.32a2.21,2.21,0,0,0,.51,0,2.25,2.25,0,0,0,.5-4.44L9.52,47.7h0l-.11,0h-.6a2,2,0,0,0-.42.07h0l-.09,0h0l-.06,0-.06,0,0,0-.08,0H8l-.09,0h0a2.4,2.4,0,0,0-.26.18h0l-.07.06h0l0,.06,0,0,0,0,0,0,0,0-.06,0v0l-.06.08h0l-.06.08h0l0,0v0L1.39,56.93A2.25,2.25,0,0,0,2,60.06a2.22,2.22,0,0,0,1.27.4,2.24,2.24,0,0,0,1.86-1L8.4,54.69a36.74,36.74,0,0,0,71-4A2.25,2.25,0,0,0,77.67,48Z" fill="#fff"/><rect x="24.98" y="55.82" width="4.95" height="7.75" fill="#fff"/><rect x="24.98" y="23.43" width="4.95" height="7.75" fill="#fff"/><rect x="24.98" y="33.83" width="4.95" height="19.35" fill="#fff"/><rect x="30.64" y="55.82" width="4.95" height="7.75" fill="#fff"/><rect x="30.64" y="33.83" width="4.95" height="19.35" fill="#fff"/><rect x="30.64" y="23.43" width="4.95" height="7.75" fill="#fff"/><polygon points="38.4 33.83 36.3 33.83 36.3 53.17 38.4 53.17 38.4 55.82 36.3 55.82 36.3 63.57 41.25 63.57 41.25 23.43 36.3 23.43 36.3 31.18 38.4 31.18 38.4 33.83" fill="#fff"/><rect x="51.41" y="33.83" width="4.95" height="19.35" fill="#fff"/><rect x="51.41" y="23.43" width="4.95" height="7.75" fill="#fff"/><rect x="51.41" y="55.82" width="4.95" height="7.75" fill="#fff"/><rect x="57.06" y="33.83" width="4.95" height="19.35" fill="#fff"/><rect x="57.06" y="55.82" width="4.95" height="7.75" fill="#fff"/><rect x="57.06" y="23.43" width="4.95" height="7.75" fill="#fff"/><polygon points="50.7 55.82 48.6 55.82 48.6 53.17 50.7 53.17 50.7 33.83 48.6 33.83 48.6 31.18 50.7 31.18 50.7 23.43 45.75 23.43 45.75 63.57 50.7 63.57 50.7 55.82" fill="#fff"/></svg>