<svg id="Calque_1" data-name="Calque 1" xmlns="http://www.w3.org/2000/svg" viewBox="0 0 87 87"><path d="M43.5,4A39.5,39.5,0,1,1,4,43.5,39.55,39.55,0,0,1,43.5,4m0-3A42.5,42.5,0,1,0,86,43.5,42.5,42.5,0,0,0,43.5,1Z" fill="#fff"/><path d="M59.39,38.64a71.51,71.51,0,0,0-6.07-10.71,122.9,122.9,0,0,0-9.19-12l-.63-.71-.63.71a122.9,122.9,0,0,0-9.19,12,71.51,71.51,0,0,0-6.07,10.71c-1.82,4.11-2.69,7.69-2.57,10.64a18.46,18.46,0,0,0,36.92,0C62.08,46.33,61.21,42.75,59.39,38.64ZM43.5,62.31a13.41,13.41,0,0,1-13.4-13.4,1.88,1.88,0,1,1,3.75,0,9.66,9.66,0,0,0,9.65,9.65,1.88,1.88,0,0,1,0,3.75Z" fill="#fff"/></svg>