<svg id="Calque_1" data-name="Calque 1" xmlns="http://www.w3.org/2000/svg" viewBox="0 0 87 87"><path d="M71.27,13.39H15.73a4.3,4.3,0,0,0-4.29,4.29V58.8h3V26.27a4.26,4.26,0,0,0,1.29.22H71.27a4.3,4.3,0,0,0,4.29-4.29V17.68A4.3,4.3,0,0,0,71.27,13.39Zm1.29,8.81a1.29,1.29,0,0,1-1.29,1.29H15.73a1.29,1.29,0,0,1-1.29-1.29V17.68a1.29,1.29,0,0,1,1.29-1.29H71.27a1.29,1.29,0,0,1,1.29,1.29Z" fill="#fff"/><rect x="18.38" y="29.65" width="52.91" height="4" fill="#fff"/><rect x="18.38" y="36.31" width="52.91" height="4" fill="#fff"/><rect x="18.38" y="42.97" width="52.91" height="4" fill="#fff"/><rect x="18.38" y="49.63" width="52.91" height="4" fill="#fff"/><rect x="18.38" y="56.29" width="52.91" height="4" fill="#fff"/><rect x="18.38" y="62.95" width="52.91" height="4" fill="#fff"/><rect x="18.38" y="69.61" width="52.91" height="4" fill="#fff"/></svg>