<svg id="Calque_1" data-name="Calque 1" xmlns="http://www.w3.org/2000/svg" viewBox="0 0 87 87"><rect x="23.7" y="57.87" width="5.78" height="9.04" fill="#fff"/><rect x="23.7" y="20.09" width="5.78" height="9.04" fill="#fff"/><rect x="23.7" y="32.21" width="5.78" height="22.57" fill="#fff"/><rect x="30.3" y="57.87" width="5.78" height="9.04" fill="#fff"/><rect x="30.3" y="32.21" width="5.78" height="22.57" fill="#fff"/><rect x="30.3" y="20.09" width="5.78" height="9.04" fill="#fff"/><polygon points="39.35 32.22 36.9 32.22 36.9 54.78 39.35 54.78 39.35 57.87 36.9 57.87 36.9 66.92 42.68 66.92 42.68 20.09 36.9 20.09 36.9 29.13 39.35 29.13 39.35 32.22" fill="#fff"/><rect x="2.78" y="57.87" width="5.78" height="9.04" fill="#fff"/><rect x="2.78" y="20.09" width="5.78" height="9.04" fill="#fff"/><rect x="2.78" y="32.21" width="5.78" height="22.57" fill="#fff"/><rect x="9.38" y="57.87" width="5.78" height="9.04" fill="#fff"/><rect x="9.38" y="32.21" width="5.78" height="22.57" fill="#fff"/><rect x="9.38" y="20.09" width="5.78" height="9.04" fill="#fff"/><polygon points="18.43 32.22 15.98 32.22 15.98 54.78 18.43 54.78 18.43 57.87 15.98 57.87 15.98 66.92 21.76 66.92 21.76 20.09 15.98 20.09 15.98 29.13 18.43 29.13 18.43 32.22" fill="#fff"/><rect x="51.02" y="32.21" width="5.78" height="22.57" fill="#fff"/><rect x="51.02" y="20.09" width="5.78" height="9.04" fill="#fff"/><rect x="51.02" y="57.87" width="5.78" height="9.04" fill="#fff"/><rect x="57.62" y="32.21" width="5.78" height="22.57" fill="#fff"/><rect x="57.62" y="57.87" width="5.78" height="9.04" fill="#fff"/><rect x="57.62" y="20.09" width="5.78" height="9.04" fill="#fff"/><polygon points="50.2 57.87 47.74 57.87 47.74 54.78 50.2 54.78 50.2 32.22 47.74 32.22 47.74 29.13 50.2 29.13 50.2 20.09 44.42 20.09 44.42 66.92 50.2 66.92 50.2 57.87" fill="#fff"/><rect x="71.84" y="32.21" width="5.78" height="22.57" fill="#fff"/><rect x="71.84" y="20.09" width="5.78" height="9.04" fill="#fff"/><rect x="71.84" y="57.87" width="5.78" height="9.04" fill="#fff"/><rect x="78.44" y="32.21" width="5.78" height="22.57" fill="#fff"/><rect x="78.44" y="57.87" width="5.78" height="9.04" fill="#fff"/><rect x="78.44" y="20.09" width="5.78" height="9.04" fill="#fff"/><polygon points="71.02 57.87 68.57 57.87 68.57 54.78 71.02 54.78 71.02 32.22 68.57 32.22 68.57 29.13 71.02 29.13 71.02 20.09 65.24 20.09 65.24 66.92 71.02 66.92 71.02 57.87" fill="#fff"/></svg>