<svg id="Calque_1" data-name="Calque 1" xmlns="http://www.w3.org/2000/svg" viewBox="0 0 87 87"><path d="M71.27,13.39H15.73a4.3,4.3,0,0,0-4.29,4.29V58.8h3V26.27a4.26,4.26,0,0,0,1.29.22H71.27a4.3,4.3,0,0,0,4.29-4.29V17.68A4.3,4.3,0,0,0,71.27,13.39Zm1.29,8.81a1.29,1.29,0,0,1-1.29,1.29H15.73a1.29,1.29,0,0,1-1.29-1.29V17.68a1.29,1.29,0,0,1,1.29-1.29H71.27a1.29,1.29,0,0,1,1.29,1.29Z" fill="#fff"/><path d="M18.38,33.65h16.7a9.4,9.4,0,0,1,8.48,0H50a7.94,7.94,0,0,1,3.86-1,7.79,7.79,0,0,1,2,.27,3,3,0,0,1,1.31.74H71.29v-4H18.38Z" fill="#fff"/><path d="M44.19,39.53a3,3,0,0,1-1.4.78H46a7.8,7.8,0,0,1,1.23-4H45.8v0a3,3,0,0,1-.86,2.45Z" fill="#fff"/><path d="M59.43,36.4a3,3,0,0,1,2.12,2.13,7.79,7.79,0,0,1,.25,1.78h9.49v-4H58.76A3.08,3.08,0,0,1,59.43,36.4Z" fill="#fff"/><path d="M18.38,40.31h9.36l.37-.37a3,3,0,0,1,1.43-.8,3,3,0,0,1,.79-1.42l1.41-1.41H18.38Z" fill="#fff"/><path d="M18.38,47H26.8l-.74-.73A3,3,0,0,1,25.41,43h-7Z" fill="#fff"/><path d="M59.5,46.18a7.86,7.86,0,0,1-.94.79H71.29V43H61.43A7.93,7.93,0,0,1,59.5,46.18Z" fill="#fff"/><path d="M18.38,53.63H33l4-4h-2.9l-.2.2a3,3,0,0,1-4.24,0l-.19-.2H18.38Z" fill="#fff"/><polygon points="52.62 49.67 56.58 53.63 71.29 53.63 71.29 49.63 52.66 49.63 52.62 49.67" fill="#fff"/><polygon points="42 60.29 47.58 60.29 44.79 57.51 42 60.29" fill="#fff"/><path d="M18.38,60.29H30.14a5.54,5.54,0,0,1,.53-4H18.38Z" fill="#fff"/><path d="M59.44,60.29H71.29v-4H58.91A5.54,5.54,0,0,1,59.44,60.29Z" fill="#fff"/><path d="M54.09,64.51A5.5,5.5,0,0,1,50.25,63H39.33a5.49,5.49,0,0,1-7.67,0H18.38v4H71.29V63H57.92A5.5,5.5,0,0,1,54.09,64.51Z" fill="#fff"/><rect x="18.38" y="69.61" width="52.91" height="4" fill="#fff"/><path d="M30.24,42.06l-2.06,2,3.59,3.6,2.06-2.06A1.72,1.72,0,0,1,36,43.44a1.54,1.54,0,0,1,.64.4L40.85,48l2.27-2.27-6.48-6.49a6.5,6.5,0,0,1,5.43-1.83l.75-.75a6.47,6.47,0,0,0-8,.79h0l-2.4,2.39a1.73,1.73,0,0,1-2.21,2.22Z" fill="#fff"/><path d="M55.88,60.76a2.54,2.54,0,0,0,0-3.59l-6.49-6.49L45.8,54.27l6.49,6.5A2.53,2.53,0,0,0,55.88,60.76Z" fill="#fff"/><path d="M33.7,60.76a2.53,2.53,0,0,0,3.59,0L52.7,45.35a4.92,4.92,0,0,0,5.95-6.05l-2,2a2.47,2.47,0,0,1-3.49-3.49l2-2a4.92,4.92,0,0,0-6,5.95L33.7,57.17A2.54,2.54,0,0,0,33.7,60.76Zm1.08-2.51a1,1,0,1,1,0,1.43A1,1,0,0,1,34.78,58.25Z" fill="#fff"/></svg>