<svg id="Calque_1" data-name="Calque 1" xmlns="http://www.w3.org/2000/svg" viewBox="0 0 87 87"><path d="M38.84,14.84a.67.67,0,0,0-.19-.47.7.7,0,0,0-.95,0,.67.67,0,0,0-.19.47.67.67,0,1,0,1.33,0Z" fill="#fff"/><path d="M37.62,17.21a.66.66,0,1,0-.31,1.29l.16,0a.66.66,0,0,0,.64-.51A.65.65,0,0,0,37.62,17.21Z" fill="#fff"/><path d="M36.91,20.22a.67.67,0,0,0-.8.5.66.66,0,0,0,.49.8l.16,0a.67.67,0,0,0,.15-1.32Z" fill="#fff"/><path d="M35.49,26.26a.66.66,0,0,0-.8.49.65.65,0,0,0,.49.8.44.44,0,0,0,.16,0,.66.66,0,0,0,.15-1.31Z" fill="#fff"/><path d="M36.2,23.24a.67.67,0,0,0-.31,1.3h.16a.66.66,0,0,0,.15-1.31Z" fill="#fff"/><path d="M34.15,29.45a.7.7,0,0,0-.19.47.67.67,0,0,0,.19.47.66.66,0,0,0,1,0,.67.67,0,0,0,.19-.47.67.67,0,0,0-1.14-.47Z" fill="#fff"/><path d="M40.37,14.37a.63.63,0,0,0-.2.47.67.67,0,0,0,.67.66.65.65,0,0,0,.66-.66.67.67,0,0,0-.19-.47A.68.68,0,0,0,40.37,14.37Z" fill="#fff"/><path d="M40.56,17.19a.66.66,0,0,0-.16,1.32h.08a.67.67,0,0,0,.08-1.33Z" fill="#fff"/><path d="M39.85,23.23a.66.66,0,0,0-.74.58.67.67,0,0,0,.58.74h.08a.66.66,0,0,0,.08-1.32Z" fill="#fff"/><path d="M40.21,20.21a.67.67,0,0,0-.74.58.65.65,0,0,0,.58.74h.08a.67.67,0,0,0,.08-1.33Z" fill="#fff"/><path d="M39.5,26.24a.67.67,0,0,0-.74.59.66.66,0,0,0,.58.74h.08a.67.67,0,0,0,.66-.59A.68.68,0,0,0,39.5,26.24Z" fill="#fff"/><path d="M38.59,29.45a.7.7,0,0,0-.19.47.67.67,0,0,0,.66.67.68.68,0,0,0,.67-.67.67.67,0,0,0-.2-.47A.68.68,0,0,0,38.59,29.45Z" fill="#fff"/><path d="M49.49,14.84a.67.67,0,0,0-.19-.47.7.7,0,0,0-.95,0,.67.67,0,0,0-.19.47.67.67,0,1,0,1.33,0Z" fill="#fff"/><path d="M50.18,17.7a.66.66,0,0,0-1.29.31.66.66,0,0,0,.64.51l.16,0A.65.65,0,0,0,50.18,17.7Z" fill="#fff"/><path d="M50.31,24a.65.65,0,0,0,.64.51h.16a.67.67,0,0,0-.31-1.3A.65.65,0,0,0,50.31,24Z" fill="#fff"/><path d="M50.09,20.22a.67.67,0,0,0,.15,1.32l.16,0a.66.66,0,0,0,.49-.8A.67.67,0,0,0,50.09,20.22Z" fill="#fff"/><path d="M51,27.06a.65.65,0,0,0,.64.51.44.44,0,0,0,.16,0,.65.65,0,0,0,.49-.8.66.66,0,0,0-.8-.49A.65.65,0,0,0,51,27.06Z" fill="#fff"/><path d="M51.71,29.92a.67.67,0,0,0,.66.67.67.67,0,0,0,.48-.2.67.67,0,0,0,.19-.47.67.67,0,1,0-1.33,0Z" fill="#fff"/><path d="M46.63,15.31a.67.67,0,0,0,.2-.47.63.63,0,0,0-.2-.47.68.68,0,0,0-.94,0,.67.67,0,0,0-.19.47.65.65,0,0,0,.66.66A.67.67,0,0,0,46.63,15.31Z" fill="#fff"/><path d="M47.3,24.55a.67.67,0,0,0,.59-.74.66.66,0,0,0-.74-.58.66.66,0,0,0,.08,1.32Z" fill="#fff"/><path d="M47.66,27.57a.66.66,0,0,0,.58-.74.67.67,0,0,0-.74-.59.68.68,0,0,0-.58.74.67.67,0,0,0,.66.59Z" fill="#fff"/><path d="M47,21.53a.66.66,0,0,0,.58-.74.66.66,0,1,0-.66.75Z" fill="#fff"/><path d="M46.6,18.51a.62.62,0,1,0-.08,0Z" fill="#fff"/><path d="M47.47,29.45a.67.67,0,0,0-.2.47.68.68,0,0,0,.67.67.67.67,0,0,0,.66-.67.7.7,0,0,0-.19-.47A.68.68,0,0,0,47.47,29.45Z" fill="#fff"/><path d="M43,14.37a.67.67,0,0,0-.2.47.71.71,0,0,0,.2.47.68.68,0,0,0,.94,0,.71.71,0,0,0,.2-.47.67.67,0,0,0-.2-.47A.68.68,0,0,0,43,14.37Z" fill="#fff"/><path d="M43.5,26.24a.67.67,0,1,0,.67.67A.67.67,0,0,0,43.5,26.24Z" fill="#fff"/><path d="M43.5,20.21a.66.66,0,0,0-.67.66.67.67,0,0,0,1.34,0A.66.66,0,0,0,43.5,20.21Z" fill="#fff"/><path d="M43.5,17.19a.67.67,0,1,0,.67.66A.67.67,0,0,0,43.5,17.19Z" fill="#fff"/><path d="M43.5,23.22a.67.67,0,0,0-.67.67.67.67,0,0,0,1.34,0A.67.67,0,0,0,43.5,23.22Z" fill="#fff"/><path d="M43,29.45a.71.71,0,0,0-.2.47.67.67,0,0,0,.2.47.65.65,0,0,0,.94,0,.67.67,0,0,0,.2-.47.71.71,0,0,0-.2-.47A.68.68,0,0,0,43,29.45Z" fill="#fff"/><path d="M36.4,12a.67.67,0,0,0,.67.67H49.93A.67.67,0,0,0,50.6,12V10.84H36.4Z" fill="#fff"/><polygon points="45.27 5.3 41.73 5.3 36.62 10.4 50.38 10.4 45.27 5.3" fill="#fff"/><path d="M55.61,6.34V80.66H31.39V6.34H55.61m3.75-3.75H27.64V84.41H59.36V2.59Z" fill="#fff"/><circle cx="43.5" cy="47.54" r="3.01" fill="#fff"/><circle cx="43.5" cy="57.25" r="3.01" fill="#fff"/><circle cx="43.5" cy="66.96" r="3.01" fill="#fff"/></svg>