<svg id="Calque_1" data-name="Calque 1" xmlns="http://www.w3.org/2000/svg" viewBox="0 0 87 87"><path d="M52,11.53A16.61,16.61,0,0,0,35.91,28.18v38.4h-2.2l.07-.63c0-.1,0-.2,0-.3v-9.5a2.66,2.66,0,0,0-2.66-2.66H21.64A2.66,2.66,0,0,0,19,56.15v9.5a2.56,2.56,0,0,0,.23,1.08l.16.37-.3.27A2.27,2.27,0,0,0,18.31,69v4a2.7,2.7,0,0,0,2.93,2.46H58.16A2.72,2.72,0,0,0,61.09,73V69a2.2,2.2,0,0,0-.68-1.56l-.28-.29.18-.36a2.59,2.59,0,0,0,.28-1.18v-9.5a2.66,2.66,0,0,0-2.66-2.66h-9.5a2.67,2.67,0,0,0-2.66,2.66v9.5c0,.1,0,.2,0,.3l.08.63H43.59V27.92a8.73,8.73,0,0,1,9-8.71A8.88,8.88,0,0,1,61,28.12v3.33a2.32,2.32,0,0,0,2.32,2.32h3a2.32,2.32,0,0,0,2.32-2.32V27.92A16.41,16.41,0,0,0,52,11.53ZM20.7,56.15a.93.93,0,0,1,.94-.93h1.51v7.23a.87.87,0,0,0,1.73,0V55.22h3v7.23a.87.87,0,0,0,1.73,0V55.22h1.51a.93.93,0,0,1,.94.93v9.5a.94.94,0,0,1-.94.93H21.64a.94.94,0,0,1-.94-.93Zm26.8,0a.93.93,0,0,1,.93-.93H50v7.23a.87.87,0,0,0,1.73,0V55.22h3v7.23a.86.86,0,0,0,1.72,0V55.22h1.52a.93.93,0,0,1,.94.93v9.5a.94.94,0,0,1-.94.93h-9.5a.93.93,0,0,1-.93-.93ZM58.16,68.31a1.43,1.43,0,0,1,1.07.41l.13.16v4.29l-.13.16a1.43,1.43,0,0,1-1.07.42H21.24a1.43,1.43,0,0,1-1.07-.42L20,73.17V68.88l.13-.16a1.43,1.43,0,0,1,1.07-.41ZM67,32l-.59,0h-3.6l0-.59V28.12A10.61,10.61,0,0,0,52.62,17.49,10.44,10.44,0,0,0,41.87,27.92V66.58H37.64V28.18A14.87,14.87,0,0,1,52,13.26,14.68,14.68,0,0,1,67,27.92Z" fill="#fff"/></svg>