<svg id="Calque_1" data-name="Calque 1" xmlns="http://www.w3.org/2000/svg" viewBox="0 0 87 87"><path d="M11.41,7.13V79.87H75.59V7.13ZM72.59,76.87H14.41V10.13H72.59Z" fill="#fff"/><rect x="16.9" y="62.76" width="7.74" height="12.12" fill="#fff"/><rect x="16.9" y="12.12" width="7.74" height="12.12" fill="#fff"/><rect x="16.9" y="28.38" width="7.74" height="30.25" fill="#fff"/><rect x="25.74" y="62.76" width="7.74" height="12.12" fill="#fff"/><rect x="25.74" y="28.38" width="7.74" height="30.25" fill="#fff"/><rect x="25.74" y="12.12" width="7.74" height="12.12" fill="#fff"/><polygon points="37.88 28.38 34.59 28.38 34.59 58.63 37.88 58.63 37.88 62.76 34.59 62.76 34.59 74.88 42.33 74.88 42.33 12.12 34.59 12.12 34.59 24.24 37.88 24.24 37.88 28.38" fill="#fff"/><rect x="53.51" y="28.38" width="7.74" height="30.25" fill="#fff"/><rect x="53.51" y="12.12" width="7.74" height="12.12" fill="#fff"/><rect x="53.51" y="62.76" width="7.74" height="12.12" fill="#fff"/><rect x="62.36" y="28.38" width="7.74" height="30.25" fill="#fff"/><rect x="62.36" y="62.76" width="7.74" height="12.12" fill="#fff"/><rect x="62.36" y="12.12" width="7.74" height="12.12" fill="#fff"/><polygon points="52.41 62.76 49.12 62.76 49.12 58.63 52.41 58.63 52.41 28.38 49.12 28.38 49.12 24.24 52.41 24.24 52.41 12.12 44.67 12.12 44.67 74.88 52.41 74.88 52.41 62.76" fill="#fff"/></svg>