<svg id="Calque_1" data-name="Calque 1" xmlns="http://www.w3.org/2000/svg" viewBox="0 0 87 87"><path d="M35.61,50.61A16.23,16.23,0,0,0,30,44.94v-5.5H25.81V33.92l1.5-2.42a.92.92,0,0,1,.4-.36l1.36,5,3.25,1.38.46-1.1-2.71-1.14L28.91,31h4a1.6,1.6,0,0,0,1.6-1.6V27.59a1.6,1.6,0,0,0-1.6-1.6H15.81a2.78,2.78,0,0,0-2,.82L9.32,31.32a2.33,2.33,0,0,0,3.3,3.29l1.94-1.94a.53.53,0,0,1,.66-.08l2.48,1.49v5.36H13.52V45A16.08,16.08,0,0,0,7,65.22a16,16,0,0,0,3.67,5.21l.17.17H32.64l.17-.17a16.07,16.07,0,0,0,2.8-19.82Zm-6.84-10v4.11H14.71V40.63H28.77Zm-9.88-1.19v-5.1h5.73v5.1Zm-5.17-7.61-1.94,1.94A1.14,1.14,0,0,1,9.83,33a1.14,1.14,0,0,1,.33-.8l4.51-4.51a1.59,1.59,0,0,1,1.14-.47h14v2.67H28.14a2.16,2.16,0,0,0-1.84,1l-1.42,2.28H18.46l-2.63-1.58A1.72,1.72,0,0,0,13.72,31.83ZM35.39,64.75a14.88,14.88,0,0,1-3.23,4.66H11.35A14.88,14.88,0,0,1,14.19,46H29.32a14.87,14.87,0,0,1,7.32,12.82A14.77,14.77,0,0,1,35.39,64.75Z" fill="#fff"/><path d="M32.64,71.6H10.87a1,1,0,0,1-.68-.28L10,71.16a17.06,17.06,0,0,1,2.51-26.75v-5a1,1,0,0,1,1-1h3.19V34.65l-1.7-1-1.69,1.69a3.41,3.41,0,0,1-4.7,0,3.33,3.33,0,0,1,0-4.71l4.52-4.51A3.73,3.73,0,0,1,15.81,25H32.87a2.6,2.6,0,0,1,2.6,2.6v1.85a2.61,2.61,0,0,1-2.6,2.6H30.22l.69,2.54,2.26,1a1,1,0,0,1,.53,1.32L33.24,38a1,1,0,0,1-.55.54,1.08,1.08,0,0,1-.77,0L28.68,37.1a1,1,0,0,1-.57-.66l-.82-3-.48.78v4.24H30a1,1,0,0,1,1,1v4.94a17.32,17.32,0,0,1,5.51,5.72h0a17.08,17.08,0,0,1-3,21.06l-.17.16A1,1,0,0,1,32.64,71.6ZM11.77,68.41h20a13.66,13.66,0,0,0,2.73-4.07h0a13.64,13.64,0,0,0,1.17-5.57A13.87,13.87,0,0,0,29,47H14.47a13.87,13.87,0,0,0-6.6,11.82,13.89,13.89,0,0,0,3.9,9.64Zm23.62-3.66h0Zm-19.68-21H27.77V41.63H15.71Zm4.18-5.3h3.73v-3.1H19.89ZM15.81,28.18a.61.61,0,0,0-.43.17l-4.51,4.51a.13.13,0,0,0,0,.1.12.12,0,0,0,0,.1.13.13,0,0,0,.2,0L13,31.12a2.72,2.72,0,0,1,3.34-.41l2.39,1.44h5.59l1.12-1.81a3.16,3.16,0,0,1,2.69-1.49h.63v-.67ZM30.75,30h2.12a.6.6,0,0,0,.6-.6V27.59a.6.6,0,0,0-.6-.6H30.75a1.11,1.11,0,0,1,0,.19v2.67A1.23,1.23,0,0,1,30.75,30Z" fill="#fff"/><path d="M59.32,42.9a1.51,1.51,0,0,1-1.15-.53,4.09,4.09,0,0,0-2.48-1.46,15.84,15.84,0,0,1-5.21-2.53c-2.77-2-3.4-5.19-3.9-7.77a18.94,18.94,0,0,0-.66-2.67,1.5,1.5,0,0,1,2.42-1.64,12.88,12.88,0,0,0,4,1.54c2,.57,4.09,1.17,5.34,2.23,3.26,2.75,3.22,6.32,3.18,10.09V41.4a1.5,1.5,0,0,1-1,1.41A1.31,1.31,0,0,1,59.32,42.9ZM49.54,30.14c.44,2.23.91,4.53,2.69,5.79A12.64,12.64,0,0,0,56.55,38c.43.13.85.25,1.28.42,0-2.8-.37-4.62-2.12-6.1a14.6,14.6,0,0,0-4.23-1.64C50.81,30.53,50.16,30.34,49.54,30.14Z" fill="#fff"/><path d="M59.32,40.34a1.46,1.46,0,0,1-1-.38,1.49,1.49,0,0,1-.12-2.11,31,31,0,0,1,3.26-3.09C64,32.58,65.82,31,65.82,27.4a22.19,22.19,0,0,0-1.12-6.66c-.11-.38-.22-.76-.32-1.13-.53.48-1.08.94-1.62,1.39-2.65,2.22-4.94,4.14-4.94,7.53A18,18,0,0,0,58,30.86a1.5,1.5,0,0,1-3,.37,22,22,0,0,1-.15-2.7c0-4.79,3.19-7.47,6-9.83a22.54,22.54,0,0,0,3.36-3.22A1.51,1.51,0,0,1,65.86,15a1.48,1.48,0,0,1,1,1.41,12.9,12.9,0,0,0,.7,3.5,25,25,0,0,1,1.24,7.5c0,5-2.75,7.35-5.41,9.63a29.9,29.9,0,0,0-3,2.81A1.51,1.51,0,0,1,59.32,40.34Z" fill="#fff"/><path d="M59.32,40.34a1.5,1.5,0,0,1-1.5-1.5A31.81,31.81,0,0,1,62,23.55a1.5,1.5,0,0,1,2.55,1.58,29.29,29.29,0,0,0-3.77,13.71A1.5,1.5,0,0,1,59.32,40.34Z" fill="#fff"/><path d="M59.32,64.9a1.5,1.5,0,0,1-1.5-1.5v-22c0-1-2.58-4.22-5.51-6.88a1.5,1.5,0,0,1-.1-2.12,1.48,1.48,0,0,1,2.11-.11c1.53,1.38,6.5,6.12,6.5,9.11v22A1.5,1.5,0,0,1,59.32,64.9Z" fill="#fff"/><path d="M63.32,52a1.5,1.5,0,0,1-1.5-1.5c0-.38.07-9.41,6.1-13.44C73,33.7,80.67,32,81,31.94a1.5,1.5,0,0,1,1.67,2.12,24.33,24.33,0,0,0-1,2.71c-1.11,3.37-2.79,8.46-5.83,11.4C72.39,51.53,66.51,52,63.32,52Zm15.6-16.45a36.47,36.47,0,0,0-9.33,4c-3.42,2.28-4.39,7-4.67,9.39,3.93-.22,7.11-1.27,8.85-3,2.51-2.42,4-7.09,5.07-10.18C78.87,35.75,78.89,35.67,78.92,35.58Z" fill="#fff"/><path d="M59.32,58.9a1.74,1.74,0,0,1-.45-.06,1.51,1.51,0,0,1-1-1.88C60.37,48.91,70,41.52,70.41,41.21a1.5,1.5,0,1,1,1.81,2.39c-.09.07-9.27,7.12-11.47,14.25A1.5,1.5,0,0,1,59.32,58.9Z" fill="#fff"/><path d="M59.32,60.9A1.48,1.48,0,0,1,58,60C55.43,54.34,47.5,47.69,47.42,47.62a1.5,1.5,0,0,1,1.92-2.31c.35.29,8.55,7.18,11.35,13.49a1.51,1.51,0,0,1-.77,2A1.57,1.57,0,0,1,59.32,60.9Z" fill="#fff"/><path d="M56.32,55.9a1.54,1.54,0,0,1-.72-.18,13.7,13.7,0,0,0-2.13-.31c-3-.3-7.48-.76-10.37-3.86-2.67-2.84-3.78-8.58-4.59-12.77-.24-1.25-.44-2.33-.63-2.94a1.51,1.51,0,0,1,.71-1.75,1.49,1.49,0,0,1,1.85.32c.63.71,2.73,1.62,4.59,2.42C47.77,38,50.6,39.24,52.17,41c3.88,4.24,4.24,6.46,4.65,9a22.42,22.42,0,0,0,.92,3.93,1.52,1.52,0,0,1-.46,1.64A1.5,1.5,0,0,1,56.32,55.9ZM41.53,38.56c.7,3.61,1.75,8.8,3.76,10.94s5.8,2.65,8.49,2.93l.45,0c-.16-.73-.27-1.39-.37-2-.38-2.34-.63-3.9-3.9-7.48-1.14-1.24-3.78-2.39-6.12-3.39C43,39.23,42.25,38.9,41.53,38.56Z" fill="#fff"/><path d="M69.32,71.9H48.38a3.38,3.38,0,0,1-3.56-3.5c0-1.86,2.32-2.58,4.78-3.34.59-.18,1.38-.43,1.69-.57,1.12-1.23,3.83-2.59,8-2.59a4.82,4.82,0,0,1,3.4,1.63c1.45-.61,3.9-1.26,5.62.34A9.91,9.91,0,0,0,69.85,65c1.08.22,4,1,4,3.42C73.82,70.15,72.42,71.9,69.32,71.9ZM48,68.82a.85.85,0,0,0,.43.08H69.32c.8,0,1.32-.18,1.46-.39a5.12,5.12,0,0,0-1.71-.63,1.38,1.38,0,0,1-.47-.16,12.33,12.33,0,0,1-2.3-1.65c-.55-.51-2.25.05-3.21.62A1.51,1.51,0,0,1,61,66.2c-.26-.42-1-1.3-1.72-1.3-3.68,0-5.49,1.22-5.84,1.64-.49.6-1.27.86-3,1.39A22.19,22.19,0,0,0,48,68.82Z" fill="#fff"/></svg>