<svg id="Calque_1" data-name="Calque 1" xmlns="http://www.w3.org/2000/svg" viewBox="0 0 87 87"><path d="M4.36,86H41.44V1H4.36Zm3-82H38.44V83H7.36Z" fill="#fff"/><path d="M45.56,1V51.08H82.64V1ZM79.64,24.54h-14V4h14ZM62.6,4V24.54h-14V4Zm-14,23.54h14V48.08h-14Zm17,20.54V27.54h14V48.08Z" fill="#fff"/><path d="M9.69,81H36.1V6.05H9.69ZM15.4,40.64a2.86,2.86,0,1,1-2.87,2.86A2.86,2.86,0,0,1,15.4,40.64Z" fill="#fff"/><path d="M45.56,64.43a.5.5,0,0,1-.5-.5V55.8a.51.51,0,0,1,.5-.5.5.5,0,0,1,.5.5v8.13A.5.5,0,0,1,45.56,64.43Z" fill="#fff"/><path d="M48.65,64.43a.5.5,0,0,1-.5-.5V59.16a.5.5,0,0,1,.5-.5.5.5,0,0,1,.5.5v4.77A.5.5,0,0,1,48.65,64.43Z" fill="#fff"/><path d="M54.83,64.43a.5.5,0,0,1-.5-.5V59.16a.5.5,0,0,1,.5-.5.5.5,0,0,1,.5.5v4.77A.5.5,0,0,1,54.83,64.43Z" fill="#fff"/><path d="M51.74,64.43a.5.5,0,0,1-.5-.5V59.16a.5.5,0,0,1,.5-.5.5.5,0,0,1,.5.5v4.77A.5.5,0,0,1,51.74,64.43Z" fill="#fff"/><path d="M61,64.43a.5.5,0,0,1-.5-.5V59.16a.5.5,0,0,1,.5-.5.5.5,0,0,1,.5.5v4.77A.5.5,0,0,1,61,64.43Z" fill="#fff"/><path d="M67.19,64.43a.5.5,0,0,1-.5-.5V59.16a.5.5,0,0,1,.5-.5.5.5,0,0,1,.5.5v4.77A.5.5,0,0,1,67.19,64.43Z" fill="#fff"/><path d="M64.1,64.43a.5.5,0,0,1-.5-.5V59.16a.5.5,0,0,1,.5-.5.5.5,0,0,1,.5.5v4.77A.5.5,0,0,1,64.1,64.43Z" fill="#fff"/><path d="M73.37,64.43a.5.5,0,0,1-.5-.5V59.16a.5.5,0,0,1,.5-.5.5.5,0,0,1,.5.5v4.77A.5.5,0,0,1,73.37,64.43Z" fill="#fff"/><path d="M79.55,64.43a.5.5,0,0,1-.5-.5V59.16a.5.5,0,0,1,.5-.5.5.5,0,0,1,.5.5v4.77A.5.5,0,0,1,79.55,64.43Z" fill="#fff"/><path d="M76.46,64.43a.5.5,0,0,1-.5-.5V59.16a.5.5,0,0,1,.5-.5.5.5,0,0,1,.5.5v4.77A.5.5,0,0,1,76.46,64.43Z" fill="#fff"/><path d="M57.92,64.43a.5.5,0,0,1-.5-.5V55.8a.51.51,0,0,1,.5-.5.5.5,0,0,1,.5.5v8.13A.5.5,0,0,1,57.92,64.43Z" fill="#fff"/><path d="M70.28,64.43a.5.5,0,0,1-.5-.5V55.8a.51.51,0,0,1,.5-.5.5.5,0,0,1,.5.5v8.13A.5.5,0,0,1,70.28,64.43Z" fill="#fff"/><path d="M82.64,64.43a.5.5,0,0,1-.5-.5V55.8a.51.51,0,0,1,.5-.5.5.5,0,0,1,.5.5v8.13A.5.5,0,0,1,82.64,64.43Z" fill="#fff"/><path d="M82.64,64.43H45.56a.5.5,0,0,1-.5-.5.51.51,0,0,1,.5-.5H82.64a.5.5,0,0,1,.5.5A.5.5,0,0,1,82.64,64.43Z" fill="#fff"/></svg>