<svg id="Calque_1" data-name="Calque 1" xmlns="http://www.w3.org/2000/svg" viewBox="0 0 87 87"><path d="M43.5,45h-30a1.5,1.5,0,0,1-1.5-1.5V13.5A1.5,1.5,0,0,1,13.5,12h30A1.5,1.5,0,0,1,45,13.5v30A1.5,1.5,0,0,1,43.5,45ZM15,42H42V15H15Z" fill="#fff"/><path d="M73.5,45h-30a1.5,1.5,0,0,1-1.5-1.5V13.5A1.5,1.5,0,0,1,43.5,12h30A1.5,1.5,0,0,1,75,13.5v30A1.5,1.5,0,0,1,73.5,45ZM45,42H72V15H45Z" fill="#fff"/><path d="M43.5,75h-30A1.5,1.5,0,0,1,12,73.5V43.55a1.5,1.5,0,0,1,1.5-1.5h30a1.5,1.5,0,0,1,1.5,1.5v30A1.5,1.5,0,0,1,43.5,75ZM15,72H42V45.05H15Z" fill="#fff"/><path d="M73.5,75h-30A1.5,1.5,0,0,1,42,73.5V43.55a1.5,1.5,0,0,1,1.5-1.5h30a1.5,1.5,0,0,1,1.5,1.5v30A1.5,1.5,0,0,1,73.5,75ZM45,72H72V45.05H45Z" fill="#fff"/><path d="M18.52,22.89,16.9,18.74l-.09-.23.07-.24.29-1,.17-.59.61.07,2.67.32.27,0,.19.21,1.57,1.77.18.2v.27l0,1.44v.34l-.26.23-1.5,1.31-.16.14-.19,0-1.45.26-.59.1-.21-.55Zm7.15,16.68-.36-2L25.22,37l.51-.23,2.16-1,.22-.1.24.05,2.46.55,1.22.11.6.06.06.6.21,2,.05.57-.54.19-2.21.77-.16.06-.16,0-3.58-.43-.54-.06-.09-.54Zm1.18-1.74.16,1,2.87.34,1.51-.53-.09-.82-.68-.07-2.35-.52-1.42.64Zm11-3.54,2.44,1,.42.17,0,.44.22,2.54,0,.38-.29.24L39,40.44l-.22.18h-.28l-2.25-.1-.49,0L35.62,40,35,38.38,34.89,38l.22-.31,1-1.38.79-1.68.3-.62.64.26Zm1.48,2.18-1.4-.57-.54,1.15-.83,1.19.3.84,1.49.06,1.12-.94-.14-1.73ZM24.35,31.72l-.5,1,.29.85,1.16,0,.58-1.75-.44-.32-1.09.3Zm-1.93.56.78-1.51.15-.28.3-.09,1.74-.48.34-.1L26,30l1.15.85.43.32-.16.5-.9,2.73-.16.48-.51,0L23.65,35l-.54,0-.18-.51-.56-1.66-.1-.29.15-.28Zm8.13-1L30,32.94l.39.52,1.3.19,1.41.35,1.29-.6.35-1.51-.7-1-1.46.59-.18.07-.21,0-1.65-.27ZM28.5,32.85l-.12.36.24.3.81,1.07.18.24.29,0,1.53.21,1.58.4.25.06.24-.11,1.84-.87.32-.15.08-.34.51-2.17.08-.33-.2-.27-1.24-1.69-.34-.46-.52.21-1.79.73-2.06-.34-.61-.1-.2.59-.87,2.61Zm-9.81-5.17-.2,1.06L19,29l2.76-.54.64-1.14-.13-2.06,0,0-.85.37-.94,1.22-.11.15-.18.07-1.45.62ZM17,29l-.09.51.45.25,1.16.66.24.14L19,30.5l3.36-.66.33-.07.16-.29.92-1.63.1-.19v-.21l-.16-2.54,0-.26-.18-.2-.56-.58-.36-.37-.46.21-1.48.65-.18.08-.11.15L19.4,25.8l-1.64.69-.36.16-.07.38L17,29Zm1.38,9.67.91.37,2.57-1.19L21.21,36l-.87-.27-.57-.41-1.07.26,0,1.16-.4,1.91ZM19,40.5l.3.12.28-.13C20.73,40,21.87,39.42,23,38.9l.6-.27L23.41,38l-.94-2.82-.11-.36L22,34.72l-1-.31L20.35,34l-.27-.19-.32.07-2,.47-.58.14,0,.6.06,1.58L16.79,39l-.13.6.57.23L19,40.5ZM35.75,24.26l2.66.69,2.07,2.82.35.47-.4.45L39.1,30.18l-.36.4-.49-.23-1.88-.88L35,28.66l-.26-.15-.08-.31-.5-2.13-.08-.33.2-.27.7-.94.3-.39.47.12Zm1.79,2-1.68-.44-.2.28.35,1.5,1.07.63,1.29.61.58-.65-1.41-1.93Zm-6.69-4.47,2.09.89.54.23-.11.58-.66,3.41-.05.28-.22.16-1.8,1.36-.2.15h-.26l-2.65-.07h-.32L27,28.5l-1.67-1.88-.3-.34.17-.42,1-2.45.13-.31.32-.11,3.7-1.25.26-.08.26.1Zm1,2-1.29-.55-3.13,1.06L26.72,26l1.16,1.31,2.08.06,1.37-1,.5-2.56Zm2.79-4,.64,1.86,1.7.68,1.66-.43.47-.5.3-1L39,19.74l-1.48-1.27-1.67-.54-1.21.83-.06,1ZM34,22.43l.11.31.3.13,2.45,1,2.54-.66,1-1.06L41,20.28l-.74-1.46-1.92-1.65L36,16.44l-.34-.11-.29.2-1.8,1.23-.29.2,0,.36-.1,1.51V20l0,.14L34,22.43Zm-9.89-3.16,0,.39.31.25,2,1.56.24.2.31-.05,1.17-.16,1.75-.59.65-.67L31,18.07l.11-.48-.4-.28-1.16-.82-.22-.16-.26,0-2.69.23-.24,0-.17.15L24.45,18l-.23.19,0,.3-.08.77Zm1.5-.33,1.1-.92,2.2-.19.53.38-.3,1.27L29,19.6,27.74,20l-.73.1L25.6,19v-.08Zm-7.26-.5,1.31,3.35.66-.11,1.09-.95,0-.84-1.22-1.36-1.78-.22Z" fill="#fff" fill-rule="evenodd"/><path d="M48.52,22.89l-1.61-4.15-.1-.23.08-.24.28-1,.18-.59.61.07,2.66.32.28,0,.18.21,1.58,1.77.18.2v.27l0,1.44v.34l-.26.23-1.5,1.31-.16.14-.19,0-1.45.26-.59.1-.22-.55Zm7.15,16.68-.35-2-.1-.56.52-.23,2.16-1,.22-.1.24.05,2.46.55,1.22.11.6.06.06.6.2,2,.06.57-.54.19-2.21.77-.16.06-.17,0-3.57-.43-.54-.06-.1-.54Zm1.18-1.74.17,1,2.87.34,1.5-.53-.08-.82-.69-.07-2.34-.52-1.43.64Zm11-3.54,2.45,1,.41.17,0,.44.22,2.54,0,.38-.29.24L69,40.44l-.21.18h-.28l-2.26-.1-.49,0L65.63,40,65,38.38,64.9,38l.21-.31,1-1.38.8-1.68.29-.62.64.26Zm1.48,2.18L67.9,35.9l-.54,1.15-.83,1.19.3.84,1.48.06,1.13-.94-.15-1.73ZM54.36,31.72l-.5,1,.29.85,1.15,0,.58-1.75-.44-.32-1.08.3Zm-1.94.56.79-1.51.14-.28.31-.09,1.74-.48.34-.1L56,30l1.15.85.43.32-.17.5-.9,2.73-.16.48-.51,0L53.65,35l-.54,0-.17-.51-.56-1.66-.1-.29.14-.28Zm8.14-1L60,32.94l.4.52,1.3.19,1.41.35,1.28-.6.36-1.51-.71-1-1.45.59-.19.07-.2,0-1.65-.27Zm-2.05,1.56-.12.36.23.3.81,1.07.19.24.29,0,1.53.21,1.58.4.25.06.23-.11,1.84-.87.33-.15.08-.34.5-2.17.08-.33-.2-.27-1.24-1.69-.33-.46-.53.21-1.79.73-2.06-.34-.61-.1-.19.59-.87,2.61ZM48.7,27.68l-.2,1.06L49,29l2.76-.54.65-1.14-.13-2.06,0,0-.84.37-.94,1.22-.12.15-.17.07-1.45.62ZM47,29l-.09.51.44.25,1.16.66.24.14L49,30.5l3.36-.66.33-.07.17-.29.91-1.63.11-.19v-.21l-.17-2.54v-.26l-.19-.2-.56-.58-.35-.37-.47.21-1.48.65-.17.08-.11.15L49.4,25.8l-1.64.69-.36.16-.07.38L47,29Zm1.38,9.67.91.37,2.57-1.19L51.22,36l-.88-.27-.56-.41-1.07.26,0,1.16-.4,1.91ZM49,40.5l.29.12.29-.13C50.74,40,51.87,39.42,53,38.9l.6-.27L53.42,38l-.94-2.82-.12-.36L52,34.72l-1-.31L50.36,34l-.27-.19-.32.07-2,.47-.58.14,0,.6.06,1.58L46.79,39l-.12.6.57.23L49,40.5ZM65.76,24.26l2.66.69,2.06,2.82.35.47-.39.45L69.1,30.18l-.36.4-.49-.23-1.87-.88L65,28.66l-.27-.15-.07-.31-.51-2.13-.08-.33.21-.27.7-.94.29-.39.48.12Zm1.78,2-1.67-.44-.21.28.36,1.5,1.07.63,1.29.61.58-.65-1.42-1.93Zm-6.69-4.47,2.09.89.55.23-.11.58-.66,3.41-.06.28-.22.16-1.8,1.36-.2.15h-.25l-2.66-.07h-.31L57,28.5l-1.68-1.88-.3-.34.17-.42,1-2.45.12-.31.32-.11,3.71-1.25.26-.08.25.1Zm1,2-1.29-.55-3.13,1.06L56.72,26l1.17,1.31,2.07.06,1.38-1,.49-2.56Zm2.79-4,.65,1.86,1.69.68,1.67-.43.47-.5.29-1-.34-.68-1.49-1.27-1.66-.54-1.21.83-.07,1ZM64,22.43l.11.31.31.13,2.44,1,2.54-.66,1-1.06L71,20.28l-.75-1.46-1.92-1.65L66,16.44l-.34-.11-.29.2-1.8,1.23-.29.2,0,.36-.09,1.51V20l.05.14.8,2.32Zm-9.88-3.16,0,.39.31.25,2,1.56.25.2.3-.05,1.17-.16,1.75-.59.66-.67.5-2.13.11-.48-.4-.28-1.15-.82-.22-.16-.26,0-2.7.23-.23,0-.18.15L54.45,18l-.22.19,0,.3-.08.77Zm1.5-.33L56.71,18l2.2-.19.54.38-.3,1.27L59,19.6,57.74,20l-.73.1L55.61,19v-.08Zm-7.27-.5,1.31,3.35.66-.11,1.09-.95,0-.84-1.21-1.36-1.79-.22Z" fill="#fff" fill-rule="evenodd"/><path d="M18.52,52.51,16.9,48.37l-.09-.23.07-.24.29-1,.17-.59.61.07,2.67.33.27,0,.19.21,1.57,1.77.18.19v.28l0,1.44V51l-.26.22-1.5,1.31-.16.14-.19,0L19.32,53l-.59.11-.21-.56ZM25.67,69.2l-.36-2.06-.09-.55.51-.23,2.16-1,.22-.1.24.06,2.46.55L32,66l.6,0,.06.6.21,2,.05.57-.54.19-2.21.77-.16.06-.16,0L26.3,69.8l-.54-.07-.09-.53Zm1.18-1.75.16,1,2.87.35,1.51-.53-.09-.83-.68-.06-2.35-.53-1.42.64Zm11-3.54,2.44,1,.42.17,0,.45.22,2.54,0,.37-.29.25L39,70.07l-.22.18-.28,0-2.25-.09-.49,0-.17-.46L35,68l-.13-.35.22-.31,1-1.39.79-1.67.3-.63.64.26Zm1.48,2.19-1.4-.57-.54,1.15-.83,1.18.3.84,1.49.07,1.12-1-.14-1.72ZM24.35,61.35l-.5.95.29.85,1.16,0,.58-1.74L25.44,61l-1.09.31Zm-1.93.56.78-1.51.15-.29.3-.08,1.74-.49.34-.09.28.21,1.15.85.43.31-.16.5-.9,2.73-.16.48-.51,0-2.21.08-.54,0-.18-.51-.56-1.66-.1-.3.15-.27Zm8.13-1L30,62.57l.39.52,1.3.18,1.41.35L34.4,63l.35-1.51-.7-1-1.46.59-.18.08-.21,0-1.65-.27ZM28.5,62.47l-.12.36.24.31.81,1.07.18.24.29,0,1.53.22L33,65.1l.25.06.24-.11,1.84-.86.32-.15.08-.34.51-2.18.08-.32-.2-.28-1.24-1.69-.34-.45L34,59l-1.79.72-2.06-.33-.61-.1-.2.59-.87,2.6Zm-9.81-5.16-.2,1.06.48.27,2.76-.55L22.37,57l-.13-2.05,0,0-.85.38-.94,1.21-.11.16-.18.07-1.45.62ZM17,58.61l-.09.51.45.26,1.16.66.24.13.26-.05,3.36-.66.33-.06.16-.3.92-1.62.1-.19v-.22l-.16-2.53,0-.27-.18-.19-.56-.58-.36-.37-.46.2L20.62,54l-.18.07-.11.15-.93,1.21-1.64.7-.36.15-.07.39-.37,2Zm1.38,9.68.91.37c.86-.4,1.71-.81,2.57-1.19l-.61-1.84-.87-.27-.57-.4-1.07.25,0,1.17-.4,1.91ZM19,70.13l.3.12.28-.14c1.15-.54,2.29-1.06,3.44-1.58l.6-.27-.21-.63-.94-2.81-.11-.36L22,64.35,21,64l-.64-.46-.27-.2-.32.08-2,.47-.58.13,0,.6.06,1.59-.49,2.34-.13.6.57.22,1.77.72ZM35.75,53.89l2.66.69,2.07,2.82.35.47-.4.44-1.33,1.5-.36.4L38.25,60l-1.88-.88L35,58.29l-.26-.16-.08-.3-.5-2.13-.08-.33.2-.28.7-.94.3-.39.47.13Zm1.79,2-1.68-.44-.2.27.35,1.5,1.07.63,1.29.61.58-.65-1.41-1.92Zm-6.69-4.47,2.09.88.54.23-.11.58-.66,3.41-.05.28-.22.17-1.8,1.36-.2.15h-.26l-2.65-.06h-.32L27,58.13l-1.67-1.89L25,55.9l.17-.41,1-2.45.13-.31.32-.11,3.7-1.25.26-.09.26.11Zm1,2-1.29-.54-3.13,1-.69,1.72,1.16,1.32L30,57l1.37-1,.5-2.56Zm2.79-4,.64,1.86L37,52l1.66-.43.47-.5.3-1L39,49.37l-1.48-1.28-1.67-.53-1.21.83-.06,1ZM34,52.05l.11.32.3.12,2.45,1,2.54-.66,1-1.06L41,49.9l-.74-1.45L38.29,46.8,36,46.06l-.34-.1-.29.2-1.8,1.22-.29.21,0,.35-.1,1.52v.14l0,.14L34,52.05Zm-9.89-3.16,0,.4.31.25,2,1.56.24.19.31,0,1.17-.16,1.75-.59.65-.67L31,47.7l.11-.48-.4-.29-1.16-.82L29.31,46l-.26,0-2.69.23-.24,0-.17.15-1.5,1.26-.23.19,0,.29-.08.77Zm1.5-.33,1.1-.91,2.2-.19.53.38-.3,1.26-.12.13-1.28.43-.73.1L25.6,48.64v-.08Zm-7.26-.49,1.31,3.35.66-.12,1.09-.95,0-.83-1.22-1.37-1.78-.21Z" fill="#fff" fill-rule="evenodd"/><path d="M48.52,52.51l-1.61-4.14-.1-.23.08-.24.28-1,.18-.59.61.07,2.66.33.28,0,.18.21,1.58,1.77.18.19v.28l0,1.44V51l-.26.22-1.5,1.31-.16.14-.19,0L49.33,53l-.59.11-.22-.56ZM55.67,69.2l-.35-2.06-.1-.55.52-.23,2.16-1,.22-.1.24.06,2.46.55L62,66l.6,0,.06.6.2,2,.06.57-.54.19-2.21.77-.16.06-.17,0-3.57-.43-.54-.07-.1-.53Zm1.18-1.75.17,1,2.87.35,1.5-.53-.08-.83-.69-.06-2.34-.53-1.43.64Zm11-3.54,2.45,1,.41.17,0,.45.22,2.54,0,.37-.29.25L69,70.07l-.21.18-.28,0-2.26-.09-.49,0-.16-.46L65,68l-.13-.35.21-.31,1-1.39.8-1.67.29-.63.64.26Zm1.48,2.19-1.39-.57-.54,1.15-.83,1.18.3.84,1.48.07,1.13-1-.15-1.72ZM54.36,61.35l-.5.95.29.85,1.15,0,.58-1.74L55.44,61l-1.08.31Zm-1.94.56.79-1.51.14-.29.31-.08,1.74-.49.34-.09.28.21,1.15.85.43.31-.17.5-.9,2.73-.16.48-.51,0-2.21.08-.54,0-.17-.51-.56-1.66-.1-.3.14-.27Zm8.14-1L60,62.57l.4.52,1.3.18,1.41.35L64.4,63l.36-1.51-.71-1-1.45.59-.19.08-.2,0-1.65-.27Zm-2.05,1.56-.12.36.23.31.81,1.07.19.24.29,0,1.53.22L63,65.1l.25.06.23-.11,1.84-.86.33-.15.08-.34.5-2.18.08-.32-.2-.28-1.24-1.69-.33-.45L64,59l-1.79.72-2.06-.33-.61-.1-.19.59-.87,2.6ZM48.7,57.31l-.2,1.06.47.27,2.76-.55L52.38,57l-.13-2.05,0,0-.84.38-.94,1.21-.12.16-.17.07-1.45.62ZM47,58.61l-.09.51.44.26,1.16.66.24.13.26-.05,3.36-.66.33-.06.17-.3.91-1.62.11-.19v-.22l-.17-2.53v-.27l-.19-.19-.56-.58-.35-.37-.47.2L50.62,54l-.17.07-.11.15-.94,1.21-1.64.7-.36.15-.07.39-.36,2Zm1.38,9.68.91.37c.86-.4,1.71-.81,2.57-1.19l-.61-1.84-.88-.27-.56-.4-1.07.25,0,1.17-.4,1.91ZM49,70.13l.29.12.29-.14c1.15-.54,2.28-1.06,3.44-1.58l.6-.27-.21-.63-.94-2.81-.12-.36L52,64.35,51,64l-.64-.46-.27-.2-.32.08-2,.47-.58.13,0,.6.06,1.59-.5,2.34-.12.6.57.22,1.77.72ZM65.76,53.89l2.66.69,2.06,2.82.35.47-.39.44-1.34,1.5-.36.4L68.25,60l-1.87-.88L65,58.29l-.27-.16-.07-.3-.51-2.13-.08-.33.21-.28.7-.94.29-.39.48.13Zm1.78,2-1.67-.44-.21.27.36,1.5,1.07.63,1.29.61.58-.65-1.42-1.92Zm-6.69-4.47,2.09.88.55.23-.11.58-.66,3.41-.06.28-.22.17-1.8,1.36-.2.15h-.25l-2.66-.06h-.31L57,58.13l-1.68-1.89L55,55.9l.17-.41,1-2.45.12-.31.32-.11,3.71-1.25.26-.09.25.11Zm1,2-1.29-.54-3.13,1-.69,1.72,1.17,1.32L60,57l1.38-1,.49-2.56Zm2.79-4,.65,1.86L67,52l1.67-.43.47-.5.29-1-.34-.67-1.49-1.28-1.66-.53-1.21.83-.07,1ZM64,52.05l.11.32.31.12,2.44,1,2.54-.66,1-1.06L71,49.9l-.75-1.45L68.29,46.8,66,46.06l-.34-.1-.29.2-1.8,1.22-.29.21,0,.35-.09,1.52v.14l.05.14.8,2.31Zm-9.88-3.16,0,.4.31.25,2,1.56.25.19.3,0,1.17-.16,1.75-.59.66-.67L61,47.7l.11-.48-.4-.29-1.15-.82L59.32,46l-.26,0-2.7.23-.23,0-.18.15-1.5,1.26-.22.19,0,.29-.08.77Zm1.5-.33,1.09-.91,2.2-.19.54.38-.3,1.26-.13.13-1.28.43-.73.1-1.4-1.12v-.08Zm-7.27-.49,1.31,3.35.66-.12,1.09-.95,0-.83-1.21-1.37-1.79-.21Z" fill="#fff" fill-rule="evenodd"/></svg>