<svg id="Calque_1" data-name="Calque 1" xmlns="http://www.w3.org/2000/svg" viewBox="0 0 87 87"><path d="M80.08,32.11,62.64,45.74H6.92L24.36,32.11H80.08m2.91-1H24L4,46.74H63L83,31.11Z" fill="#fff"/><polygon points="4.01 46.69 4.01 49.1 62.73 49.1 82.99 32.97 82.99 31.07 62.99 46.69 4.01 46.69" fill="#fff"/><path d="M26.52,44.54c-7.13,0-13.21-.43-16.26-1.6a.51.51,0,0,1-.28-.65.5.5,0,0,1,.64-.29c10,3.87,55.35-.81,58.24-1.11L76.44,35c-15.11-4.86-58.35,2.27-58.78,2.35a.51.51,0,0,1-.58-.4.5.5,0,0,1,.39-.59c.44-.08,45.69-7.52,60.18-2a.49.49,0,0,1,.31.4.49.49,0,0,1-.18.46l-8.42,6.56a.47.47,0,0,1-.25.11C67.71,42,44,44.54,26.52,44.54Z" fill="#fff"/><path d="M32.11,41.85c-7.41,0-13.13-.51-14.08-2a.47.47,0,0,1,0-.46.52.52,0,0,1,.36-.3c.31-.06,32-6.55,56.34-2.54a.52.52,0,0,1,.41.37.49.49,0,0,1-.18.52l-2.43,1.9a.64.64,0,0,1-.26.1C68.73,39.78,47,41.85,32.11,41.85Zm-12.45-2C25,42,53.73,40.24,72,38.45l1.41-1.1C51.94,34.14,25.35,38.77,19.66,39.85Z" fill="#fff"/><path d="M50.09,39.89a127.51,127.51,0,0,1-12.82-.82.5.5,0,0,1,0-1c20.67-2,21.11-.72,21.25-.29.08.25.06.63-.54,1h0C56.62,39.62,53.5,39.89,50.09,39.89Zm-7.25-1.31c5.29.39,12,.57,14.32-.5C55.31,37.8,49.35,38.06,42.84,38.58Zm14.89-.23h0Z" fill="#fff"/><path d="M62.9,56.43H3.51V51H62.82L83.49,34.87V40Zm-58.39-1h58L82.49,39.56V36.92L63.16,52H4.51Z" fill="#fff"/><circle cx="6.37" cy="52.76" r="0.64" fill="#fff"/><circle cx="6.37" cy="54.78" r="0.64" fill="#fff"/><circle cx="8.56" cy="52.76" r="0.64" fill="#fff"/><circle cx="8.56" cy="54.78" r="0.64" fill="#fff"/><circle cx="10.75" cy="52.76" r="0.64" fill="#fff"/><circle cx="10.75" cy="54.78" r="0.64" fill="#fff"/><circle cx="12.94" cy="52.76" r="0.64" fill="#fff"/><circle cx="12.94" cy="54.78" r="0.64" fill="#fff"/><circle cx="15.13" cy="52.76" r="0.64" fill="#fff"/><circle cx="15.13" cy="54.78" r="0.64" fill="#fff"/><circle cx="17.32" cy="52.76" r="0.64" fill="#fff"/><circle cx="17.32" cy="54.78" r="0.64" fill="#fff"/><circle cx="19.51" cy="52.76" r="0.64" fill="#fff"/><circle cx="19.51" cy="54.78" r="0.64" fill="#fff"/><circle cx="21.7" cy="52.76" r="0.64" fill="#fff"/><circle cx="21.7" cy="54.78" r="0.64" fill="#fff"/><circle cx="23.9" cy="52.76" r="0.64" fill="#fff"/><circle cx="23.9" cy="54.78" r="0.64" fill="#fff"/><circle cx="26.09" cy="52.76" r="0.64" fill="#fff"/><circle cx="26.09" cy="54.78" r="0.64" fill="#fff"/><circle cx="28.28" cy="52.76" r="0.64" fill="#fff"/><circle cx="28.28" cy="54.78" r="0.64" fill="#fff"/><circle cx="30.47" cy="52.76" r="0.64" fill="#fff"/><circle cx="30.47" cy="54.78" r="0.64" fill="#fff"/><circle cx="32.66" cy="52.76" r="0.64" fill="#fff"/><circle cx="32.66" cy="54.78" r="0.64" fill="#fff"/><circle cx="34.85" cy="52.76" r="0.64" fill="#fff"/><circle cx="34.85" cy="54.78" r="0.64" fill="#fff"/><circle cx="37.04" cy="52.76" r="0.64" fill="#fff"/><circle cx="37.04" cy="54.78" r="0.64" fill="#fff"/><circle cx="39.23" cy="52.76" r="0.64" fill="#fff"/><circle cx="39.23" cy="54.78" r="0.64" fill="#fff"/><circle cx="41.42" cy="52.76" r="0.64" fill="#fff"/><circle cx="41.42" cy="54.78" r="0.64" fill="#fff"/><circle cx="43.62" cy="52.76" r="0.64" fill="#fff"/><circle cx="43.62" cy="54.78" r="0.64" fill="#fff"/><circle cx="45.81" cy="52.76" r="0.64" fill="#fff"/><circle cx="45.81" cy="54.78" r="0.64" fill="#fff"/><circle cx="48" cy="52.76" r="0.64" fill="#fff"/><circle cx="48" cy="54.78" r="0.64" fill="#fff"/><circle cx="50.19" cy="52.76" r="0.64" fill="#fff"/><circle cx="50.19" cy="54.78" r="0.64" fill="#fff"/><circle cx="52.38" cy="52.76" r="0.64" fill="#fff"/><circle cx="52.38" cy="54.78" r="0.64" fill="#fff"/><circle cx="54.57" cy="52.76" r="0.64" fill="#fff"/><circle cx="54.57" cy="54.78" r="0.64" fill="#fff"/><circle cx="56.76" cy="52.76" r="0.64" fill="#fff"/><circle cx="56.76" cy="54.78" r="0.64" fill="#fff"/><circle cx="58.95" cy="52.76" r="0.64" fill="#fff"/><circle cx="58.95" cy="54.78" r="0.64" fill="#fff"/><circle cx="61.14" cy="52.76" r="0.64" fill="#fff"/><circle cx="61.14" cy="54.78" r="0.64" fill="#fff"/><circle cx="63.08" cy="52.76" r="0.64" fill="#fff"/><circle cx="63.08" cy="54.78" r="0.64" fill="#fff"/><circle cx="65.04" cy="51.1" r="0.64" fill="#fff"/><circle cx="65.04" cy="53.12" r="0.64" fill="#fff"/><circle cx="67.02" cy="49.12" r="0.64" fill="#fff"/><circle cx="67.02" cy="51.14" r="0.64" fill="#fff"/><circle cx="69.01" cy="47.77" r="0.64" fill="#fff"/><circle cx="69.01" cy="49.79" r="0.64" fill="#fff"/><circle cx="71" cy="46.12" r="0.64" fill="#fff"/><circle cx="71" cy="48.14" r="0.64" fill="#fff"/><circle cx="72.98" cy="44.78" r="0.64" fill="#fff"/><circle cx="72.98" cy="46.8" r="0.64" fill="#fff"/><circle cx="74.97" cy="43.17" r="0.64" fill="#fff"/><circle cx="74.97" cy="45.19" r="0.64" fill="#fff"/><circle cx="76.96" cy="41.83" r="0.64" fill="#fff"/><circle cx="76.96" cy="43.85" r="0.64" fill="#fff"/><circle cx="78.94" cy="40.2" r="0.64" fill="#fff"/><circle cx="78.94" cy="42.22" r="0.64" fill="#fff"/><circle cx="80.94" cy="38.2" r="0.64" fill="#fff"/><circle cx="80.94" cy="40.22" r="0.64" fill="#fff"/></svg>