<svg id="Calque_1" data-name="Calque 1" xmlns="http://www.w3.org/2000/svg" viewBox="0 0 87 87"><path d="M39.2,1V15.54H24.66V30.07H10.12V86H47.8V71.46H62.34V56.93H76.88V1Zm5.6,82H13.12V33.07H44.8V83ZM59.34,68.46H47.8V30.07H27.66V18.54H59.34V68.46ZM73.88,53.93H62.34V15.54H42.2V4H73.88Z" fill="#fff"/><circle cx="32.54" cy="22.91" r="1.88" fill="#fff"/><circle cx="38.02" cy="22.91" r="1.88" fill="#fff"/><circle cx="43.5" cy="22.91" r="1.88" fill="#fff"/><circle cx="48.98" cy="22.91" r="1.88" fill="#fff"/><circle cx="54.46" cy="22.91" r="1.88" fill="#fff"/><circle cx="54.46" cy="28.84" r="1.88" fill="#fff"/><circle cx="54.46" cy="34.76" r="1.88" fill="#fff"/><circle cx="54.46" cy="40.69" r="1.88" fill="#fff"/><circle cx="54.46" cy="46.61" r="1.88" fill="#fff"/><circle cx="54.46" cy="52.54" r="1.88" fill="#fff"/><circle cx="54.46" cy="58.46" r="1.88" fill="#fff"/><circle cx="54.46" cy="64.39" r="1.88" fill="#fff"/><circle cx="48.98" cy="28.84" r="1.88" fill="#fff"/><circle cx="48.98" cy="34.76" r="1.88" fill="#fff"/><circle cx="48.98" cy="40.69" r="1.88" fill="#fff"/><circle cx="48.98" cy="46.61" r="1.88" fill="#fff"/><circle cx="48.98" cy="52.54" r="1.88" fill="#fff"/><circle cx="48.98" cy="58.46" r="1.88" fill="#fff"/><circle cx="48.98" cy="64.39" r="1.88" fill="#fff"/><circle cx="43.5" cy="28.84" r="1.88" fill="#fff"/><circle cx="38.02" cy="28.84" r="1.88" fill="#fff"/><circle cx="32.54" cy="28.84" r="1.88" fill="#fff"/><polygon points="32.54 11.05 24.66 15.54 62.34 15.54 62.34 71.46 66.89 66.27 66.89 11.05 32.54 11.05" fill="#fff"/></svg>