<svg id="Calque_1" data-name="Calque 1" xmlns="http://www.w3.org/2000/svg" viewBox="0 0 87 87"><path d="M13.87,3.59a1.35,1.35,0,0,0-.74,1.21V82.2a1.35,1.35,0,0,0,.74,1.21,1.39,1.39,0,0,0,.63.15,1.38,1.38,0,0,0,.8-.25l2.64-1.91V5.6L15.3,3.69A1.37,1.37,0,0,0,13.87,3.59Z" fill="#fff"/><polygon points="18.86 80.74 22.78 77.91 22.78 9.09 18.86 6.26 18.86 80.74" fill="#fff"/><polygon points="63.7 77.53 67.62 80.36 67.62 6.64 63.7 9.47 63.7 77.53" fill="#fff"/><path d="M27.58,12.56,23.69,9.75v67.5l3.89-2.81H59.42l3.37,2.43V10.13l-3.37,2.43Zm.93,59.15V15.29H41.87V43.38s0,.08,0,.12,0,.08,0,.12V62.51s0,9.17,0,9.2Zm29.65,0H44.6s0-9.17,0-9.2V45H48.2a1.5,1.5,0,0,0,0-3H44.61V15.29H58.16Z" fill="#fff"/><path d="M73.13,3.59a1.37,1.37,0,0,0-1.43.1L68.54,6V81l3.16,2.29a1.38,1.38,0,0,0,.8.25,1.39,1.39,0,0,0,.63-.15,1.35,1.35,0,0,0,.74-1.21V4.8A1.35,1.35,0,0,0,73.13,3.59Z" fill="#fff"/></svg>