<svg id="Calque_1" data-name="Calque 1" xmlns="http://www.w3.org/2000/svg" viewBox="0 0 87 87"><path d="M43.5,4A39.5,39.5,0,1,1,4,43.5,39.55,39.55,0,0,1,43.5,4m0-3A42.5,42.5,0,1,0,86,43.5,42.5,42.5,0,0,0,43.5,1Z" fill="#fff"/><path d="M31.55,41.57A4.09,4.09,0,0,1,33,44.86a4.56,4.56,0,0,1-.69,2.45,4.65,4.65,0,0,1-2.09,1.79,8,8,0,0,1-3.49.67,12.28,12.28,0,0,1-3-.37,8.79,8.79,0,0,1-2.56-1l1.46-3.06a7,7,0,0,0,1.9.88,7.15,7.15,0,0,0,2.09.31,3,3,0,0,0,1.67-.4A1.26,1.26,0,0,0,28.91,45a1.18,1.18,0,0,0-.62-1.09,4.48,4.48,0,0,0-2.17-.37H22.21l.72-8.41H32.1v3.15H26.3l-.18,2.09h1A6.72,6.72,0,0,1,31.55,41.57Z" fill="#fff"/><path d="M37.24,48.89A5.94,5.94,0,0,1,35,46.31a9.24,9.24,0,0,1-.81-4,9.24,9.24,0,0,1,.81-4,5.94,5.94,0,0,1,2.25-2.58,6.49,6.49,0,0,1,6.56,0,5.94,5.94,0,0,1,2.25,2.58,9.24,9.24,0,0,1,.81,4,9.24,9.24,0,0,1-.81,4,5.94,5.94,0,0,1-2.25,2.58,6.55,6.55,0,0,1-6.56,0Zm4.92-3.45a6.18,6.18,0,0,0,.61-3.15,6.25,6.25,0,0,0-.61-3.16,1.85,1.85,0,0,0-1.63-1,1.88,1.88,0,0,0-1.66,1,6.37,6.37,0,0,0-.6,3.16,6.3,6.3,0,0,0,.6,3.15,1.86,1.86,0,0,0,1.66,1A1.83,1.83,0,0,0,42.16,45.44Z" fill="#fff"/><path d="M49,41.81a4,4,0,0,1-1-2.92,4.44,4.44,0,0,1,.48-2.11,3.3,3.3,0,0,1,1.3-1.39,3.76,3.76,0,0,1,1.9-.49A3.54,3.54,0,0,1,54.37,36a4.07,4.07,0,0,1,1,2.91,4,4,0,0,1-1,2.92,3.53,3.53,0,0,1-2.68,1.07A3.5,3.5,0,0,1,49,41.81Zm11.17-6.72h3L53.34,49.48h-3Zm-7.63,5.35a2.86,2.86,0,0,0,.33-1.55,2.82,2.82,0,0,0-.33-1.54,1,1,0,0,0-.89-.49,1,1,0,0,0-.87.5,2.75,2.75,0,0,0-.34,1.53,2.77,2.77,0,0,0,.34,1.54,1,1,0,0,0,.87.5A1,1,0,0,0,52.58,40.44Zm6.61,8.16a4.66,4.66,0,0,1,0-5.83,3.49,3.49,0,0,1,2.65-1.08,3.54,3.54,0,0,1,2.68,1.08,4.68,4.68,0,0,1,0,5.83,3.57,3.57,0,0,1-2.68,1.07A3.51,3.51,0,0,1,59.19,48.6Zm3.55-1.38a3.87,3.87,0,0,0,0-3.08,1,1,0,0,0-.89-.5,1,1,0,0,0-.88.5,3.76,3.76,0,0,0,0,3.08,1,1,0,0,0,.88.49A1,1,0,0,0,62.74,47.22Z" fill="#fff"/></svg>