<svg id="Calque_1" data-name="Calque 1" xmlns="http://www.w3.org/2000/svg" viewBox="0 0 87 87"><path d="M74.32,55.4a6.7,6.7,0,0,1-6.7-6.69V43.82a1.5,1.5,0,1,1,3,0v4.89a3.7,3.7,0,0,0,7.39,0V38.63a1.5,1.5,0,0,1,3,0V48.71A6.7,6.7,0,0,1,74.32,55.4Z" fill="#fff"/><path d="M69.12,50.21a1.5,1.5,0,0,1-1.5-1.5V43.82a3.69,3.69,0,0,0-3.69-3.69,1.5,1.5,0,0,1,0-3,6.7,6.7,0,0,1,6.69,6.69v4.89A1.5,1.5,0,0,1,69.12,50.21Z" fill="#fff"/><path d="M60.93,17.85v50.2a1,1,0,0,1-.89,1.1H8.54c-.53,0-.88-.57-.88-1.1V17.85H60.93M10.35,61.32H58.24V31.21H10.35V61.32M63.93,14.85H4.66v53.2a4,4,0,0,0,3.88,4.1H60a4,4,0,0,0,3.89-4.1V14.85ZM13.35,58.32V34.21H55.24V58.32Z" fill="#fff"/><circle cx="53.07" cy="26.02" r="2.11" fill="#fff"/><circle cx="47.36" cy="26.02" r="2.11" fill="#fff"/><path d="M41.64,23.91A2.11,2.11,0,1,1,39.53,26,2.11,2.11,0,0,1,41.64,23.91Z" fill="#fff"/><path d="M34.38,22.84A3.18,3.18,0,1,1,31.21,26,3.18,3.18,0,0,1,34.38,22.84Z" fill="#fff"/><path d="M27.19,23.91A2.11,2.11,0,1,1,25.09,26,2.1,2.1,0,0,1,27.19,23.91Z" fill="#fff"/><path d="M21.48,23.91A2.11,2.11,0,1,1,19.37,26,2.11,2.11,0,0,1,21.48,23.91Z" fill="#fff"/><path d="M15.76,23.91A2.11,2.11,0,1,1,13.65,26,2.11,2.11,0,0,1,15.76,23.91Z" fill="#fff"/></svg>