<svg id="Calque_1" data-name="Calque 1" xmlns="http://www.w3.org/2000/svg" viewBox="0 0 87 87"><path d="M43.5,4A39.5,39.5,0,1,1,4,43.5,39.55,39.55,0,0,1,43.5,4m0-3A42.5,42.5,0,1,0,86,43.5,42.5,42.5,0,0,0,43.5,1Z" fill="#fff"/><path d="M68.42,39.5a.41.41,0,0,0,0-.16s0,0,0,0a.61.61,0,0,0,0-.12l0,0a.4.4,0,0,0-.1-.12l0,0-.11-.08h0l-8.12-4.09,8.13-4.11a.64.64,0,0,0,.35-.59.67.67,0,0,0-.36-.59L43.79,17.33a.66.66,0,0,0-.58,0L18.94,29.54a.67.67,0,0,0-.36.59.64.64,0,0,0,.35.59l8.13,4.11-8.12,4.09h0l-.11.08,0,0a.4.4,0,0,0-.1.12l0,0a.61.61,0,0,0-.05.12s0,0,0,0a.41.41,0,0,0,0,.16h0v8.63a.65.65,0,0,0,.35.58l5.55,2.81a.74.74,0,0,0,.33.17l1.56.79-7.43,3.73a.64.64,0,0,0-.36.58.63.63,0,0,0,.35.59L43.2,69.66a.6.6,0,0,0,.6,0L68.07,57.38a.63.63,0,0,0,.35-.59.66.66,0,0,0-.36-.58l-7.42-3.74,1.55-.78a.74.74,0,0,0,.33-.17l5.55-2.81a.65.65,0,0,0,.35-.58V39.5ZM29.5,36.06,43.2,43a.68.68,0,0,0,.6,0l13.78-7,7.13,3.59L43.5,50.33,22.36,39.65ZM44.94,52.45,66.31,41.53v6L44.94,58.46ZM20.69,41.55l21.4,10.93v6L20.69,47.55Z" fill="#fff"/></svg>