<svg id="Calque_1" data-name="Calque 1" xmlns="http://www.w3.org/2000/svg" viewBox="0 0 87 87"><path d="M31.76,6.94V65.61H25.28L8.2,76.82h0v3.23H78.8V6.94Zm0,69.89H13.66l12.52-8.22h5.58Zm43.81,0H35V68.61H75.57Zm0-61.72H58.44v5.65h2.69V16.93H75.57V65.61H35V10.17H75.57Z" fill="#fff"/><path d="M56.26,28.31a.51.51,0,0,0-.15-.36.53.53,0,0,0-.71,0,.51.51,0,0,0,0,.72.51.51,0,0,0,.36.14.5.5,0,0,0,.35-.14A.51.51,0,0,0,56.26,28.31Z" fill="#fff"/><path d="M55.33,30.1a.5.5,0,0,0-.6.38.49.49,0,0,0,.37.6l.12,0a.51.51,0,0,0,.49-.39A.52.52,0,0,0,55.33,30.1Z" fill="#fff"/><path d="M54.57,33.37h.11a.5.5,0,0,0,.49-.39.49.49,0,0,0-.37-.6.5.5,0,0,0-.61.37A.52.52,0,0,0,54.57,33.37Z" fill="#fff"/><path d="M53.49,37.93h.12a.5.5,0,0,0,.49-.38.51.51,0,0,0-.38-.61.5.5,0,0,0-.6.38A.49.49,0,0,0,53.49,37.93Z" fill="#fff"/><path d="M54,35.65h.11a.5.5,0,0,0,.12-1,.5.5,0,0,0-.61.37A.52.52,0,0,0,54,35.65Z" fill="#fff"/><path d="M53.07,40.23a.55.55,0,0,0,.36-.15.51.51,0,0,0,.14-.36.5.5,0,0,0-.14-.35.53.53,0,0,0-.72,0,.5.5,0,0,0-.14.35.51.51,0,0,0,.14.36A.55.55,0,0,0,53.07,40.23Z" fill="#fff"/><path d="M57.41,28a.5.5,0,1,0,.72,0A.54.54,0,0,0,57.41,28Z" fill="#fff"/><path d="M57.56,30.09a.5.5,0,0,0-.12,1h.06a.51.51,0,0,0,.06-1Z" fill="#fff"/><path d="M57,34.66a.5.5,0,1,0-.11,1H57a.5.5,0,0,0,.05-1Z" fill="#fff"/><path d="M57.29,32.37a.51.51,0,0,0-.56.45.52.52,0,0,0,.44.56h.06a.5.5,0,0,0,.5-.45A.51.51,0,0,0,57.29,32.37Z" fill="#fff"/><path d="M56.75,36.94a.5.5,0,0,0-.55.44.49.49,0,0,0,.44.56h.06a.5.5,0,0,0,0-1Z" fill="#fff"/><path d="M56.07,39.37a.51.51,0,0,0-.15.35.51.51,0,0,0,.15.36.53.53,0,0,0,.36.15.51.51,0,0,0,.35-.15.48.48,0,0,0,.15-.36.47.47,0,0,0-.15-.35A.51.51,0,0,0,56.07,39.37Z" fill="#fff"/><path d="M64.32,28.31a.55.55,0,0,0-.15-.36.53.53,0,0,0-.71,0,.51.51,0,0,0,0,.72.5.5,0,0,0,.35.14.52.52,0,0,0,.36-.14A.55.55,0,0,0,64.32,28.31Z" fill="#fff"/><path d="M64.84,30.48a.5.5,0,1,0-1,.23.5.5,0,0,0,.49.39l.12,0A.5.5,0,0,0,64.84,30.48Z" fill="#fff"/><path d="M64.93,35.27a.51.51,0,0,0,.49.39h.12a.5.5,0,0,0,.37-.61.49.49,0,0,0-.6-.37A.5.5,0,0,0,64.93,35.27Z" fill="#fff"/><path d="M64.77,32.39a.49.49,0,0,0-.37.6.5.5,0,0,0,.49.39H65a.52.52,0,0,0,.38-.61A.5.5,0,0,0,64.77,32.39Z" fill="#fff"/><path d="M65.47,37.56a.5.5,0,0,0,.49.38h.12a.49.49,0,0,0,.37-.6.5.5,0,0,0-.6-.38A.51.51,0,0,0,65.47,37.56Z" fill="#fff"/><path d="M66,39.72a.51.51,0,0,0,.14.36.55.55,0,0,0,.36.15.51.51,0,0,0,.35-.15.48.48,0,0,0,.15-.36.47.47,0,0,0-.15-.35.51.51,0,0,0-.71,0A.5.5,0,0,0,66,39.72Z" fill="#fff"/><path d="M62.15,28.67a.51.51,0,0,0,0-.72.53.53,0,0,0-.71,0,.5.5,0,0,0,.36.86A.5.5,0,0,0,62.15,28.67Z" fill="#fff"/><path d="M62.66,35.66a.5.5,0,0,0-.11-1,.5.5,0,0,0,.05,1Z" fill="#fff"/><path d="M62.93,37.94a.5.5,0,0,0-.12-1,.5.5,0,0,0,.06,1Z" fill="#fff"/><path d="M62.39,33.38a.51.51,0,1,0-.11-1,.5.5,0,0,0-.44.56.5.5,0,0,0,.49.45Z" fill="#fff"/><path d="M62.13,31.09a.46.46,0,1,0-.06,0Z" fill="#fff"/><path d="M62.79,39.37a.47.47,0,0,0-.15.35.48.48,0,0,0,.15.36.51.51,0,0,0,.35.15.55.55,0,0,0,.36-.15.51.51,0,0,0,.15-.36.51.51,0,0,0-.86-.35Z" fill="#fff"/><path d="M59.43,28a.51.51,0,0,0,0,.72.5.5,0,0,0,.35.14.51.51,0,0,0,.36-.14.51.51,0,0,0,0-.72A.53.53,0,0,0,59.43,28Z" fill="#fff"/><path d="M59.78,36.94a.5.5,0,1,0,.51.5A.5.5,0,0,0,59.78,36.94Z" fill="#fff"/><path d="M59.78,32.37a.51.51,0,1,0,.51.51A.51.51,0,0,0,59.78,32.37Z" fill="#fff"/><path d="M59.78,30.09a.5.5,0,0,0-.5.5.51.51,0,1,0,1,0A.5.5,0,0,0,59.78,30.09Z" fill="#fff"/><path d="M59.78,34.65a.51.51,0,0,0-.5.51.51.51,0,0,0,1,0A.51.51,0,0,0,59.78,34.65Z" fill="#fff"/><path d="M59.43,39.37a.47.47,0,0,0-.15.35.48.48,0,0,0,.15.36.51.51,0,0,0,.35.15.51.51,0,0,0,.51-.51.51.51,0,0,0-.86-.35Z" fill="#fff"/><path d="M54.92,26.63h9.73a.51.51,0,0,0,.51-.5v-.84H54.41v.84A.51.51,0,0,0,54.92,26.63Z" fill="#fff"/><polygon points="61.13 21.09 58.44 21.09 54.58 24.95 64.99 24.95 61.13 21.09" fill="#fff"/></svg>