<svg id="Calque_1" data-name="Calque 1" xmlns="http://www.w3.org/2000/svg" viewBox="0 0 87 87"><path d="M66.69,62.94c0,2.61,1.27,4.57,3,4.57s3-2,3-4.57-1.27-4.56-3-4.56S66.69,60.34,66.69,62.94Z" fill="#fff"/><path d="M76.82,8.58H17.35a1.68,1.68,0,0,0-1.68,1.68V47.73c-1.9.6-3.59,2.21-4.88,4.69A23.22,23.22,0,0,0,8.5,62.94a23.26,23.26,0,0,0,2.29,10.53c1.66,3.19,4,5,6.56,5h52.3c2.57,0,4.9-1.76,6.56-5A23.26,23.26,0,0,0,78.5,62.94V10.26A1.68,1.68,0,0,0,76.82,8.58ZM19,11.94H75.15V50.69l-.3-.39,0,0c-.1-.13-.21-.25-.31-.37l-.12-.13-.24-.25L74,49.39l-.26-.24-.11-.1-.37-.3h0l-.37-.26-.12-.08-.28-.16-.14-.08L72.07,48,71.94,48l-.41-.16h0c-.14,0-.27-.09-.41-.12l-.13,0-.3-.06-.15,0-.31,0h-.13l-.44,0H19ZM17.35,75.06c-2.6,0-5.5-5-5.5-12.12s2.9-12.11,5.5-12.11h46.7l-.28.42-.08.12-.23.38a1.09,1.09,0,0,0-.08.15c-.1.17-.2.34-.29.52A23.22,23.22,0,0,0,60.8,62.94a23.26,23.26,0,0,0,2.29,10.53c.09.18.19.35.28.52l.09.15.23.37.08.13.28.42Zm52.3,0c-2.6,0-5.49-5-5.49-12.12s2.89-12.11,5.49-12.11,5.5,5,5.5,12.11S72.25,75.06,69.65,75.06Z" fill="#fff"/></svg>