<svg id="Calque_1" data-name="Calque 1" xmlns="http://www.w3.org/2000/svg" viewBox="0 0 87 87"><path d="M74.75,10.75H12.25a1.5,1.5,0,0,0-1.5,1.5v62.5a1.5,1.5,0,0,0,1.5,1.5h62.5a1.5,1.5,0,0,0,1.5-1.5V12.25A1.5,1.5,0,0,0,74.75,10.75Zm-1.5,62.5H13.75V13.75h59.5Z" fill="#fff"/><path d="M30,44.94h1.54A14,14,0,0,0,34,44.78a3.74,3.74,0,0,0,1.23-.56,3.36,3.36,0,0,0,1-1.16,3.86,3.86,0,0,0,.39-1.82A3.67,3.67,0,0,0,36,39a3.08,3.08,0,0,0-1.69-1.15,13.6,13.6,0,0,0-2.83-.18H27.63V49.38H30Zm0-5.33h1.14a11.88,11.88,0,0,1,1.71.08,1.66,1.66,0,0,1,1,.52,1.52,1.52,0,0,1,.37,1.06,1.55,1.55,0,0,1-.27.91,1.44,1.44,0,0,1-.74.58,5.82,5.82,0,0,1-1.87.19H30Z" fill="#fff"/><polygon points="44.12 49.38 48.33 37.62 45.81 37.62 42.94 46.32 39.96 37.62 37.38 37.62 41.59 49.38 44.12 49.38" fill="#fff"/><path d="M54.48,49.58a5,5,0,0,0,3.13-.94,5.18,5.18,0,0,0,1.76-2.85l-2.3-.73a3.53,3.53,0,0,1-1,1.89,2.4,2.4,0,0,1-1.63.6,2.62,2.62,0,0,1-2.09-.95,5,5,0,0,1-.8-3.17,4.55,4.55,0,0,1,.82-3,2.66,2.66,0,0,1,2.12-.94,2.53,2.53,0,0,1,1.61.53A2.48,2.48,0,0,1,57,41.42l2.35-.56a4.59,4.59,0,0,0-1.21-2.16,4.88,4.88,0,0,0-3.5-1.28,5.21,5.21,0,0,0-4,1.62,6.45,6.45,0,0,0-1.51,4.56A6.16,6.16,0,0,0,50.63,48,5.06,5.06,0,0,0,54.48,49.58Z" fill="#fff"/></svg>