<svg id="Calque_1" data-name="Calque 1" xmlns="http://www.w3.org/2000/svg" viewBox="0 0 87 87"><path d="M76.64,47.16a7.24,7.24,0,0,1,.16,1.56v8.65a6.84,6.84,0,0,1-.06.91l.82,4.4h-3a7.38,7.38,0,0,1-5.14,2.09h-.87a7.36,7.36,0,0,1-5.14-2.09H46.61a3.41,3.41,0,0,0-6.22,0H9.44l1.13-6.11H61.14V53.83H11.08l1-5.19,49.12-.25a7.36,7.36,0,0,1,.67-2.75l-49.28.26.14-.79h.05v-.24l.83-4.48H63.44a4.74,4.74,0,0,1,.26-.5H59.55a7.39,7.39,0,0,1-5.29-2.25H14.09l.82-4.42H52.19c0-.24,0-.49,0-.73v-2H15.42l.73-4h36.7A7.39,7.39,0,0,1,55,23.78H13.87l-1.12,6.06V18.13H74.27v4.1H77V15.39H10V44.62l-5,27H82L77.42,46.9Zm2.07,21.71H8.29l.64-3.45H40.36a3.41,3.41,0,0,0,6.28,0H78.07Z" fill="#fff"/><path d="M83.39,29.86h-2.6v-.23a2.41,2.41,0,0,0-2.4-2.4H59.55a2.4,2.4,0,0,0-2.39,2.4v2.86a2.4,2.4,0,0,0,2.39,2.4H78.39a2.41,2.41,0,0,0,2.4-2.4v-.23h1.4v5.27L68.6,42a1.2,1.2,0,0,0-.83,1.14v3.29a2.41,2.41,0,0,0-1.63,2.27v8.65a2.41,2.41,0,0,0,2.4,2.4h.87a2.41,2.41,0,0,0,2.4-2.4V48.72a2.41,2.41,0,0,0-1.64-2.27V44l13.6-4.48a1.2,1.2,0,0,0,.82-1.14V31.06A1.19,1.19,0,0,0,83.39,29.86Zm-4.09,2a1.54,1.54,0,0,1-1.54,1.54H60.12a1.55,1.55,0,0,1-1.54-1.54V30.13a1.55,1.55,0,0,1,1.54-1.54H77.76a1.55,1.55,0,0,1,1.54,1.54Z" fill="#fff"/></svg>