<svg id="Calque_1" data-name="Calque 1" xmlns="http://www.w3.org/2000/svg" viewBox="0 0 87 87"><path d="M43.5,4A39.5,39.5,0,1,1,4,43.5,39.55,39.55,0,0,1,43.5,4m0-3A42.5,42.5,0,1,0,86,43.5,42.5,42.5,0,0,0,43.5,1Z" fill="#fff"/><path d="M60.18,32.5H55.87V20.36a3.11,3.11,0,0,0-3.09-3.1h0a3.11,3.11,0,0,0-3.09,3.1V32.5H37.31V20.36a3.11,3.11,0,0,0-3.09-3.1h0a3.11,3.11,0,0,0-3.09,3.1V32.5H26.82a1.89,1.89,0,0,0-1.88,1.89V42.5a11.3,11.3,0,0,0,4.56,9.07l4.72,3.5H52.78l4.72-3.5a11.3,11.3,0,0,0,4.56-9.07V34.39A1.89,1.89,0,0,0,60.18,32.5Z" fill="#fff"/><path d="M34.22,60.38v2.15a.94.94,0,0,0,.94.94h4.3a1,1,0,0,1,.95.94v2.15a3.17,3.17,0,0,0,3.13,3.18,3.11,3.11,0,0,0,3.05-3.1V64.41a1,1,0,0,1,.95-.94h4.3a.94.94,0,0,0,.94-.94v-3.7H34.22Z" fill="#fff"/></svg>