<svg id="Calque_1" data-name="Calque 1" xmlns="http://www.w3.org/2000/svg" viewBox="0 0 87 87"><path d="M59,48.43A5.4,5.4,0,0,1,60.36,52V66.09A5.37,5.37,0,0,1,59,69.64v2H9.88V15.32H59v.15h2.53V12.79H7.34V74.21h54.2v-30L59,45Z" fill="#fff"/><rect x="11.97" y="59.77" width="6.54" height="10.23" fill="#fff"/><rect x="11.97" y="17" width="6.54" height="10.23" fill="#fff"/><rect x="11.97" y="30.73" width="6.54" height="25.55" fill="#fff"/><rect x="19.45" y="59.77" width="6.54" height="10.23" fill="#fff"/><rect x="19.45" y="30.73" width="6.54" height="25.55" fill="#fff"/><rect x="19.45" y="17" width="6.54" height="10.23" fill="#fff"/><path d="M26.92,17V27.23h2.77v3.5H26.92V56.27h2.77v3.5H26.92V70h6.54V25.64s0-.05,0-.08V20.91s0-.06,0-.08V17Z" fill="#fff"/><path d="M48.08,56.27V52a5.43,5.43,0,0,1,1.36-3.58V31H42.9V56.27Z" fill="#fff"/><path d="M42.9,70h6.54v-.35a5.35,5.35,0,0,1-1.36-3.56V59.77H42.9Z" fill="#fff"/><path d="M50.74,47.33V42.94a3.47,3.47,0,0,1,2.39-3.3l3.78-1.25V31H50.37V47.58Z" fill="#fff"/><path d="M42,70V59.77H39.19v-3.5H42V31H38.88a5.33,5.33,0,0,1-3.45-1.28V70Z" fill="#fff"/><path d="M77.7,21.28H73.46v-.37A3.91,3.91,0,0,0,69.56,17H38.88A3.91,3.91,0,0,0,35,20.91v4.65a3.91,3.91,0,0,0,3.9,3.91H69.56a3.91,3.91,0,0,0,3.9-3.91v-.37h2.29v8.6l-22.14,7.3a2,2,0,0,0-1.34,1.85V48.3A3.91,3.91,0,0,0,49.61,52V66.09A3.92,3.92,0,0,0,53.51,70h1.42a3.91,3.91,0,0,0,3.9-3.91V52a3.9,3.9,0,0,0-2.66-3.7V44.35l22.15-7.3a2,2,0,0,0,1.34-1.85v-12A2,2,0,0,0,77.7,21.28ZM68.53,27.1H39.81a2.51,2.51,0,0,1-2.51-2.5V21.73a2.52,2.52,0,0,1,2.51-2.51H68.53A2.52,2.52,0,0,1,71,21.73V24.6A2.51,2.51,0,0,1,68.53,27.1Z" fill="#fff"/></svg>