<svg id="Calque_1" data-name="Calque 1" xmlns="http://www.w3.org/2000/svg" viewBox="0 0 87 87"><path d="M16.9,13.35v60.3H70.1V13.35ZM67.62,71.16H19.38V15.84H67.62Z" fill="#fff"/><polygon points="27.86 69.52 27.86 67.08 21.54 69.52 27.86 69.52" fill="#fff"/><polygon points="27.86 59.47 21.44 59.47 21.44 68.48 27.86 66.01 27.86 59.47" fill="#fff"/><rect x="21.44" y="17.48" width="6.42" height="10.05" fill="#fff"/><polygon points="27.86 44.19 27.86 36.45 21.44 38.92 21.44 49.7 27.86 44.19" fill="#fff"/><polygon points="27.86 30.96 21.44 30.96 21.44 37.85 27.86 35.38 27.86 30.96" fill="#fff"/><polygon points="21.44 56.04 27.86 56.04 27.86 45.51 21.44 51.02 21.44 56.04" fill="#fff"/><polygon points="35.2 63.19 35.2 59.47 30.8 59.47 34.55 63.43 35.2 63.19" fill="#fff"/><polygon points="28.78 66.73 28.78 69.52 35.2 69.52 35.2 65.56 34.29 64.61 28.78 66.73" fill="#fff"/><polygon points="29.42 59.47 28.78 59.47 28.78 65.66 33.55 63.82 29.42 59.47" fill="#fff"/><path d="M28.78,56H35.2V39.22l-6.42,5.51Zm3.41-5.74a.91.91,0,1,1-.91.9A.91.91,0,0,1,32.19,50.3Z" fill="#fff"/><polygon points="28.78 43.41 35.2 37.91 35.2 33.63 28.78 36.1 28.78 43.41" fill="#fff"/><polygon points="35.2 30.96 28.78 30.96 28.78 35.03 35.2 32.55 35.2 30.96" fill="#fff"/><path d="M35.2,17.48H28.78V27.53H35.2ZM32,22a.9.9,0,1,1,.9-.9A.9.9,0,0,1,32,22Z" fill="#fff"/><polygon points="36.11 56.04 38.84 56.04 38.84 59.47 36.11 59.47 36.11 65.08 40.32 69.52 42.53 69.52 42.53 32.94 36.11 38.44 36.11 56.04" fill="#fff"/><polygon points="36.11 69.52 38.94 69.52 36.11 66.53 36.11 69.52" fill="#fff"/><polygon points="42.53 17.48 36.11 17.48 36.11 27.53 38.84 27.53 38.84 30.96 36.11 30.96 36.11 37.12 42.53 31.62 42.53 17.48" fill="#fff"/><polygon points="58.22 30.96 51.8 30.96 51.8 36.97 58.22 40.33 58.22 30.96" fill="#fff"/><polygon points="51.8 48.17 58.22 42.67 58.22 41.46 51.8 38.1 51.8 48.17" fill="#fff"/><polygon points="51.8 56.04 58.22 56.04 58.22 43.98 51.8 49.49 51.8 56.04" fill="#fff"/><polygon points="51.8 27.53 58.22 27.53 58.22 22.01 51.8 24.48 51.8 27.53" fill="#fff"/><polygon points="58.22 17.48 51.8 17.48 51.8 23.41 58.22 20.93 58.22 17.48" fill="#fff"/><path d="M51.8,69.52h6.42v-10H51.8Zm2.62-5a.91.91,0,1,1-.9.91A.9.9,0,0,1,54.42,64.49Z" fill="#fff"/><path d="M59.14,56h6.42V37.7l-6.42,5.5Zm4.11-5.74a.91.91,0,1,1-.9.9A.9.9,0,0,1,63.25,50.3Z" fill="#fff"/><polygon points="65.56 30.96 59.14 30.96 59.14 41.88 65.56 36.38 65.56 30.96" fill="#fff"/><rect x="59.14" y="59.47" width="6.42" height="10.05" fill="#fff"/><polygon points="59.14 27.53 65.56 27.53 65.56 19.18 59.14 21.66 59.14 27.53" fill="#fff"/><polygon points="65.56 17.48 59.14 17.48 59.14 20.58 65.56 18.11 65.56 17.48" fill="#fff"/><polygon points="50.89 36.5 50.89 30.96 48.16 30.96 48.16 27.53 50.89 27.53 50.89 17.48 44.47 17.48 44.47 33.14 50.89 36.5" fill="#fff"/><polygon points="50.89 37.62 44.47 34.27 44.47 54.46 50.89 48.95 50.89 37.62" fill="#fff"/><polygon points="44.47 69.52 50.89 69.52 50.89 59.47 48.16 59.47 48.16 56.04 50.89 56.04 50.89 50.27 44.47 55.77 44.47 69.52" fill="#fff"/></svg>