<svg id="Calque_1" data-name="Calque 1" xmlns="http://www.w3.org/2000/svg" viewBox="0 0 87 87"><rect x="23.65" y="57.87" width="5.78" height="9.04" fill="#fff"/><rect x="23.65" y="20.09" width="5.78" height="9.04" fill="#fff"/><rect x="23.65" y="32.21" width="5.78" height="22.57" fill="#fff"/><rect x="30.25" y="57.87" width="5.78" height="9.04" fill="#fff"/><rect x="30.25" y="32.21" width="5.78" height="22.57" fill="#fff"/><rect x="30.25" y="20.09" width="5.78" height="9.04" fill="#fff"/><polygon points="39.3 32.22 36.85 32.22 36.85 54.78 39.3 54.78 39.3 57.87 36.85 57.87 36.85 66.92 42.63 66.92 42.63 20.09 36.85 20.09 36.85 29.13 39.3 29.13 39.3 32.22" fill="#fff"/><rect x="50.97" y="32.21" width="5.78" height="22.57" fill="#fff"/><rect x="50.97" y="20.09" width="5.78" height="9.04" fill="#fff"/><rect x="50.97" y="57.87" width="5.78" height="9.04" fill="#fff"/><rect x="57.57" y="32.21" width="5.78" height="22.57" fill="#fff"/><rect x="57.57" y="57.87" width="5.78" height="9.04" fill="#fff"/><rect x="57.57" y="20.09" width="5.78" height="9.04" fill="#fff"/><polygon points="50.15 57.87 47.7 57.87 47.7 54.78 50.15 54.78 50.15 32.22 47.7 32.22 47.7 29.13 50.15 29.13 50.15 20.09 44.37 20.09 44.37 66.92 50.15 66.92 50.15 57.87" fill="#fff"/></svg>