<svg id="Calque_1" data-name="Calque 1" xmlns="http://www.w3.org/2000/svg" viewBox="0 0 87 87"><path d="M75.32,67.18H11.68a1.5,1.5,0,0,1-1.11-2.51L42.39,29.55a1.54,1.54,0,0,1,2.22,0L76.43,64.67a1.5,1.5,0,0,1-1.11,2.51Zm-60.25-3H71.94L43.5,32.79Z" fill="#fff"/><path d="M55.41,59.85H31.59a1.5,1.5,0,0,1-1.11-2.5L42.39,44.2a1.54,1.54,0,0,1,2.22,0L56.52,57.35a1.5,1.5,0,0,1-1.11,2.5ZM35,56.85H52L43.5,47.44Z" fill="#fff"/><path d="M43.5,46.71a1.5,1.5,0,0,1-1.5-1.5V30.55a1.5,1.5,0,1,1,3,0V45.21A1.5,1.5,0,0,1,43.5,46.71Z" fill="#fff"/><path d="M75.32,67.18a1.58,1.58,0,0,1-.52-.09L54.89,59.76a1.5,1.5,0,1,1,1-2.81l19.92,7.32a1.5,1.5,0,0,1-.52,2.91Z" fill="#fff"/><path d="M11.68,67.18a1.5,1.5,0,0,1-.52-2.91L31.08,57a1.5,1.5,0,0,1,1,2.81L12.2,67.09A1.54,1.54,0,0,1,11.68,67.18Z" fill="#fff"/><path d="M3.19,67.18a1.5,1.5,0,0,1-1.11-2.51L42.26,20.31a1.49,1.49,0,0,1,1.11-.49h0a1.52,1.52,0,0,1,1.11.49L84.92,64.67a1.5,1.5,0,1,1-2.22,2L43.37,23.55,4.3,66.69A1.52,1.52,0,0,1,3.19,67.18Z" fill="#fff"/></svg>