<svg id="Calque_1" data-name="Calque 1" xmlns="http://www.w3.org/2000/svg" viewBox="0 0 87 87"><path d="M82.58,32.52s0-.07,0-.1a1.27,1.27,0,0,0-.06-.28l0-.09a1.41,1.41,0,0,0-.17-.32v0l-3.73-5.22V12.13H8V26.49L4.31,31.71v0a1.41,1.41,0,0,0-.17.32l0,.09a2.33,2.33,0,0,0,0,.28s0,.06,0,.1V58.24a1.5,1.5,0,0,0,1.5,1.5H8v19H78.58v-19h2.5a1.5,1.5,0,0,0,1.5-1.5V32.52ZM7,34.08H79.58v9.84H7Zm6.27-9.82h60l4.86,6.82H8.44ZM11,15.13H75.58v7.15l-.27-.39a1.51,1.51,0,0,0-1.23-.63H12.53a1.48,1.48,0,0,0-1.22.63l-.28.39ZM75.58,75.77H11v-16H75.58Zm4-19H7V46.92H79.58Zm-36.27-1.5a3.42,3.42,0,1,0-3.42-3.41A3.41,3.41,0,0,0,43.31,55.24Z" fill="#fff"/></svg>