<svg id="Calque_1" data-name="Calque 1" xmlns="http://www.w3.org/2000/svg" viewBox="0 0 87 87"><path d="M79.9,38.38l5.71-8.31a2.26,2.26,0,0,0-3.72-2.55l-3.43,5A36.75,36.75,0,0,0,7.35,36.36a2.25,2.25,0,1,0,4.42.87,32.25,32.25,0,0,1,62.42-3.31L68.7,32.65a2.25,2.25,0,1,0-1,4.39l9.83,2.27.08,0H78a2.19,2.19,0,0,0,.77-.13h0l.09,0h0l.09,0,0,0,.05,0,.1-.06,0,0,.06,0,0,0,.07,0,.06-.05,0,0,.06,0,0,0,.08-.09h0A1.3,1.3,0,0,0,79.9,38.38Z" fill="#fff"/><path d="M77.67,48A2.26,2.26,0,0,0,75,49.77,32.24,32.24,0,0,1,12.59,53l5.71,1.32a2.21,2.21,0,0,0,.51,0,2.25,2.25,0,0,0,.5-4.44L9.52,47.7h0l-.11,0h-.6a2,2,0,0,0-.42.07h0l-.09,0h0l-.06,0-.06,0,0,0-.08,0H8l-.09,0h0a2.4,2.4,0,0,0-.26.18h0l-.07.06h0l0,.06,0,0,0,0,0,0,0,0-.06,0v0l-.06.08h0l-.06.08h0l0,0v0L1.39,56.93A2.25,2.25,0,0,0,2,60.06a2.22,2.22,0,0,0,1.27.4,2.24,2.24,0,0,0,1.86-1L8.4,54.69a36.74,36.74,0,0,0,71-4A2.25,2.25,0,0,0,77.67,48Z" fill="#fff"/><path d="M45.34,22.18h0A7.65,7.65,0,0,1,51,24.68a4.09,4.09,0,0,1,.56,2.87,6.32,6.32,0,0,1-2.44,2.36,10.92,10.92,0,0,0-2.7,2.27,6,6,0,0,0-1.13,2.16,9.78,9.78,0,0,0-1.79-.17,9.54,9.54,0,0,0-3.09.52,9.12,9.12,0,0,1-1.9-7.58,6.1,6.1,0,0,1,4.32-4.53,8.43,8.43,0,0,1,2.51-.4m0-1.94a9.94,9.94,0,0,0-3.11.5C35,23.06,34.69,31.86,39.9,37a7.41,7.41,0,0,1,7.15,0,4.46,4.46,0,0,1,.87-3.61c1.69-2,3.8-2.1,5.38-5a5.69,5.69,0,0,0-.85-5,9.56,9.56,0,0,0-7.11-3.15Z" fill="#fff"/><path d="M45.35,20.22a9.88,9.88,0,0,0-3.12.5,8.07,8.07,0,0,0-5.63,5.93A10.24,10.24,0,0,0,36.83,32a12.29,12.29,0,0,0,3.06,5h0A7.4,7.4,0,0,1,47,37l0,0V37a4.45,4.45,0,0,1,.86-3.58,9.31,9.31,0,0,1,2.26-1.87,8.21,8.21,0,0,0,3.13-3.14,4.6,4.6,0,0,0,.22-2.28,5.19,5.19,0,0,0-1.07-2.77,9.59,9.59,0,0,0-7.12-3.15ZM39.91,37a11.35,11.35,0,0,1-3.27-10.36,8.05,8.05,0,0,1,5.6-5.9,10,10,0,0,1,3.1-.5,9.63,9.63,0,0,1,7.09,3.14,5.11,5.11,0,0,1,1.07,2.75,4.48,4.48,0,0,1-.22,2.25,8,8,0,0,1-3.11,3.12A9.22,9.22,0,0,0,47.9,33.4,4.44,4.44,0,0,0,47,37a7.4,7.4,0,0,0-7.11,0Z" fill="#fff"/><path d="M26.9,35.38a3.05,3.05,0,0,1,.65.06,6.25,6.25,0,0,1,2.36,2.44,10.92,10.92,0,0,0,2.27,2.7,6,6,0,0,0,2.16,1.13,9.78,9.78,0,0,0-.17,1.79,9.29,9.29,0,0,0,.53,3.09,9.61,9.61,0,0,1-5.85,2.11,6.25,6.25,0,0,1-6.27-4.53A7.73,7.73,0,0,1,24.68,36a3.65,3.65,0,0,1,2.22-.62h0m0-1.94a5.51,5.51,0,0,0-3.51,1.11,9.61,9.61,0,0,0-2.65,10.21,8.18,8.18,0,0,0,8.11,5.88A11.75,11.75,0,0,0,37,47.1,7.41,7.41,0,0,1,37,40a5,5,0,0,1-.85.08,4.31,4.31,0,0,1-2.76-1c-2-1.69-2.1-3.8-5-5.38a3.5,3.5,0,0,0-1.51-.26Z" fill="#fff"/><path d="M26.89,33.42a6.51,6.51,0,0,0-.75,0,5.19,5.19,0,0,0-2.77,1.07,9.67,9.67,0,0,0-2.76,4.4,9.79,9.79,0,0,0,.11,5.84,8.07,8.07,0,0,0,5.93,5.63,9.46,9.46,0,0,0,2.2.26A11.09,11.09,0,0,0,32,50.17a12.29,12.29,0,0,0,5-3.06h0A7.38,7.38,0,0,1,37,40l0,0H37a4.78,4.78,0,0,1-.84.08,4.29,4.29,0,0,1-2.74-.94,9.31,9.31,0,0,1-1.87-2.26,8.21,8.21,0,0,0-3.14-3.13,3.51,3.51,0,0,0-1.53-.26Zm1.94,17.19a9.2,9.2,0,0,1-2.17-.25,8.05,8.05,0,0,1-5.9-5.6A9.64,9.64,0,0,1,23.4,34.57a5.11,5.11,0,0,1,2.75-1.07c.25,0,.5,0,.74,0a3.44,3.44,0,0,1,1.51.26,8,8,0,0,1,3.12,3.11A9.22,9.22,0,0,0,33.4,39.1a4.33,4.33,0,0,0,2.77.95A4.59,4.59,0,0,0,37,40a7.4,7.4,0,0,0,0,7.11,11.83,11.83,0,0,1-8.19,3.52Z" fill="#fff"/><path d="M46.59,52.31a9.12,9.12,0,0,1,1.9,7.58,6.1,6.1,0,0,1-4.32,4.53,8.43,8.43,0,0,1-2.51.4A7.65,7.65,0,0,1,36,62.32a4.09,4.09,0,0,1-.56-2.87,6.32,6.32,0,0,1,2.44-2.36,10.92,10.92,0,0,0,2.7-2.27,6,6,0,0,0,1.13-2.16,9.78,9.78,0,0,0,1.79.17,9.54,9.54,0,0,0,3.09-.52M47.1,50A7.41,7.41,0,0,1,40,50a4.46,4.46,0,0,1-.87,3.61c-1.69,2-3.8,2.1-5.38,5a5.69,5.69,0,0,0,.85,5,9.56,9.56,0,0,0,7.11,3.15,9.84,9.84,0,0,0,3.1-.5C52,63.94,52.31,55.14,47.1,50Z" fill="#fff"/><path d="M47.1,49.93h0A7.38,7.38,0,0,1,40,50l0,0V50a4.45,4.45,0,0,1-.86,3.58,9.31,9.31,0,0,1-2.26,1.87,8.21,8.21,0,0,0-3.13,3.14,4.6,4.6,0,0,0-.22,2.28,5.19,5.19,0,0,0,1.07,2.77,9.59,9.59,0,0,0,7.12,3.15,9.84,9.84,0,0,0,3.12-.5,8.07,8.07,0,0,0,5.63-5.93A10.24,10.24,0,0,0,50.17,55a12.29,12.29,0,0,0-3.06-5Zm-3.6,1A7.39,7.39,0,0,0,47.09,50a11.35,11.35,0,0,1,3.27,10.36,8.05,8.05,0,0,1-5.6,5.9,10,10,0,0,1-3.1.5,9.63,9.63,0,0,1-7.09-3.14,5.11,5.11,0,0,1-1.07-2.75,4.48,4.48,0,0,1,.22-2.25,8,8,0,0,1,3.11-3.12A9.22,9.22,0,0,0,39.1,53.6,4.44,4.44,0,0,0,40,50a7.33,7.33,0,0,0,3.52.89Z" fill="#fff"/><path d="M58.15,38.3a6.25,6.25,0,0,1,6.27,4.53A7.73,7.73,0,0,1,62.32,51a3.65,3.65,0,0,1-2.22.62,3.05,3.05,0,0,1-.65-.06,6.25,6.25,0,0,1-2.36-2.44,10.92,10.92,0,0,0-2.27-2.7,6,6,0,0,0-2.16-1.13,9.78,9.78,0,0,0,.17-1.79,9.29,9.29,0,0,0-.53-3.09,9.61,9.61,0,0,1,5.85-2.11m0-1.94A11.75,11.75,0,0,0,50,39.9a7.41,7.41,0,0,1,0,7.15,5,5,0,0,1,.85-.08,4.31,4.31,0,0,1,2.76,1c2,1.69,2.1,3.8,5,5.38a3.5,3.5,0,0,0,1.51.26,5.51,5.51,0,0,0,3.51-1.11,9.61,9.61,0,0,0,2.65-10.21,8.18,8.18,0,0,0-8.11-5.88Z" fill="#fff"/><path d="M58.15,36.34a11.09,11.09,0,0,0-3.19.49,12.29,12.29,0,0,0-5,3.06h0A7.38,7.38,0,0,1,50,47l0,0H50a4.78,4.78,0,0,1,.84-.08,4.29,4.29,0,0,1,2.74.94,9.31,9.31,0,0,1,1.87,2.26,8.21,8.21,0,0,0,3.14,3.13,3.51,3.51,0,0,0,1.53.26,6.51,6.51,0,0,0,.75,0,5.19,5.19,0,0,0,2.77-1.07,9.67,9.67,0,0,0,2.76-4.4,9.79,9.79,0,0,0-.11-5.84,8.07,8.07,0,0,0-5.93-5.63,9.46,9.46,0,0,0-2.2-.26ZM50,47a7.4,7.4,0,0,0,0-7.11,11.83,11.83,0,0,1,8.19-3.52,9.2,9.2,0,0,1,2.17.25,8.05,8.05,0,0,1,5.9,5.6A9.64,9.64,0,0,1,63.6,52.43a5.11,5.11,0,0,1-2.75,1.07c-.25,0-.5,0-.74,0a3.44,3.44,0,0,1-1.51-.26,8,8,0,0,1-3.12-3.11A9.22,9.22,0,0,0,53.6,47.9,4.33,4.33,0,0,0,50.83,47,4.59,4.59,0,0,0,50,47Z" fill="#fff"/><path d="M43.5,38.1a5.4,5.4,0,1,0,5.4,5.4,5.4,5.4,0,0,0-5.4-5.4Zm0,8a2.63,2.63,0,1,1,2.63-2.63,2.63,2.63,0,0,1-2.63,2.63Z" fill="#fff"/></svg>