<svg id="Calque_1" data-name="Calque 1" xmlns="http://www.w3.org/2000/svg" viewBox="0 0 87 87"><path d="M55,20.25H32L39,8.13a5.19,5.19,0,0,1,9,0Zm-17.82-3H49.81l-4.4-7.62a2.21,2.21,0,0,0-3.82,0Z" fill="#fff"/><path d="M65.8,76.38H21.2v-54H65.8Zm-41.6-3H62.8v-48H24.2Z" fill="#fff"/><polygon points="33.29 76.38 22.88 76.38 36.47 47.58 41.89 59.07 39.17 60.35 36.47 54.61 27.61 73.38 33.29 73.38 33.29 76.38" fill="#fff"/><path d="M64.12,76.38H30.92L47.52,41.2Zm-28.46-3H59.39L47.52,48.23Z" fill="#fff"/><path d="M49,60.81,45.56,57c-1.55,1-3.08,2.09-3.38,2.39a.73.73,0,0,0,.19-.29l-2.71-1.28c.18-.38.4-.85,5.35-4l1.07-.69,2.76,3.06L51,53.54l2.34,1.88Z" fill="#fff"/><path d="M70.75,81.47H16.25V17.25h54.5Zm-51.5-3h48.5V20.25H19.25Z" fill="#fff"/><circle cx="43.5" cy="12.07" r="1.95" fill="#fff"/></svg>