<svg id="Calque_1" data-name="Calque 1" xmlns="http://www.w3.org/2000/svg" viewBox="0 0 87 87"><path d="M25.31,60.08V26.92h47.8V60.08Zm2.44-30.72V57.64H70.67V29.36Z" fill="#fff"/><path d="M70.67,61.51v-36h1.22a4.89,4.89,0,0,1,4.89,4.88V56.63a4.89,4.89,0,0,1-4.89,4.88Zm2.44-33.25V58.74a2.42,2.42,0,0,0,1.23-2.11V30.37A2.42,2.42,0,0,0,73.11,28.26Z" fill="#fff"/><path d="M21.64,56.63V30.37a4.89,4.89,0,0,1,4.89-4.88h1.22v36H26.53A4.89,4.89,0,0,1,21.64,56.63Zm3.67-28.37a2.44,2.44,0,0,0-1.23,2.11V56.63a2.44,2.44,0,0,0,1.23,2.11Z" fill="#fff"/><polygon points="22.04 37.42 22.04 49.58 18.38 47.95 18.38 39.05 22.04 37.42" fill="#fff"/><rect x="10.22" y="40.27" width="9.66" height="2.44" fill="#fff"/><polygon points="10.36 60.29 10.36 44.92 20.21 44.92 20.21 47.36 12.8 47.36 12.8 60.29 10.36 60.29" fill="#fff"/></svg>