<svg id="Calque_1" data-name="Calque 1" xmlns="http://www.w3.org/2000/svg" viewBox="0 0 87 87"><rect x="13.24" y="57.87" width="5.78" height="9.04" fill="#fff"/><rect x="13.24" y="20.09" width="5.78" height="9.04" fill="#fff"/><rect x="13.24" y="32.21" width="5.78" height="22.57" fill="#fff"/><rect x="19.84" y="57.87" width="5.78" height="9.04" fill="#fff"/><rect x="19.84" y="32.21" width="5.78" height="22.57" fill="#fff"/><rect x="19.84" y="20.09" width="5.78" height="9.04" fill="#fff"/><polygon points="28.89 32.22 26.44 32.22 26.44 54.78 28.89 54.78 28.89 57.87 26.44 57.87 26.44 66.92 32.22 66.92 32.22 20.09 26.44 20.09 26.44 29.13 28.89 29.13 28.89 32.22" fill="#fff"/><rect x="40.56" y="32.21" width="5.78" height="22.57" fill="#fff"/><rect x="40.56" y="20.09" width="5.78" height="9.04" fill="#fff"/><rect x="40.56" y="57.87" width="5.78" height="9.04" fill="#fff"/><rect x="47.16" y="32.21" width="5.78" height="22.57" fill="#fff"/><rect x="47.16" y="57.87" width="5.78" height="9.04" fill="#fff"/><rect x="47.16" y="20.09" width="5.78" height="9.04" fill="#fff"/><polygon points="39.74 57.87 37.28 57.87 37.28 54.78 39.74 54.78 39.74 32.22 37.28 32.22 37.28 29.13 39.74 29.13 39.74 20.09 33.96 20.09 33.96 66.92 39.74 66.92 39.74 57.87" fill="#fff"/><rect x="61.38" y="32.21" width="5.78" height="22.57" fill="#fff"/><rect x="61.38" y="20.09" width="5.78" height="9.04" fill="#fff"/><rect x="61.38" y="57.87" width="5.78" height="9.04" fill="#fff"/><rect x="67.98" y="32.21" width="5.78" height="22.57" fill="#fff"/><rect x="67.98" y="57.87" width="5.78" height="9.04" fill="#fff"/><rect x="67.98" y="20.09" width="5.78" height="9.04" fill="#fff"/><polygon points="60.56 57.87 58.11 57.87 58.11 54.78 60.56 54.78 60.56 32.22 58.11 32.22 58.11 29.13 60.56 29.13 60.56 20.09 54.78 20.09 54.78 66.92 60.56 66.92 60.56 57.87" fill="#fff"/></svg>