<svg id="Calque_1" data-name="Calque 1" xmlns="http://www.w3.org/2000/svg" viewBox="0 0 87 87"><path d="M15.31,13.5H71.7a1.81,1.81,0,0,1,1.8,1.8V71.7a1.81,1.81,0,0,1-1.8,1.8H15.31a1.81,1.81,0,0,1-1.81-1.8V15.3a1.81,1.81,0,0,1,1.81-1.8Zm1.8,3.61V69.89H69.89V17.11Z" fill="#fff" fill-rule="evenodd"/><path d="M28.15,24.91h-5.3a1.5,1.5,0,0,1,0-3h5.3a1.5,1.5,0,0,1,0,3Z" fill="#fff"/><path d="M40.15,24.91h-5.3a1.5,1.5,0,0,1,0-3h5.3a1.5,1.5,0,0,1,0,3Z" fill="#fff"/><path d="M52.15,24.91h-5.3a1.5,1.5,0,0,1,0-3h5.3a1.5,1.5,0,0,1,0,3Z" fill="#fff"/><path d="M64.15,24.91h-5.3a1.5,1.5,0,0,1,0-3h5.3a1.5,1.5,0,0,1,0,3Z" fill="#fff"/><path d="M22.15,29.79h-5.3a1.5,1.5,0,0,1,0-3h5.3a1.5,1.5,0,0,1,0,3Z" fill="#fff"/><path d="M34.15,29.79h-5.3a1.5,1.5,0,0,1,0-3h5.3a1.5,1.5,0,0,1,0,3Z" fill="#fff"/><path d="M46.15,29.79h-5.3a1.5,1.5,0,0,1,0-3h5.3a1.5,1.5,0,0,1,0,3Z" fill="#fff"/><path d="M58.15,29.79h-5.3a1.5,1.5,0,0,1,0-3h5.3a1.5,1.5,0,0,1,0,3Z" fill="#fff"/><path d="M69.89,29.79h-5.3a1.5,1.5,0,0,1,0-3h5.3a1.5,1.5,0,0,1,0,3Z" fill="#fff"/><path d="M22.15,40h-5.3a1.5,1.5,0,0,1,0-3h5.3a1.5,1.5,0,0,1,0,3Z" fill="#fff"/><path d="M34.15,40h-5.3a1.5,1.5,0,1,1,0-3h5.3a1.5,1.5,0,1,1,0,3Z" fill="#fff"/><path d="M46.15,40h-5.3a1.5,1.5,0,1,1,0-3h5.3a1.5,1.5,0,1,1,0,3Z" fill="#fff"/><path d="M58.15,40h-5.3a1.5,1.5,0,1,1,0-3h5.3a1.5,1.5,0,1,1,0,3Z" fill="#fff"/><path d="M69.89,40h-5.3a1.5,1.5,0,0,1,0-3h5.3a1.5,1.5,0,0,1,0,3Z" fill="#fff"/><path d="M22.15,50.16h-5.3a1.5,1.5,0,1,1,0-3h5.3a1.5,1.5,0,1,1,0,3Z" fill="#fff"/><path d="M34.15,50.16h-5.3a1.5,1.5,0,1,1,0-3h5.3a1.5,1.5,0,1,1,0,3Z" fill="#fff"/><path d="M46.15,50.16h-5.3a1.5,1.5,0,1,1,0-3h5.3a1.5,1.5,0,1,1,0,3Z" fill="#fff"/><path d="M58.15,50.16h-5.3a1.5,1.5,0,1,1,0-3h5.3a1.5,1.5,0,1,1,0,3Z" fill="#fff"/><path d="M69.89,50.16h-5.3a1.5,1.5,0,0,1,0-3h5.3a1.5,1.5,0,0,1,0,3Z" fill="#fff"/><path d="M22.15,60.34h-5.3a1.5,1.5,0,0,1,0-3h5.3a1.5,1.5,0,1,1,0,3Z" fill="#fff"/><path d="M34.15,60.34h-5.3a1.5,1.5,0,1,1,0-3h5.3a1.5,1.5,0,1,1,0,3Z" fill="#fff"/><path d="M46.15,60.34h-5.3a1.5,1.5,0,1,1,0-3h5.3a1.5,1.5,0,1,1,0,3Z" fill="#fff"/><path d="M58.15,60.34h-5.3a1.5,1.5,0,1,1,0-3h5.3a1.5,1.5,0,1,1,0,3Z" fill="#fff"/><path d="M69.89,60.34h-5.3a1.5,1.5,0,0,1,0-3h5.3a1.5,1.5,0,1,1,0,3Z" fill="#fff"/><path d="M22.15,70.53h-5.3a1.5,1.5,0,0,1,0-3h5.3a1.5,1.5,0,1,1,0,3Z" fill="#fff"/><path d="M34.15,70.53h-5.3a1.5,1.5,0,1,1,0-3h5.3a1.5,1.5,0,1,1,0,3Z" fill="#fff"/><path d="M46.15,70.53h-5.3a1.5,1.5,0,1,1,0-3h5.3a1.5,1.5,0,1,1,0,3Z" fill="#fff"/><path d="M58.15,70.53h-5.3a1.5,1.5,0,1,1,0-3h5.3a1.5,1.5,0,1,1,0,3Z" fill="#fff"/><path d="M69.89,70.53h-5.3a1.5,1.5,0,0,1,0-3h5.3a1.5,1.5,0,1,1,0,3Z" fill="#fff"/><path d="M22.15,19.46h-5.3a1.5,1.5,0,0,1,0-3h5.3a1.5,1.5,0,0,1,0,3Z" fill="#fff"/><path d="M34.15,19.46h-5.3a1.5,1.5,0,0,1,0-3h5.3a1.5,1.5,0,0,1,0,3Z" fill="#fff"/><path d="M46.15,19.46h-5.3a1.5,1.5,0,0,1,0-3h5.3a1.5,1.5,0,0,1,0,3Z" fill="#fff"/><path d="M58.15,19.46h-5.3a1.5,1.5,0,0,1,0-3h5.3a1.5,1.5,0,0,1,0,3Z" fill="#fff"/><path d="M69.89,19.46h-5.3a1.5,1.5,0,0,1,0-3h5.3a1.5,1.5,0,0,1,0,3Z" fill="#fff"/><path d="M28.15,35h-5.3a1.5,1.5,0,1,1,0-3h5.3a1.5,1.5,0,0,1,0,3Z" fill="#fff"/><path d="M40.15,35h-5.3a1.5,1.5,0,0,1,0-3h5.3a1.5,1.5,0,0,1,0,3Z" fill="#fff"/><path d="M52.15,35h-5.3a1.5,1.5,0,1,1,0-3h5.3a1.5,1.5,0,0,1,0,3Z" fill="#fff"/><path d="M64.15,35h-5.3a1.5,1.5,0,0,1,0-3h5.3a1.5,1.5,0,0,1,0,3Z" fill="#fff"/><path d="M28.15,45h-5.3a1.5,1.5,0,1,1,0-3h5.3a1.5,1.5,0,1,1,0,3Z" fill="#fff"/><path d="M40.15,45h-5.3a1.5,1.5,0,1,1,0-3h5.3a1.5,1.5,0,1,1,0,3Z" fill="#fff"/><path d="M52.15,45h-5.3a1.5,1.5,0,1,1,0-3h5.3a1.5,1.5,0,1,1,0,3Z" fill="#fff"/><path d="M64.15,45h-5.3a1.5,1.5,0,1,1,0-3h5.3a1.5,1.5,0,0,1,0,3Z" fill="#fff"/><path d="M28.15,55.05h-5.3a1.5,1.5,0,0,1,0-3h5.3a1.5,1.5,0,0,1,0,3Z" fill="#fff"/><path d="M40.15,55.05h-5.3a1.5,1.5,0,0,1,0-3h5.3a1.5,1.5,0,0,1,0,3Z" fill="#fff"/><path d="M52.15,55.05h-5.3a1.5,1.5,0,0,1,0-3h5.3a1.5,1.5,0,0,1,0,3Z" fill="#fff"/><path d="M64.15,55.05h-5.3a1.5,1.5,0,0,1,0-3h5.3a1.5,1.5,0,0,1,0,3Z" fill="#fff"/><path d="M28.15,65.09h-5.3a1.5,1.5,0,1,1,0-3h5.3a1.5,1.5,0,1,1,0,3Z" fill="#fff"/><path d="M40.15,65.09h-5.3a1.5,1.5,0,1,1,0-3h5.3a1.5,1.5,0,1,1,0,3Z" fill="#fff"/><path d="M52.15,65.09h-5.3a1.5,1.5,0,1,1,0-3h5.3a1.5,1.5,0,1,1,0,3Z" fill="#fff"/><path d="M64.15,65.09h-5.3a1.5,1.5,0,1,1,0-3h5.3a1.5,1.5,0,0,1,0,3Z" fill="#fff"/></svg>