<svg id="Calque_1" data-name="Calque 1" xmlns="http://www.w3.org/2000/svg" viewBox="0 0 87 87"><rect x="7.68" y="42.31" width="13.95" height="2.32" fill="#fff"/><rect x="7.68" y="42.31" width="3" height="18.04" fill="#fff"/><rect x="76.32" y="42.31" width="3" height="18.04" fill="#fff"/><rect x="65.37" y="42.31" width="13.95" height="2.32" fill="#fff"/><path d="M45.16,32.46a.83.83,0,1,1,1.66,0v1.66a.83.83,0,0,0,.83.83H51a.83.83,0,0,0,.83-.83V32.46a5.81,5.81,0,1,0-11.62,0v7.47h5Z" fill="#fff"/><path d="M49.31,36.61a.83.83,0,1,0,0,1.66h.83v1.66h5V38.27H56a.83.83,0,0,0,0-1.66H49.31Z" fill="#fff"/><path d="M31.05,38.27h.83v1.66h5V38.27h.83a.83.83,0,0,0,0-1.66H31.05a.83.83,0,1,0,0,1.66Z" fill="#fff"/><path d="M44.66,42.31H16.54V53.38a7,7,0,0,0,7,7H62.34a8.13,8.13,0,0,0,8.12-8.13V42.31ZM42.34,58H23.5a4.65,4.65,0,0,1-4.64-4.65V44.63H42.34Zm25.8-5.81A5.81,5.81,0,0,1,62.34,58H44.66V44.63H68.14Z" fill="#fff"/></svg>