<svg id="Calque_1" data-name="Calque 1" xmlns="http://www.w3.org/2000/svg" viewBox="0 0 87 87"><path d="M70.14,28.92V70.05a1,1,0,0,1-.89,1.1H17.75a1,1,0,0,1-.89-1.1V31.12h17.7V19.85h30a3.48,3.48,0,0,1,0-2.4l.22-.6H13.86v53.2a4,4,0,0,0,3.89,4.1h51.5a4,4,0,0,0,3.89-4.1V26.59l-1,1.17A3.53,3.53,0,0,1,70.14,28.92ZM16.86,19.85h14.7v8.27H16.86Z" fill="#fff"/><circle cx="62.28" cy="28.02" r="2.11" fill="#fff"/><circle cx="56.56" cy="28.02" r="2.11" fill="#fff"/><path d="M50.85,30.13A2.11,2.11,0,1,0,48.74,28,2.11,2.11,0,0,0,50.85,30.13Z" fill="#fff"/><path d="M43.59,31.19A3.18,3.18,0,1,0,40.41,28,3.17,3.17,0,0,0,43.59,31.19Z" fill="#fff"/><path d="M28.5,49.57A15.09,15.09,0,1,0,43.59,34.48,15.09,15.09,0,0,0,28.5,49.57Zm27.17,0A12.09,12.09,0,1,1,43.59,37.48,12.09,12.09,0,0,1,55.67,49.57Z" fill="#fff"/><path d="M78.45,7.71h-6.7a.52.52,0,0,0-.49.33L67.33,18.5a.53.53,0,0,0,.49.71h2.87a.51.51,0,0,1,.48.71L69,25.27a.52.52,0,0,0,.88.54l8.42-9.87a.52.52,0,0,0-.39-.86l-2.65,0a.52.52,0,0,1-.42-.82l4.06-5.69A.52.52,0,0,0,78.45,7.71Z" fill="#fff"/></svg>