<svg id="Calque_1" data-name="Calque 1" xmlns="http://www.w3.org/2000/svg" viewBox="0 0 87 87"><path d="M60.94,72.44H6.06a1.5,1.5,0,0,1-1.5-1.5V16.06a1.5,1.5,0,0,1,1.5-1.5H60.94a1.5,1.5,0,0,1,1.5,1.5V70.94A1.5,1.5,0,0,1,60.94,72.44Zm-53.38-3H59.44V17.56H7.56Z" fill="#fff"/><path d="M33.5,62.49a19,19,0,1,1,19-19A19,19,0,0,1,33.5,62.49Zm0-35a16,16,0,1,0,16,16A16,16,0,0,0,33.5,27.51Z" fill="#fff"/><path d="M26.86,40.91a2.59,2.59,0,1,1-2.59,2.59,2.6,2.6,0,0,1,2.59-2.59m0-2a4.59,4.59,0,1,0,4.6,4.59,4.59,4.59,0,0,0-4.6-4.59Z" fill="#fff"/><path d="M40.14,40.91a2.59,2.59,0,1,1-2.6,2.59,2.59,2.59,0,0,1,2.6-2.59m0-2a4.59,4.59,0,1,0,4.59,4.59,4.59,4.59,0,0,0-4.59-4.59Z" fill="#fff"/><circle cx="26.86" cy="43.5" r="1.38" fill="#fff"/><path d="M40.14,42.12a1.38,1.38,0,1,0,1.37,1.38,1.38,1.38,0,0,0-1.37-1.38Z" fill="#fff"/><path d="M80.66,42.7H61.9a1.5,1.5,0,1,1,0-3H80.66a1.5,1.5,0,0,1,0,3Z" fill="#fff"/><path d="M73,47.3H61.9a1.5,1.5,0,1,1,0-3H73a1.5,1.5,0,0,1,0,3Z" fill="#fff"/></svg>