<svg id="Calque_1" data-name="Calque 1" xmlns="http://www.w3.org/2000/svg" viewBox="0 0 87 87"><path d="M84,20.79a1.5,1.5,0,0,0-1.5,1.5V34.21H80.07V22.29a1.5,1.5,0,1,0-3,0V34.21h-2.4V22.29a1.5,1.5,0,0,0-3,0V34.21H69.28V22.29a1.5,1.5,0,1,0-3,0V34.21h-2.4V22.29a1.5,1.5,0,0,0-3,0V34.21H58.49V22.29a1.5,1.5,0,0,0-3,0V34.21h-2.4V22.29a1.5,1.5,0,1,0-3,0V34.21H47.7V22.29a1.5,1.5,0,0,0-3,0V34.21H42.3V22.29a1.5,1.5,0,0,0-3,0V34.21H36.91V22.29a1.5,1.5,0,0,0-3,0V34.21h-2.4V22.29a1.5,1.5,0,0,0-3,0V34.21H26.12V22.29a1.5,1.5,0,0,0-3,0V34.21h-2.4V22.29a1.5,1.5,0,0,0-3,0V34.21H15.33V22.29a1.5,1.5,0,0,0-3,0V34.21H9.93V22.29a1.5,1.5,0,0,0-3,0V34.21H4.54V22.29a1.5,1.5,0,0,0-3,0V64.71a1.5,1.5,0,0,0,3,0V57.3H6.93v7.41a1.5,1.5,0,0,0,3,0V57.3h2.4v7.41a1.5,1.5,0,0,0,3,0V57.3h2.39v7.41a1.5,1.5,0,0,0,3,0V57.3h2.4v7.41a1.5,1.5,0,0,0,3,0V57.3h2.39v7.41a1.5,1.5,0,0,0,3,0V57.3h2.4v7.41a1.5,1.5,0,0,0,3,0V57.3H39.3v7.41a1.5,1.5,0,0,0,3,0V57.3h2.4v7.41a1.5,1.5,0,0,0,3,0V57.3h2.39v7.41a1.5,1.5,0,0,0,3,0V57.3h2.4v7.41a1.5,1.5,0,0,0,3,0V57.3h2.39v7.41a1.5,1.5,0,0,0,3,0V57.3h2.4v7.41a1.5,1.5,0,1,0,3,0V57.3h2.39v7.41a1.5,1.5,0,0,0,3,0V57.3h2.4v7.41a1.5,1.5,0,0,0,3,0V57.3h2.39v7.41a1.5,1.5,0,0,0,3,0V22.29A1.5,1.5,0,0,0,84,20.79ZM4.54,54.3V37.21H6.93V54.3Zm5.39,0V37.21h2.4V54.3Zm5.4,0V37.21h2.39V54.3Zm5.39,0V37.21h2.4V54.3Zm5.4,0V37.21h2.39V54.3Zm5.39,0V37.21h2.4V54.3Zm5.4,0V37.21H39.3V54.3Zm5.39,0V37.21h2.4V54.3Zm5.4,0V37.21h2.39V54.3Zm5.39,0V37.21h2.4V54.3Zm5.4,0V37.21h2.39V54.3Zm5.39,0V37.21h2.4V54.3Zm5.4,0V37.21h2.39V54.3Zm5.39,0V37.21h2.4V54.3Zm5.4,0V37.21h2.39V54.3Z" fill="#fff"/></svg>