<svg id="Calque_1" data-name="Calque 1" xmlns="http://www.w3.org/2000/svg" viewBox="0 0 87 87"><path d="M71.89,13.73H43.75l-.25,0H15.11a1.37,1.37,0,0,0-1.37,1.37V71.91a1.37,1.37,0,0,0,1.37,1.37H71.89a1.37,1.37,0,0,0,1.37-1.37V15.1A1.37,1.37,0,0,0,71.89,13.73Zm-1.37,2.84v7a10.46,10.46,0,0,1-4.4,4.34H63.34a24.9,24.9,0,0,1-4.28-6.3V16.5h4c-.64,1.9-.68,4.87,1.34,9.37a.53.53,0,0,0,.3.27.45.45,0,0,0,.16,0,.46.46,0,0,0,.23-.06c.09-.05,2.17-1.19,2.92-5.23a5.94,5.94,0,0,0-1-4.38h3.46A.18.18,0,0,0,70.52,16.57Zm0,8.91v2.45H68A11.49,11.49,0,0,0,70.52,25.48ZM66,16.8a5.07,5.07,0,0,1,1.06,3.9,7.53,7.53,0,0,1-2,4.18c-1.76-4.17-1.59-6.78-.94-8.38h1.65C65.88,16.6,65.93,16.7,66,16.8Zm-7,7A28.56,28.56,0,0,0,62,27.93H59.06Zm8.11,6.87a47.34,47.34,0,0,1,3.35,8.93V61.38a39.65,39.65,0,0,1-3.58,9.16H63.07c-2.48-21.18.07-35.44,1.06-39.86Zm1.11,0h2.24v5.48A48.31,48.31,0,0,0,68.28,30.68ZM49.42,70.54c-.08-.16-.14-.32-.23-.49a6.6,6.6,0,0,1-.54-5.37,9.54,9.54,0,0,1,3.81-5.12c1.4,5.63.74,9-.39,11Zm-1.87-14.2c-2.47-21.77.36-36.12,1.24-39.84h2.53a59.78,59.78,0,0,1,.23,39.84ZM44.87,29.53a1.45,1.45,0,0,0,0-.48V16.5h2.89c-.95,4.15-3.63,18.45-1.21,39.84H44.87ZM37.68,16.8a5.07,5.07,0,0,1,1.06,3.9,7.53,7.53,0,0,1-2,4.18c-1.76-4.18-1.59-6.79-.94-8.38h1.65Zm-1.57,9.07a.53.53,0,0,0,.3.27.45.45,0,0,0,.16,0,.46.46,0,0,0,.23-.06c.09-.05,2.17-1.19,2.92-5.23a5.94,5.94,0,0,0-1-4.38h3.45v7.19a10.52,10.52,0,0,1-4.32,4.23H35a24.34,24.34,0,0,1-4.32-6.43v-5h4.09C34.13,18.4,34.09,21.37,36.11,25.87Zm6-.31v2.36H39.71A11.18,11.18,0,0,0,42.13,25.56Zm-8.45,2.36h-3V23.7A27.47,27.47,0,0,0,33.68,27.92Zm-1.33,2.74a87.13,87.13,0,0,0-1.68,11.27V30.66Zm1,0h3a38.38,38.38,0,0,1,5.78,13v14h0v.27a35.09,35.09,0,0,1-5.64,12.58H32.2C29.72,49,32.44,34.67,33.37,30.66Zm4.19,0h4.57v9.26A41.3,41.3,0,0,0,37.56,30.66ZM21.41,56.32a43.35,43.35,0,0,1-.14-39.82h4.12c2.47,21.51-.25,35.82-1.18,39.82ZM16.48,45.41a47.47,47.47,0,0,0,3.81,10.91H16.48ZM20.14,16.5A43.42,43.42,0,0,0,16.48,27V16.5Zm1.29,53.67a5.07,5.07,0,0,1-1.06-3.9,7.53,7.53,0,0,1,2-4.18c1.78,4.24,1.58,6.86.91,8.45H21.67C21.6,70.42,21.52,70.3,21.43,70.17Zm6.51.37H24.32C25,68.64,25,65.65,23,61.1a.46.46,0,0,0-.29-.27.51.51,0,0,0-.4,0c-.08,0-2.16,1.19-2.91,5.22a6,6,0,0,0,1.08,4.46h-4V59.07H27.94Zm-2.7-14.22c1-4.37,3.57-18.63,1.16-39.82h1.54V56.32Zm5.43,8.85c.14,1.73.32,3.51.53,5.35h-.53Zm7,5.35a36.73,36.73,0,0,0,4.41-8.89v8.89Zm7.15-11.44h6.5a11,11,0,0,0-3.65,5.25,7.56,7.56,0,0,0,.58,6.17.05.05,0,0,0,0,0H44.87ZM56.32,70.54H53.2c1.09-2.25,1.61-5.84.16-11.46h3Zm0-14.2H52.61a60.92,60.92,0,0,0-.23-39.84h3.95Zm2.73-25.66h4c-1,4.75-3.48,19-1,39.86h-3Zm9,39.86a39.07,39.07,0,0,0,2.44-5.71v5.71Z" fill="#fff"/><path d="M23.47,28.7A15.91,15.91,0,0,1,22.84,27a1.34,1.34,0,0,0-1.24-1,1.36,1.36,0,0,0-1.33.9c-1.05,2.86-1.78,8.32.74,18.05a.5.5,0,0,0,.34.36l.15,0a.47.47,0,0,0,.33-.14c.09-.07,2.1-2,2.82-8.77A15.77,15.77,0,0,0,23.47,28.7Zm.19,7.58a19.27,19.27,0,0,1-1.94,7.34c-2.14-8.82-1.48-13.78-.51-16.41a.35.35,0,0,1,.34-.24h0a.34.34,0,0,1,.32.25,16.46,16.46,0,0,0,.67,1.86A14.88,14.88,0,0,1,23.66,36.28Z" fill="#fff"/><path d="M33,60.14a22,22,0,0,1,.43,2.48,1.61,1.61,0,0,0,1.29,1.43,1.45,1.45,0,0,0,.35,0,1.65,1.65,0,0,0,1.43-.83c2-3.53,4.24-10.56,3.14-24a.48.48,0,0,0-.27-.4.5.5,0,0,0-.49,0c-.13.09-3.18,2.12-5.68,10.87A21,21,0,0,0,33,60.14Zm1.17-10.09c1.66-5.83,3.56-8.55,4.56-9.65.88,12.48-1.18,19-3.1,22.36a.65.65,0,0,1-.71.31.62.62,0,0,1-.5-.55,24,24,0,0,0-.44-2.6A19.82,19.82,0,0,1,34.15,50.05Z" fill="#fff"/><path d="M53.5,32.65c-.69-8.33-2.6-10.66-2.68-10.76a.52.52,0,0,0-.5-.16.51.51,0,0,0-.37.39c-2.42,12-1.73,18.7-.72,22.22a1.36,1.36,0,0,0,1.26,1.07h0a1.36,1.36,0,0,0,1.24-1.16c.14-.65.35-1.39.6-2.18A24.15,24.15,0,0,0,53.5,32.65Zm-2.08,9.11Q51,43,50.79,44c0,.22-.16.36-.29.37h0c-.12,0-.24-.14-.3-.34-.94-3.28-1.59-9.45.47-20.39a29.53,29.53,0,0,1,1.84,9A23.1,23.1,0,0,1,51.42,41.76Z" fill="#fff"/><path d="M65,58a13.89,13.89,0,0,1,.62,1.75,1.33,1.33,0,0,0,1.25,1h.05a1.35,1.35,0,0,0,1.28-.9h0c1-2.87,1.78-8.33-.74-18.05a.53.53,0,0,0-.35-.36.5.5,0,0,0-.48.11c-.08.08-2.09,2-2.81,8.78A15.77,15.77,0,0,0,65,58Zm-.19-7.59a19.2,19.2,0,0,1,1.94-7.33c2.14,8.82,1.47,13.77.51,16.41a.34.34,0,0,1-.36.23.32.32,0,0,1-.31-.24,16.7,16.7,0,0,0-.67-1.87A14.72,14.72,0,0,1,64.76,50.39Z" fill="#fff"/></svg>