<svg id="Calque_1" data-name="Calque 1" xmlns="http://www.w3.org/2000/svg" viewBox="0 0 87 87"><path d="M79.9,38.38l5.71-8.31a2.26,2.26,0,0,0-3.72-2.55l-3.43,5A36.75,36.75,0,0,0,7.35,36.36a2.25,2.25,0,1,0,4.42.87,32.25,32.25,0,0,1,62.42-3.31L68.7,32.65a2.25,2.25,0,1,0-1,4.39l9.83,2.27.08,0H78a2.19,2.19,0,0,0,.77-.13h0l.09,0h0l.09,0,0,0,.05,0,.1-.06,0,0,.06,0,0,0,.07,0,.06-.05,0,0,.06,0,0,0,.08-.09h0A1.3,1.3,0,0,0,79.9,38.38Z" fill="#fff"/><path d="M77.67,48A2.26,2.26,0,0,0,75,49.77,32.24,32.24,0,0,1,12.59,53l5.71,1.32a2.21,2.21,0,0,0,.51,0,2.25,2.25,0,0,0,.5-4.44L9.52,47.7h0l-.11,0h-.6a2,2,0,0,0-.42.07h0l-.09,0h0l-.06,0-.06,0,0,0-.08,0H8l-.09,0h0a2.4,2.4,0,0,0-.26.18h0l-.07.06h0l0,.06,0,0,0,0,0,0,0,0-.06,0v0l-.06.08h0l-.06.08h0l0,0v0L1.39,56.93A2.25,2.25,0,0,0,2,60.06a2.22,2.22,0,0,0,1.27.4,2.24,2.24,0,0,0,1.86-1L8.4,54.69a36.74,36.74,0,0,0,71-4A2.25,2.25,0,0,0,77.67,48Z" fill="#fff"/><path d="M58.13,31.28v8.88H55V35.71H52.9v4.45H49.78V33H47.67v7.18H44.55V30.37h-2.1v9.79H39.33V33H37.22v7.18H34.1V35.71H32v4.45H28.87V31.28H22.34V56.63h6.53V52.07H32v4.56H34.1V52.07h3.12v4.56h2.11V52.07h3.12v4.56h2.1V52.07h3.12v4.56h2.11V52.07H52.9v4.56H55V52.07h3.12v4.56h6.53V31.28ZM26.77,54.52H24.45V33.39h2.32Zm0-12.25V50m2.1,0V42.27H32V50Zm5.23,0V42.27h3.12V50Zm5.23,0V42.27h3.12V50Zm5.22,0V42.27h3.12V50Zm5.23,0V42.27H52.9V50ZM55,50V42.27h3.12V50Zm5.22,0V42.27m2.32,12.25H60.23V33.39h2.32Z" fill="#fff"/></svg>