<svg id="Calque_1" data-name="Calque 1" xmlns="http://www.w3.org/2000/svg" viewBox="0 0 87 87"><path d="M80,77.21H7A1.49,1.49,0,0,1,5.69,75l10-18.15A1.49,1.49,0,0,1,17,56.06H70a1.49,1.49,0,0,1,1.31.78L81.31,75A1.49,1.49,0,0,1,80,77.21Zm-70.46-3H77.46L69.11,59.06H17.89Z" fill="#fff"/><path d="M70,11.29H17a1.5,1.5,0,0,0-1.5,1.5V48.12a1.5,1.5,0,0,0,.76,1.3,3.65,3.65,0,0,1,.74-.08H57a5.42,5.42,0,0,0,4.4-2.72H53.83V32H68.5v7.17a3.47,3.47,0,0,1,1,2.4,16.56,16.56,0,0,1-1.68,8.09H70a1.5,1.5,0,0,0,1.5-1.5V12.79A1.5,1.5,0,0,0,70,11.29ZM33.17,46.62H18.5V32H33.17Zm0-17.66H18.5V14.29H33.17ZM50.83,46.62H36.17V32H50.83Zm0-17.66H36.17V14.29H50.83ZM68.5,29H53.83V14.29H68.5Z" fill="#fff"/><path d="M17,54.34a1.5,1.5,0,0,1,0-3H57c.74,0,7.62-.55,7.46-9.73a1.5,1.5,0,0,1,3,0c.21,12.36-10.31,12.78-10.42,12.78Z" fill="#fff"/></svg>