<svg id="Calque_1" data-name="Calque 1" xmlns="http://www.w3.org/2000/svg" viewBox="0 0 87 87"><path d="M49.39,56.22H37.61a1.26,1.26,0,0,0-1.26,1.27v.38a1.26,1.26,0,0,0,1.26,1.27H49.39a1.26,1.26,0,0,0,1.26-1.27v-.38a1.26,1.26,0,0,0-1.26-1.27Z" fill="#fff"/><path d="M47.9,60.33H39.1a1.32,1.32,0,0,0-1.38,1.27V62a1.32,1.32,0,0,0,1.38,1.26h8.8A1.32,1.32,0,0,0,49.28,62V61.6a1.32,1.32,0,0,0-1.38-1.27Z" fill="#fff"/><path d="M46.08,64.44H40.92a1.41,1.41,0,0,0-1.51,1.27v.38a1.4,1.4,0,0,0,1.51,1.26h5.16a1.4,1.4,0,0,0,1.51-1.26v-.38a1.41,1.41,0,0,0-1.51-1.27Z" fill="#fff"/><path d="M43.5,22A12.81,12.81,0,0,1,53.85,42.39l-.05.06,0,.07c-2.63,4.13-4.11,7.22-4.83,10.14H38.07c-.72-2.92-2.2-6-4.83-10.14l0-.07-.05-.06A12.81,12.81,0,0,1,43.5,22m0-2.38A15.19,15.19,0,0,0,31.23,43.79C33.9,48,35.35,51.05,35.93,54a1.27,1.27,0,0,0,1.24,1H49.83a1.27,1.27,0,0,0,1.24-1c.58-3,2-6,4.7-10.23A15.19,15.19,0,0,0,43.5,19.65Z" fill="#fff"/><path d="M79.9,38.38l5.71-8.31a2.26,2.26,0,0,0-3.72-2.55l-3.43,5A36.75,36.75,0,0,0,7.35,36.36a2.25,2.25,0,1,0,4.42.87,32.25,32.25,0,0,1,62.42-3.31L68.7,32.65a2.25,2.25,0,1,0-1,4.39l9.83,2.27.08,0H78a2.19,2.19,0,0,0,.77-.13h0l.09,0h0l.09,0,0,0,.05,0,.1-.06,0,0,.06,0,0,0,.07,0,.06-.05,0,0,.06,0,0,0,.08-.09h0A1.3,1.3,0,0,0,79.9,38.38Z" fill="#fff"/><path d="M77.67,48A2.26,2.26,0,0,0,75,49.77,32.24,32.24,0,0,1,12.59,53l5.71,1.32a2.21,2.21,0,0,0,.51,0,2.25,2.25,0,0,0,.5-4.44L9.52,47.7h0l-.11,0h-.6a2,2,0,0,0-.42.07h0l-.09,0h0l-.06,0-.06,0,0,0-.08,0H8l-.09,0h0a2.4,2.4,0,0,0-.26.18h0l-.07.06h0l0,.06,0,0,0,0,0,0,0,0-.06,0v0l-.06.08h0l-.06.08h0l0,0v0L1.39,56.93A2.25,2.25,0,0,0,2,60.06a2.22,2.22,0,0,0,1.27.4,2.24,2.24,0,0,0,1.86-1L8.4,54.69a36.74,36.74,0,0,0,71-4A2.25,2.25,0,0,0,77.67,48Z" fill="#fff"/></svg>