<svg id="Calque_1" data-name="Calque 1" xmlns="http://www.w3.org/2000/svg" viewBox="0 0 87 87"><path d="M35.26,61.85H35L7.93,57.93a1.5,1.5,0,0,1-1.28-1.49v-15A1.5,1.5,0,0,1,7.81,40l27.11-6.26a1.51,1.51,0,0,1,1.84,1.46V60.35a1.51,1.51,0,0,1-.52,1.14A1.47,1.47,0,0,1,35.26,61.85ZM9.65,55.14l24.11,3.48V37.11L9.65,42.68Z" fill="#fff"/><path d="M35.26,61.85a1.45,1.45,0,0,1-1-.39,1.49,1.49,0,0,1-.49-1.11V35.22a1.46,1.46,0,0,1,.51-1.12,1.49,1.49,0,0,1,1.18-.37L79,39.21a1.5,1.5,0,0,1,1.31,1.49V56.44A1.5,1.5,0,0,1,79,57.94l-43.6,3.91Zm1.5-24.93V58.71l40.59-3.64V42ZM78.85,56.44h0Z" fill="#fff"/><path d="M14.91,58.26a1,1,0,0,1-1-1V40a1,1,0,0,1,2,0V57.26A1,1,0,0,1,14.91,58.26Z" fill="#fff"/><path d="M24.3,59.73a1,1,0,0,1-1-1V37.89a1,1,0,0,1,2,0V58.73A1,1,0,0,1,24.3,59.73Z" fill="#fff"/><path d="M61.26,58.26a1,1,0,0,1-1-1V40a1,1,0,0,1,2,0V57.26A1,1,0,0,1,61.26,58.26Z" fill="#fff"/><path d="M49.26,59.73a1,1,0,0,1-1-1V37.89a1,1,0,0,1,2,0V58.73A1,1,0,0,1,49.26,59.73Z" fill="#fff"/><path d="M71.26,56.92a1,1,0,0,1-1-1V41.37a1,1,0,1,1,2,0V55.92A1,1,0,0,1,71.26,56.92Z" fill="#fff"/><path d="M8.14,47a1,1,0,0,1-1-.86A1,1,0,0,1,8,45l27.12-3.57a1,1,0,0,1,.26,2L8.28,47Z" fill="#fff"/><path d="M78.86,46.86h-.08L35.18,43.4a1,1,0,1,1,.16-2l43.59,3.45a1,1,0,0,1-.07,2Z" fill="#fff"/><path d="M35.26,53.16a1,1,0,0,1,0-2l43.6-1.73a1,1,0,0,1,1,1,1,1,0,0,1-1,1L35.3,53.15Z" fill="#fff"/><path d="M35.26,53.16h0L8.11,52.29a1,1,0,0,1-1-1,1,1,0,0,1,1-1l27.11.87a1,1,0,0,1,0,2Z" fill="#fff"/><path d="M22.31,35.22V29.07a.56.56,0,1,1,1.12,0v1.12a.56.56,0,0,0,.56.56h2.24a.56.56,0,0,0,.56-.56V29.07a3.93,3.93,0,0,0-7.85,0V35.9Z" fill="#fff"/></svg>