<svg id="Calque_1" data-name="Calque 1" xmlns="http://www.w3.org/2000/svg" viewBox="0 0 87 87"><path d="M43.5,52.79H7.25a1.5,1.5,0,0,1-1.5-1.5V35.71a1.5,1.5,0,0,1,1.5-1.5H43.5a1.5,1.5,0,0,1,1.5,1.5V51.29A1.5,1.5,0,0,1,43.5,52.79Zm-34.75-3H42V37.21H8.75Z" fill="#fff"/><path d="M79.75,52.79H43.5a1.5,1.5,0,0,1-1.5-1.5V35.71a1.5,1.5,0,0,1,1.5-1.5H79.75a1.5,1.5,0,0,1,1.5,1.5V51.29A1.5,1.5,0,0,1,79.75,52.79ZM45,49.79H78.25V37.21H45Z" fill="#fff"/><path d="M13,41.93,11.4,37.79l-.09-.24.07-.24.28-1,.18-.59.61.07,2.67.32.27,0,.18.2,1.58,1.77.18.2v.27l0,1.44v.35l-.26.22L15.62,42l-.16.14-.19,0-1.45.26-.59.11L13,41.93Zm.18,6.79L13,49.79l.47.27,2.77-.55.64-1.14-.13-2.06,0,0-.84.37-.94,1.22-.12.15-.17.08-1.45.61ZM11.46,50l-.09.51.45.25,1.15.67.24.13.26-.05,3.36-.66.33-.07.17-.29.91-1.62.11-.19v-.22L18.17,46v-.26L18,45.5l-.56-.59-.35-.37-.47.21-1.48.66-.17.07-.11.15-.94,1.21-1.63.7-.37.15-.07.39-.36,2ZM34.25,45.3l2.66.7L39,48.81l.34.48-.39.44-1.34,1.49-.36.41-.49-.23-1.87-.88-1.37-.81-.27-.16-.07-.3-.51-2.13-.08-.33.21-.28.7-.94.29-.39.48.12Zm1.79,2-1.68-.43-.21.27.36,1.5,1.07.63,1.29.61.58-.65L36,47.27Zm-8.69-4.46,2.09.88.54.23-.11.58-.66,3.41-.05.28-.23.17-1.8,1.35-.2.16h-.25L24,49.79h-.31l-.21-.23-1.68-1.89-.3-.34.17-.42,1-2.44.12-.32.32-.1,3.71-1.25.26-.09.26.11Zm1,2L27,44.26,23.9,45.31,23.21,47l1.17,1.31,2.08.06,1.37-1,.49-2.56Zm4.79-6,.65,1.86,1.69.69,1.67-.43.47-.5.29-1-.34-.67-1.48-1.28L34.39,37l-1.21.83-.07,1Zm-.62,2.65.11.32.31.12,2.44,1,2.54-.66,1-1.06.56-1.86-.75-1.45-1.92-1.66-2.29-.73-.34-.11-.29.2-1.8,1.23-.29.2,0,.36-.09,1.51V39l.05.14.8,2.32ZM20.61,38.31l0,.39.31.25,2,1.57.25.19.31,0,1.16-.17,1.75-.59.66-.66.5-2.14.12-.47-.41-.29L26,35.53l-.22-.16-.26,0-2.7.23-.23,0-.18.14-1.5,1.26-.22.19,0,.3-.08.77Zm1.5-.33,1.09-.92,2.2-.19.54.38-.3,1.27-.12.13-1.29.43-.73.1-1.4-1.12V38Zm-9.26-.49,1.3,3.35.66-.12,1.09-.95,0-.83-1.21-1.37-1.79-.22Z" fill="#fff" fill-rule="evenodd"/><path d="M49.26,41.93l-1.62-4.14-.09-.24.07-.24.29-1,.18-.59.6.07,2.67.32.28,0,.18.2,1.58,1.77.17.2v.27l0,1.44v.35l-.25.22L51.86,42l-.15.14-.2,0-1.44.26-.59.11-.22-.56Zm.17,6.79-.19,1.07.47.27,2.76-.55.64-1.14L53,46.31l0,0-.84.37-.94,1.22-.12.15-.17.08-1.46.61ZM47.71,50l-.1.51.45.25,1.16.67.24.13.26-.05,3.36-.66.33-.07.17-.29.91-1.62.11-.19,0-.22L54.42,46l0-.26-.18-.19-.56-.59-.35-.37-.47.21-1.48.66-.17.07-.12.15-.93,1.21-1.64.7-.36.15-.07.39-.36,2ZM70.5,45.3l2.65.7,2.07,2.81.35.48-.39.44-1.34,1.49-.36.41L73,51.4l-1.88-.88-1.36-.81-.27-.16-.07-.3-.51-2.13-.08-.33.21-.28.7-.94.29-.39.48.12Zm1.78,2-1.67-.43-.21.27.36,1.5,1.07.63,1.29.61.58-.65-1.42-1.93Zm-8.69-4.46,2.09.88.55.23-.11.58-.66,3.41-.06.28-.22.17-1.8,1.35-.2.16h-.26l-2.65-.07H60l-.21-.23-1.67-1.89-.3-.34.17-.42,1-2.44.13-.32.32-.1,3.71-1.25.26-.09.25.11Zm1,2-1.29-.54-3.13,1.05L59.46,47l1.16,1.31,2.08.06,1.38-1,.49-2.56Zm4.79-6L70,40.68l1.69.69,1.67-.43.47-.5.29-1-.34-.67L72.3,37.51,70.63,37l-1.21.83-.06,1Zm-.62,2.65.11.32.31.12,2.44,1,2.54-.66,1-1.06.55-1.86L75,37.87,73,36.21l-2.3-.73-.33-.11-.3.2L68.31,36.8,68,37l0,.36-.09,1.51V39l0,.14.8,2.32ZM56.86,38.31l0,.39.31.25,2,1.57.24.19.31,0,1.17-.17,1.75-.59.65-.66.51-2.14.11-.47-.4-.29-1.15-.82-.22-.16-.27,0-2.69.23-.23,0-.18.14-1.5,1.26-.23.19,0,.3-.07.77ZM58.35,38l1.1-.92,2.2-.19.53.38-.3,1.27-.12.13-1.28.43-.73.1-1.4-1.12V38Zm-9.26-.49,1.31,3.35.66-.12,1.09-.95,0-.83-1.22-1.37-1.78-.22Z" fill="#fff" fill-rule="evenodd"/></svg>