<svg id="Calque_1" data-name="Calque 1" xmlns="http://www.w3.org/2000/svg" viewBox="0 0 87 87"><path d="M55.31,24.47V62.53H79.8V24.47ZM78.12,60.85H57V58.14H78.12Zm0-4.28H57V26.15H67.18v1.48h1.39V26.15h9.55Z" fill="#fff"/><path d="M66,31.56a.27.27,0,0,0-.08-.18.27.27,0,0,0-.37,0,.26.26,0,0,0-.07.18.26.26,0,0,0,.07.19.27.27,0,0,0,.19.08.25.25,0,0,0,.18-.08A.27.27,0,0,0,66,31.56Z" fill="#fff"/><path d="M65.56,32.5a.26.26,0,1,0-.12.51h.06a.26.26,0,0,0,.25-.21A.25.25,0,0,0,65.56,32.5Z" fill="#fff"/><path d="M65.28,33.69a.26.26,0,0,0-.32.19.28.28,0,0,0,.2.32h.06a.26.26,0,0,0,.06-.51Z" fill="#fff"/><path d="M64.72,36.06a.28.28,0,0,0-.32.2.26.26,0,0,0,.2.31h.06a.25.25,0,0,0,.25-.2A.26.26,0,0,0,64.72,36.06Z" fill="#fff"/><path d="M65,34.88a.26.26,0,0,0-.32.19.28.28,0,0,0,.2.32h.06a.26.26,0,0,0,.06-.51Z" fill="#fff"/><path d="M64.19,37.32a.32.32,0,0,0-.07.19.29.29,0,0,0,.07.18.27.27,0,0,0,.38,0,.29.29,0,0,0,.07-.18.32.32,0,0,0-.07-.19A.28.28,0,0,0,64.19,37.32Z" fill="#fff"/><path d="M66.64,31.38a.27.27,0,0,0-.08.18.27.27,0,0,0,.27.27.25.25,0,0,0,.18-.08.27.27,0,0,0,.08-.19.27.27,0,0,0-.08-.18A.27.27,0,0,0,66.64,31.38Z" fill="#fff"/><path d="M66.72,32.49a.26.26,0,0,0-.29.23.25.25,0,0,0,.23.29h0a.27.27,0,0,0,.26-.24A.27.27,0,0,0,66.72,32.49Z" fill="#fff"/><path d="M66.44,34.87a.25.25,0,0,0-.29.23.26.26,0,0,0,.23.29h0a.27.27,0,0,0,.26-.23A.27.27,0,0,0,66.44,34.87Z" fill="#fff"/><path d="M66.58,33.68a.26.26,0,1,0-.06.52h0a.26.26,0,0,0,.26-.23A.27.27,0,0,0,66.58,33.68Z" fill="#fff"/><path d="M66.3,36.06a.25.25,0,0,0-.29.23.26.26,0,0,0,.23.29h0a.26.26,0,0,0,0-.52Z" fill="#fff"/><path d="M65.94,37.32a.26.26,0,0,0-.07.19.24.24,0,0,0,.07.18.27.27,0,0,0,.19.08.27.27,0,0,0,.26-.26.27.27,0,0,0-.08-.19A.27.27,0,0,0,65.94,37.32Z" fill="#fff"/><path d="M70.23,31.56a.26.26,0,0,0-.07-.18.27.27,0,0,0-.37,0,.27.27,0,0,0-.08.18.27.27,0,0,0,.08.19.25.25,0,0,0,.18.08.27.27,0,0,0,.19-.08A.26.26,0,0,0,70.23,31.56Z" fill="#fff"/><path d="M70.51,32.69a.27.27,0,0,0-.32-.19.25.25,0,0,0-.19.31.27.27,0,0,0,.25.21h.06A.27.27,0,0,0,70.51,32.69Z" fill="#fff"/><path d="M70.56,35.19a.25.25,0,0,0,.25.2h.06a.28.28,0,0,0,.2-.32.26.26,0,0,0-.32-.19A.25.25,0,0,0,70.56,35.19Z" fill="#fff"/><path d="M70.47,33.69a.26.26,0,0,0,.06.51h.06a.28.28,0,0,0,.2-.32A.26.26,0,0,0,70.47,33.69Z" fill="#fff"/><path d="M70.84,36.38a.25.25,0,0,0,.25.2h.06a.26.26,0,0,0,.2-.31.28.28,0,0,0-.32-.2A.26.26,0,0,0,70.84,36.38Z" fill="#fff"/><path d="M71.11,37.51a.25.25,0,0,0,.08.18.23.23,0,0,0,.18.08.27.27,0,0,0,.19-.08.24.24,0,0,0,.07-.18.26.26,0,0,0-.44-.19A.27.27,0,0,0,71.11,37.51Z" fill="#fff"/><path d="M69.11,31.75a.27.27,0,0,0,.08-.19.27.27,0,0,0-.08-.18.27.27,0,0,0-.37,0,.27.27,0,0,0-.08.18.27.27,0,0,0,.08.19.27.27,0,0,0,.18.08A.27.27,0,0,0,69.11,31.75Z" fill="#fff"/><path d="M69.37,35.39a.26.26,0,0,0,.23-.29.25.25,0,0,0-.29-.23.27.27,0,0,0-.23.29.27.27,0,0,0,.26.23Z" fill="#fff"/><path d="M69.51,36.58a.26.26,0,0,0,.23-.29.25.25,0,0,0-.29-.23.26.26,0,0,0,0,.52Z" fill="#fff"/><path d="M69.23,34.2a.26.26,0,0,0-.06-.52.27.27,0,0,0-.23.29.26.26,0,0,0,.26.23Z" fill="#fff"/><path d="M69.09,33a.25.25,0,0,0,.23-.29.26.26,0,0,0-.29-.23.27.27,0,0,0-.23.29.27.27,0,0,0,.26.24Z" fill="#fff"/><path d="M69.44,37.32a.27.27,0,0,0-.08.19.27.27,0,0,0,.26.26.27.27,0,0,0,.19-.08.25.25,0,0,0,.08-.18.27.27,0,0,0-.08-.19A.27.27,0,0,0,69.44,37.32Z" fill="#fff"/><path d="M67.69,31.38a.27.27,0,0,0-.08.18.27.27,0,0,0,.27.27.27.27,0,0,0,.18-.08.27.27,0,0,0,.08-.19.27.27,0,0,0-.08-.18A.27.27,0,0,0,67.69,31.38Z" fill="#fff"/><path d="M67.88,36.06a.26.26,0,0,0-.27.26.27.27,0,0,0,.53,0A.26.26,0,0,0,67.88,36.06Z" fill="#fff"/><path d="M67.88,33.68a.27.27,0,0,0-.27.26.27.27,0,0,0,.53,0A.26.26,0,0,0,67.88,33.68Z" fill="#fff"/><path d="M67.88,32.49a.27.27,0,1,0,.26.26A.27.27,0,0,0,67.88,32.49Z" fill="#fff"/><path d="M67.88,34.87a.27.27,0,0,0-.27.26.27.27,0,0,0,.53,0A.26.26,0,0,0,67.88,34.87Z" fill="#fff"/><path d="M67.69,37.32a.27.27,0,0,0-.08.19.25.25,0,0,0,.08.18.27.27,0,0,0,.19.08.27.27,0,0,0,.18-.08.25.25,0,0,0,.08-.18.27.27,0,0,0-.08-.19A.27.27,0,0,0,67.69,37.32Z" fill="#fff"/><path d="M65.08,30.43a.26.26,0,0,0,.26.26h5.07a.26.26,0,0,0,.26-.26V30H65.08Z" fill="#fff"/><polygon points="68.58 27.81 67.18 27.81 65.17 29.82 70.58 29.82 68.58 27.81" fill="#fff"/><path d="M60.05,43.5A1.52,1.52,0,1,0,61.57,45,1.52,1.52,0,0,0,60.05,43.5Z" fill="#fff"/><path d="M47.08,41l-1.22,4.82a6.62,6.62,0,0,1-6.43,5H18.73a6.62,6.62,0,0,1-6.43-5L11.08,41h36m2-1.54h-40l1.71,6.74a8.18,8.18,0,0,0,7.93,6.17h20.7a8.17,8.17,0,0,0,7.93-6.17l1.71-6.74Z" fill="#fff"/><path d="M48.68,38.09a.74.74,0,1,1,0,1.47H9.48a.74.74,0,0,1,0-1.47h39.2m0-1.54H9.48a2.28,2.28,0,1,0,0,4.56h39.2a2.28,2.28,0,0,0,0-4.56Z" fill="#fff"/><circle cx="19.26" cy="52.83" r="1.62" fill="#fff"/><circle cx="38.9" cy="52.83" r="1.62" fill="#fff"/></svg>