<svg id="Calque_1" data-name="Calque 1" xmlns="http://www.w3.org/2000/svg" viewBox="0 0 87 87"><path d="M81.8,38.34h-8l8.65-4.48A1.5,1.5,0,0,0,81.8,31l-10-.87a14.48,14.48,0,0,0-2.87,0L60.44,31l-7.39-.4a9.48,9.48,0,0,0-1.41,0L47.47,31l-4.33-1a8.6,8.6,0,0,0-3.5-.09L33.43,31a1.53,1.53,0,0,0-.69.17l-6.85,3.55L24,35.21a9.45,9.45,0,0,0-3.3,1.56l-2.85,2.14-2.85.8a9.55,9.55,0,0,0-2.55,1.13l-8,5a1.5,1.5,0,0,0,.69,2.84h8L4.51,53.14A1.5,1.5,0,0,0,5.2,56H53.57a1.53,1.53,0,0,0,.69-.17L82.49,41.18a1.5,1.5,0,0,0-.69-2.84ZM11.36,45.66l7.7-4L24.17,38l3.92-1,5.71-3,7.12-1,4.32.71a10.54,10.54,0,0,0,3.5,0L52.58,33l6.87.86a9.08,9.08,0,0,0,2.21,0L69.12,33l6.52,1-4.16,2.16-2.4.66a11,11,0,0,0-3.27,1.54l-4.28,3-3.05.91a8.47,8.47,0,0,0-2.75,1.42l-2.53,2H41.64l-5.75-.81a8.31,8.31,0,0,0-2.77.08l-3.62.73-2.95-.74a5.67,5.67,0,0,0-2.17-.1L19,45.66ZM53.2,53H11.36l8.32-4.31H53.57a1.53,1.53,0,0,0,.69-.17l13.79-7.15h7.59Z" fill="#fff"/></svg>