<svg id="Calque_1" data-name="Calque 1" xmlns="http://www.w3.org/2000/svg" viewBox="0 0 87 87"><path d="M72.43,73.5a1,1,0,0,0,1.07-1V48.25A84,84,0,0,0,61.81,73.5Z" fill="#fff"/><path d="M21.47,45.47a71.5,71.5,0,0,1,7.05,2.12A51.62,51.62,0,0,1,56.65,13.5H45C26,22.58,22,42.07,21.47,45.47Z" fill="#fff"/><path d="M13.5,53.69v5C26.14,63.23,31.7,69.29,34.13,73.5H41.6C39.11,67.73,32.26,58.59,13.5,53.69Z" fill="#fff"/><path d="M31.52,48.78a51.89,51.89,0,0,1,8.38,4.46c2.1-7,10.32-28.53,33.6-38.54v-.19a1,1,0,0,0-1.07-1H65C38.59,21.84,32.58,43.6,31.52,48.78Z" fill="#fff"/><path d="M38.89,13.5H14.57a1,1,0,0,0-1.07,1v29.4c1.57.24,3.19.51,4.83.85C19.07,40.83,23.11,23.68,38.89,13.5Z" fill="#fff"/><path d="M13.5,62v4.81A39.5,39.5,0,0,1,19,69.9a22.93,22.93,0,0,1,4.12,3.6h7.14C27.8,70.09,22.93,65.62,13.5,62Z" fill="#fff"/><path d="M48.65,66.07a35.18,35.18,0,0,0-8.4-8.92,1.54,1.54,0,0,1-.63-.45,47.26,47.26,0,0,0-10.31-5.6,1.61,1.61,0,0,1-.43-.17A71.8,71.8,0,0,0,13.5,47v3.59C35.33,56,42.62,67,45,73.5h7.15a30.41,30.41,0,0,0-3.06-6.67A1.5,1.5,0,0,1,48.65,66.07Z" fill="#fff"/><path d="M13.5,72.49a1,1,0,0,0,1.07,1h4a29.08,29.08,0,0,0-5.08-3.3Z" fill="#fff"/><path d="M73.5,31.32C58.58,44.21,52.9,62.1,51.94,65.49a34.07,34.07,0,0,1,3.56,8h3A86,86,0,0,1,73.5,43Z" fill="#fff"/><path d="M42.67,55.22a39.4,39.4,0,0,1,7,6.94C52,55.3,58.79,38.9,73.5,27.3V18C50.84,28.53,43.88,50.69,42.67,55.22Z" fill="#fff"/></svg>