<svg id="Calque_1" data-name="Calque 1" xmlns="http://www.w3.org/2000/svg" viewBox="0 0 87 87"><path d="M79.9,38.38l5.71-8.31a2.26,2.26,0,0,0-3.72-2.55l-3.43,5A36.75,36.75,0,0,0,7.35,36.36a2.25,2.25,0,1,0,4.42.87,32.25,32.25,0,0,1,62.42-3.31L68.7,32.65a2.25,2.25,0,1,0-1,4.39l9.83,2.27.08,0H78a2.19,2.19,0,0,0,.77-.13h0l.09,0h0l.09,0,0,0,.05,0,.1-.06,0,0,.06,0,0,0,.07,0,.06-.05,0,0,.06,0,0,0,.08-.09h0A1.3,1.3,0,0,0,79.9,38.38Z" fill="#fff"/><path d="M77.67,48A2.26,2.26,0,0,0,75,49.77,32.24,32.24,0,0,1,12.59,53l5.71,1.32a2.21,2.21,0,0,0,.51,0,2.25,2.25,0,0,0,.5-4.44L9.52,47.7h0l-.11,0h-.6a2,2,0,0,0-.42.07h0l-.09,0h0l-.06,0-.06,0,0,0-.08,0H8l-.09,0h0a2.4,2.4,0,0,0-.26.18h0l-.07.06h0l0,.06,0,0,0,0,0,0,0,0-.06,0v0l-.06.08h0l-.06.08h0l0,0v0L1.39,56.93A2.25,2.25,0,0,0,2,60.06a2.22,2.22,0,0,0,1.27.4,2.24,2.24,0,0,0,1.86-1L8.4,54.69a36.74,36.74,0,0,0,71-4A2.25,2.25,0,0,0,77.67,48Z" fill="#fff"/><path d="M36.56,54.88a6.12,6.12,0,0,1-6.11-6.12.82.82,0,1,0-1.64,0,7.77,7.77,0,0,0,7.75,7.76.82.82,0,0,0,0-1.64Z" fill="#fff"/><path d="M50.44,30.48a7.77,7.77,0,0,0-7.76,7.76.82.82,0,1,0,1.64,0,6.12,6.12,0,0,1,6.12-6.12.82.82,0,1,0,0-1.64Z" fill="#fff"/><path d="M63.24,56.92l-1.63-1.57V38.24a11.18,11.18,0,1,0-22.35,0V48.76a2.7,2.7,0,0,1-5.4,0V31.65l1.63-1.57a.83.83,0,0,0,.25-.59v-2.4a.82.82,0,0,0-.82-.82H24.33a.82.82,0,0,0-.82.82v2.4a.83.83,0,0,0,.25.59l1.63,1.57V48.76a11.18,11.18,0,1,0,22.35,0V38.24a2.7,2.7,0,1,1,5.4,0V55.35l-1.63,1.58a.79.79,0,0,0-.25.58v2.4a.82.82,0,0,0,.82.82H62.67a.82.82,0,0,0,.82-.82v-2.4A.83.83,0,0,0,63.24,56.92Zm-38.09-29h9v1.23l-1.39,1.34H26.54l-1.39-1.34Zm25.29,6a4.34,4.34,0,0,0-4.34,4.34V48.76a9.54,9.54,0,1,1-19.07,0V32.12h5.19V48.76a4.34,4.34,0,0,0,8.68,0V38.24a9.54,9.54,0,1,1,19.07,0V54.88H54.78V38.24A4.34,4.34,0,0,0,50.44,33.9ZM61.85,59.09h-9V57.86l1.39-1.34h6.17l1.39,1.34Z" fill="#fff"/></svg>