<svg id="Calque_1" data-name="Calque 1" xmlns="http://www.w3.org/2000/svg" viewBox="0 0 87 87"><path d="M27.46,56l1.18-5.48a5.42,5.42,0,0,1,1.05-2.4L30,46.41a3.25,3.25,0,0,1,.83-1.7,3.44,3.44,0,0,1-1.63-2.53L28,32.41a3.44,3.44,0,0,1,3.42-3.85H33a3,3,0,0,1,5.59,0h1.61a3.46,3.46,0,0,1,3.43,3.85l-1.18,9.77A3.45,3.45,0,0,1,42,43.6L59.09,39a3.58,3.58,0,0,1,1.3-.25,3.53,3.53,0,0,1,3.26,2.18L65,44.08l-.11.05,1,2.48-6.48,2.78-1-2.48L43.26,52.62,44,56a2.43,2.43,0,0,1,2.24,2.41v2.07H25.14V58.37A2.41,2.41,0,0,1,27.46,56ZM45,58.37a1.15,1.15,0,0,0-1.16-1.16H27.56a1,1,0,0,0-.39.07,1.17,1.17,0,0,0-.78,1.09v.82H45ZM42,52.53l-.16-.7.49-.18,15.59-5.9.59-.23.59-.22.11,0v0l4-1.8.11,0-.52-1.25-.24-.58-.07-.19a2.27,2.27,0,0,0-2.1-1.4,2.18,2.18,0,0,0-.87.17h0L41.14,45.12l-.65.18-.68.18L32.9,47.34a4.2,4.2,0,0,0-3,3l-.06.31-.34,1.58L28.74,56h14ZM64.23,46l-.54-1.31-4.16,1.84.52,1.26ZM41.25,42l1.17-9.77a2.2,2.2,0,0,0-2.18-2.45H31.42a2.21,2.21,0,0,0-1.64.74,2.18,2.18,0,0,0-.53,1.71L30.42,42A2.19,2.19,0,0,0,32,43.88a2.49,2.49,0,0,0,.61.08h6.47a2.12,2.12,0,0,0,.57-.07A2.21,2.21,0,0,0,41.25,42ZM35.83,27.81a1.69,1.69,0,0,0-1.4.75h2.81A1.71,1.71,0,0,0,35.83,27.81Zm-4.62,18.8,0,.12a5.16,5.16,0,0,1,1.38-.6L36,45.22H32.6a3,3,0,0,1-.43,0A2,2,0,0,0,31.21,46.61Z" fill="#fff"/><path d="M39.33,42.28h-.12a1.52,1.52,0,0,1-1.4-1.63l.54-7.21A1.52,1.52,0,0,1,39.86,32H40a1.57,1.57,0,0,1,1,.53,1.54,1.54,0,0,1,.36,1.11l-.53,7.2A1.53,1.53,0,0,1,39.33,42.28Zm.53-9a.26.26,0,0,0-.26.25l-.54,7.21a.27.27,0,1,0,.53,0l.54-7.21a.28.28,0,0,0-.06-.19.26.26,0,0,0-.19-.09Z" fill="#fff"/><path d="M35.83,42.28a1.52,1.52,0,0,1-1.52-1.52V33.55a1.53,1.53,0,0,1,3,0v7.21A1.53,1.53,0,0,1,35.83,42.28Zm.27-8.73a.27.27,0,1,0-.54,0v7.21a.27.27,0,1,0,.54,0Z" fill="#fff"/><path d="M32.45,42.28h-.11a1.53,1.53,0,0,1-1.52-1.41l-.54-7.2a1.5,1.5,0,0,1,.37-1.11,1.48,1.48,0,0,1,1-.52,1.52,1.52,0,0,1,1.63,1.4l.54,7.21a1.54,1.54,0,0,1-1.41,1.63Zm-.65-9h0a.26.26,0,0,0-.18.09.28.28,0,0,0-.07.19l.54,7.21a.27.27,0,0,0,.27.25h0a.22.22,0,0,0,.18-.1.26.26,0,0,0,.07-.19l-.54-7.21A.27.27,0,0,0,31.8,33.28Z" fill="#fff"/><path d="M79.9,38.38l5.71-8.31a2.26,2.26,0,0,0-3.72-2.55l-3.43,5A36.75,36.75,0,0,0,7.35,36.36a2.25,2.25,0,1,0,4.42.87,32.25,32.25,0,0,1,62.42-3.31L68.7,32.65a2.25,2.25,0,1,0-1,4.39l9.83,2.27.08,0H78a2.19,2.19,0,0,0,.77-.13h0l.09,0h0l.09,0,0,0,.05,0,.1-.06,0,0,.06,0,0,0,.07,0,.06-.05,0,0,.06,0,0,0,.08-.09h0A1.3,1.3,0,0,0,79.9,38.38Z" fill="#fff"/><path d="M77.67,48A2.26,2.26,0,0,0,75,49.77,32.24,32.24,0,0,1,12.59,53l5.71,1.32a2.21,2.21,0,0,0,.51,0,2.25,2.25,0,0,0,.5-4.44L9.52,47.7h0l-.11,0h-.6a2,2,0,0,0-.42.07h0l-.09,0h0l-.06,0-.06,0,0,0-.08,0H8l-.09,0h0a2.4,2.4,0,0,0-.26.18h0l-.07.06h0l0,.06,0,0,0,0,0,0,0,0-.06,0v0l-.06.08h0l-.06.08h0l0,0v0L1.39,56.93A2.25,2.25,0,0,0,2,60.06a2.22,2.22,0,0,0,1.27.4,2.24,2.24,0,0,0,1.86-1L8.4,54.69a36.74,36.74,0,0,0,71-4A2.25,2.25,0,0,0,77.67,48Z" fill="#fff"/></svg>