<svg id="Calque_1" data-name="Calque 1" xmlns="http://www.w3.org/2000/svg" viewBox="0 0 87 87"><path d="M45.16,59.3H41.57a1,1,0,0,1-1-1V49.07a1,1,0,0,1,1-1h3.59a1,1,0,0,1,1,1V58.3A1,1,0,0,1,45.16,59.3Zm-2.59-2h1.59V50.07H42.57Z" fill="#fff"/><path d="M48.44,68.93H38.33a1,1,0,0,1-.75-.34,1,1,0,0,1-.25-.78l.87-7.06a3.66,3.66,0,0,1,3.56-3.45h3.3a3.7,3.7,0,0,1,3.56,3.46l.81,7.06a1,1,0,0,1-.24.78A1,1,0,0,1,48.44,68.93Zm-9-2h7.86L46.63,61a1.72,1.72,0,0,0-1.57-1.69h-3.3A1.75,1.75,0,0,0,40.18,61Z" fill="#fff"/><path d="M45,78.56H41.71a3.7,3.7,0,0,1-3.56-3.46L37.33,68a1,1,0,0,1,1-1.11H48.44a1,1,0,0,1,.75.34,1,1,0,0,1,.24.78l-.86,7.06A3.67,3.67,0,0,1,45,78.56Zm-5.55-9.63.68,5.94a1.74,1.74,0,0,0,1.58,1.69H45a1.74,1.74,0,0,0,1.58-1.7l.73-5.93Z" fill="#fff"/><path d="M46.4,50.07H40.21a1,1,0,0,1-.8-.39,3.1,3.1,0,0,1-.63-1.87c0-.1,0-.19,0-.28a1,1,0,0,1,1-.93h7a1,1,0,0,1,1,.92h0a1.68,1.68,0,0,1,0,.29,3.61,3.61,0,0,1-.63,1.87A1,1,0,0,1,46.4,50.07Z" fill="#fff"/><path d="M53.2,65.66H48.37a1,1,0,0,1-1-.84l-.77-4.66a1,1,0,0,1,1-1.16h5.6a1,1,0,0,1,1,1v4.66A1,1,0,0,1,53.2,65.66Zm-4-2h3V61H48.78Z" fill="#fff"/><path d="M60,64.9H53.33a1,1,0,0,1-1-1V60.83a1,1,0,0,1,1-1H60a1,1,0,0,1,1,1V63.9A1,1,0,0,1,60,64.9Zm-5.71-2H59V61.83H54.33Z" fill="#fff"/><path d="M45.43,15.19a1,1,0,0,1,1.93,0v1.93a1,1,0,0,0,1,1h3.86a1,1,0,0,0,1-1V15.19a6.75,6.75,0,1,0-13.5,0v8.68h5.79Z" fill="#fff"/><path d="M50.25,20a1,1,0,1,0,0,1.92h1v1.93H57V21.94h1A1,1,0,1,0,58,20H50.25Z" fill="#fff"/><path d="M29,21.94h1v1.93h5.79V21.94h1a1,1,0,0,0,0-1.92H29a1,1,0,1,0,0,1.92Z" fill="#fff"/><path d="M44.85,26.64H12.17V39.5a8.1,8.1,0,0,0,8.09,8.1H65.39a9.45,9.45,0,0,0,9.44-9.45V26.64ZM42.15,44.9H20.26a5.4,5.4,0,0,1-5.39-5.4V29.34H42.15Zm30-6.75a6.75,6.75,0,0,1-6.74,6.75H44.85V29.34H72.13Z" fill="#fff"/></svg>