<svg id="Calque_1" data-name="Calque 1" xmlns="http://www.w3.org/2000/svg" viewBox="0 0 87 87"><path d="M70.94,72.44H16.06a1.5,1.5,0,0,1-1.5-1.5V16.06a1.5,1.5,0,0,1,1.5-1.5H70.94a1.5,1.5,0,0,1,1.5,1.5V70.94A1.5,1.5,0,0,1,70.94,72.44Zm-53.38-3H69.44V17.56H17.56Z" fill="#fff"/><path d="M43.5,62.49a19,19,0,1,1,19-19A19,19,0,0,1,43.5,62.49Zm0-35a16,16,0,1,0,16,16A16,16,0,0,0,43.5,27.51Z" fill="#fff"/><path d="M36.86,40.91a2.59,2.59,0,1,1-2.59,2.59,2.6,2.6,0,0,1,2.59-2.59m0-2a4.59,4.59,0,1,0,4.6,4.59,4.59,4.59,0,0,0-4.6-4.59Z" fill="#fff"/><path d="M50.14,40.91a2.59,2.59,0,1,1-2.6,2.59,2.59,2.59,0,0,1,2.6-2.59m0-2a4.59,4.59,0,1,0,4.59,4.59,4.59,4.59,0,0,0-4.59-4.59Z" fill="#fff"/><circle cx="36.86" cy="43.5" r="1.38" fill="#fff"/><path d="M50.14,42.12a1.38,1.38,0,1,0,1.37,1.38,1.38,1.38,0,0,0-1.37-1.38Z" fill="#fff"/></svg>