<svg id="Calque_1" data-name="Calque 1" xmlns="http://www.w3.org/2000/svg" viewBox="0 0 87 87"><path d="M73.31,25.19v13.3H68.57V34.88H65.42v3.61H60.74V31.82H57.59v6.67H52.91V27.74H49.75V38.49H45.08V23.82H41.92V38.49H37.25V27.74H34.09V38.49H29.41V31.82H26.26v6.67H21.58V34.88H18.43v3.61H13.69V25.19H3.9v38h9.79V56.34h4.74v6.84h3.15V56.34h4.68v6.84h3.15V56.34h4.68v6.84h3.16V56.34h4.67v6.84h3.16V56.34h4.67v6.84h3.16V56.34h4.68v6.84h3.15V56.34h4.68v6.84h3.15V56.34h4.74v6.84H83.1v-38ZM10.53,60H7.06V28.35h3.47Zm3.16-6.84V41.65h4.74V53.18Zm7.89,0V41.65h4.68V53.18Zm7.83,0V41.65h4.68V53.18Zm7.84,0V41.65h4.67V53.18Zm7.83,0V41.65h4.67V53.18Zm7.83,0V41.65h4.68V53.18Zm7.83,0V41.65h4.68V53.18Zm12.57,0H68.57V41.65h4.74ZM79.94,60H76.47V28.35h3.47Z" fill="#fff"/></svg>