<svg id="Calque_1" data-name="Calque 1" xmlns="http://www.w3.org/2000/svg" viewBox="0 0 87 87"><path d="M51.63,49.36h7.66a.42.42,0,0,1,.4.43V51.2a.41.41,0,0,1-.4.43H51.63a.41.41,0,0,1-.4-.43V49.79A.42.42,0,0,1,51.63,49.36Z" fill="#fff"/><path d="M32.43,26.86a2.62,2.62,0,0,1-.74,0A2.47,2.47,0,0,1,29.76,24,2.35,2.35,0,0,1,32.43,22l6.73,1.14a2.59,2.59,0,0,1,5.18,0L51.07,22a2,2,0,0,1,.73,0,2.45,2.45,0,0,1,1.93,2.83,2.35,2.35,0,0,1-2.66,2.06l-6.71-1.15v3.2h2.07a.41.41,0,0,1,.4.43v2a.42.42,0,0,1-.4.43h-.88a6.89,6.89,0,0,1,2,2.31C59,34.22,58.73,43.9,58.73,43.9v4.83H52.19V44.4c-.19-3.2-3.89-3.33-4.75-3.31A6.42,6.42,0,0,1,36,41H30.31V34.08H36a6.89,6.89,0,0,1,2-2.31h-.88a.42.42,0,0,1-.4-.43v-2a.41.41,0,0,1,.4-.43h2.07v-3.2Z" fill="#fff"/><path d="M28.41,32.51a1.14,1.14,0,0,1,1.1,1.17v7.67a1.1,1.1,0,1,1-2.2,0V33.68A1.15,1.15,0,0,1,28.41,32.51Z" fill="#fff"/><path d="M59,62.41a3.56,3.56,0,1,1-7.08,0c0-2.41,3.54-7.24,3.54-7.24S59,60,59,62.41Z" fill="#fff"/><path d="M79.9,38.38l5.71-8.31a2.26,2.26,0,0,0-3.72-2.55l-3.43,5A36.75,36.75,0,0,0,7.35,36.36a2.25,2.25,0,1,0,4.42.87,32.25,32.25,0,0,1,62.42-3.31L68.7,32.65a2.25,2.25,0,1,0-1,4.39l9.83,2.27.08,0H78a2.19,2.19,0,0,0,.77-.13h0l.09,0h0l.09,0,0,0,.05,0,.1-.06,0,0,.06,0,0,0,.07,0,.06-.05,0,0,.06,0,0,0,.08-.09h0A1.3,1.3,0,0,0,79.9,38.38Z" fill="#fff"/><path d="M77.67,48A2.26,2.26,0,0,0,75,49.77,32.24,32.24,0,0,1,12.59,53l5.71,1.32a2.21,2.21,0,0,0,.51,0,2.25,2.25,0,0,0,.5-4.44L9.52,47.7h0l-.11,0h-.6a2,2,0,0,0-.42.07h0l-.09,0h0l-.06,0-.06,0,0,0-.08,0H8l-.09,0h0a2.4,2.4,0,0,0-.26.18h0l-.07.06h0l0,.06,0,0,0,0,0,0,0,0-.06,0v0l-.06.08h0l-.06.08h0l0,0v0L1.39,56.93A2.25,2.25,0,0,0,2,60.06a2.22,2.22,0,0,0,1.27.4,2.24,2.24,0,0,0,1.86-1L8.4,54.69a36.74,36.74,0,0,0,71-4A2.25,2.25,0,0,0,77.67,48Z" fill="#fff"/></svg>