<svg id="Calque_1" data-name="Calque 1" xmlns="http://www.w3.org/2000/svg" viewBox="0 0 87 87"><path d="M70.52,40.29H40.1a2.85,2.85,0,0,0-2.84,2.85v.75c0,.12,0,.24,0,.36H35.64L37.11,25.1a2.85,2.85,0,0,0,2-2.72v-.74a2.85,2.85,0,0,0-2.84-2.85H16.48a2.85,2.85,0,0,0-2.84,2.85v.74a2.85,2.85,0,0,0,2,2.7l.06,22.7v.09a1.59,1.59,0,0,0,1.58,1.46H25.5l3.35,7.94c-3.18,5.32-2.68,12.4-2.44,14.5A1.62,1.62,0,0,0,28,73.18H53.06a1.67,1.67,0,0,0,1.6-1.26l1.61-6.71a17.6,17.6,0,0,0,5.95-3.36c5.67-4.87,7.06-12.25,7.4-15.12h.9a2.85,2.85,0,0,0,2.84-2.84v-.75A2.85,2.85,0,0,0,70.52,40.29ZM16.12,21.64a.37.37,0,0,1,.36-.37H36.3a.38.38,0,0,1,.37.37v.74a.38.38,0,0,1-.37.37H16.48a.37.37,0,0,1-.36-.37Zm2,3.59H34.62l-1.46,19H30.1l-4.9,2.61h-7ZM60.6,60C57,63.1,52,64.33,45.91,63.65l-.27,2.46a26.9,26.9,0,0,0,7.92-.2l-1.16,4.8H28.79c-.18-2.39-.31-8.44,2.49-12.64l.37-.56L27.76,48.3l3-1.57h36.4C66.76,49.44,65.42,55.84,60.6,60ZM70.88,43.89a.36.36,0,0,1-.36.36H40.1a.37.37,0,0,1-.37-.36v-.75a.38.38,0,0,1,.37-.37H70.52a.37.37,0,0,1,.36.37Z" fill="#fff"/><path d="M23.14,36a2.82,2.82,0,0,1-2.82-2.82V30.51a2.82,2.82,0,0,1,5.52-.81h5.22V34H25.84A2.83,2.83,0,0,1,23.14,36Z" fill="#fff"/><path d="M28.05,18.83H24.66a3,3,0,0,1,0-6h3.39a3,3,0,1,1,0,6Zm-3.39-4a1,1,0,0,0,0,2h3.39a1,1,0,1,0,0-2Z" fill="#fff"/></svg>