<svg id="Calque_1" data-name="Calque 1" xmlns="http://www.w3.org/2000/svg" viewBox="0 0 87 87"><path d="M62.09,13.74V15H24.91V13.74H62.09m0,14.4V29.4H56.3V28.14h5.79m-31.22,0a8.68,8.68,0,0,0-.16,1.26h-5.8V28.14h6m31.22,14.4V43.8H56.3V42.54h5.79m-31.39,0V43.8H24.91V42.54H30.7M62.09,57V58.2H24.91V57H30.7v.81H56.3V57h5.79m0,14.4v1.26H24.91V71.35H62.09m3-63.61h-3v3H24.91v-3h-3V79.26h3V75.61H62.09v3.65h3V7.74ZM24.91,25.14V18H62.09v7.15H58.34v-2a2,2,0,0,0-2-2H39.48a8.77,8.77,0,0,0-7.4,4.08ZM33.7,45.81v-16a5.79,5.79,0,0,1,5.78-5.78H53.3V45.81Zm22.6-6.27V32.4h5.79v7.14Zm-31.39,0V32.4H30.7v7.14ZM56.3,54V46.8h5.79V54ZM24.91,54V46.8H30.7V54Zm8.79.81V48.81H53.3v5.95ZM24.91,68.35V61.2H62.09v7.15Z" fill="#fff"/></svg>