<svg id="Calque_1" data-name="Calque 1" xmlns="http://www.w3.org/2000/svg" viewBox="0 0 87 87"><path d="M70.52,41.79H40.1a2.84,2.84,0,0,0-2.84,2.84v.75c0,.13,0,.25,0,.37H35.64L37.11,26.6a2.85,2.85,0,0,0,2-2.72v-.75a2.85,2.85,0,0,0-2.84-2.84H30.57v-1.1H26.33v1.1H16.48a2.85,2.85,0,0,0-2.84,2.84v.75a2.85,2.85,0,0,0,2,2.7l.06,22.7v.09a1.59,1.59,0,0,0,1.58,1.46H25.5l3.35,7.94a18.29,18.29,0,0,0-2.73,8.84H45.64a26.9,26.9,0,0,0,7.92-.2l2.71-.7a17.6,17.6,0,0,0,5.95-3.36c5.67-4.87,7.06-12.25,7.4-15.12h.9a2.85,2.85,0,0,0,2.84-2.85v-.75A2.85,2.85,0,0,0,70.52,41.79Zm-54-17.54a.37.37,0,0,1-.36-.37v-.75a.36.36,0,0,1,.36-.36H36.3a.37.37,0,0,1,.37.36v.75a.38.38,0,0,1-.37.37ZM25.2,48.36h-7l0-21.63H34.62l-1.46,19H30.1ZM60.6,61.47C57,64.6,52,65.83,45.91,65.15H29.14a15.11,15.11,0,0,1,2.14-5.58l.37-.56L27.76,49.8l3-1.57h36.4C66.76,50.94,65.42,57.34,60.6,61.47ZM70.88,45.38a.37.37,0,0,1-.36.37H40.1a.38.38,0,0,1-.37-.37v-.75a.37.37,0,0,1,.37-.36H70.52a.36.36,0,0,1,.36.36Z" fill="#fff"/></svg>