<svg id="Calque_1" data-name="Calque 1" xmlns="http://www.w3.org/2000/svg" viewBox="0 0 87 87"><path d="M43.5,45h-30a1.5,1.5,0,0,1-1.5-1.5V13.5A1.5,1.5,0,0,1,13.5,12h30A1.5,1.5,0,0,1,45,13.5v30A1.5,1.5,0,0,1,43.5,45ZM15,42H42V15H15Z" fill="#fff"/><path d="M73.5,45h-30a1.5,1.5,0,0,1-1.5-1.5V13.5A1.5,1.5,0,0,1,43.5,12h30A1.5,1.5,0,0,1,75,13.5v30A1.5,1.5,0,0,1,73.5,45ZM45,42H72V15H45Z" fill="#fff"/><path d="M43.5,75h-30A1.5,1.5,0,0,1,12,73.5V43.55a1.5,1.5,0,0,1,1.5-1.5h30a1.5,1.5,0,0,1,1.5,1.5v30A1.5,1.5,0,0,1,43.5,75ZM15,72H42V45.05H15Z" fill="#fff"/><path d="M73.5,75h-30A1.5,1.5,0,0,1,42,73.5V43.55a1.5,1.5,0,0,1,1.5-1.5h30a1.5,1.5,0,0,1,1.5,1.5v30A1.5,1.5,0,0,1,73.5,75ZM45,72H72V45.05H45Z" fill="#fff"/></svg>