<svg id="Calque_1" data-name="Calque 1" xmlns="http://www.w3.org/2000/svg" viewBox="0 0 87 87"><path d="M44.23,79.61a1.57,1.57,0,0,1-.7-.17l-16.88-9a1.51,1.51,0,0,1-.8-1.33V17.88a1.52,1.52,0,0,1,.8-1.33l16.88-9a1.49,1.49,0,0,1,2.2,1.32V78.11A1.5,1.5,0,0,1,45,79.4,1.55,1.55,0,0,1,44.23,79.61ZM28.85,68.22l13.88,7.39V11.39L28.85,18.78Z" fill="#fff"/><path d="M48.88,79.61H44.23a1.5,1.5,0,0,1-1.5-1.5V8.89a1.5,1.5,0,0,1,1.5-1.5h4.65a1.5,1.5,0,0,1,1.5,1.5V78.11A1.5,1.5,0,0,1,48.88,79.61Zm-3.15-3h1.65V10.39H45.73Z" fill="#fff"/><path d="M33.47,64.25l-.24,0A1.49,1.49,0,0,1,32,62.51L38.35,24a1.51,1.51,0,0,1,1.73-1.24,1.49,1.49,0,0,1,1.23,1.72L35,63A1.5,1.5,0,0,1,33.47,64.25Z" fill="#fff"/><path d="M32.27,40.62l-.24,0a1.51,1.51,0,0,1-1.24-1.73l1.44-8.74A1.5,1.5,0,0,1,34,28.9a1.48,1.48,0,0,1,1.23,1.72l-1.44,8.74A1.5,1.5,0,0,1,32.27,40.62Z" fill="#fff"/><path d="M55,79.61a1.61,1.61,0,0,1-.71-.17l-6.11-3.26a1.5,1.5,0,0,1-.8-1.34l.42-62.93a1.51,1.51,0,0,1,.8-1.31l5.69-3A1.5,1.5,0,0,1,56.5,8.89V78.11a1.49,1.49,0,0,1-1.5,1.5ZM50.39,74l3.11,1.65V11.39l-2.7,1.44Z" fill="#fff"/><path d="M59.65,79.61H55a1.5,1.5,0,0,1-1.5-1.5V8.89A1.5,1.5,0,0,1,55,7.39h4.65a1.5,1.5,0,0,1,1.5,1.5V78.11A1.5,1.5,0,0,1,59.65,79.61Zm-3.15-3h1.65V10.39H56.5Z" fill="#fff"/></svg>