<svg id="Calque_1" data-name="Calque 1" xmlns="http://www.w3.org/2000/svg" viewBox="0 0 87 87"><path d="M36.64,74.73A6.73,6.73,0,0,1,29.92,68a.91.91,0,0,0-1.81,0,8.54,8.54,0,0,0,8.53,8.53.9.9,0,1,0,0-1.8Z" fill="#fff"/><path d="M72.06,41a1.08,1.08,0,0,0-1.12,0l-4.72,3.15H51.35A12.29,12.29,0,0,0,39.61,56.42V68a3,3,0,0,1-5.94,0V6.71H24.35V68a12.29,12.29,0,1,0,24.58,0V56.42a3,3,0,0,1,3-3h14l.12.11,5,3.3a1.09,1.09,0,0,0,.61.18,1,1,0,0,0,.51-.13,1.1,1.1,0,0,0,.59-1v-14A1.1,1.1,0,0,0,72.06,41ZM52.23,51.69h-.88a4.78,4.78,0,0,0-4.22,4.72V68a10.49,10.49,0,1,1-21,0V8.56h5.71V68a4.78,4.78,0,0,0,9.55,0V56.42A10.5,10.5,0,0,1,51.9,45.93l.41,0H65.5v5.78Zm18.22,2.19L67.7,52.05V45.81L70.45,44Z" fill="#fff"/></svg>