<svg id="Calque_1" data-name="Calque 1" xmlns="http://www.w3.org/2000/svg" viewBox="0 0 87 87"><path d="M71.27,13.39H15.73a4.3,4.3,0,0,0-4.29,4.29V58.8h3V26.27a4.26,4.26,0,0,0,1.29.22H71.27a4.3,4.3,0,0,0,4.29-4.29V17.68A4.3,4.3,0,0,0,71.27,13.39Zm1.29,8.81a1.29,1.29,0,0,1-1.29,1.29H15.73a1.29,1.29,0,0,1-1.29-1.29V17.68a1.29,1.29,0,0,1,1.29-1.29H71.27a1.29,1.29,0,0,1,1.29,1.29Z" fill="#fff"/><polygon points="18.38 33.65 41.44 33.65 43.5 30.08 45.56 33.65 71.29 33.65 71.29 29.65 18.38 29.65 18.38 33.65" fill="#fff"/><polygon points="49.41 40.31 71.29 40.31 71.29 36.31 47.1 36.31 49.41 40.31" fill="#fff"/><polygon points="39.9 36.31 18.38 36.31 18.38 40.31 37.59 40.31 39.9 36.31" fill="#fff"/><polygon points="18.38 46.97 33.75 46.97 36.06 42.97 18.38 42.97 18.38 46.97" fill="#fff"/><polygon points="53.25 46.97 71.29 46.97 71.29 42.97 50.94 42.97 53.25 46.97" fill="#fff"/><polygon points="18.38 53.63 29.9 53.63 32.21 49.63 18.38 49.63 18.38 53.63" fill="#fff"/><polygon points="57.1 53.63 71.29 53.63 71.29 49.63 54.79 49.63 57.1 53.63" fill="#fff"/><polygon points="18.38 60.29 26.06 60.29 26.93 58.79 28.37 56.29 18.38 56.29 18.38 60.29" fill="#fff"/><polygon points="60.08 58.79 60.94 60.29 71.29 60.29 71.29 56.29 58.63 56.29 60.08 58.79" fill="#fff"/><rect x="18.38" y="62.95" width="52.91" height="4" fill="#fff"/><rect x="18.38" y="69.61" width="52.91" height="4" fill="#fff"/><polygon points="43.5 36.08 29.52 60.29 57.48 60.29 43.5 36.08" fill="#fff"/></svg>