<svg id="Calque_1" data-name="Calque 1" xmlns="http://www.w3.org/2000/svg" viewBox="0 0 87 87"><path d="M39,73.9H17.21a5,5,0,0,1-5.05-5V14.25A5,5,0,0,1,17.21,9.2H39A5.06,5.06,0,0,1,44,14.25V68.86A5.05,5.05,0,0,1,39,73.9ZM17.21,12.2a2.05,2.05,0,0,0-2.05,2.05V68.86a2,2,0,0,0,2.05,2H39a2,2,0,0,0,2.05-2V14.25A2.05,2.05,0,0,0,39,12.2Z" fill="#fff"/><rect x="13.66" y="21.24" width="28.86" height="3" fill="#fff"/><rect x="13.66" y="34.88" width="28.86" height="3" fill="#fff"/><circle cx="28.09" cy="16.42" r="1.95" fill="#fff"/><circle cx="36.77" cy="53.29" r="1.95" fill="#fff"/><circle cx="18.31" cy="74.35" r="1.95" fill="#fff"/><circle cx="37.88" cy="74.35" r="1.95" fill="#fff"/><circle cx="28.09" cy="29.56" r="1.95" fill="#fff"/><path d="M64.48,64.52l-4.24-4.24V31.33L52,23.1H77l-8.23,8.23v29ZM63.24,59l1.24,1.24L65.73,59v-29l4-4H59.25l4,4Z" fill="#fff"/><rect x="57.38" y="35.7" width="14.22" height="3" transform="translate(-9.8 32.34) rotate(-26.24)" fill="#fff"/><rect x="57.38" y="42" width="14.22" height="3" transform="translate(-12.59 32.99) rotate(-26.24)" fill="#fff"/><rect x="57.38" y="48.3" width="14.22" height="3" transform="translate(-15.37 33.64) rotate(-26.24)" fill="#fff"/></svg>