<svg id="Calque_1" data-name="Calque 1" xmlns="http://www.w3.org/2000/svg" viewBox="0 0 87 87"><path d="M77.83,12H9.09a1.76,1.76,0,0,0-.41.07h0l0,0a1.53,1.53,0,0,0-.4.21l-.06.06a1.33,1.33,0,0,0-.29.29l0,0a1.5,1.5,0,0,0-.2.4l0,.09a1.77,1.77,0,0,0-.07.46V73.31a1.77,1.77,0,0,0,.07.46l0,.09a1.5,1.5,0,0,0,.2.4l0,0a1.54,1.54,0,0,0,.28.29l.07.06a1.53,1.53,0,0,0,.4.21l0,0h0a1.7,1.7,0,0,0,.5.09H77.83a1.65,1.65,0,0,0,1.65-1.66V13.69A1.65,1.65,0,0,0,77.83,12ZM76.17,41.84H63.39V15.34H76.17ZM45.87,68.56V18.44l5.45,6.87V61.69Zm8.76-43.25,5.45-6.87V68.56l-5.45-6.87ZM53,22.06l-5.33-6.72H58.31ZM28.35,68.56V18.44l5.45,6.87V61.69Zm8.76-43.25,5.45-6.87V68.56l-5.45-6.87Zm-1.66-3.25-5.33-6.72H40.79ZM16.28,25.31V61.69l-5.45,6.87V18.44Zm3.31,0L25,18.44V68.56l-5.45-6.87Zm-1.66-3.25L12.6,15.34H23.26Zm0,42.88,5.33,6.72H12.6Zm17.52,0,5.34,6.72H30.12Zm17.52,0,5.34,6.72H47.64Zm10.42,6.72V45.16H76.17v26.5Z" fill="#fff"/><path d="M23.52,27.52l-3,1.71a.55.55,0,0,0,.27,1,.57.57,0,0,0,.28-.08l3-1.71a.54.54,0,0,0,.2-.75A.54.54,0,0,0,23.52,27.52Z" fill="#fff"/><path d="M23.52,30.79l-3,1.71a.55.55,0,0,0,.55,1l3-1.71a.55.55,0,0,0-.55-1Z" fill="#fff"/><path d="M41,27.52l-3,1.71a.55.55,0,0,0-.21.75.54.54,0,0,0,.76.2l3-1.71a.55.55,0,1,0-.55-.95Z" fill="#fff"/><path d="M41,30.79l-3,1.71a.56.56,0,0,0-.21.76.57.57,0,0,0,.48.27.55.55,0,0,0,.28-.07l3-1.71a.54.54,0,0,0,.2-.76A.55.55,0,0,0,41,30.79Z" fill="#fff"/><path d="M50.35,29.23l-3-1.71a.55.55,0,1,0-.55.95l3,1.71a.57.57,0,0,0,.28.08.55.55,0,0,0,.27-1Z" fill="#fff"/><path d="M50.35,32.5l-3-1.71a.57.57,0,0,0-.76.2.56.56,0,0,0,.21.76l3,1.71a.55.55,0,0,0,.28.07.55.55,0,0,0,.27-1Z" fill="#fff"/><path d="M32.83,29.23l-3-1.71a.55.55,0,1,0-.55.95l3,1.71a.56.56,0,0,0,.27.08A.55.55,0,0,0,33,30,.54.54,0,0,0,32.83,29.23Z" fill="#fff"/><path d="M32.83,32.5l-3-1.71a.56.56,0,0,0-.76.2.56.56,0,0,0,.21.76l3,1.71a.54.54,0,0,0,.27.07.56.56,0,0,0,.48-.27A.55.55,0,0,0,32.83,32.5Z" fill="#fff"/><path d="M11.79,28.47l3,1.71a.56.56,0,0,0,.27.08.55.55,0,0,0,.48-.28.54.54,0,0,0-.2-.75l-3-1.71a.55.55,0,0,0-.76.2A.55.55,0,0,0,11.79,28.47Z" fill="#fff"/><path d="M11.79,31.75l3,1.71a.54.54,0,0,0,.27.07.56.56,0,0,0,.48-.27.56.56,0,0,0-.2-.76l-3-1.71a.56.56,0,1,0-.56,1Z" fill="#fff"/><path d="M58.56,27.52l-3,1.71a.55.55,0,0,0,.27,1,.57.57,0,0,0,.28-.08l3-1.71a.55.55,0,1,0-.55-.95Z" fill="#fff"/><path d="M58.56,30.79l-3,1.71a.55.55,0,0,0,.27,1,.55.55,0,0,0,.28-.07l3-1.71a.54.54,0,0,0,.2-.76A.55.55,0,0,0,58.56,30.79Z" fill="#fff"/></svg>