<svg id="Calque_1" data-name="Calque 1" xmlns="http://www.w3.org/2000/svg" viewBox="0 0 87 87"><path d="M43.5,45h-30a1.5,1.5,0,0,1-1.5-1.5V13.5A1.5,1.5,0,0,1,13.5,12h30A1.5,1.5,0,0,1,45,13.5v30A1.5,1.5,0,0,1,43.5,45ZM15,42H42V15H15Z" fill="#fff"/><path d="M73.5,45h-30a1.5,1.5,0,0,1-1.5-1.5V13.5A1.5,1.5,0,0,1,43.5,12h30A1.5,1.5,0,0,1,75,13.5v30A1.5,1.5,0,0,1,73.5,45ZM45,42H72V15H45Z" fill="#fff"/><path d="M43.5,75h-30A1.5,1.5,0,0,1,12,73.5V43.55a1.5,1.5,0,0,1,1.5-1.5h30a1.5,1.5,0,0,1,1.5,1.5v30A1.5,1.5,0,0,1,43.5,75ZM15,72H42V45.05H15Z" fill="#fff"/><path d="M73.5,75h-30A1.5,1.5,0,0,1,42,73.5V43.55a1.5,1.5,0,0,1,1.5-1.5h30a1.5,1.5,0,0,1,1.5,1.5v30A1.5,1.5,0,0,1,73.5,75ZM45,72H72V45.05H45Z" fill="#fff"/><path d="M43.5,22.25a.47.47,0,0,1-.35-.15l-8.26-8.25a.47.47,0,0,1-.11-.54.49.49,0,0,1,.46-.31H43.5a.5.5,0,0,1,.5.5v8.25a.5.5,0,0,1-.31.46A.41.41,0,0,1,43.5,22.25Zm-7-8.25L43,20.54V14Z" fill="#fff"/><path d="M21.76,44H13.5a.5.5,0,0,1-.5-.5V35.2a.5.5,0,0,1,.31-.46.49.49,0,0,1,.54.11l8.27,8.25a.51.51,0,0,1,.11.54A.5.5,0,0,1,21.76,44ZM14,43h6.56L14,36.41Z" fill="#fff"/><path d="M21.76,44a.54.54,0,0,1-.35-.14l-8.26-8.25A.51.51,0,0,1,13,35.2a.47.47,0,0,1,.15-.35l21.74-21.7a.48.48,0,0,1,.7,0l8.26,8.25a.48.48,0,0,1,0,.7L22.12,43.81A.54.54,0,0,1,21.76,44ZM14.21,35.2l7.55,7.54,21-21-7.55-7.54Z" fill="#fff"/><path d="M43.5,44H36.91a.52.52,0,0,1-.36-.14L31,38.28a.51.51,0,0,1-.11-.54.5.5,0,0,1,.47-.31h6.09V31.35a.5.5,0,0,1,.31-.47.51.51,0,0,1,.54.11l5.53,5.52a.49.49,0,0,1,.15.36v6.58A.5.5,0,0,1,43.5,44Zm-6.39-1H43V37.08l-4.53-4.53v5.38a.5.5,0,0,1-.5.5H32.58Z" fill="#fff"/><path d="M19,26.11a.47.47,0,0,1-.35-.15l-5.53-5.52a.49.49,0,0,1-.15-.36V13.5a.5.5,0,0,1,.5-.5h6.59a.49.49,0,0,1,.36.15L26,18.67a.5.5,0,0,1-.35.85h-6.1v6.09a.5.5,0,0,1-.31.46A.58.58,0,0,1,19,26.11Zm-5-6.23,4.53,4.52V19a.51.51,0,0,1,.5-.5h5.39L19.89,14H14Z" fill="#fff"/><path d="M73.47,44H65.23a.52.52,0,0,1-.47-.31.53.53,0,0,1,.11-.55l8.25-8.26a.5.5,0,0,1,.85.35v8.27A.5.5,0,0,1,73.47,44Zm-7-1H73V36.42Z" fill="#fff"/><path d="M43.52,22.24a.43.43,0,0,1-.19,0,.51.51,0,0,1-.31-.46V13.47a.51.51,0,0,1,.5-.5h8.25a.49.49,0,0,1,.46.31.51.51,0,0,1-.1.55l-8.25,8.26A.51.51,0,0,1,43.52,22.24ZM44,14v6.56L50.57,14Z" fill="#fff"/><path d="M65.23,44a.51.51,0,0,1-.36-.15L43.17,22.09a.48.48,0,0,1,0-.7l8.25-8.27a.51.51,0,0,1,.71,0l21.7,21.74a.51.51,0,0,1,0,.71l-8.25,8.26A.51.51,0,0,1,65.23,44Zm-21-22.24,21,21,7.54-7.56-21-21Z" fill="#fff"/><path d="M50.11,44H43.52a.51.51,0,0,1-.5-.5v-6.6a.51.51,0,0,1,.15-.35L48.69,31a.49.49,0,0,1,.55-.11.51.51,0,0,1,.31.46v6.09h6.08a.51.51,0,0,1,.46.31.49.49,0,0,1-.11.55l-5.52,5.53A.51.51,0,0,1,50.11,44ZM44,43H49.9l4.52-4.54H49.05a.5.5,0,0,1-.5-.5V32.56L44,37.09Z" fill="#fff"/><path d="M68,26.1a.43.43,0,0,1-.19,0,.49.49,0,0,1-.31-.46V19.51H61.37a.51.51,0,0,1-.36-.86l5.53-5.53a.51.51,0,0,1,.35-.15h6.58a.5.5,0,0,1,.5.5v6.6a.5.5,0,0,1-.14.35L68.31,26A.51.51,0,0,1,68,26.1Zm-5.38-7.59H68a.5.5,0,0,1,.5.5v5.38L73,19.86V14H67.1Z" fill="#fff"/><path d="M73.5,52.3a.47.47,0,0,1-.35-.15L64.88,43.9a.51.51,0,0,1-.11-.54.5.5,0,0,1,.47-.31H73.5a.5.5,0,0,1,.5.5V51.8a.5.5,0,0,1-.31.46A.43.43,0,0,1,73.5,52.3Zm-7.06-8.25L73,50.59V44.05Z" fill="#fff"/><path d="M51.76,74H43.5a.5.5,0,0,1-.5-.5V65.25a.5.5,0,0,1,.31-.46.48.48,0,0,1,.54.11l8.26,8.25a.47.47,0,0,1,.11.54A.49.49,0,0,1,51.76,74ZM44,73h6.55L44,66.46Z" fill="#fff"/><path d="M51.76,74a.49.49,0,0,1-.35-.15L43.15,65.6a.48.48,0,0,1,0-.7L64.88,43.19a.51.51,0,0,1,.71,0l8.26,8.25a.51.51,0,0,1,.15.36.47.47,0,0,1-.15.35L52.11,73.85A.47.47,0,0,1,51.76,74Zm-7.55-8.75,7.55,7.54,21-21-7.55-7.54Z" fill="#fff"/><path d="M73.5,74H66.91a.49.49,0,0,1-.36-.15L61,68.33a.5.5,0,0,1,.35-.85h6.1V61.39a.5.5,0,0,1,.31-.46.51.51,0,0,1,.54.11l5.53,5.52a.49.49,0,0,1,.15.36V73.5A.5.5,0,0,1,73.5,74Zm-6.39-1H73V67.12L68.47,62.6V68a.51.51,0,0,1-.5.5H62.58Z" fill="#fff"/><path d="M49,56.15a.5.5,0,0,1-.35-.14l-5.53-5.52a.49.49,0,0,1-.15-.36V43.55a.5.5,0,0,1,.5-.5h6.59a.52.52,0,0,1,.36.14L56,48.72a.51.51,0,0,1,.11.54.5.5,0,0,1-.47.31H49.53v6.08a.5.5,0,0,1-.31.47A.63.63,0,0,1,49,56.15Zm-5-6.23,4.53,4.53V49.07a.5.5,0,0,1,.5-.5h5.39l-4.53-4.52H44Z" fill="#fff"/><path d="M43.48,74H35.23a.49.49,0,0,1-.46-.31.51.51,0,0,1,.1-.55l8.25-8.26a.5.5,0,0,1,.86.35v8.27A.51.51,0,0,1,43.48,74Zm-7-1H43V66.47Z" fill="#fff"/><path d="M13.53,52.29a.71.71,0,0,1-.2,0,.51.51,0,0,1-.3-.46V43.52a.5.5,0,0,1,.5-.5h8.24a.52.52,0,0,1,.47.31.53.53,0,0,1-.11.55l-8.25,8.26A.49.49,0,0,1,13.53,52.29ZM14,44v6.56L20.57,44Z" fill="#fff"/><path d="M35.23,74a.53.53,0,0,1-.36-.15L13.17,52.14a.51.51,0,0,1,0-.71l8.25-8.26a.51.51,0,0,1,.71,0l21.7,21.74a.48.48,0,0,1,0,.7l-8.25,8.27A.51.51,0,0,1,35.23,74Zm-21-22.24,21,21,7.54-7.56-21-21Z" fill="#fff"/><path d="M20.11,74H13.53a.5.5,0,0,1-.5-.5v-6.6a.5.5,0,0,1,.14-.35l5.52-5.53a.5.5,0,0,1,.86.35v6.09h6.08a.51.51,0,0,1,.36.86l-5.53,5.53A.51.51,0,0,1,20.11,74ZM14,73H19.9l4.53-4.54H19.05a.5.5,0,0,1-.5-.5V62.61L14,67.14Z" fill="#fff"/><path d="M38,56.15a.43.43,0,0,1-.19,0,.51.51,0,0,1-.31-.46V49.56H31.37a.51.51,0,0,1-.46-.31A.49.49,0,0,1,31,48.7l5.52-5.53a.51.51,0,0,1,.35-.15h6.59a.51.51,0,0,1,.5.5v6.6a.51.51,0,0,1-.15.35L38.31,56A.51.51,0,0,1,38,56.15Zm-5.37-7.59H38a.5.5,0,0,1,.5.5v5.38L43,49.91V44H37.1Z" fill="#fff"/></svg>