<svg id="Calque_1" data-name="Calque 1" xmlns="http://www.w3.org/2000/svg" viewBox="0 0 87 87"><path d="M42.58,44.42l-18.95-19a1.35,1.35,0,0,1,0-1.9L42.55,4.65a1.35,1.35,0,0,1,1.9,0l18.95,19a1.35,1.35,0,0,1,0,1.9L44.48,44.42A1.35,1.35,0,0,1,42.58,44.42Zm-16.1-19.9L43.53,41.58l17-17L43.5,7.5Z" fill="#fff"/><path d="M61.53,63.37l-19-18.95a1.35,1.35,0,0,1,0-1.9L61.5,23.6a1.35,1.35,0,0,1,1.9,0L82.35,42.55a1.35,1.35,0,0,1,0,1.9L63.43,63.37A1.35,1.35,0,0,1,61.53,63.37ZM45.42,43.47,62.48,60.52l17-17-17-17.06Z" fill="#fff"/><path d="M23.6,63.4l-19-18.95a1.35,1.35,0,0,1,0-1.9L23.57,23.63a1.35,1.35,0,0,1,1.9,0l19,19a1.35,1.35,0,0,1,0,1.9L25.5,63.4A1.35,1.35,0,0,1,23.6,63.4ZM7.5,43.5,24.55,60.56l17-17-17.06-17Z" fill="#fff"/><path d="M42.55,82.35,23.6,63.4a1.35,1.35,0,0,1,0-1.9L42.52,42.58a1.35,1.35,0,0,1,1.9,0l18.95,19a1.35,1.35,0,0,1,0,1.9L44.45,82.35A1.35,1.35,0,0,1,42.55,82.35ZM26.44,62.45l17.06,17,17-17L43.47,45.42Z" fill="#fff"/></svg>