<svg id="Calque_1" data-name="Calque 1" xmlns="http://www.w3.org/2000/svg" viewBox="0 0 87 87"><path d="M79.9,38.38l5.71-8.31a2.26,2.26,0,0,0-3.72-2.55l-3.43,5A36.75,36.75,0,0,0,7.35,36.36a2.25,2.25,0,1,0,4.42.87,32.25,32.25,0,0,1,62.42-3.31L68.7,32.65a2.25,2.25,0,1,0-1,4.39l9.83,2.27.08,0H78a2.19,2.19,0,0,0,.77-.13h0l.09,0h0l.09,0,0,0,.05,0,.1-.06,0,0,.06,0,0,0,.07,0,.06-.05,0,0,.06,0,0,0,.08-.09h0A1.3,1.3,0,0,0,79.9,38.38Z" fill="#fff"/><path d="M77.67,48A2.26,2.26,0,0,0,75,49.77,32.24,32.24,0,0,1,12.59,53l5.71,1.32a2.21,2.21,0,0,0,.51,0,2.25,2.25,0,0,0,.5-4.44L9.52,47.7h0l-.11,0h-.6a2,2,0,0,0-.42.07h0l-.09,0h0l-.06,0-.06,0,0,0-.08,0H8l-.09,0h0a2.4,2.4,0,0,0-.26.18h0l-.07.06h0l0,.06,0,0,0,0,0,0,0,0-.06,0v0l-.06.08h0l-.06.08h0l0,0v0L1.39,56.93A2.25,2.25,0,0,0,2,60.06a2.22,2.22,0,0,0,1.27.4,2.24,2.24,0,0,0,1.86-1L8.4,54.69a36.74,36.74,0,0,0,71-4A2.25,2.25,0,0,0,77.67,48Z" fill="#fff"/><path d="M44.81,34.81a.65.65,0,0,1,1.3,0v1.31a.66.66,0,0,0,.66.65h2.61a.65.65,0,0,0,.65-.65V34.81a4.57,4.57,0,0,0-9.14,0v5.88h3.92Z" fill="#fff"/><path d="M48.07,38.08a.65.65,0,0,0,0,1.3h.66v1.31h3.92V39.38h.65a.65.65,0,0,0,0-1.3H48.07Z" fill="#fff"/><path d="M33.7,39.38h.65v1.31h3.92V39.38h.66a.65.65,0,0,0,0-1.3H33.7a.65.65,0,0,0,0,1.3Z" fill="#fff"/><path d="M44.41,42.56H22.27v8.72a5.49,5.49,0,0,0,5.48,5.48H58.33a6.4,6.4,0,0,0,6.4-6.39V42.56ZM42.59,54.94H27.75a3.66,3.66,0,0,1-3.65-3.66V44.39H42.59ZM62.9,50.37a4.58,4.58,0,0,1-4.57,4.57H44.41V44.39H62.9Z" fill="#fff"/></svg>