<svg id="Calque_1" data-name="Calque 1" xmlns="http://www.w3.org/2000/svg" viewBox="0 0 87 87"><path d="M70.94,70.52,56.81,67.94a74.42,74.42,0,0,0-26.62,0L16.06,70.52a1.5,1.5,0,0,1-1.5-1.5V14.13a1.5,1.5,0,0,1,1.5-1.5H70.94a1.5,1.5,0,0,1,1.5,1.5V69A1.5,1.5,0,0,1,70.94,70.52Zm-53.38-3,11.89-2.3a74.6,74.6,0,0,1,28.1,0l11.89,2.3V15.63H17.56Z" fill="#fff"/><circle cx="23.45" cy="55.07" r="1.89" fill="#fff"/><circle cx="63.55" cy="55.07" r="1.89" fill="#fff"/><circle cx="23.45" cy="21.52" r="1.89" fill="#fff"/><circle cx="63.55" cy="21.52" r="1.89" fill="#fff"/><rect x="37.77" y="65.64" width="3" height="8.73" fill="#fff"/><rect x="46.23" y="65.64" width="3" height="8.73" fill="#fff"/></svg>