<svg id="Calque_1" data-name="Calque 1" xmlns="http://www.w3.org/2000/svg" viewBox="0 0 87 87"><path d="M86,30.74H31.82L1,49.92H55.18ZM33.15,40,29,36.41l2.83-1.76,9,5L20.91,46.57H14.17Zm-18,5.07L28,37,31,39.57ZM43.56,39.9,33.12,34.08h7.43l7.15,5L30.48,46.57H24.31ZM50,39.3,42.5,34.08h5.63l8.11,6L42,46.57H33.27Zm8.46,1L50,34.08h10.5l-.08.07,3.46,4.12-13.66,8.3H44.7Zm-6,6.29,13.19-8-3.74-4.47H74.3L54.23,46.57Z" fill="#fff"/><polygon points="1 51.03 1 56.26 55.39 56.26 86 37.03 86 31.85 55.18 51.03 1 51.03" fill="#fff"/></svg>