<svg id="Calque_1" data-name="Calque 1" xmlns="http://www.w3.org/2000/svg" viewBox="0 0 87 87"><path d="M5.75,50.14v1.15a1.5,1.5,0,0,0,1.5,1.5h72.5a1.5,1.5,0,0,0,1.5-1.5V46.93c-4.54.94-21.18,3.93-50.11,3.93C23.53,50.86,15.07,50.65,5.75,50.14Z" fill="#fff"/><path d="M28.75,44.08c1.86,1.3,3.63,1.39,7.25,1.55,1.53.08,3.44.16,5.79.37,6.75.6,16.27-2.63,19.9-4C52.13,40.16,33.43,43.25,28.75,44.08Z" fill="#fff"/><path d="M5.75,43.72v5.42C51,51.6,76.06,47,81.25,45.9V40.58C52.67,33.34,13.08,42,5.75,43.72Zm57.81-1.36c-.5.2-11.47,4.72-20,4.72-.63,0-1.25,0-1.85-.08-2.33-.21-4.22-.3-5.75-.37-4.28-.2-6.23-.29-8.7-2.47l-.76-.67,1-.2c1-.2,25.67-4.86,36-1.88l1.37.4Z" fill="#fff"/><path d="M11.25,34.21a5.51,5.51,0,0,0-5.41,4.54A49.82,49.82,0,0,1,17,34.21Z" fill="#fff"/><path d="M81.24,39.54a5.51,5.51,0,0,0-5.49-5.33H22.09A46.5,46.5,0,0,0,5.75,40v2.74C13.68,40.84,52.76,32.44,81.24,39.54Z" fill="#fff"/></svg>