<svg id="Calque_1" data-name="Calque 1" xmlns="http://www.w3.org/2000/svg" viewBox="0 0 87 87"><path d="M55.08,45H8.75a1.5,1.5,0,0,1-1.5-1.5V16a1.5,1.5,0,0,1,1.5-1.5H55.08a1.5,1.5,0,0,1,1.5,1.5V43.5A1.5,1.5,0,0,1,55.08,45ZM10.25,42H53.58V17.46H10.25Z" fill="#fff"/><path d="M78.25,72.54H31.92a1.5,1.5,0,0,1-1.5-1.5V43.5a1.5,1.5,0,0,1,1.5-1.5H78.25a1.5,1.5,0,0,1,1.5,1.5V71A1.5,1.5,0,0,1,78.25,72.54Zm-44.83-3H76.75V45H33.42Z" fill="#fff"/><path d="M19.81,45a1.51,1.51,0,0,1-1.31-.76L10.69,30.47a1.45,1.45,0,0,1,0-1.48L18.5,15.22a1.5,1.5,0,1,1,2.61,1.49l-7.39,13,7.39,13a1.49,1.49,0,0,1-.56,2A1.45,1.45,0,0,1,19.81,45Z" fill="#fff"/><path d="M27.63,45a1.49,1.49,0,0,1-1.31-.76L18.5,30.47a1.5,1.5,0,0,1,0-1.48l7.82-13.77a1.5,1.5,0,1,1,2.61,1.49l-7.4,13,7.4,13a1.49,1.49,0,0,1-.56,2A1.45,1.45,0,0,1,27.63,45Z" fill="#fff"/><path d="M35.44,45a1.49,1.49,0,0,1-1.3-.76L26.32,30.47a1.5,1.5,0,0,1,0-1.48l7.82-13.77a1.5,1.5,0,0,1,2.61,1.49l-7.4,13,7.4,13a1.49,1.49,0,0,1-.57,2A1.4,1.4,0,0,1,35.44,45Z" fill="#fff"/><path d="M43.26,45a1.48,1.48,0,0,1-1.3-.76L34.14,30.47a1.5,1.5,0,0,1,0-1.48L42,15.22a1.5,1.5,0,1,1,2.6,1.49l-7.39,13,7.39,13a1.49,1.49,0,0,1-.56,2A1.42,1.42,0,0,1,43.26,45Z" fill="#fff"/><path d="M51.08,45a1.51,1.51,0,0,1-1.31-.76L42,30.47A1.5,1.5,0,0,1,42,29l7.81-13.77a1.5,1.5,0,0,1,2.61,1.49L45,29.73l7.39,13a1.49,1.49,0,0,1-.56,2A1.42,1.42,0,0,1,51.08,45Z" fill="#fff"/><path d="M43.36,72.54a1.52,1.52,0,0,1-1.31-.76L34.23,58a1.5,1.5,0,0,1,0-1.48l7.82-13.77a1.5,1.5,0,0,1,2.61,1.48l-7.4,13,7.4,13a1.5,1.5,0,0,1-.56,2A1.55,1.55,0,0,1,43.36,72.54Z" fill="#fff"/><path d="M51.17,72.54a1.51,1.51,0,0,1-1.3-.76L42.05,58a1.5,1.5,0,0,1,0-1.48l7.82-13.77a1.5,1.5,0,0,1,2.61,1.48l-7.4,13,7.4,13a1.51,1.51,0,0,1-1.31,2.25Z" fill="#fff"/><path d="M59,72.54a1.5,1.5,0,0,1-1.3-.76L49.87,58a1.5,1.5,0,0,1,0-1.48l7.82-13.77a1.5,1.5,0,0,1,2.61,1.48l-7.4,13,7.4,13A1.51,1.51,0,0,1,59,72.54Z" fill="#fff"/><path d="M66.81,72.54a1.53,1.53,0,0,1-1.31-.76L57.69,58a1.5,1.5,0,0,1,0-1.48L65.5,42.76a1.5,1.5,0,0,1,2.61,1.48l-7.39,13,7.39,13a1.5,1.5,0,0,1-.56,2A1.52,1.52,0,0,1,66.81,72.54Z" fill="#fff"/><path d="M74.63,72.54a1.53,1.53,0,0,1-1.31-.76L65.5,58a1.5,1.5,0,0,1,0-1.48l7.82-13.77a1.5,1.5,0,0,1,2.61,1.48l-7.4,13,7.4,13a1.5,1.5,0,0,1-.56,2A1.55,1.55,0,0,1,74.63,72.54Z" fill="#fff"/></svg>