<svg id="Calque_1" data-name="Calque 1" xmlns="http://www.w3.org/2000/svg" viewBox="0 0 87 87"><path d="M41.18,69.51h-23A5.22,5.22,0,0,1,13,64.3V22.7a5.22,5.22,0,0,1,5.21-5.21h23Zm-23-49A2.21,2.21,0,0,0,16,22.7V64.3a2.21,2.21,0,0,0,2.21,2.21h20v-46Z" fill="#fff"/><path d="M68.8,69.51h-23v-52h23A5.22,5.22,0,0,1,74,22.7V64.3A5.22,5.22,0,0,1,68.8,69.51Zm-20-3h20A2.21,2.21,0,0,0,71,64.3V22.7a2.21,2.21,0,0,0-2.21-2.21h-20Z" fill="#fff"/><path d="M43.5,74.55a5.32,5.32,0,0,1-5.32-5.32V17.77a5.32,5.32,0,1,1,10.64,0V69.23A5.32,5.32,0,0,1,43.5,74.55Zm0-59.1a2.32,2.32,0,0,0-2.32,2.32V69.23a2.32,2.32,0,1,0,4.64,0V17.77A2.32,2.32,0,0,0,43.5,15.45Z" fill="#fff"/><rect x="39.68" y="22.52" width="7.65" height="3" fill="#fff"/><rect x="39.68" y="32.26" width="7.65" height="3" fill="#fff"/><rect x="39.68" y="42" width="7.65" height="3" fill="#fff"/><rect x="39.68" y="51.74" width="7.65" height="3" fill="#fff"/><rect x="39.68" y="61.48" width="7.65" height="3" fill="#fff"/><circle cx="24.83" cy="26.2" r="2.92" fill="#fff"/><circle cx="21.12" cy="43.5" r="2.92" fill="#fff"/><circle cx="24.83" cy="60.8" r="2.92" fill="#fff"/><circle cx="62.17" cy="26.2" r="2.92" fill="#fff"/><circle cx="65.88" cy="43.5" r="2.92" fill="#fff"/><circle cx="62.17" cy="60.8" r="2.92" fill="#fff"/></svg>