<svg id="Calque_1" data-name="Calque 1" xmlns="http://www.w3.org/2000/svg" viewBox="0 0 87 87"><path d="M46.3,41.53V29a1.4,1.4,0,1,1,2.79,0v2.79a1.4,1.4,0,0,0,1.4,1.4h5.59a1.4,1.4,0,0,0,1.4-1.4V29a9.79,9.79,0,1,0-19.57,0V41.53Z" fill="#fff"/><path d="M53.29,35.94a1.4,1.4,0,1,0,0,2.79h1.39v2.8h8.39v-2.8h1.4a1.4,1.4,0,1,0,0-2.79H53.29Z" fill="#fff"/><path d="M22.53,38.73h1.4v2.8h8.39v-2.8h1.39a1.4,1.4,0,1,0,0-2.79H22.53a1.4,1.4,0,1,0,0,2.79Z" fill="#fff"/><path d="M70.81,46.94v4.87c0,8-6.25,13.41-15.55,13.41H31.74c-9.3,0-15.55-5.39-15.55-13.41V46.94H70.81m1.55-2.62H14.64a1.07,1.07,0,0,0-1.07,1.07v6.42c0,9.44,7.48,16,18.17,16H55.26c10.69,0,18.17-6.59,18.17-16V45.39a1.07,1.07,0,0,0-1.07-1.07Z" fill="#fff"/></svg>