<svg id="Calque_1" data-name="Calque 1" xmlns="http://www.w3.org/2000/svg" viewBox="0 0 87 87"><path d="M74.75,10.75H12.25a1.5,1.5,0,0,0-1.5,1.5v62.5a1.5,1.5,0,0,0,1.5,1.5h62.5a1.5,1.5,0,0,0,1.5-1.5V12.25A1.5,1.5,0,0,0,74.75,10.75Zm-1.5,62.5H13.75V13.75h59.5Z" fill="#fff"/><path d="M16.65,65.71a1.26,1.26,0,0,0,.37.88L20.41,70a1.22,1.22,0,0,0,1.75,0L25,67.16,27.81,70a1.27,1.27,0,0,0,.88.37,1.25,1.25,0,0,0,.88-.37l2.82-2.82L35.22,70A1.22,1.22,0,0,0,37,70l2.83-2.82L42.62,70a1.23,1.23,0,0,0,1.76,0l2.82-2.82L50,70a1.22,1.22,0,0,0,1.75,0l2.83-2.82L57.43,70a1.25,1.25,0,0,0,.88.37,1.27,1.27,0,0,0,.88-.37L62,67.16,64.84,70a1.22,1.22,0,0,0,1.75,0L70,66.59a1.26,1.26,0,0,0,.37-.88,1.23,1.23,0,0,0-.37-.87L67.16,62,70,59.19a1.28,1.28,0,0,0,.37-.88,1.26,1.26,0,0,0-.37-.88l-2.82-2.82L70,51.78A1.22,1.22,0,0,0,70,50L67.16,47.2,70,44.38a1.24,1.24,0,0,0,0-1.76L67.16,39.8,70,37a1.22,1.22,0,0,0,0-1.75l-2.82-2.83L70,29.57a1.26,1.26,0,0,0,.37-.88,1.28,1.28,0,0,0-.37-.88L67.16,25,70,22.16a1.23,1.23,0,0,0,.37-.87,1.26,1.26,0,0,0-.37-.88L66.59,17a1.23,1.23,0,0,0-1.75,0L62,19.84,59.19,17a1.24,1.24,0,0,0-1.76,0l-2.82,2.82L51.78,17A1.23,1.23,0,0,0,50,17L47.2,19.84,44.38,17a1.24,1.24,0,0,0-1.76,0L39.8,19.84,37,17a1.23,1.23,0,0,0-1.75,0l-2.83,2.82L29.57,17a1.24,1.24,0,0,0-1.76,0L25,19.84,22.16,17a1.23,1.23,0,0,0-1.75,0L17,20.41a1.26,1.26,0,0,0-.37.88,1.23,1.23,0,0,0,.37.87L19.84,25,17,27.81a1.28,1.28,0,0,0-.37.88,1.26,1.26,0,0,0,.37.88l2.82,2.82L17,35.22A1.22,1.22,0,0,0,17,37l2.82,2.83L17,42.62a1.24,1.24,0,0,0,0,1.76l2.82,2.82L17,50a1.22,1.22,0,0,0,0,1.75l2.82,2.83L17,57.43a1.26,1.26,0,0,0-.37.88,1.28,1.28,0,0,0,.37.88L19.84,62,17,64.84A1.23,1.23,0,0,0,16.65,65.71Zm8.34-43L27.25,25,25,27.25,22.73,25Zm7.4,0L34.65,25l-2.26,2.26L30.14,25Zm7.41,0L42.06,25,39.8,27.25,37.54,25Zm7.4,0L49.46,25,47.2,27.25,44.94,25Zm7.41,0L56.86,25l-2.25,2.26L52.35,25Zm7.4,0L64.27,25,62,27.25,59.75,25Zm0,41.54L59.75,62,62,59.75,64.27,62Zm-7.4,0L52.35,62l2.26-2.26L56.86,62Zm-7.41,0L44.94,62l2.26-2.26L49.46,62Zm-7.4,0L37.54,62l2.26-2.26L42.06,62Zm-7.41,0L30.14,62l2.25-2.26L34.65,62Zm-3.7-37.22,1.64,1.64-1.64,1.64-1.64-1.64Zm3.7,3.09,2.26,2.25-2.26,2.26-2.25-2.26Zm3.71-3.09,1.63,1.64L36.1,30.33l-1.64-1.64Zm3.7,3.09,2.26,2.25L39.8,34.65l-2.26-2.26Zm3.7-3.09,1.64,1.64L43.5,30.33l-1.64-1.64Zm3.7,3.09,2.26,2.25L47.2,34.65l-2.26-2.26Zm3.7-3.09,1.64,1.64L50.9,30.33l-1.63-1.64Zm3.71,3.09,2.25,2.25-2.25,2.26-2.26-2.26Zm3.7-3.09L60,28.69l-1.64,1.64-1.64-1.64Zm0,32.9-1.64-1.64,1.64-1.64L60,58.31Zm-3.7-3.09-2.26-2.25,2.26-2.26,2.25,2.26ZM50.9,60l-1.63-1.64,1.63-1.64,1.64,1.64Zm-3.7-3.09-2.26-2.25,2.26-2.26,2.26,2.26ZM43.5,60l-1.64-1.64,1.64-1.64,1.64,1.64Zm-3.7-3.09-2.26-2.25,2.26-2.26,2.26,2.26ZM36.1,60l-1.64-1.64,1.64-1.64,1.63,1.64Zm-3.71-3.09-2.25-2.25,2.25-2.26,2.26,2.26Zm0-19.32,2.26,2.26-2.26,2.26L30.14,39.8Zm3.71-3.08,1.63,1.64L36.1,37.73,34.46,36.1Zm3.7,3.08,2.26,2.26L39.8,42.06,37.54,39.8Zm3.7-3.08,1.64,1.64L43.5,37.73,41.86,36.1Zm3.7,3.08,2.26,2.26L47.2,42.06,44.94,39.8Zm3.7-3.08,1.64,1.64L50.9,37.73,49.27,36.1Zm3.71,3.08,2.25,2.26-2.25,2.26L52.35,39.8Zm0,11.92L52.35,47.2l2.26-2.26,2.25,2.26ZM50.9,52.54,49.27,50.9l1.63-1.63,1.64,1.63Zm-3.7-3.08L44.94,47.2l2.26-2.26,2.26,2.26Zm-3.7,3.08L41.86,50.9l1.64-1.63,1.64,1.63Zm-3.7-3.08L37.54,47.2l2.26-2.26,2.26,2.26Zm-3.7,3.08L34.46,50.9l1.64-1.63,1.63,1.63Zm0-10.68,1.63,1.64L36.1,45.14,34.46,43.5Zm7.4,0,1.64,1.64L43.5,45.14,41.86,43.5Zm7.4,0,1.64,1.64L50.9,45.14,49.27,43.5ZM32.39,44.94l2.26,2.26-2.26,2.26L30.14,47.2Zm25.92,7.6L56.67,50.9l1.64-1.63L60,50.9Zm0-7.4L56.67,43.5l1.64-1.64L60,43.5Zm0-7.41L56.67,36.1l1.64-1.64L60,36.1ZM28.69,34.46l1.64,1.64-1.64,1.63L27.05,36.1Zm0,7.4,1.64,1.64-1.64,1.64L27.05,43.5Zm0,7.41,1.64,1.63-1.64,1.64L27.05,50.9Zm0,7.4,1.64,1.64L28.69,60l-1.64-1.64ZM62,56.86l-2.26-2.25L62,52.35l2.26,2.26Zm0-7.4L59.75,47.2,62,44.94l2.26,2.26Zm0-7.4L59.75,39.8,62,37.54l2.26,2.26Zm0-7.41-2.26-2.26L62,30.14l2.26,2.25ZM25,30.14l2.26,2.25L25,34.65l-2.26-2.26Zm0,7.4,2.26,2.26L25,42.06,22.73,39.8Zm0,7.4,2.26,2.26L25,49.46,22.73,47.2Zm0,7.41,2.26,2.26L25,56.86l-2.26-2.25Zm0,7.4L27.25,62,25,64.27,22.73,62Zm3.7,7.6-1.64-1.64,1.64-1.63,1.64,1.63Zm7.41,0-1.64-1.64,1.64-1.63,1.63,1.63Zm7.4,0-1.64-1.64,1.64-1.63,1.64,1.63Zm7.4,0-1.63-1.64,1.63-1.63,1.64,1.63Zm7.41,0-1.64-1.64,1.64-1.63L60,65.71Zm7.4,0-1.63-1.64,1.63-1.63,1.64,1.63Zm0-7.4-1.63-1.64,1.63-1.64,1.64,1.64Zm0-7.41L64.08,50.9l1.63-1.63,1.64,1.63Zm0-7.4L64.08,43.5l1.63-1.64,1.64,1.64Zm0-7.41L64.08,36.1l1.63-1.64,1.64,1.64Zm0-7.4-1.63-1.64,1.63-1.64,1.64,1.64Zm0-10.68,1.64,1.64-1.64,1.63-1.63-1.63Zm-7.4,0L60,21.29l-1.64,1.63-1.64-1.63Zm-7.41,0,1.64,1.64L50.9,22.92l-1.63-1.63Zm-7.4,0,1.64,1.64L43.5,22.92l-1.64-1.63Zm-7.4,0,1.63,1.64L36.1,22.92l-1.64-1.63Zm-7.41,0,1.64,1.64-1.64,1.63-1.64-1.63Zm-7.4,0,1.63,1.64-1.63,1.63-1.64-1.63Zm0,7.4,1.63,1.64-1.63,1.64-1.64-1.64Zm0,7.41,1.63,1.64-1.63,1.63L19.65,36.1Zm0,7.4,1.63,1.64-1.63,1.64L19.65,43.5Zm0,7.41,1.63,1.63-1.63,1.64L19.65,50.9Zm0,7.4,1.63,1.64L21.29,60l-1.64-1.64Zm0,7.41,1.63,1.63-1.63,1.64-1.64-1.64Z" fill="#fff"/></svg>