<svg id="Calque_1" data-name="Calque 1" xmlns="http://www.w3.org/2000/svg" viewBox="0 0 87 87"><path d="M17.69,17.57a1.24,1.24,0,0,0-1.24,1.24V19L16,18.89a.82.82,0,1,0-.4,1.6l.84.22V22.1L16,22a.83.83,0,0,0-1,.6.81.81,0,0,0,.6,1l.84.22V25.2L16,25.09a.83.83,0,1,0-.41,1.61l.84.21v1.4L16,28.2a.83.83,0,1,0-.41,1.6l.84.22v1.39L16,31.3a.83.83,0,0,0-.42,1.61l.85.21v1.39L16,34.4a.83.83,0,0,0-1,.6.82.82,0,0,0,.59,1l.85.22v1.88L16,38a.83.83,0,0,0-1,.6.82.82,0,0,0,.6,1l.84.21v1.4L16,41.11a.83.83,0,1,0-.41,1.6l.84.22v1.39L16,44.21a.83.83,0,1,0-.41,1.61l.84.21v1.45l-4-1a1.24,1.24,0,1,0-.61,2.41l.83.21-.18.11c-.44.27-.88.55-1.31.86L4.45,48.33a1.24,1.24,0,1,0-.62,2.41l5.36,1.37A10.37,10.37,0,0,0,8,57.64c0,7.2,5.05,11.79,7.69,11.79a4.23,4.23,0,0,0,3.13-1.1l0,0C20,67,20,65.11,20,63.07c0-.36,0-.72,0-1.09V49.54s0-.09,0-.13A1.24,1.24,0,0,0,19,48.14l-.09,0V46.67l.43.11a.83.83,0,0,0,.41-1.61L18.93,45v-1.4l.43.11a.84.84,0,0,0,.79-.21.94.94,0,0,0,.22-.39.83.83,0,0,0-.6-1l-.84-.22V40.46l.43.11A.83.83,0,0,0,19.77,39l-.84-.21V36.86l.43.11a.82.82,0,0,0,.79-.22.83.83,0,0,0-.38-1.39l-.84-.21V33.76l.43.11a.83.83,0,1,0,.41-1.61l-.84-.21v-1.4l.43.11a.81.81,0,0,0,.79-.21.91.91,0,0,0,.22-.38.83.83,0,0,0-.6-1l-.84-.22V27.55l.43.11a.82.82,0,0,0,.79-.22.83.83,0,0,0-.38-1.39l-.84-.21V24.45l.43.11A.83.83,0,0,0,19.77,23l-.84-.22V21.34l.43.11a.82.82,0,0,0,.79-.22.85.85,0,0,0,.22-.38.83.83,0,0,0-.6-1l-.84-.22v-.82A1.25,1.25,0,0,0,17.69,17.57Zm-.67,49h0a2,2,0,0,1-1.37.36c-1,0-5.2-3.1-5.2-9.3,0-2.63.5-3.94,1.36-4.86l3.53.9a1.22,1.22,0,0,0,1.19-.32,1.36,1.36,0,0,0,.33-.57,1.25,1.25,0,0,0-.9-1.52l-1.52-.38a14.36,14.36,0,0,0,1.37-1l1.67.42V62c0,.38,0,.76,0,1.14C17.51,64.56,17.54,66,17,66.57Z" fill="#fff"/><path d="M16.15,57.46A2.51,2.51,0,0,0,14,56.3h-.53a3.42,3.42,0,0,0-2.35.54h0a1.08,1.08,0,0,0-.34.79,10,10,0,0,0,.39,2.63l0,.15c.84,2.84,2.77,5.08,4.19,5.46a.77.77,0,0,0,.4,0,1,1,0,0,0,.15,0,.82.82,0,0,0,.83-.83V59.84A4.22,4.22,0,0,0,16.15,57.46Zm-3.44,1.79h0A8.24,8.24,0,0,1,12.51,58l.2,0Zm2.45,4.57a8.07,8.07,0,0,1-2-2.91h.35a.82.82,0,0,0,.82-.83V58a1,1,0,0,1,.42.37,2.62,2.62,0,0,1,.38,1.45Z" fill="#fff"/><path d="M79.93,69.41,78,67.1l-.07.06A30.36,30.36,0,0,0,80.39,61a9.93,9.93,0,0,0-1-1.2L78.56,59l.51-1a18,18,0,0,0,1.53-3.69A1.79,1.79,0,0,0,80,54l-1.54-.52L79.08,52a27.86,27.86,0,0,0,1.29-3.69,2.36,2.36,0,0,0-.46,0l-2.81.22L78.47,46a31,31,0,0,0,1.84-3.74l-.33,0-2.2-.18,1-2a32.79,32.79,0,0,0,1.63-3.81,3,3,0,0,0-.49-.13l-3.25-.45L79,33.65a8.73,8.73,0,0,0,0-3.11c-.25.05-.54.13-.73.19a6,6,0,0,1-1.58.31,3.05,3.05,0,0,1-2.19-1.16l-.21.1a5,5,0,0,1-2.11.61,3.46,3.46,0,0,1-1.94-.68l-.1-.06-.1.08a3.2,3.2,0,0,1-2.07.91,9.14,9.14,0,0,1-1-.08l-.57-.06a7,7,0,0,0,0,3.42l.48,2L65,36s-.12.06-.24.29-.71,1.84.88,6l.38,1-.82.69a7.6,7.6,0,0,0-1.62,1.8c.19.81,1.27,3.64,2.23,6l.73,1.75-1.88.3a.59.59,0,0,0-.47.62,8.57,8.57,0,0,0,1.62,4.29,1.8,1.8,0,0,1,.53,1.56,2.34,2.34,0,0,1-1.44,1.64l-.26.15c.77,1.76,2.71,5.49,2.73,5.53L64.75,69c-.1-.18-2.27-4.38-3-6.09a2.48,2.48,0,0,1,1.1-3.22,11,11,0,0,1-1.65-5.47,3.54,3.54,0,0,1,1.32-2.59A36.83,36.83,0,0,1,60.62,46c-.15-1.29.92-2.65,1.91-3.62-1.23-3.58-1.3-6.14-.21-7.81a3.5,3.5,0,0,1,1-1c-.2-1.47-.24-3.76,1-5.12a3.36,3.36,0,0,1,3-.67l.51.06a2.69,2.69,0,0,0,.28-.22,3,3,0,0,1,2-.87,3.28,3.28,0,0,1,1.78.63,1.81,1.81,0,0,0,.36.21,5.1,5.1,0,0,0,.81-.33,4,4,0,0,1,1.7-.51,2.71,2.71,0,0,1,1.92,1l.21.21.59-.16c1.21-.34,2.86-.8,3.85.45.63.8,1,3.43.73,5.43A2.51,2.51,0,0,1,83.45,36a12.74,12.74,0,0,1-1.27,3.88,2.35,2.35,0,0,1,1.27,2.08,10.87,10.87,0,0,1-1.37,3.76,2.78,2.78,0,0,1,.62.41,2.34,2.34,0,0,1,.75,1.73,15,15,0,0,1-1.1,4.07,3,3,0,0,1,1.25,2.37,12.41,12.41,0,0,1-1.39,4.19c1.24,1.41,1.24,2.07,1.24,2.38C83.45,61.66,81.35,68.24,79.93,69.41ZM78.83,30Zm-8.52-.32Z" fill="#fff"/><path d="M48.74,68.94s-.77-1.5-1.55-3.07c-.68-1.36-1.16-2.38-1.42-3a2.52,2.52,0,0,1,1.11-3.23,10.86,10.86,0,0,1-1.65-5.45,3.54,3.54,0,0,1,1.32-2.6A38,38,0,0,1,44.62,46c-.15-1.29.92-2.66,1.91-3.62-1.85-5.45-.72-7.79.75-8.8-.2-1.46-.24-3.75,1-5.11a3.31,3.31,0,0,1,3-.67l.51.05a2.69,2.69,0,0,0,.28-.22A3,3,0,0,1,54,26.75a3.25,3.25,0,0,1,1.79.63,2.12,2.12,0,0,0,.35.21,4.79,4.79,0,0,0,.82-.33,4,4,0,0,1,1.69-.51,2.71,2.71,0,0,1,1.93,1l.21.21.59-.16c1.21-.34,2.86-.8,3.85.44s1.36,6.16-.19,7.51l-.82-.94-.33,1.31-3.33-.41L63,33.65a9,9,0,0,0,0-3.11c-.25.05-.54.13-.74.19a6,6,0,0,1-1.58.3,3,3,0,0,1-2.18-1.15l-.21.1a5,5,0,0,1-2.11.6,3.46,3.46,0,0,1-1.94-.67l-.1-.07-.1.09a3.21,3.21,0,0,1-2.08.91,7.17,7.17,0,0,1-1-.08l-.57-.06a7,7,0,0,0,.05,3.42l.48,2L49.06,36c-.52.32-1,2,.63,6.3l.38,1-.82.68a7.66,7.66,0,0,0-1.63,1.81c.18.8,1.27,3.64,2.23,6l.73,1.76-1.89.3a.61.61,0,0,0-.47.62,8.65,8.65,0,0,0,1.64,4.28,1.82,1.82,0,0,1,.52,1.56,2.34,2.34,0,0,1-1.44,1.64l-.26.15c.25.58.66,1.43,1.2,2.5.76,1.55,1.53,3,1.53,3Zm14.37-35.4h0ZM62.83,30Zm-8.91-.27Z" fill="#fff"/><path d="M63.91,69.43,62,67.08l-.08.07a10.09,10.09,0,0,0,1.18-2.49l2.79,1.09C64.9,68.39,64.35,69.07,63.91,69.43Z" fill="#fff"/><path d="M32.74,69c-.09-.18-2.27-4.38-3-6.09a2.5,2.5,0,0,1,1.1-3.23,10.86,10.86,0,0,1-1.65-5.45,3.54,3.54,0,0,1,1.32-2.6A38,38,0,0,1,28.62,46c-.15-1.29.92-2.66,1.91-3.62-1.23-3.58-1.29-6.14-.2-7.81a3.47,3.47,0,0,1,1-1c-.2-1.47-.24-3.76,1-5.11a3.31,3.31,0,0,1,3-.67l.51.05a2.69,2.69,0,0,0,.28-.22A3,3,0,0,1,38,26.75a3.28,3.28,0,0,1,1.79.63,2.12,2.12,0,0,0,.35.21,4.79,4.79,0,0,0,.82-.33,4,4,0,0,1,1.69-.51,2.71,2.71,0,0,1,1.93,1l.21.21.59-.16c1.21-.34,2.86-.8,3.85.44s1.36,6.16-.19,7.51l-.82-.94-.34,1.31-3.33-.41L47,33.65a9,9,0,0,0,0-3.11c-.25.05-.54.13-.74.19a6,6,0,0,1-1.58.3,3,3,0,0,1-2.18-1.15l-.21.1a5,5,0,0,1-2.11.6,3.46,3.46,0,0,1-1.94-.67l-.1-.07-.1.09a3.21,3.21,0,0,1-2.08.91,7.17,7.17,0,0,1-1-.08l-.57-.06a7,7,0,0,0,.05,3.42l.49,2L33,36s-.11.06-.24.29-.7,1.83.89,6l.38,1-.82.68a7.66,7.66,0,0,0-1.63,1.81c.18.8,1.27,3.64,2.23,6l.73,1.76-1.89.3a.61.61,0,0,0-.47.62,8.65,8.65,0,0,0,1.64,4.28,1.82,1.82,0,0,1,.52,1.56,2.34,2.34,0,0,1-1.44,1.64l-.26.15c.77,1.76,2.71,5.49,2.73,5.53ZM47.11,33.54h0ZM46.83,30Z" fill="#fff"/><path d="M47.91,69.43,46,67.08l-.08.07a10.09,10.09,0,0,0,1.18-2.49l2.79,1.09C48.9,68.39,48.35,69.07,47.91,69.43Z" fill="#fff"/><rect x="28.1" y="66.75" width="56" height="3" fill="#fff"/><path d="M38.1,62.75h-.55l.06-.54c.21-2.24,1.64-6.46,5.49-6.46h.41l.08.4a6.33,6.33,0,0,1-1,4.83A5.48,5.48,0,0,1,38.1,62.75Zm4.57-6c-2.85.3-3.74,3.6-4,4.95a4.19,4.19,0,0,0,3.13-1.38A5,5,0,0,0,42.67,56.78Z" fill="#fff"/><path d="M35.72,58.57c-.09-.11-2.22-2.72-1.08-5.51l.19-.45.45.18c.15.05,3.57,1.37,3.9,3.56l-1,.15c-.17-1.13-1.78-2.1-2.78-2.57a5.12,5.12,0,0,0,1.08,4Z" fill="#fff"/><path d="M41.4,48.64l-.63-.77A5.64,5.64,0,0,0,42.7,43a6,6,0,0,0-3.16,3.47l-1-.27a7,7,0,0,1,4.36-4.38l.53-.19.12.55A6.8,6.8,0,0,1,41.4,48.64Z" fill="#fff"/><path d="M36.8,45.65c-.12-.09-3.12-2.39-2.17-5.54l.1-.36h.37c1.33,0,4,.72,4.46,3.42l-1,.17a3.28,3.28,0,0,0-3.08-2.56c-.39,2.3,1.89,4.06,1.92,4.07Z" fill="#fff"/><path d="M42.38,38.67l-.55-.83a3.13,3.13,0,0,0,1-4c-2,.8-2.22,3.31-2.23,3.42l-1-.08c0-.14.32-3.65,3.37-4.44l.38-.1.19.35C44.21,34.27,44.82,37.05,42.38,38.67Z" fill="#fff"/><path d="M76.62,65.19l-.5-.87a2.74,2.74,0,0,0,1.4-1.7,3.65,3.65,0,0,0-.28-2.28A4.19,4.19,0,0,0,74.6,63.8l-1-.09s.37-3.66,3.78-4.44l.35-.08.19.31a4.86,4.86,0,0,1,.56,3.36A3.76,3.76,0,0,1,76.62,65.19Z" fill="#fff"/><path d="M57.37,63.68l-.53-.85c2.7-1.66,2.34-4.61,2-5.87a6.25,6.25,0,0,0-2.29,3.39l-1-.2a7,7,0,0,1,3.31-4.4l.5-.27.2.53C59.65,56.06,61.55,61.12,57.37,63.68Z" fill="#fff"/><path d="M53.74,58.51a5.84,5.84,0,0,1,0-5.5l.23-.43.44.23a6.34,6.34,0,0,1,3.18,5.3h-1A5.43,5.43,0,0,0,54.4,54a4.71,4.71,0,0,0,.19,4Z" fill="#fff"/><path d="M54.26,47.88a4.42,4.42,0,0,1-2.88-1.57,5.11,5.11,0,0,1-.77-4.14l.07-.42h.43c.15,0,3.56.1,4.53,2.23l-.91.42c-.54-1.19-2.35-1.52-3.2-1.61a3.92,3.92,0,0,0,.63,2.9,3.41,3.41,0,0,0,2.18,1.19Z" fill="#fff"/><path d="M58.5,48.56,57.71,48c2.2-2.91,1.62-4.52,1.25-5.09a4.24,4.24,0,0,0-2.38,3.42l-1-.05a5.26,5.26,0,0,1,3.34-4.44l.29-.11.23.2C59.54,42,61.87,44.11,58.5,48.56Z" fill="#fff"/><path d="M55.85,40.86l-.19-.38a5,5,0,0,1-.49-4.2,4.81,4.81,0,0,1,2.6-2.5l.38-.13.22.34a4.68,4.68,0,0,1,.79,4.13,4.89,4.89,0,0,1-2.9,2.61Zm1.9-6a3.53,3.53,0,0,0-1.65,1.75,3.83,3.83,0,0,0,.25,3,3.56,3.56,0,0,0,1.87-1.84A3.5,3.5,0,0,0,57.75,34.9Z" fill="#fff"/><path d="M71.53,61.84l-.37-.1c-.11,0-2.68-.77-3.38-2.78-.42-1.2-.09-2.54,1-4l.21-.29.35.11a5.13,5.13,0,0,1,3.05,2.67,4.59,4.59,0,0,1-.65,4.06Zm-2.18-6a3.19,3.19,0,0,0-.63,2.77,4,4,0,0,0,2.34,2,3.44,3.44,0,0,0,.38-2.84A3.88,3.88,0,0,0,69.35,55.86Z" fill="#fff"/><path d="M71.92,44.78c-3.34-1.36-3.38-5.3-3.38-5.46v-.49H69a4.69,4.69,0,0,1,4.62,3.3l-1,.26a3.55,3.55,0,0,0-3.1-2.52,4.79,4.79,0,0,0,2.71,4Z" fill="#fff"/><path d="M72.61,50.39c0-.21-.7-5.21,3.3-7.63l.4-.24.27.38c.9,1.28,2,4.33,0,6.68l-.75-.66c1.65-1.86.72-4.11.22-5-3,2.16-2.42,6.3-2.41,6.35Z" fill="#fff"/></svg>