<svg id="Calque_1" data-name="Calque 1" xmlns="http://www.w3.org/2000/svg" viewBox="0 0 87 87"><path d="M64.43,79.61a1.57,1.57,0,0,1-.7-.17l-16.88-9a1.51,1.51,0,0,1-.8-1.33V17.88a1.51,1.51,0,0,1,.8-1.33l16.88-9a1.53,1.53,0,0,1,1.48,0,1.5,1.5,0,0,1,.72,1.29V78.11a1.5,1.5,0,0,1-.72,1.29A1.55,1.55,0,0,1,64.43,79.61ZM49.05,68.22l13.88,7.39V11.39L49.05,18.78Z" fill="#fff"/><path d="M69.08,79.61H64.43a1.5,1.5,0,0,1-1.5-1.5V8.89a1.5,1.5,0,0,1,1.5-1.5h4.65a1.5,1.5,0,0,1,1.5,1.5V78.11A1.5,1.5,0,0,1,69.08,79.61Zm-3.15-3h1.65V10.39H65.93Z" fill="#fff"/><path d="M53.67,64.25l-.25,0a1.49,1.49,0,0,1-1.23-1.72L58.55,24a1.5,1.5,0,0,1,3,.48L55.15,63A1.5,1.5,0,0,1,53.67,64.25Z" fill="#fff"/><path d="M52.47,40.62l-.24,0A1.51,1.51,0,0,1,51,38.87l1.44-8.74a1.5,1.5,0,0,1,1.73-1.23,1.48,1.48,0,0,1,1.23,1.72L54,39.36A1.5,1.5,0,0,1,52.47,40.62Z" fill="#fff"/><path d="M26.63,28.68a7.21,7.21,0,0,1,4,13.22l-1.75,1.17.5,2,3.24,13.21h-12l3.24-13.21.5-2L22.64,41.9a7.21,7.21,0,0,1,4-13.22m0-3A10.21,10.21,0,0,0,21,44.39L16.82,61.32H36.45L32.3,44.39a10.21,10.21,0,0,0-5.67-18.71Z" fill="#fff"/></svg>