<svg id="Calque_1" data-name="Calque 1" xmlns="http://www.w3.org/2000/svg" viewBox="0 0 87 87"><path d="M43.5,19.1A2.48,2.48,0,0,1,41,16.63V13.74a2.47,2.47,0,1,1,4.94,0v2.89A2.48,2.48,0,0,1,43.5,19.1Z" fill="#fff"/><path d="M27.71,24.23a2.44,2.44,0,0,1-2-1L24,20.88A2.47,2.47,0,0,1,28,18l1.69,2.34a2.46,2.46,0,0,1-2,3.92Z" fill="#fff"/><path d="M17.94,37.67a2.25,2.25,0,0,1-.76-.13l-2.74-.89A2.47,2.47,0,1,1,16,32l2.75.89a2.47,2.47,0,0,1-.77,4.82Z" fill="#fff"/><path d="M15.2,55.17a2.47,2.47,0,0,1-.76-4.82l2.74-.89a2.47,2.47,0,1,1,1.53,4.69L16,55A2.25,2.25,0,0,1,15.2,55.17Z" fill="#fff"/><path d="M26,70a2.44,2.44,0,0,1-1.45-.47A2.47,2.47,0,0,1,24,66.12l1.7-2.33a2.47,2.47,0,1,1,4,2.9L28,69A2.49,2.49,0,0,1,26,70Z" fill="#fff"/><path d="M43.5,75.73A2.48,2.48,0,0,1,41,73.26V70.37a2.47,2.47,0,0,1,4.94,0v2.89A2.48,2.48,0,0,1,43.5,75.73Z" fill="#fff"/><path d="M61,70a2.49,2.49,0,0,1-2-1L57.3,66.69a2.47,2.47,0,1,1,4-2.9L63,66.12a2.47,2.47,0,0,1-.55,3.45A2.44,2.44,0,0,1,61,70Z" fill="#fff"/><path d="M71.8,55.17A2.25,2.25,0,0,1,71,55l-2.75-.89a2.47,2.47,0,0,1,1.53-4.69l2.74.89a2.47,2.47,0,0,1-.76,4.82Z" fill="#fff"/><path d="M69.06,37.67a2.47,2.47,0,0,1-.77-4.82L71,32a2.47,2.47,0,1,1,1.52,4.69l-2.74.89A2.25,2.25,0,0,1,69.06,37.67Z" fill="#fff"/><path d="M59.29,24.23a2.46,2.46,0,0,1-2-3.92L59,18a2.47,2.47,0,0,1,4,2.91l-1.7,2.33A2.44,2.44,0,0,1,59.29,24.23Z" fill="#fff"/><path d="M43.5,28.35A15.15,15.15,0,1,1,28.35,43.5,15.17,15.17,0,0,1,43.5,28.35m0-3.7A18.85,18.85,0,1,0,62.35,43.5,18.85,18.85,0,0,0,43.5,24.65Z" fill="#fff"/><path d="M43.5,62.35a18.85,18.85,0,0,1,0-37.7" fill="#fff"/></svg>