<svg id="Calque_1" data-name="Calque 1" xmlns="http://www.w3.org/2000/svg" viewBox="0 0 87 87"><path d="M39.58,71.7h-27a7.63,7.63,0,0,1-7.63-7.62V22.92a7.63,7.63,0,0,1,7.63-7.62h27a7.63,7.63,0,0,1,7.62,7.62V64.08A7.63,7.63,0,0,1,39.58,71.7Zm-27-53.4a4.63,4.63,0,0,0-4.63,4.62V64.08a4.63,4.63,0,0,0,4.63,4.62h27a4.62,4.62,0,0,0,4.62-4.62V22.92a4.62,4.62,0,0,0-4.62-4.62Z" fill="#fff"/><path d="M76.44,71.7H67a5.62,5.62,0,0,1-5.61-5.61v-15h2.59V35.94H61.35v-15A5.62,5.62,0,0,1,67,15.3h9.48a5.62,5.62,0,0,1,5.62,5.61V66.09A5.62,5.62,0,0,1,76.44,71.7ZM64.35,54.06v12A2.61,2.61,0,0,0,67,68.7h9.48a2.62,2.62,0,0,0,2.62-2.61V20.91a2.62,2.62,0,0,0-2.62-2.61H67a2.61,2.61,0,0,0-2.61,2.61v12h2.59V54.06Z" fill="#fff"/><path d="M26.07,54.93A11.43,11.43,0,1,1,37.5,43.5,11.44,11.44,0,0,1,26.07,54.93Zm0-19.86A8.43,8.43,0,1,0,34.5,43.5,8.44,8.44,0,0,0,26.07,35.07Z" fill="#fff"/><path d="M55.36,54H44.2v-21H55.36ZM47.2,51h5.16v-15H47.2Z" fill="#fff"/><circle cx="13.57" cy="23.93" r="1.96" fill="#fff"/><circle cx="71.7" cy="23.93" r="1.96" fill="#fff"/><circle cx="13.57" cy="63.24" r="1.96" fill="#fff"/><circle cx="38.75" cy="23.93" r="1.96" fill="#fff"/><circle cx="38.75" cy="63.24" r="1.96" fill="#fff"/><circle cx="71.7" cy="63.24" r="1.96" fill="#fff"/></svg>