<svg id="Calque_1" data-name="Calque 1" xmlns="http://www.w3.org/2000/svg" viewBox="0 0 87 87"><path d="M43.5,4A39.5,39.5,0,1,1,4,43.5,39.55,39.55,0,0,1,43.5,4m0-3A42.5,42.5,0,1,0,86,43.5,42.5,42.5,0,0,0,43.5,1Z" fill="#fff"/><path d="M43.8,69.74h0A5.16,5.16,0,0,0,49,64.42l-.9-31.69a2.25,2.25,0,0,0-2.25-2.18h-4a2.24,2.24,0,0,0-2.24,2.18l-.91,31.69A5.16,5.16,0,0,0,43.8,69.74Z" fill="#fff"/><path d="M26.16,26.05A.88.88,0,0,1,25,24.77a17.69,17.69,0,0,1,14.47-7.51h7.05A1.72,1.72,0,0,1,48.24,19v.85L51,17.88a3.4,3.4,0,0,1,2-.62h3.46A1.72,1.72,0,0,1,58.16,19v7.62a1.72,1.72,0,0,1-1.71,1.71H53a3.39,3.39,0,0,1-2-.61l-2.8-2v.85a1.72,1.72,0,0,1-1.71,1.71H41.38a2.27,2.27,0,0,1-2.15-1.58,3.81,3.81,0,0,0-4-2.7H33.58A15.75,15.75,0,0,0,26.16,26.05Z" fill="#fff"/></svg>