<svg id="Calque_1" data-name="Calque 1" xmlns="http://www.w3.org/2000/svg" viewBox="0 0 87 87"><path d="M44.58,74.11V61.83h3.89V59.27H44.58V53.33l-.11,0-.54,0A4.93,4.93,0,0,1,42,53v6.3H27.53V44.78H40.15a.67.67,0,0,0,.06-.12l1.21-2.44H27.53V27.73H42V41l2.56-5.15V27.73H57a4.11,4.11,0,0,1,.91-2.55H44.58V12.89H59.07V24.15a4.27,4.27,0,0,1,2.21-.62h.35V12.89H73.91V25.18H69.59a4.11,4.11,0,0,1,.91,2.55h3.41v3.41h.49l2.07,1V10.34H10.14V76.66H49.72a6.54,6.54,0,0,1-1.13-2.55ZM42,12.89V25.18H27.53v-.84l1-.31c4.22-1.32,6.05-2.53,6.33-4.18s-1.3-2.87-2.56-3.79a6.66,6.66,0,0,1-1.33-1.12,6.73,6.73,0,0,0-1.18-2Zm-29.32,0H26a6.88,6.88,0,0,1,2.54,2.86,5.59,5.59,0,0,0,2.25,2.38,7,7,0,0,1,1.53,1.32c-.14.2-.87,1-4.55,2.13s-5.06,2-5.51,3.3a3.3,3.3,0,0,0,.8,3c.88,1.3,1.64,2.42-.34,4.88a4.1,4.1,0,0,1-3.44,1.89c-2.64-.11-5.43-3.24-6.54-4.78ZM25,74.11H12.7V61.83H25Zm0-14.84H12.7V44.78H25Zm0-17.05H12.7V33.77c1.6,1.6,3.89,3.31,6.42,3.43h.28a6.66,6.66,0,0,0,5.27-2.85l.31-.41ZM42,74.11H27.53V61.83H42Z" fill="#fff"/><path d="M73.21,76.66H55.07a3.71,3.71,0,0,1-3.65-3.84V55.11c0-10.1,6.33-12.92,6.6-13l.24-.11H70l.24.11c.27.11,6.6,2.93,6.6,13V72.82A3.71,3.71,0,0,1,73.21,76.66ZM58.82,44.53c-1,.52-4.84,3.12-4.84,10.58V72.82a1.19,1.19,0,0,0,1.09,1.29H73.21a1.19,1.19,0,0,0,1.09-1.29V55.11c0-7.45-3.9-10.06-4.84-10.58Z" fill="#fff"/><path d="M44.32,50.82a2.47,2.47,0,0,1-1.65-.67c-1.24-1.06-.4-3.16.22-4.33l5.25-10.6a3.24,3.24,0,0,1,2.75-1.52H61.32v5.17L52.5,40.23a1,1,0,0,0-.26,0,2.32,2.32,0,0,0-.34.45l-5.82,9.19a2.21,2.21,0,0,1-1.51.92Zm6-14.3-4.22,8.53,3.64-5.75a2.94,2.94,0,0,1,2.63-1.63l6.37-1v-.42H50.84A.6.6,0,0,0,50.34,36.52Z" fill="#fff"/><path d="M74.2,39.3H67V33.7H74.2L76.84,35v3Zm-4.61-2.56h4l.49-.24-.49-.24h-4Z" fill="#fff"/><rect x="62.43" y="26.75" width="3.43" height="9.51" fill="#fff"/><path d="M66.6,29.87H61.68a1.7,1.7,0,0,1-1.74-1.65v-.49a1.7,1.7,0,0,1,1.74-1.65H66.6a1.7,1.7,0,0,1,1.74,1.65v.49A1.7,1.7,0,0,1,66.6,29.87Z" fill="#fff"/><path d="M73.25,44.42H55l3.82-6.08V33.7H69.43v4.64Zm-13.6-2.55h9l-1.75-2.79V36.26H61.4v2.82Z" fill="#fff"/><path d="M73.25,44.42H55l3.82-6.08V33.7H69.43v4.64Zm-13.6-2.55h9l-1.75-2.79V36.26H61.4v2.82Z" fill="#fff"/></svg>