<svg id="Calque_1" data-name="Calque 1" xmlns="http://www.w3.org/2000/svg" viewBox="0 0 87 87"><path d="M47.79,62.77H39.21a.92.92,0,0,0-.92.92V64a.92.92,0,0,0,.92.92h8.58a.92.92,0,0,0,.92-.92v-.28a.92.92,0,0,0-.92-.92Z" fill="#fff"/><path d="M46.71,65.76H40.29a1,1,0,0,0-1,.92V67a1,1,0,0,0,1,.92h6.42a1,1,0,0,0,1-.92v-.28a1,1,0,0,0-1-.92Z" fill="#fff"/><path d="M45.38,68.76H41.62a1,1,0,0,0-1.1.92V70a1,1,0,0,0,1.1.92h3.76a1,1,0,0,0,1.1-.92v-.28a1,1,0,0,0-1.1-.92Z" fill="#fff"/><path d="M43.5,37.86A9.33,9.33,0,0,1,51,52.69l0,0,0,.05a25.1,25.1,0,0,0-3.52,7.39H39.54A25.1,25.1,0,0,0,36,52.78l0-.05,0,0A9.33,9.33,0,0,1,43.5,37.86m0-1.74a11.06,11.06,0,0,0-8.94,17.59A22.13,22.13,0,0,1,38,61.16a.91.91,0,0,0,.9.75h9.22a.91.91,0,0,0,.9-.75,22.13,22.13,0,0,1,3.43-7.45A11.06,11.06,0,0,0,43.5,36.12Z" fill="#fff"/><path d="M43.5,2,1,43.3v6.28H9.48V85h68V49.58H86V43.3ZM71.44,79.91H15.56V44.11L43.54,16l27.9,28.11Z" fill="#fff"/></svg>