<svg id="Calque_1" data-name="Calque 1" xmlns="http://www.w3.org/2000/svg" viewBox="0 0 87 87"><polygon points="86 83.91 83.1 83.91 83.1 32.05 42.95 6.54 3.9 32.04 3.9 83.91 1 83.91 1 30.47 42.92 3.09 86 30.46 86 83.91" fill="#fff"/><path d="M51.76,39.5V80.91H35.24V39.5H51.76m3-3H32.24V83.91H54.76V36.5Z" fill="#fff"/><polygon points="86 81.01 1 81.01 1 83.91 86 83.91 86 81.01 86 81.01" fill="#fff"/><circle cx="8.97" cy="38.32" r="1.82" fill="#fff"/><circle cx="15.19" cy="38.32" r="1.82" fill="#fff"/><circle cx="21.4" cy="38.32" r="1.82" fill="#fff"/><circle cx="27.62" cy="38.32" r="1.82" fill="#fff"/><circle cx="8.97" cy="43.64" r="1.82" fill="#fff"/><circle cx="15.19" cy="43.64" r="1.82" fill="#fff"/><circle cx="21.4" cy="43.64" r="1.82" fill="#fff"/><circle cx="27.62" cy="43.64" r="1.82" fill="#fff"/><circle cx="8.97" cy="48.97" r="1.82" fill="#fff"/><circle cx="15.19" cy="48.97" r="1.82" fill="#fff"/><circle cx="21.4" cy="48.97" r="1.82" fill="#fff"/><circle cx="27.62" cy="48.97" r="1.82" fill="#fff"/><circle cx="8.97" cy="54.29" r="1.82" fill="#fff"/><circle cx="15.19" cy="54.29" r="1.82" fill="#fff"/><circle cx="21.4" cy="54.29" r="1.82" fill="#fff"/><circle cx="27.62" cy="54.29" r="1.82" fill="#fff"/><circle cx="8.97" cy="59.61" r="1.82" fill="#fff"/><circle cx="15.19" cy="59.61" r="1.82" fill="#fff"/><circle cx="21.4" cy="59.61" r="1.82" fill="#fff"/><circle cx="27.62" cy="59.61" r="1.82" fill="#fff"/><circle cx="8.97" cy="64.94" r="1.82" fill="#fff"/><circle cx="15.19" cy="64.94" r="1.82" fill="#fff"/><circle cx="21.4" cy="64.94" r="1.82" fill="#fff"/><circle cx="27.62" cy="64.94" r="1.82" fill="#fff"/><circle cx="8.97" cy="70.26" r="1.82" fill="#fff"/><circle cx="15.19" cy="70.26" r="1.82" fill="#fff"/><circle cx="21.4" cy="70.26" r="1.82" fill="#fff"/><circle cx="27.62" cy="70.26" r="1.82" fill="#fff"/><circle cx="8.97" cy="75.59" r="1.82" fill="#fff"/><circle cx="15.19" cy="75.59" r="1.82" fill="#fff"/><circle cx="21.4" cy="75.59" r="1.82" fill="#fff"/><circle cx="27.62" cy="75.59" r="1.82" fill="#fff"/><circle cx="59.92" cy="38.32" r="1.82" fill="#fff"/><circle cx="66.14" cy="38.32" r="1.82" fill="#fff"/><circle cx="72.35" cy="38.32" r="1.82" fill="#fff"/><circle cx="78.56" cy="38.32" r="1.82" fill="#fff"/><circle cx="59.92" cy="43.64" r="1.82" fill="#fff"/><circle cx="66.14" cy="43.64" r="1.82" fill="#fff"/><circle cx="72.35" cy="43.64" r="1.82" fill="#fff"/><circle cx="78.56" cy="43.64" r="1.82" fill="#fff"/><circle cx="59.92" cy="48.97" r="1.82" fill="#fff"/><circle cx="66.14" cy="48.97" r="1.82" fill="#fff"/><circle cx="72.35" cy="48.97" r="1.82" fill="#fff"/><circle cx="78.56" cy="48.97" r="1.82" fill="#fff"/><circle cx="59.92" cy="54.29" r="1.82" fill="#fff"/><circle cx="66.14" cy="54.29" r="1.82" fill="#fff"/><circle cx="72.35" cy="54.29" r="1.82" fill="#fff"/><circle cx="78.56" cy="54.29" r="1.82" fill="#fff"/><circle cx="59.92" cy="59.61" r="1.82" fill="#fff"/><circle cx="66.14" cy="59.61" r="1.82" fill="#fff"/><circle cx="72.35" cy="59.61" r="1.82" fill="#fff"/><circle cx="78.56" cy="59.61" r="1.82" fill="#fff"/><circle cx="59.92" cy="64.94" r="1.82" fill="#fff"/><circle cx="66.14" cy="64.94" r="1.82" fill="#fff"/><circle cx="72.35" cy="64.94" r="1.82" fill="#fff"/><circle cx="78.56" cy="64.94" r="1.82" fill="#fff"/><circle cx="59.92" cy="70.26" r="1.82" fill="#fff"/><circle cx="66.14" cy="70.26" r="1.82" fill="#fff"/><circle cx="72.35" cy="70.26" r="1.82" fill="#fff"/><circle cx="78.56" cy="70.26" r="1.82" fill="#fff"/><circle cx="59.92" cy="75.59" r="1.82" fill="#fff"/><circle cx="66.14" cy="75.59" r="1.82" fill="#fff"/><circle cx="72.35" cy="75.59" r="1.82" fill="#fff"/><circle cx="78.56" cy="75.59" r="1.82" fill="#fff"/></svg>