<svg id="Calque_1" data-name="Calque 1" xmlns="http://www.w3.org/2000/svg" viewBox="0 0 87 87"><path d="M79.9,38.38l5.71-8.31a2.26,2.26,0,0,0-3.72-2.55l-3.43,5A36.75,36.75,0,0,0,7.35,36.36a2.25,2.25,0,1,0,4.42.87,32.25,32.25,0,0,1,62.42-3.31L68.7,32.65a2.25,2.25,0,1,0-1,4.39l9.83,2.27.08,0H78a2.19,2.19,0,0,0,.77-.13h0l.09,0h0l.09,0,0,0,.05,0,.1-.06,0,0,.06,0,0,0,.07,0,.06-.05,0,0,.06,0,0,0,.08-.09h0A1.3,1.3,0,0,0,79.9,38.38Z" fill="#fff"/><path d="M77.67,48A2.26,2.26,0,0,0,75,49.77,32.24,32.24,0,0,1,12.59,53l5.71,1.32a2.21,2.21,0,0,0,.51,0,2.25,2.25,0,0,0,.5-4.44L9.52,47.7h0l-.11,0h-.6a2,2,0,0,0-.42.07h0l-.09,0h0l-.06,0-.06,0,0,0-.08,0H8l-.09,0h0a2.4,2.4,0,0,0-.26.18h0l-.07.06h0l0,.06,0,0,0,0,0,0,0,0-.06,0v0l-.06.08h0l-.06.08h0l0,0v0L1.39,56.93A2.25,2.25,0,0,0,2,60.06a2.22,2.22,0,0,0,1.27.4,2.24,2.24,0,0,0,1.86-1L8.4,54.69a36.74,36.74,0,0,0,71-4A2.25,2.25,0,0,0,77.67,48Z" fill="#fff"/><path d="M29.52,21.77V65.23h28V21.77Zm26,41.54H31.44v-3.1H55.56Zm0-4.88H31.44V23.69H43.07v1.69h1.59V23.69h10.9Z" fill="#fff"/><path d="M41.77,29.87a.3.3,0,0,0-.09-.21.31.31,0,0,0-.42,0,.3.3,0,0,0-.09.21.31.31,0,0,0,.09.22.32.32,0,0,0,.21.08.3.3,0,0,0,.21-.08A.31.31,0,0,0,41.77,29.87Z" fill="#fff"/><path d="M41.22,30.94a.3.3,0,0,0-.14.58h.07a.29.29,0,0,0,.29-.23A.3.3,0,0,0,41.22,30.94Z" fill="#fff"/><path d="M40.9,32.3a.3.3,0,0,0-.14.58h.07a.3.3,0,0,0,.29-.23A.29.29,0,0,0,40.9,32.3Z" fill="#fff"/><path d="M40.26,35a.3.3,0,1,0-.13.58h.06a.31.31,0,0,0,.3-.23A.31.31,0,0,0,40.26,35Z" fill="#fff"/><path d="M40.58,33.65a.31.31,0,0,0-.36.23.3.3,0,0,0,.22.36h.07A.29.29,0,0,0,40.8,34,.3.3,0,0,0,40.58,33.65Z" fill="#fff"/><path d="M39.66,36.45a.3.3,0,0,0-.08.21.32.32,0,0,0,.08.21.3.3,0,0,0,.21.09.31.31,0,0,0,.22-.09.32.32,0,0,0,.08-.21.3.3,0,0,0-.51-.21Z" fill="#fff"/><path d="M42.46,29.66a.3.3,0,0,0-.09.21.31.31,0,0,0,.09.22.3.3,0,0,0,.21.08.32.32,0,0,0,.21-.08.31.31,0,0,0,.09-.22.3.3,0,0,0-.09-.21A.31.31,0,0,0,42.46,29.66Z" fill="#fff"/><path d="M42.54,30.93a.3.3,0,0,0-.07.6h0a.3.3,0,0,0,.3-.26A.31.31,0,0,0,42.54,30.93Z" fill="#fff"/><path d="M42.22,33.65a.29.29,0,0,0-.33.26.3.3,0,0,0,.26.33h0a.3.3,0,0,0,.3-.26A.3.3,0,0,0,42.22,33.65Z" fill="#fff"/><path d="M42.38,32.29a.3.3,0,0,0-.33.26.29.29,0,0,0,.26.33h0a.3.3,0,0,0,0-.6Z" fill="#fff"/><path d="M42.06,35a.31.31,0,0,0-.33.27.3.3,0,0,0,.26.33h0a.3.3,0,0,0,.3-.26A.3.3,0,0,0,42.06,35Z" fill="#fff"/><path d="M41.66,36.45a.27.27,0,0,0-.09.21.29.29,0,0,0,.09.21.29.29,0,0,0,.42,0,.29.29,0,0,0,.09-.21.27.27,0,0,0-.09-.21A.29.29,0,0,0,41.66,36.45Z" fill="#fff"/><path d="M46.56,29.87a.3.3,0,0,0-.09-.21.31.31,0,0,0-.42,0,.3.3,0,0,0-.09.21.31.31,0,0,0,.09.22.32.32,0,0,0,.42,0A.31.31,0,0,0,46.56,29.87Z" fill="#fff"/><path d="M46.87,31.16a.3.3,0,0,0-.58.14.29.29,0,0,0,.29.23h.07A.3.3,0,0,0,46.87,31.16Z" fill="#fff"/><path d="M46.93,34a.29.29,0,0,0,.29.23h.07a.3.3,0,0,0,.22-.36.3.3,0,0,0-.36-.23A.3.3,0,0,0,46.93,34Z" fill="#fff"/><path d="M46.83,32.3a.29.29,0,0,0-.22.36.3.3,0,0,0,.29.23H47a.3.3,0,1,0-.14-.58Z" fill="#fff"/><path d="M47.25,35.37a.29.29,0,0,0,.29.23h.07a.3.3,0,1,0-.36-.22Z" fill="#fff"/><path d="M47.56,36.66a.32.32,0,0,0,.08.21.31.31,0,0,0,.22.09.29.29,0,0,0,.21-.09.33.33,0,0,0,.09-.21.31.31,0,0,0-.09-.21.3.3,0,0,0-.51.21Z" fill="#fff"/><path d="M45.27,30.09a.31.31,0,0,0,.09-.22.3.3,0,0,0-.09-.21.31.31,0,0,0-.42,0,.3.3,0,0,0,0,.43.32.32,0,0,0,.21.08A.3.3,0,0,0,45.27,30.09Z" fill="#fff"/><path d="M45.58,34.24a.3.3,0,0,0,.26-.33.29.29,0,0,0-.33-.26.3.3,0,0,0,0,.59Z" fill="#fff"/><path d="M45.74,35.6a.3.3,0,0,0,.26-.33.31.31,0,0,0-.33-.27.3.3,0,0,0-.27.34.3.3,0,0,0,.3.26Z" fill="#fff"/><path d="M45.42,32.88a.29.29,0,0,0,.26-.33.3.3,0,0,0-.33-.26.31.31,0,0,0-.27.33.3.3,0,0,0,.3.27Z" fill="#fff"/><path d="M45.26,31.53a.3.3,0,0,0-.07-.6.3.3,0,0,0-.26.34.28.28,0,0,0,.29.26Z" fill="#fff"/><path d="M45.65,36.45a.27.27,0,0,0-.09.21.31.31,0,0,0,.3.3.27.27,0,0,0,.21-.09.29.29,0,0,0,.09-.21.27.27,0,0,0-.09-.21A.29.29,0,0,0,45.65,36.45Z" fill="#fff"/><path d="M43.65,29.66a.34.34,0,0,0-.08.21.28.28,0,0,0,.3.3.34.34,0,0,0,.21-.08.35.35,0,0,0,.08-.22.34.34,0,0,0-.08-.21A.32.32,0,0,0,43.65,29.66Z" fill="#fff"/><path d="M43.87,35a.3.3,0,0,0-.3.3.3.3,0,1,0,.59,0A.3.3,0,0,0,43.87,35Z" fill="#fff"/><path d="M43.87,32.29a.29.29,0,0,0-.3.3.3.3,0,1,0,.59,0A.29.29,0,0,0,43.87,32.29Z" fill="#fff"/><path d="M43.87,30.93a.3.3,0,0,0-.3.3.3.3,0,1,0,.59,0A.3.3,0,0,0,43.87,30.93Z" fill="#fff"/><path d="M43.87,33.65a.3.3,0,1,0,.29.29A.29.29,0,0,0,43.87,33.65Z" fill="#fff"/><path d="M43.65,36.45a.3.3,0,0,0-.08.21.32.32,0,0,0,.08.21.31.31,0,0,0,.22.09.3.3,0,0,0,.21-.09.32.32,0,0,0,.08-.21.3.3,0,0,0-.51-.21Z" fill="#fff"/><path d="M40.67,28.58a.31.31,0,0,0,.3.3h5.79a.31.31,0,0,0,.3-.3v-.5H40.67Z" fill="#fff"/><polygon points="44.66 25.58 43.07 25.58 40.77 27.88 46.96 27.88 44.66 25.58" fill="#fff"/><path d="M34.93,43.5a1.74,1.74,0,1,0,1.74,1.74A1.74,1.74,0,0,0,34.93,43.5Z" fill="#fff"/></svg>