<svg id="Calque_1" data-name="Calque 1" xmlns="http://www.w3.org/2000/svg" viewBox="0 0 87 87"><path d="M10.24,8.64A1.53,1.53,0,0,0,9.4,10V77a1.53,1.53,0,0,0,.84,1.38,1.49,1.49,0,0,0,.71.17,1.56,1.56,0,0,0,.9-.29l3-2.16V10.92l-3-2.16A1.53,1.53,0,0,0,10.24,8.64Z" fill="#fff"/><polygon points="15.88 75.33 20.32 72.13 20.32 14.87 15.88 11.67 15.88 75.33" fill="#fff"/><polygon points="66.66 71.7 71.1 74.91 71.1 12.09 66.66 15.3 66.66 71.7" fill="#fff"/><path d="M25.76,18.79l-4.4-3.17V71.38l4.4-3.17H61.81L65.62,71V16l-3.81,2.75Zm1,3.1H41.94V42H26.81Zm0,43.22V45.05H41.94V65s0,.06,0,.09Zm33.58,0H45s0-.06,0-.09v-20H60.39Zm0-23.16H45V21.89H60.39Z" fill="#fff"/><path d="M77.33,8.64a1.53,1.53,0,0,0-1.61.12l-3.59,2.59v64.3l3.59,2.59a1.59,1.59,0,0,0,.91.29,1.45,1.45,0,0,0,.7-.17A1.53,1.53,0,0,0,78.17,77V10A1.53,1.53,0,0,0,77.33,8.64Z" fill="#fff"/></svg>