<svg id="Calque_1" data-name="Calque 1" xmlns="http://www.w3.org/2000/svg" viewBox="0 0 87 87"><path d="M76.89,8.5H10.11A1.61,1.61,0,0,0,8.5,10.11V76.89a1.61,1.61,0,0,0,1.61,1.61H76.89a1.61,1.61,0,0,0,1.61-1.61V10.11A1.61,1.61,0,0,0,76.89,8.5ZM14.63,75.28,36.7,53.22l11.08,11-11,11ZM46.1,11.72,23.44,34.38l-11-11.05L24,11.72ZM39.23,23.54,50.29,12.48,74.62,36.81,63.56,47.87Zm-2.52,2.2L47.77,36.8,23.44,61.13,12.38,50.07Zm2.52,24.55L50.29,39.23,74.62,63.56,63.56,74.62ZM65.79,23.43l9.49-9.5v19Zm-2.25-2.31-9.4-9.4H73ZM21.2,36.7l-9.48,9.48v-19Zm.37,27.1-9.85,9.85V54Zm28.92,2.3,9.18,9.18H41.31Zm15.3-15.92,9.49-9.49v19ZM19.46,11.72l-7.74,7.73V11.72Zm48,63.56,7.84-7.84v7.84Z" fill="#fff"/></svg>