<svg id="Calque_1" data-name="Calque 1" xmlns="http://www.w3.org/2000/svg" viewBox="0 0 87 87"><g id="NewGroupe4"><g id="NewGroup65-1"><path d="M11.91,28.37a.69.69,0,0,1,.69-.69H74.4a.69.69,0,0,1,.69.69V58.64a.69.69,0,0,1-.69.69H12.6a.69.69,0,0,1-.69-.69V28.37ZM29,20.57a.7.7,0,0,1,.66-.47H57.37a.7.7,0,0,1,.66.47l1.43,4.35H27.54L29,20.57ZM58,66.43a.7.7,0,0,1-.66.47H29.63a.7.7,0,0,1-.66-.47l-1.42-4.34h31.9L58,66.43ZM74.4,24.92H62.86a.68.68,0,0,1-.65-.47l-1.56-4.74a3.44,3.44,0,0,0-3.28-2.37H29.63a3.44,3.44,0,0,0-3.28,2.37l-1.56,4.74a.68.68,0,0,1-.65.47H12.6a3.46,3.46,0,0,0-3.45,3.45V58.64a3.46,3.46,0,0,0,3.45,3.45H24.14a.7.7,0,0,1,.66.47l1.55,4.73a3.44,3.44,0,0,0,3.28,2.37H57.37a3.44,3.44,0,0,0,3.28-2.37l1.55-4.73a.7.7,0,0,1,.66-.47H74.4a3.46,3.46,0,0,0,3.45-3.45V28.37a3.46,3.46,0,0,0-3.45-3.45Z" fill="#fff"/><path d="M43.5,62.28a1.9,1.9,0,1,0,1.9,1.89,1.9,1.9,0,0,0-1.9-1.89Z" fill="#fff"/><path d="M39.86,44.89h7.28v5.5a.81.81,0,0,1-.81.81H40.67a.81.81,0,0,1-.81-.81v-5.5Zm7.28-2.76H39.86V36.62a.81.81,0,0,1,.81-.81h5.66a.81.81,0,0,1,.81.81v5.51ZM40.67,54h5.66a3.57,3.57,0,0,0,3.57-3.57V36.62a3.57,3.57,0,0,0-3.57-3.57H40.67a3.57,3.57,0,0,0-3.57,3.57V50.39A3.57,3.57,0,0,0,40.67,54Z" fill="#fff"/><path d="M33.11,62.28A1.9,1.9,0,1,0,35,64.17a1.89,1.89,0,0,0-1.9-1.89Z" fill="#fff"/><path d="M53.89,62.28a1.9,1.9,0,1,0,1.89,1.89,1.9,1.9,0,0,0-1.89-1.89Z" fill="#fff"/><path d="M53.88,24.76a1.9,1.9,0,1,0-1.9-1.9,1.9,1.9,0,0,0,1.9,1.9Z" fill="#fff"/><path d="M43.49,24.76a1.9,1.9,0,1,0-1.89-1.9,1.9,1.9,0,0,0,1.89,1.9Z" fill="#fff"/><path d="M21.14,44.89h7.29v5.5a.81.81,0,0,1-.81.81H22a.81.81,0,0,1-.81-.81v-5.5Zm7.29-2.76H21.14V36.62a.81.81,0,0,1,.81-.81h5.67a.81.81,0,0,1,.81.81v5.51ZM22,54h5.67a3.57,3.57,0,0,0,3.57-3.57V36.62a3.57,3.57,0,0,0-3.57-3.57H22a3.57,3.57,0,0,0-3.57,3.57V50.39A3.57,3.57,0,0,0,22,54Z" fill="#fff"/><path d="M33.1,24.76a1.9,1.9,0,1,0-1.89-1.9,1.9,1.9,0,0,0,1.89,1.9Z" fill="#fff"/><path d="M58.57,44.89h7.29v5.5a.81.81,0,0,1-.81.81H59.38a.81.81,0,0,1-.81-.81v-5.5Zm7.29-2.76H58.57V36.62a.81.81,0,0,1,.81-.81h5.67a.81.81,0,0,1,.81.81v5.51ZM59.38,54h5.67a3.57,3.57,0,0,0,3.57-3.57V36.62a3.57,3.57,0,0,0-3.57-3.57H59.38a3.57,3.57,0,0,0-3.57,3.57V50.39A3.57,3.57,0,0,0,59.38,54Z" fill="#fff"/></g></g></svg>