<svg id="Calque_1" data-name="Calque 1" xmlns="http://www.w3.org/2000/svg" viewBox="0 0 87 87"><path d="M13.31,81.59H46.55V5.41H13.31ZM16,8.1H43.86V78.9H16Z" fill="#fff"/><path d="M18.1,77.06H41.76V9.94H18.1Zm5.11-36.13a2.57,2.57,0,1,1-2.57,2.57A2.57,2.57,0,0,1,23.21,40.93Z" fill="#fff"/><rect x="51.79" y="48.99" width="6.66" height="10.43" fill="#fff"/><rect x="51.79" y="5.41" width="6.66" height="10.43" fill="#fff"/><rect x="51.79" y="19.4" width="6.66" height="26.03" fill="#fff"/><rect x="59.41" y="48.99" width="6.66" height="10.43" fill="#fff"/><rect x="59.41" y="19.4" width="6.66" height="26.03" fill="#fff"/><rect x="59.41" y="5.41" width="6.66" height="10.43" fill="#fff"/><polygon points="69.85 19.4 67.02 19.4 67.02 45.43 69.85 45.43 69.85 48.99 67.02 48.99 67.02 59.42 73.69 59.42 73.69 5.41 67.02 5.41 67.02 15.84 69.85 15.84 69.85 19.4" fill="#fff"/></svg>