<svg id="Calque_1" data-name="Calque 1" xmlns="http://www.w3.org/2000/svg" viewBox="0 0 87 87"><path d="M57.6,42.64l-4.33,5.84v-26a2.68,2.68,0,0,0-2.68-2.67h0a2.68,2.68,0,0,0-2.67,2.67V38.85c-.33-.09-.67-.16-1-.24V19a2.68,2.68,0,0,0-2.67-2.67h0A2.68,2.68,0,0,0,41.54,19V38.07h-1V21.21a2.67,2.67,0,0,0-2.67-2.68h0a2.67,2.67,0,0,0-2.67,2.68v17.4c-.36.08-.7.15-1,.24V28.14a2.68,2.68,0,0,0-2.67-2.68h0a2.68,2.68,0,0,0-2.67,2.68V39.46h0v6.78A57.33,57.33,0,0,0,29.32,54,10.74,10.74,0,0,0,40,63.26h6A10.77,10.77,0,0,0,55.24,58L64.77,42.1a1,1,0,0,0-.29-1.28,4.67,4.67,0,0,0-6.34,1.1Z" fill="#fff"/><path d="M43.48,4.47a53.89,53.89,0,0,0,8.6,3.7A76,76,0,0,0,75.16,12V31.67a59.55,59.55,0,0,1-5,24.7,52.33,52.33,0,0,1-11,15.76A50.79,50.79,0,0,1,43.5,82.79,50.79,50.79,0,0,1,27.88,72.13a52.33,52.33,0,0,1-11-15.76,59.55,59.55,0,0,1-5-24.7V11.48a80.89,80.89,0,0,0,23-3.56,56.7,56.7,0,0,0,8.67-3.45M43.54,1l-1,.57c-.12.07-12.29,6.92-31.77,6.92H8.84V31.67A62.59,62.59,0,0,0,14.12,57.6,55.27,55.27,0,0,0,25.78,74.27a52.92,52.92,0,0,0,17,11.48l.67.25.67-.25a52.92,52.92,0,0,0,17-11.48A55.27,55.27,0,0,0,72.88,57.6a62.59,62.59,0,0,0,5.28-25.93V9H76.23A72.68,72.68,0,0,1,53,5.32,45.85,45.85,0,0,1,44.51,1.6l-1-.6Z" fill="#fff"/></svg>