<svg id="Calque_1" data-name="Calque 1" xmlns="http://www.w3.org/2000/svg" viewBox="0 0 87 87"><path d="M79.9,38.38l5.71-8.31a2.26,2.26,0,0,0-3.72-2.55l-3.43,5A36.75,36.75,0,0,0,7.35,36.36a2.25,2.25,0,1,0,4.42.87,32.25,32.25,0,0,1,62.42-3.31L68.7,32.65a2.25,2.25,0,1,0-1,4.39l9.83,2.27.08,0H78a2.19,2.19,0,0,0,.77-.13h0l.09,0h0l.09,0,0,0,.05,0,.1-.06,0,0,.06,0,0,0,.07,0,.06-.05,0,0,.06,0,0,0,.08-.09h0A1.3,1.3,0,0,0,79.9,38.38Z" fill="#fff"/><path d="M77.67,48A2.26,2.26,0,0,0,75,49.77,32.24,32.24,0,0,1,12.59,53l5.71,1.32a2.21,2.21,0,0,0,.51,0,2.25,2.25,0,0,0,.5-4.44L9.52,47.7h0l-.11,0h-.6a2,2,0,0,0-.42.07h0l-.09,0h0l-.06,0-.06,0,0,0-.08,0H8l-.09,0h0a2.4,2.4,0,0,0-.26.18h0l-.07.06h0l0,.06,0,0,0,0,0,0,0,0-.06,0v0l-.06.08h0l-.06.08h0l0,0v0L1.39,56.93A2.25,2.25,0,0,0,2,60.06a2.22,2.22,0,0,0,1.27.4,2.24,2.24,0,0,0,1.86-1L8.4,54.69a36.74,36.74,0,0,0,71-4A2.25,2.25,0,0,0,77.67,48Z" fill="#fff"/><path d="M56.45,22.77v.87H30.55v-.87h25.9m0,10v.88h-4V32.8h4m-21.75,0a6.41,6.41,0,0,0-.11.88h-4V32.8H34.7m21.75,10v.88h-4v-.88h4m-21.87,0v.88h-4v-.88h4m21.87,10v.87H30.55v-.87h4v.56H52.42v-.56h4m0,10v.87H30.55V62.9h25.9m2.09-44.31H56.45v2.09H30.55V18.59H28.46V68.41h2.09V65.86h25.9v2.55h2.09V18.59Zm-28,12.12v-5h25.9v5H53.84V29.29a1.43,1.43,0,0,0-1.42-1.42H40.7a6.13,6.13,0,0,0-5.16,2.84Zm6.12,14.4V34a4,4,0,0,1,4-4h9.63V45.11Zm15.75-4.37v-5h4v5Zm-21.87,0v-5h4v5Zm21.87,10v-5h4v5Zm-21.87,0v-5h4v5Zm6.12.56V47.2H50.33v4.14Zm-6.12,9.47v-5h25.9v5Z" fill="#fff"/></svg>