<svg id="Calque_1" data-name="Calque 1" xmlns="http://www.w3.org/2000/svg" viewBox="0 0 87 87"><path d="M79.9,38.38l5.71-8.31a2.26,2.26,0,0,0-3.72-2.55l-3.43,5A36.75,36.75,0,0,0,7.35,36.36a2.25,2.25,0,1,0,4.42.87,32.25,32.25,0,0,1,62.42-3.31L68.7,32.65a2.25,2.25,0,1,0-1,4.39l9.83,2.27.08,0H78a2.19,2.19,0,0,0,.77-.13h0l.09,0h0l.09,0,0,0,.05,0,.1-.06,0,0,.06,0,0,0,.07,0,.06-.05,0,0,.06,0,0,0,.08-.09h0A1.3,1.3,0,0,0,79.9,38.38Z" fill="#fff"/><path d="M77.67,48A2.26,2.26,0,0,0,75,49.77,32.24,32.24,0,0,1,12.59,53l5.71,1.32a2.21,2.21,0,0,0,.51,0,2.25,2.25,0,0,0,.5-4.44L9.52,47.7h0l-.11,0h-.6a2,2,0,0,0-.42.07h0l-.09,0h0l-.06,0-.06,0,0,0-.08,0H8l-.09,0h0a2.4,2.4,0,0,0-.26.18h0l-.07.06h0l0,.06,0,0,0,0,0,0,0,0-.06,0v0l-.06.08h0l-.06.08h0l0,0v0L1.39,56.93A2.25,2.25,0,0,0,2,60.06a2.22,2.22,0,0,0,1.27.4,2.24,2.24,0,0,0,1.86-1L8.4,54.69a36.74,36.74,0,0,0,71-4A2.25,2.25,0,0,0,77.67,48Z" fill="#fff"/><path d="M53.65,53.13H33.35A1.15,1.15,0,0,1,32.2,52V35a1.15,1.15,0,0,1,1.15-1.14h20.3A1.15,1.15,0,0,1,54.8,35V52A1.15,1.15,0,0,1,53.65,53.13Z" fill="#fff"/><path d="M61.64,58.86a1.16,1.16,0,0,1-.67-.21l-8-5.73a1.14,1.14,0,0,1-.47-.93V35a1.14,1.14,0,0,1,.47-.93l8-5.73a1.15,1.15,0,0,1,1.81.93V57.72a1.14,1.14,0,0,1-.62,1A1.11,1.11,0,0,1,61.64,58.86ZM54.8,51.4l5.69,4.08v-24L54.8,35.6Z" fill="#fff"/><path d="M25.36,58.86a1.11,1.11,0,0,1-.52-.13,1.14,1.14,0,0,1-.62-1V29.28A1.15,1.15,0,0,1,26,28.35l8,5.73a1.14,1.14,0,0,1,.47.93V52a1.14,1.14,0,0,1-.47.93l-8,5.73A1.16,1.16,0,0,1,25.36,58.86Zm1.15-27.34v24L32.2,51.4V35.6Z" fill="#fff"/><path d="M61.64,58.86H25.36a1.14,1.14,0,0,1-.66-2.08l8-5.72a1.14,1.14,0,0,1,.67-.22h20.3a1.17,1.17,0,0,1,.67.22l8,5.72a1.14,1.14,0,0,1-.66,2.08ZM28.93,56.57H58.07l-4.79-3.44H33.72Z" fill="#fff"/></svg>