<svg id="Calque_1" data-name="Calque 1" xmlns="http://www.w3.org/2000/svg" viewBox="0 0 87 87"><path d="M78.26,78.19H8.74a1.5,1.5,0,0,1-1.5-1.5V10.31a1.5,1.5,0,0,1,1.5-1.5H78.26a1.5,1.5,0,0,1,1.5,1.5V76.69A1.5,1.5,0,0,1,78.26,78.19Zm-68-3H76.76V11.81H10.24Z" fill="#fff"/><path d="M48.07,78.19a1.5,1.5,0,0,1-1.5-1.5V10.31a1.5,1.5,0,0,1,3,0V76.69A1.51,1.51,0,0,1,48.07,78.19Z" fill="#fff"/><path d="M13.31,15.09V71.91H43.5V15.09Zm4,53.82a1,1,0,1,1,1-1A1,1,0,0,1,17.3,68.91ZM17.3,44a1,1,0,1,1,1-1A1,1,0,0,1,17.3,44Zm0-23.92a1,1,0,1,1,1-1A1,1,0,0,1,17.3,20.07ZM39.51,68.91a1,1,0,1,1,1-1A1,1,0,0,1,39.51,68.91Zm0-24.92a1,1,0,1,1,1-1A1,1,0,0,1,39.51,44Zm0-23.92a1,1,0,1,1,1-1A1,1,0,0,1,39.51,20.07Z" fill="#fff"/></svg>