<svg id="Calque_1" data-name="Calque 1" xmlns="http://www.w3.org/2000/svg" viewBox="0 0 87 87"><path d="M55,71.64H11.26a1.5,1.5,0,0,1-1.5-1.5V16.86a1.5,1.5,0,0,1,1.5-1.5H55a1.5,1.5,0,0,1,1.5,1.5V70.14A1.5,1.5,0,0,1,55,71.64Zm-42.28-3H53.54V18.36H12.76Z" fill="#fff"/><path d="M75.74,81.64a1.51,1.51,0,0,1-.65-.15l-20.7-10a1.5,1.5,0,0,1-.85-1.35V16.86a1.5,1.5,0,0,1,.85-1.35l20.7-10a1.53,1.53,0,0,1,1.45.08,1.48,1.48,0,0,1,.7,1.27V80.14a1.48,1.48,0,0,1-.7,1.27A1.52,1.52,0,0,1,75.74,81.64ZM56.54,69.2l17.7,8.55V9.25L56.54,17.8Z" fill="#fff"/><circle cx="70.24" cy="44.76" r="1.94" fill="#fff"/><path d="M55,33.43H11.26a1.5,1.5,0,0,1-1-2.62l9.42-8.29a1.5,1.5,0,0,1,1-.37H45.62a1.5,1.5,0,0,1,1,.37L56,30.81a1.5,1.5,0,0,1-1,2.62Zm-39.8-3H51.06l-6-5.28H21.25Z" fill="#fff"/><path d="M55,48.4H11.26a1.5,1.5,0,0,1-1-2.62l9.42-8.29a1.5,1.5,0,0,1,1-.37H45.62a1.5,1.5,0,0,1,1,.37L56,45.78a1.5,1.5,0,0,1-1,2.62Zm-39.8-3H51.06l-6-5.28H21.25Z" fill="#fff"/><path d="M55,63.38H11.26a1.5,1.5,0,0,1-1-2.63l9.42-8.29a1.5,1.5,0,0,1,1-.37H45.62a1.5,1.5,0,0,1,1,.37L56,60.75a1.5,1.5,0,0,1-1,2.63Zm-39.8-3H51.06l-6-5.29H21.25Z" fill="#fff"/></svg>