<svg id="Calque_1" data-name="Calque 1" xmlns="http://www.w3.org/2000/svg" viewBox="0 0 87 87"><path d="M74.75,10.75H12.25a1.5,1.5,0,0,0-1.5,1.5v62.5a1.5,1.5,0,0,0,1.5,1.5h62.5a1.5,1.5,0,0,0,1.5-1.5V12.25A1.5,1.5,0,0,0,74.75,10.75Zm-1.5,52.82a4.15,4.15,0,0,1-.27-.41c-1.39-2.55-.14-5.61.27-6.62h0Zm-1.9-13.43-.08.23A43.28,43.28,0,0,0,70,54.63a20.86,20.86,0,0,0-.15,8.18,44.92,44.92,0,0,0,1.33,5l1.68,5.41H70l-1.42-4.6a43.89,43.89,0,0,1-1.42-5.36,23.75,23.75,0,0,1,.17-9.24,44.22,44.22,0,0,1,1.33-4.53l.07-.24c1.58-4.76,3.07-9.59,4.48-14.44v9.37C72.63,46.2,72,48.18,71.35,50.14ZM64.47,71.23c-.46-1.66-.9-3.22-1.37-4.47a5.27,5.27,0,0,0-1-2,7.6,7.6,0,0,0-.1,3.07c.09.84.18,1.48.25,2a13.39,13.39,0,0,1,.14,3.37H59.64a10.59,10.59,0,0,0-.11-3c-.07-.54-.16-1.2-.25-2.06-.33-3,.09-4.87,1.23-5.71a2.49,2.49,0,0,1,2.62-.17c1.8.79,2.68,3.63,3.95,8.2.26.93.52,1.86.8,2.75H65.05C64.85,72.58,64.66,71.91,64.47,71.23Zm-29-2.68c-.09-.47-.22-.93-.35-1.42-.18-.66-.36-1.34-.48-2a21.47,21.47,0,0,1-.09-4.73c0-.48.06-1,.08-1.46a14.34,14.34,0,0,0-.13-2.65c0,.13,0,.26,0,.39-.05.41-.1.84-.16,1.26a48.09,48.09,0,0,1-1.21,5.61c-.27,1.08-.56,2.19-.79,3.29a18.5,18.5,0,0,0-.39,6.46H29.17a21.66,21.66,0,0,1,.47-7c.24-1.15.54-2.29.82-3.4a50.58,50.58,0,0,0,1.15-5.31c.05-.39.1-.78.14-1.19a20.07,20.07,0,0,1,.6-3.43,2.09,2.09,0,0,1,1.11-1.39,2,2,0,0,1,2.5,1A11.46,11.46,0,0,1,37.33,59c0,.51,0,1-.08,1.52a19.54,19.54,0,0,0,0,4.13c.1.58.26,1.17.43,1.78s.27,1,.39,1.59a20.23,20.23,0,0,1,.27,5.25H35.68A18.37,18.37,0,0,0,35.46,68.55Zm6.17,1.39c-.21-.92-.47-1.82-.74-2.77a36.14,36.14,0,0,1-1-4.28,37.37,37.37,0,0,1-.35-5.57c0-3.06-.08-5.94-1.34-8.41a17.65,17.65,0,0,0-1.43-2.26,14,14,0,0,1-2.29-4.25,14.5,14.5,0,0,1-.41-3c0-.48-.05-.92-.11-1.36,0-.25-.05-.64-.09-1.18-.08-1.2-.21-3-.46-4.67A15.9,15.9,0,0,0,33,30.28c-.28,1.35-.53,3.43-.74,5.22-.56,4.7-1.26,10.55-3.15,14.38a6.66,6.66,0,0,0-.24,3.42A16,16,0,0,1,28.92,56c-.14,1.67-.41,3.32-.67,4.92-.11.67-.23,1.36-.33,2a69.59,69.59,0,0,0-.75,10.3H24.46a72.19,72.19,0,0,1,.78-10.7c.11-.7.22-1.41.33-2.09.26-1.54.52-3.14.65-4.7a13,13,0,0,0-.07-2.22,9,9,0,0,1,.51-4.87c1.68-3.41,2.35-9,2.89-13.5.25-2.14.47-4,.77-5.4.22-1,.67-3.16,2.34-3.3a2.11,2.11,0,0,1,1.59.54c1.43,1.23,1.94,4.61,2.28,9.66,0,.47.06.87.08,1,.07.51.1,1,.13,1.51a11.62,11.62,0,0,0,.31,2.44,12.08,12.08,0,0,0,1.89,3.41,21.54,21.54,0,0,1,1.64,2.59c1.54,3,1.59,6.38,1.63,9.61a36.15,36.15,0,0,0,.31,5.18,36,36,0,0,0,1,3.95c.27,1,.55,1.93.78,2.93a26.88,26.88,0,0,1,.56,3.91H42.11A24.67,24.67,0,0,0,41.63,69.94ZM47,72.83c-.08-1.12-.14-2.64-.21-4.4a123.73,123.73,0,0,0-1.09-14.19,108.21,108.21,0,0,0-4.35-14.33c-.33-.81-.69-1.6-1.08-2.44-.47-1-.95-2-1.35-3.12-.56-1.52-1.06-3.11-1.54-4.65-1.07-3.45-2.18-7-4-9.88a4.59,4.59,0,0,0-1.62-1.66,1.54,1.54,0,0,0-1.49,0,3,3,0,0,0-.72,1.19c-1.56,3.81-1.9,7.93-2.25,12.29a59.44,59.44,0,0,1-1.39,9.94c-.31,1.19-.69,2.36-1.06,3.48-.46,1.38-.88,2.68-1.19,4a44.69,44.69,0,0,0-.81,8.24q-.17,4.38-.32,8.76l-.26,7.17H19.56L19.82,66q.15-4.38.32-8.77A46.93,46.93,0,0,1,21,48.47c.33-1.47.8-2.89,1.25-4.27.36-1.09.73-2.21,1-3.32a56.38,56.38,0,0,0,1.32-9.47c.35-4.38.72-8.9,2.44-13.1A5.21,5.21,0,0,1,28.65,16,4.12,4.12,0,0,1,33,15.73a7.07,7.07,0,0,1,2.69,2.61c2,3.19,3.2,6.93,4.33,10.54.49,1.58,1,3.07,1.49,4.52.36,1,.8,1.92,1.26,2.91.39.84.79,1.7,1.14,2.59a109.38,109.38,0,0,1,4.51,14.88,125,125,0,0,1,1.13,14.54c.07,1.83.15,3.83.25,4.93H47.05C47,73.11,47,73,47,72.83Zm7-2.11c-.06-5.52-.13-11.77-1.4-17.07a90.52,90.52,0,0,0-4-12,62,62,0,0,1-2.43-7.23,37,37,0,0,0-2.06-5.16,32.54,32.54,0,0,1-2.56-7c-.56-2.87-1.2-6-2.74-8.51h3.09a33.13,33.13,0,0,1,2.31,8,29.52,29.52,0,0,0,2.37,6.42,39.76,39.76,0,0,1,2.19,5.55,60,60,0,0,0,2.32,6.9A91.8,91.8,0,0,1,55.22,53c1.34,5.6,1.42,12,1.48,17.67,0,.89,0,1.74,0,2.57H54C54,72.43,54,71.59,54,70.72ZM73.25,20.05c-.5,1.8-1.07,3.57-1.64,5.32a57.91,57.91,0,0,0-2.78,10.82c-.13,1.07-1.18,6.37-2.45,11.48-2.61,10.53-3.86,11.44-4.46,11.88a1.91,1.91,0,0,1-1.1.37l-.33,0c-1.8-.36-2.22-2.58-3.15-7.43a111.24,111.24,0,0,0-7.12-24.34c-.31-.74-.66-1.49-1-2.22a47.39,47.39,0,0,1-2.33-5.82c-.27-.89-.49-1.81-.71-2.69a33.15,33.15,0,0,0-1-3.64H48c.31,1,.57,2,.81,3s.43,1.73.67,2.55a43.31,43.31,0,0,0,2.21,5.48c.34.74.68,1.51,1,2.27A115.13,115.13,0,0,1,60,52c.31,1.61.63,3.26.92,4.33a61.53,61.53,0,0,0,2.89-9.51c1.24-5,2.23-10,2.33-10.91A60.08,60.08,0,0,1,69,24.52a57.39,57.39,0,0,0,2.75-10.77h1.46ZM58.84,14.28c0,.28.07.57.11.86a12,12,0,0,0,.52,2.6A18,18,0,0,1,60,20.17c0,.12,0,.26.08.41a33.59,33.59,0,0,1,2.15-6.83h3a32,32,0,0,0-2.88,9.69,16,16,0,0,1-.32,1.68c-.33,1.2-1,1.51-1.56,1.57h-.18c-1.44,0-2-1.82-2.19-2.61-.29-1-.53-2.28-.75-3.4-.16-.81-.34-1.73-.44-2a14,14,0,0,1-.67-3.22c0-.27-.07-.54-.11-.81s-.11-.61-.17-.92h2.76C58.77,13.93,58.81,14.1,58.84,14.28Zm-4.1,4.17c.13.84.26,1.64.41,2.42a26.19,26.19,0,0,0,3,8.09,34.8,34.8,0,0,1,3,7c.25-2.49.47-4.42.65-5.22,0-.21.09-.43.14-.65a18,18,0,0,1,1.74-5.35,21.94,21.94,0,0,0,1.85-5.28c.19-.75.39-1.52.62-2.28a29.51,29.51,0,0,1,1.26-3.4h3a27.3,27.3,0,0,0-1.65,4.18c-.21.71-.4,1.46-.59,2.19A23.74,23.74,0,0,1,66,26.06a16.19,16.19,0,0,0-1.44,4.57l-.15.67c-.23,1.07-.66,5.47-.94,8.38-.09,1-.18,1.9-.24,2.54-.14,1.29-.2,1.88-1,2.18a1.5,1.5,0,0,1-.47.08,1.38,1.38,0,0,1-.66-.17c-.66-.35-.78-.82-1.26-2.81a42.32,42.32,0,0,0-4-11.15,28.65,28.65,0,0,1-3.35-9c-.17-.83-.31-1.69-.44-2.52a25.37,25.37,0,0,0-1.17-5.13h2.88A36,36,0,0,1,54.74,18.45Zm-41-4.7h.16V26.28a119.58,119.58,0,0,0,1.83-12.53h2.72c-.63,6.78-2.1,16.32-4.33,21.3a1.66,1.66,0,0,1-.22.34V54.92A60.44,60.44,0,0,1,16,43.45c.2-.69.42-1.38.63-2.05.38-1.21.74-2.34,1-3.51a55.32,55.32,0,0,0,1.12-8.11,112.67,112.67,0,0,1,3.43-16h2.84A107.54,107.54,0,0,0,21.51,30a56.92,56.92,0,0,1-1.19,8.51c-.31,1.26-.7,2.5-1.08,3.69-.2.66-.42,1.33-.61,2-2.75,9.38-2.59,19.32-2.2,29H13.75Z" fill="#fff"/></svg>