<svg id="Calque_1" data-name="Calque 1" xmlns="http://www.w3.org/2000/svg" viewBox="0 0 87 87"><path d="M79.9,38.38l5.71-8.31a2.26,2.26,0,0,0-3.72-2.55l-3.43,5A36.75,36.75,0,0,0,7.35,36.36a2.25,2.25,0,1,0,4.42.87,32.25,32.25,0,0,1,62.42-3.31L68.7,32.65a2.25,2.25,0,1,0-1,4.39l9.83,2.27.08,0H78a2.19,2.19,0,0,0,.77-.13h0l.09,0h0l.09,0,0,0,.05,0,.1-.06,0,0,.06,0,0,0,.07,0,.06-.05,0,0,.06,0,0,0,.08-.09h0A1.3,1.3,0,0,0,79.9,38.38Z" fill="#fff"/><path d="M77.67,48A2.26,2.26,0,0,0,75,49.77,32.24,32.24,0,0,1,12.59,53l5.71,1.32a2.21,2.21,0,0,0,.51,0,2.25,2.25,0,0,0,.5-4.44L9.52,47.7h0l-.11,0h-.6a2,2,0,0,0-.42.07h0l-.09,0h0l-.06,0-.06,0,0,0-.08,0H8l-.09,0h0a2.4,2.4,0,0,0-.26.18h0l-.07.06h0l0,.06,0,0,0,0,0,0,0,0-.06,0v0l-.06.08h0l-.06.08h0l0,0v0L1.39,56.93A2.25,2.25,0,0,0,2,60.06a2.22,2.22,0,0,0,1.27.4,2.24,2.24,0,0,0,1.86-1L8.4,54.69a36.74,36.74,0,0,0,71-4A2.25,2.25,0,0,0,77.67,48Z" fill="#fff"/><path d="M57.56,47.57H29.44a1.92,1.92,0,0,1-1.68-1,1.94,1.94,0,0,1,0-1.95l8.56-14.05A1.93,1.93,0,0,1,38,29.65H49a1.93,1.93,0,0,1,1.65.93l8.56,14.05a1.94,1.94,0,0,1-1.65,2.94ZM30.8,44.88H56.2L48.57,32.34H38.43Z" fill="#fff"/><path d="M43.5,54.6a7.55,7.55,0,0,1-7.79-7.26,4.22,4.22,0,0,1,.06-.64v-.12a1.93,1.93,0,0,1,1.92-1.7H49.3a1.93,1.93,0,0,1,1.92,1.72v.11a4,4,0,0,1,.06.63A7.55,7.55,0,0,1,43.5,54.6Zm-5.09-7A4.89,4.89,0,0,0,43.5,51.9a4.89,4.89,0,0,0,5.09-4.33Z" fill="#fff"/><path d="M43.5,31.75a1.35,1.35,0,0,1-1.35-1.34V25.14a1.35,1.35,0,0,1,2.7,0v5.27A1.35,1.35,0,0,1,43.5,31.75Z" fill="#fff"/><path d="M43.5,63.21a1,1,0,0,1-1-1V57.09a1,1,0,0,1,1.9,0v5.17A1,1,0,0,1,43.5,63.21Z" fill="#fff"/><path d="M54.2,59.24a.94.94,0,0,1-.67-.28l-3.65-3.65a.93.93,0,0,1,0-1.34,1,1,0,0,1,1.34,0l3.65,3.65a1,1,0,0,1,0,1.34A.92.92,0,0,1,54.2,59.24Z" fill="#fff"/><path d="M32.83,59.16a1,1,0,0,1-.67-.27,1,1,0,0,1,0-1.35l3.65-3.65a1,1,0,0,1,1.35,0,1,1,0,0,1,0,1.34L33.5,58.89A1,1,0,0,1,32.83,59.16Z" fill="#fff"/></svg>