<svg id="Calque_1" data-name="Calque 1" xmlns="http://www.w3.org/2000/svg" viewBox="0 0 87 87"><path d="M70.14,17.85v50.2a1,1,0,0,1-.89,1.1H17.75a1,1,0,0,1-.89-1.1V17.85H70.14M19.56,61.32H67.44V31.21H19.56V61.32M73.14,14.85H13.86v53.2a4,4,0,0,0,3.89,4.1h51.5a4,4,0,0,0,3.89-4.1V14.85ZM22.56,58.32V34.21H64.44V58.32Z" fill="#fff"/><circle cx="62.28" cy="26.02" r="2.11" fill="#fff"/><circle cx="56.56" cy="26.02" r="2.11" fill="#fff"/><path d="M50.85,23.91A2.11,2.11,0,1,1,48.74,26,2.1,2.1,0,0,1,50.85,23.91Z" fill="#fff"/><path d="M43.59,22.84A3.18,3.18,0,1,1,40.41,26,3.17,3.17,0,0,1,43.59,22.84Z" fill="#fff"/><path d="M36.4,23.91A2.11,2.11,0,1,1,34.29,26,2.1,2.1,0,0,1,36.4,23.91Z" fill="#fff"/><path d="M30.68,23.91A2.11,2.11,0,1,1,28.57,26,2.1,2.1,0,0,1,30.68,23.91Z" fill="#fff"/><path d="M25,23.91A2.11,2.11,0,1,1,22.86,26,2.11,2.11,0,0,1,25,23.91Z" fill="#fff"/></svg>