<svg id="Calque_1" data-name="Calque 1" xmlns="http://www.w3.org/2000/svg" viewBox="0 0 87 87"><path d="M75.36,15.9H54.47L33.55,6l-.09,0-.18,0-.18,0h-.37l-.19,0-.18,0-.09,0L11,16a1.5,1.5,0,0,0-.86,1.36V69.59A1.5,1.5,0,0,0,11,71L32.27,81l.15,0,.12,0a1.5,1.5,0,0,0,.37,0,1.65,1.65,0,0,0,.38,0l.11,0,.15,0,20.92-9.86H75.36a1.5,1.5,0,0,0,1.5-1.5V17.4A1.5,1.5,0,0,0,75.36,15.9ZM31.41,77.23,13.14,68.64V18.35L31.41,9.76Zm42.45-9.14H55.64v-3.8a7.29,7.29,0,0,1-2.61.48h-.39v3.87L34.41,77.23V9.77l18.23,8.58v3.88h3V18.9H73.86Z" fill="#fff"/><circle cx="18.86" cy="43.5" r="3.42" fill="#fff"/><path d="M68,29.86h-2.6v-.23a2.41,2.41,0,0,0-2.4-2.4H44.18a2.41,2.41,0,0,0-2.4,2.4v2.86a2.41,2.41,0,0,0,2.4,2.4H63a2.41,2.41,0,0,0,2.4-2.4v-.23h1.4v5.27L53.22,42a1.2,1.2,0,0,0-.82,1.14v3.29a2.4,2.4,0,0,0-1.63,2.27v8.65a2.4,2.4,0,0,0,2.39,2.4H54a2.41,2.41,0,0,0,2.4-2.4V48.72a2.41,2.41,0,0,0-1.63-2.27V44l13.59-4.48a1.19,1.19,0,0,0,.83-1.14V31.06A1.2,1.2,0,0,0,68,29.86Zm-4.1,2a1.54,1.54,0,0,1-1.53,1.54H44.75a1.54,1.54,0,0,1-1.54-1.54V30.13a1.55,1.55,0,0,1,1.54-1.54H62.39a1.55,1.55,0,0,1,1.53,1.54Z" fill="#fff"/></svg>