<svg id="Calque_1" data-name="Calque 1" xmlns="http://www.w3.org/2000/svg" viewBox="0 0 87 87"><path d="M78.5,78.5H8.5V8.5h70ZM11.23,75.77H75.77V11.23H11.23Z" fill="#fff"/><path d="M69.72,19.05a.9.9,0,0,1-.89-1.12l.18-.75L67.56,16a.91.91,0,0,1,.37-1.59l2.62-.61a.9.9,0,0,1,1,.45l1.22,2.25a.91.91,0,0,1-.37,1.23L70.15,19A.94.94,0,0,1,69.72,19.05Z" fill="#fff"/><path d="M45.57,18.66a.89.89,0,0,1-.61-.23.91.91,0,0,1-.3-.72L44.77,15a.91.91,0,0,1,.91-.87h1.73a.91.91,0,0,1,.89.7l.6,2.62a.91.91,0,0,1-.21.82.93.93,0,0,1-.8.29L47,18.47l-1.27.18Zm1-2.67,0,.7.32,0h0L46.69,16Z" fill="#fff"/><path d="M63.76,59.31a1,1,0,0,1-.49-.14.92.92,0,0,1-.42-.77v-.49a.92.92,0,0,1,.83-.91l.51,0a.93.93,0,0,1,1,.62l.09.26a.9.9,0,0,1-.48,1.11l-.6.29A1,1,0,0,1,63.76,59.31Z" fill="#fff"/><path d="M54.76,62.92a.87.87,0,0,1-.49-.14.92.92,0,0,1-.42-.77v-.49a.92.92,0,0,1,.83-.91l.51,0a1,1,0,0,1,1,.62l.08.26a.91.91,0,0,1-.47,1.12l-.6.28A.88.88,0,0,1,54.76,62.92Z" fill="#fff"/><path d="M65.27,38.22a1,1,0,0,1-.49-.14.9.9,0,0,1-.42-.77v-.49a.9.9,0,0,1,.82-.91l.51,0a.93.93,0,0,1,1,.61l.09.26a.91.91,0,0,1-.48,1.12l-.6.28A.85.85,0,0,1,65.27,38.22Z" fill="#fff"/><path d="M70.19,63.19a.82.82,0,0,1-.48-.14.89.89,0,0,1-.43-.77v-.49a.92.92,0,0,1,.83-.91l.51,0a.91.91,0,0,1,.95.61l.09.26a.92.92,0,0,1-.48,1.12l-.6.28A.85.85,0,0,1,70.19,63.19Z" fill="#fff"/><path d="M40,48.56a.91.91,0,0,1-.68-.3l-.44-.5a.93.93,0,0,1-.2-.86.92.92,0,0,1,.62-.62l.48-.14a.91.91,0,0,1,1.1.54l.19.48a.91.91,0,0,1-.32,1.07l-.22.16A.88.88,0,0,1,40,48.56Z" fill="#fff"/><path d="M44.77,55.13h-.15a.93.93,0,0,1-.69-.55l-.19-.45A.92.92,0,0,1,44.15,53l.46-.24a.9.9,0,0,1,1.11.2l.18.2a.91.91,0,0,1,0,1.22l-.44.49A.93.93,0,0,1,44.77,55.13Z" fill="#fff"/><path d="M40.58,72.85h-.16a.93.93,0,0,1-.69-.55l-.18-.46A.91.91,0,0,1,40,70.68l.45-.24a.9.9,0,0,1,1.11.2l.18.2a.92.92,0,0,1,0,1.22l-.45.49A.91.91,0,0,1,40.58,72.85Z" fill="#fff"/><path d="M21.73,68.35h-.16a.93.93,0,0,1-.69-.55l-.18-.46a.89.89,0,0,1,.41-1.15l.45-.24a.91.91,0,0,1,1.11.19l.18.21a.92.92,0,0,1,0,1.22l-.45.49A.91.91,0,0,1,21.73,68.35Z" fill="#fff"/><path d="M14.62,45.67a.92.92,0,0,1-.92-.91v-.49a.92.92,0,0,1,.83-.91l.51,0a.93.93,0,0,1,1,.61l.09.26a.91.91,0,0,1-.48,1.12l-.6.28A.85.85,0,0,1,14.62,45.67Z" fill="#fff"/><path d="M69.06,54.13a.89.89,0,0,1-.8-.49,2.26,2.26,0,0,0-.35-.48.91.91,0,0,1,0-1.26,2.05,2.05,0,0,0,.52-1,.92.92,0,0,1,1.4-.57l1.17.79a.89.89,0,0,1,.4.83.93.93,0,0,1-.54.76l-.15.06a2,2,0,0,0-.84.87.91.91,0,0,1-.81.49Z" fill="#fff"/><path d="M57.89,55H57.8a.91.91,0,0,1-.81-.76,2,2,0,0,0-.29-.76.91.91,0,0,1,.83-1.39l1.06.06a.91.91,0,0,1,.61,1.54,2.21,2.21,0,0,0-.46.72A.9.9,0,0,1,57.89,55Z" fill="#fff"/><path d="M62,68.2h-.09a.9.9,0,0,1-.81-.76,2.12,2.12,0,0,0-.3-.76.93.93,0,0,1,0-.94.92.92,0,0,1,.83-.45l1.07.06a.93.93,0,0,1,.8.58.91.91,0,0,1-.19,1,2.09,2.09,0,0,0-.46.73A.92.92,0,0,1,62,68.2Z" fill="#fff"/><path d="M22.59,52.84h-.1a.89.89,0,0,1-.8-.76,2,2,0,0,0-.3-.76.93.93,0,0,1,0-.94.89.89,0,0,1,.83-.44l1.07.06a.93.93,0,0,1,.8.57.91.91,0,0,1-.19,1,2.09,2.09,0,0,0-.46.73A.92.92,0,0,1,22.59,52.84Z" fill="#fff"/><path d="M72.54,27.6h-.1a.91.91,0,0,1-.8-.77,2.19,2.19,0,0,0-.3-.76.93.93,0,0,1,0-.94.9.9,0,0,1,.83-.44l1.07.06a.9.9,0,0,1,.79.57.93.93,0,0,1-.18,1,2,2,0,0,0-.46.72A.92.92,0,0,1,72.54,27.6Z" fill="#fff"/><path d="M15.92,54.6a.86.86,0,0,1-.28,0,.91.91,0,0,1-.61-.64l-.13-.51a.91.91,0,0,1,1.51-.89l.27.23a.91.91,0,0,1,.4.75.87.87,0,0,1-.39.75l-.18.13A.88.88,0,0,1,15.92,54.6Z" fill="#fff"/><path d="M30.72,31.12A.87.87,0,0,1,30.2,31l-1.91-1.31a.89.89,0,0,1-.4-.75v-.18A.91.91,0,0,1,28.3,28a.89.89,0,0,1,.85-.08l1.83.76a2.52,2.52,0,0,0,.47.13l1.44.24a.91.91,0,0,1,0,1.8l-2,.3Z" fill="#fff"/><path d="M23.88,46.81a.93.93,0,0,1-.65-.27.92.92,0,0,1-.26-.65l0-1.52a.91.91,0,0,1,.47-.78l2-1.14a.93.93,0,0,1,1.09.16l.15.15a.91.91,0,0,1,.26.56l.26,2.49a.91.91,0,0,1-.24.7.89.89,0,0,1-.67.3Zm.93-1.89V45h.54l0-.35Z" fill="#fff"/><path d="M26.68,59.92a.88.88,0,0,1-.58-.21.9.9,0,0,1-.33-.73l.07-2.22a.89.89,0,0,1,.29-.64.87.87,0,0,1,.67-.24l1.6.08a.92.92,0,0,1,.75.47.91.91,0,0,1,0,.89l-1.15,2a.89.89,0,0,1-.61.44l-.51.11Z" fill="#fff"/><path d="M38.31,24a1,1,0,0,1-.49-.14.92.92,0,0,1-.42-.77v-.49a.91.91,0,0,1,.83-.91l.51-.05a.93.93,0,0,1,.95.61l.09.26a.93.93,0,0,1-.48,1.12l-.6.28A.89.89,0,0,1,38.31,24Z" fill="#fff"/><path d="M45.08,27.23H45a.92.92,0,0,1-.81-.76,2.14,2.14,0,0,0-.29-.77.91.91,0,0,1,0-.94.92.92,0,0,1,.84-.44l1.06.06a.91.91,0,0,1,.8.57.92.92,0,0,1-.19,1,2.21,2.21,0,0,0-.46.72A.9.9,0,0,1,45.08,27.23Z" fill="#fff"/><path d="M39.61,32.92a.89.89,0,0,1-.88-.68l-.13-.51a.91.91,0,0,1,1.51-.89,3,3,0,0,0,.27.23.91.91,0,0,1,.4.75.93.93,0,0,1-.4.76l-.18.13A.93.93,0,0,1,39.61,32.92Z" fill="#fff"/><path d="M53.85,36.73a.91.91,0,0,1-.65-.27.9.9,0,0,1-.26-.66V34.73a.89.89,0,0,1,.3-.66L54.45,33a.79.79,0,0,1,.29-.18L56,32.34a.91.91,0,0,1,1.21,1.08L56.48,36a.92.92,0,0,1-.89.68Z" fill="#fff"/><path d="M50.73,45.13a1.26,1.26,0,0,1-.27,0,.91.91,0,0,1-.54-.46l-.72-1.44a.91.91,0,0,1,0-.89.94.94,0,0,1,.78-.43h2.33a.93.93,0,0,1,.69.31l.34.39a.9.9,0,0,1,.22.77.93.93,0,0,1-.47.64l-2,1A.92.92,0,0,1,50.73,45.13Z" fill="#fff"/><path d="M28.18,72.7a1,1,0,0,1-.82-.51l-.71-1.43a.91.91,0,0,1,.81-1.32H29.8a.89.89,0,0,1,.68.31l.35.39a.92.92,0,0,1,.21.76.9.9,0,0,1-.47.65l-2,1A1,1,0,0,1,28.18,72.7Z" fill="#fff"/><path d="M16.63,63.21a1.26,1.26,0,0,1-.27,0,1,1,0,0,1-.54-.46l-.72-1.44a.94.94,0,0,1,0-.89.91.91,0,0,1,.78-.43h2.33a.9.9,0,0,1,.69.31l.34.39a.9.9,0,0,1,.22.77.93.93,0,0,1-.47.64l-2,1A.92.92,0,0,1,16.63,63.21Z" fill="#fff"/><path d="M64.65,27.68h-.07a.94.94,0,0,1-.69-.4l-1.25-1.83a.91.91,0,0,1-.14-.7.89.89,0,0,1,.4-.58l1.35-.87a.87.87,0,0,1,.88-.06.91.91,0,0,1,.52.72l.26,2.32a1,1,0,0,1-.24.72l-.35.39A.94.94,0,0,1,64.65,27.68Z" fill="#fff"/><path d="M59.93,19.23a.84.84,0,0,1-.27,0,.88.88,0,0,1-.54-.46L58.4,17.3a.91.91,0,0,1,0-.89.9.9,0,0,1,.77-.43h2.34a.92.92,0,0,1,.68.3l.35.4a.89.89,0,0,1,.22.76.94.94,0,0,1-.47.64l-2,1.05A.91.91,0,0,1,59.93,19.23Z" fill="#fff"/><path d="M44.85,41.28a.76.76,0,0,1-.21,0l-2.72-.64a.92.92,0,0,1-.7-.89v-.33a.91.91,0,0,1,.28-.66l3-2.84a.88.88,0,0,1,.76-.24.9.9,0,0,1,.66.46L47,38a.9.9,0,0,1-.05,1l-1.32,1.89A.89.89,0,0,1,44.85,41.28Zm-1.16-2.12.76.18.65-.92-.22-.4Z" fill="#fff"/><path d="M71.31,45.13h-.15a.92.92,0,0,1-.66-.49L69.41,42.5a1,1,0,0,1-.1-.42v-.23A.92.92,0,0,1,70,41l1.34-.28a.91.91,0,0,1,.9.32l1.08,1.33a.91.91,0,0,1-.07,1.23L72,44.87A.9.9,0,0,1,71.31,45.13Z" fill="#fff"/><path d="M49.42,59.31a.9.9,0,0,1-.66-1.53l1.78-1.91a.92.92,0,0,1,1-.24l.65.24a.89.89,0,0,1,.61.85v1.35A.91.91,0,0,1,52,59l-2.44.33Z" fill="#fff"/><path d="M62.09,48.14H62L59.71,48a.91.91,0,0,1-.82-.64l-.37-1.17a1,1,0,0,1,0-.63l.56-1.31a.88.88,0,0,1,.5-.5,1,1,0,0,1,.72,0l2.07,1a.93.93,0,0,1,.53.78L63,47a1.79,1.79,0,0,1,0,.23.91.91,0,0,1-.91.91Zm-1.65-1.92.7,0v-.1l-.71-.33-.06.14Z" fill="#fff"/><path d="M36.23,56.45a.92.92,0,0,1-.72-.36l-.17-.21a.93.93,0,0,1,.09-1.22l.48-.46a.91.91,0,0,1,.85-.22.87.87,0,0,1,.64.59l.16.46a.92.92,0,0,1-.49,1.13l-.46.21A1,1,0,0,1,36.23,56.45Z" fill="#fff"/><path d="M32.58,45a.89.89,0,0,1-.69-.32.9.9,0,0,1-.13-1,2.24,2.24,0,0,0,.2-.83.91.91,0,0,1,1.71-.4,2.36,2.36,0,0,0,.52.63.91.91,0,0,1-.34,1.58l-1,.28Z" fill="#fff"/><path d="M43.31,65.58h-.1L41,65.34a.92.92,0,0,1-.69-.43,1,1,0,0,1-.07-.81l.6-1.55a1,1,0,0,1,.38-.45l1-.62a.9.9,0,0,1,1.2.24l.73,1a1,1,0,0,1,.17.61l-.11,1.42a.9.9,0,0,1-.9.84Z" fill="#fff"/><path d="M31.28,19H30.05a.91.91,0,0,1-.91-.91V17a.91.91,0,0,1,.51-.82l2.23-1.1a.91.91,0,0,1,1.16.31l.41.61a.89.89,0,0,1-.07,1.11L32,18.7A.91.91,0,0,1,31.28,19Z" fill="#fff"/><path d="M21.49,25.11a.94.94,0,0,1-.73-.37,1,1,0,0,0-.21-.23,1.29,1.29,0,0,0-.6-.28.9.9,0,0,1-.69-.6.88.88,0,0,1,.18-.89L21.9,20a.9.9,0,0,1,.83-.3.91.91,0,0,1,.69.55.83.83,0,0,0,.09.16.94.94,0,0,1,.1.73,1,1,0,0,1-.47.57l-.11.05a1.29,1.29,0,0,0-.63,1.1v1.38a.91.91,0,0,1-.62.87A.93.93,0,0,1,21.49,25.11Z" fill="#fff"/><path d="M15.78,19.51a1,1,0,0,1-.41-.09.91.91,0,0,1-.5-.82V15.39a.9.9,0,0,1,.91-.91h2.44A.91.91,0,0,1,19,15a.92.92,0,0,1-.1,1l-.42.53a1,1,0,0,1,.2.59.9.9,0,0,1-.36.71l-2,1.55A1,1,0,0,1,15.78,19.51Z" fill="#fff"/><path d="M15,35.78a.92.92,0,0,1-.48-.14.91.91,0,0,1-.43-.77V32.79a.83.83,0,0,1,.1-.41l1-2a.9.9,0,0,1,.57-.47.94.94,0,0,1,.73.11l1.21.77A.82.82,0,0,1,18,31l1.21,1.69a.91.91,0,0,1,.15.75,1,1,0,0,1-.49.6l-3.43,1.65A.93.93,0,0,1,15,35.78ZM16,33v.42l1.15-.55-.48-.67-.2-.13Z" fill="#fff"/><path d="M23.85,37.39a.94.94,0,0,1-.57-.2A.9.9,0,0,1,23,36.13a1,1,0,0,0,.09-.36V33.3a.9.9,0,0,1,.63-.87.92.92,0,0,1,1,.34A.66.66,0,0,0,25,33l1.82,1.25a.91.91,0,0,1,.37,1,.92.92,0,0,1-.76.7.79.79,0,0,0-.41.16l-1.61,1.15A.87.87,0,0,1,23.85,37.39Z" fill="#fff"/><path d="M54.42,26.51A.9.9,0,0,1,53.6,26a1.07,1.07,0,0,0-.28-.37L51.9,24.44a.91.91,0,0,1,.69-1.6h.12l2.06-.68a.91.91,0,0,1,1,.3.9.9,0,0,1,.07,1,.77.77,0,0,0-.11.25l-.42,2a.93.93,0,0,1-.78.72Z" fill="#fff"/><path d="M17.45,73.75a.93.93,0,0,1-.53-.17l-1.68-1.22a.88.88,0,0,1-.37-.73v-1l-.1-.38a.91.91,0,0,1,1.57-.81l1.15,1.31a1,1,0,0,1,.15.24l.58,1.34a.94.94,0,0,1,.16.52.91.91,0,0,1-.91.91Z" fill="#fff"/><path d="M33.42,65.47H30.85a.92.92,0,0,1-.75-.39.89.89,0,0,1-.11-.82l.48-1.39a.93.93,0,0,1,.51-.54l1.85-.79a.94.94,0,0,1,.94.14l1.45,1.21a.9.9,0,0,1,.32.71.88.88,0,0,1-.34.7l-1.21,1A.9.9,0,0,1,33.42,65.47Z" fill="#fff"/><path d="M53.11,71.83H51.58a.91.91,0,0,1-.91-.91V69.44a.91.91,0,0,1,.51-.82l2.13-1.06a.91.91,0,0,1,.74,0,1,1,0,0,1,.52.53l.29.76a.91.91,0,0,1,0,.74l-.9,1.78A.91.91,0,0,1,53.11,71.83Z" fill="#fff"/><path d="M71.13,73.75H68a.91.91,0,0,1-.6-1.59L68.73,71l.61-1.68a.9.9,0,0,1,.79-.6.92.92,0,0,1,.87.47l1.42,2.63a1,1,0,0,1-.11,1l-.49.56A.9.9,0,0,1,71.13,73.75Z" fill="#fff"/><path d="M68.43,32.55a.83.83,0,0,1-.34-.07.92.92,0,0,1-.57-.88,1.93,1.93,0,0,0,0-.53l-.08-.39a.87.87,0,0,1,.22-.8.89.89,0,0,1,.78-.29l.43.05a.92.92,0,0,1,.79.91v.79a.89.89,0,0,1-.24.61l-.27.3A.91.91,0,0,1,68.43,32.55Z" fill="#fff"/></svg>