<svg id="Calque_1" data-name="Calque 1" xmlns="http://www.w3.org/2000/svg" viewBox="0 0 87 87"><path d="M23.88,80.49H63.12v-68H23.88Zm36.24-3H45V48h5.35a1.5,1.5,0,0,0,0-3H45V15.48H60.12Zm-33.24-62H42v62H26.88Z" fill="#fff"/><path d="M81.25,6.51H5.75v3h1.5v71H21.79v-71H64.84v71H79.38v-71h1.87Zm-71,57.78h8.54v3.43H10.25Zm0-3V57.86h8.54v3.43Zm0-6.43V51.43h8.54v3.43Zm0-6.43V45h8.54v3.43Zm0-6.43V38.57h8.54V42Zm0-6.43V32.14h8.54v3.43Zm0-6.43V25.71h8.54v3.43Zm0-6.43V19.28h8.54v3.43Zm0,54.78V70.72h8.54v6.77Zm8.54-61.21H10.25V9.51h8.54Zm49.05,48h8.54v3.43H67.84Zm0-3V57.86h8.54v3.43Zm0-6.43V51.43h8.54v3.43Zm0-6.43V45h8.54v3.43Zm0-6.43V38.57h8.54V42Zm0-6.43V32.14h8.54v3.43Zm0-6.43V25.71h8.54v3.43Zm0-6.43V19.28h8.54v3.43Zm0,54.78V70.72h8.54v6.77Zm8.54-61.21H67.84V9.51h8.54Z" fill="#fff"/></svg>