<svg id="Calque_1" data-name="Calque 1" xmlns="http://www.w3.org/2000/svg" viewBox="0 0 87 87"><path d="M43.5,4A39.5,39.5,0,1,1,4,43.5,39.55,39.55,0,0,1,43.5,4m0-3A42.5,42.5,0,1,0,86,43.5,42.5,42.5,0,0,0,43.5,1Z" fill="#fff"/><path d="M63.68,23.5H59.49v-.37a3.88,3.88,0,0,0-3.87-3.87H25.25a3.88,3.88,0,0,0-3.87,3.87v4.61a3.88,3.88,0,0,0,3.87,3.87H55.62a3.88,3.88,0,0,0,3.87-3.87v-.37h2.26v8.51L39.83,43.11A1.94,1.94,0,0,0,38.5,45v5.3a3.88,3.88,0,0,0-2.63,3.66v14a3.88,3.88,0,0,0,3.86,3.87h1.4A3.88,3.88,0,0,0,45,67.87v-14a3.89,3.89,0,0,0-2.63-3.66v-3.9l21.92-7.23a1.94,1.94,0,0,0,1.33-1.84V25.44A1.94,1.94,0,0,0,63.68,23.5Zm-9.11,3.88H26.3a1.16,1.16,0,1,1,0-2.31H54.57a1.16,1.16,0,1,1,0,2.31Z" fill="#fff"/></svg>