<svg id="Calque_1" data-name="Calque 1" xmlns="http://www.w3.org/2000/svg" viewBox="0 0 87 87"><path d="M69.94,79.79H17.06a1.5,1.5,0,0,1-1.5-1.5V43.1a1.51,1.51,0,0,1,1.5-1.5H69.94a1.51,1.51,0,0,1,1.5,1.5V78.29A1.5,1.5,0,0,1,69.94,79.79Zm-51.38-3H68.44V44.6H18.56Z" fill="#fff"/><path d="M69.94,23H17.06a1.51,1.51,0,0,1-1.5-1.5V8.71a1.5,1.5,0,0,1,1.5-1.5H69.94a1.5,1.5,0,0,1,1.5,1.5V21.47A1.51,1.51,0,0,1,69.94,23ZM18.56,20H68.44V10.21H18.56Z" fill="#fff"/><rect x="13.42" y="37.66" width="60.17" height="5.44" rx="2.72" fill="#fff"/><path d="M52.4,79.79a1.5,1.5,0,0,1-1.5-1.5V43.9a1.5,1.5,0,0,1,3,0V78.29A1.5,1.5,0,0,1,52.4,79.79Z" fill="#fff"/><path d="M43.5,23a1.5,1.5,0,0,1-1.5-1.5V8.71a1.5,1.5,0,0,1,3,0V21.47A1.5,1.5,0,0,1,43.5,23Z" fill="#fff"/><path d="M52.4,56.29H17.06a1.5,1.5,0,1,1,0-3H52.4a1.5,1.5,0,0,1,0,3Z" fill="#fff"/><path d="M52.4,68.11H17.06a1.5,1.5,0,1,1,0-3H52.4a1.5,1.5,0,0,1,0,3Z" fill="#fff"/><circle cx="34.73" cy="48.95" r="1.64" fill="#fff"/><circle cx="34.73" cy="60.7" r="1.64" fill="#fff"/><circle cx="57.35" cy="60.7" r="1.64" fill="#fff"/><circle cx="49.14" cy="15.09" r="1.64" fill="#fff"/><circle cx="37.86" cy="15.09" r="1.64" fill="#fff"/><circle cx="34.73" cy="72.45" r="1.64" fill="#fff"/></svg>