<svg id="Calque_1" data-name="Calque 1" xmlns="http://www.w3.org/2000/svg" viewBox="0 0 87 87"><path d="M70.49,35.46H21.37V28.93a4.65,4.65,0,0,1,9.29,0h2.93a7.58,7.58,0,0,0-15.15,0v6.53H16.51a4.37,4.37,0,0,0,0,8.73h2.12l5.14,11.54a19.94,19.94,0,0,0-2.57,9.69h21a29.35,29.35,0,0,0,8.69-.21l3-.77a19.23,19.23,0,0,0,6.51-3.68c6.21-5.34,7.75-13.4,8.12-16.57h2a4.37,4.37,0,0,0,0-8.73ZM58.59,58.7c-4,3.42-9.41,4.78-16.11,4H24.09a16.71,16.71,0,0,1,2.34-6.12l.4-.6-5-11.81H65.72C65.33,47.18,63.85,54.17,58.59,58.7Zm11.9-17.44h-54a1.44,1.44,0,0,1,0-2.87h54a1.44,1.44,0,0,1,0,2.87Z" fill="#fff"/></svg>