<svg id="Calque_1" data-name="Calque 1" xmlns="http://www.w3.org/2000/svg" viewBox="0 0 87 87"><path d="M74.75,76.25H12.25a1.5,1.5,0,0,1-1.5-1.5V12.25a1.5,1.5,0,0,1,1.5-1.5h62.5a1.5,1.5,0,0,1,1.5,1.5v62.5A1.5,1.5,0,0,1,74.75,76.25Zm-61-3h59.5V13.75H13.75Z" fill="#fff"/><path d="M39.15,49.18H36.61l-1-2.62H31l-1,2.62H27.55l4.5-11.56h2.47Zm-4.3-4.57-1.59-4.29L31.7,44.61Z" fill="#fff"/><path d="M40.45,49.18V37.72h2.33v9.51h5.81v2Z" fill="#fff"/><path d="M50.23,37.62h2.34v6.26a14.51,14.51,0,0,0,.08,1.93A1.83,1.83,0,0,0,53.37,47a2.45,2.45,0,0,0,1.54.43,2.37,2.37,0,0,0,1.5-.4A1.66,1.66,0,0,0,57,46a14.3,14.3,0,0,0,.1-2v-6.4h2.33v6.07a15.21,15.21,0,0,1-.19,2.94,3.21,3.21,0,0,1-.7,1.46A3.55,3.55,0,0,1,57.2,49a5.93,5.93,0,0,1-2.22.35A6.51,6.51,0,0,1,52.47,49a3.61,3.61,0,0,1-1.35-1,3.2,3.2,0,0,1-.66-1.28,14.16,14.16,0,0,1-.23-2.93Z" fill="#fff"/></svg>