<svg id="Calque_1" data-name="Calque 1" xmlns="http://www.w3.org/2000/svg" viewBox="0 0 87 87"><path d="M44.36,61.15l-.19-.27H39.55l-.13-1.35c-.07-.72-.17-1.4-.29-2-.41-2.16-1.65-4.14-2.87-4.6a38.4,38.4,0,0,0-6.13-1.63c-3.63-.75-7-1.45-10.9-4.48l-1.44-1.13,1.39-1.19a14.09,14.09,0,0,1,12.66-2.79,11.84,11.84,0,0,1,7.26,5c-1.73-8.22-4.16-13.44-8.6-19.32L29,25.27,31.51,25c4.35-.55,8.13.35,10.94,2.6a14.49,14.49,0,0,1,5,10.21,21.12,21.12,0,0,1-.06,4c.15-.29.31-.59.48-.88a10.12,10.12,0,0,1,7.19-4.63A19.81,19.81,0,0,1,69.9,40l3.87,3-4.92-.38c-7.22-.56-17.34,3.66-20.08,10.15a26.46,26.46,0,0,0-1.86,6.8l-.17,1.3H44.32ZM34.53,27.79c4.38,6.4,6.68,12.67,8.35,22.86.18-1,.37-2.07.56-3.1.65-3.51,1.26-6.83,1-9.52a11.59,11.59,0,0,0-3.89-8.14A10.08,10.08,0,0,0,34.53,27.79ZM22.77,45.61a22.62,22.62,0,0,0,8,2.72,40.94,40.94,0,0,1,6.59,1.76l.13,0c-.09-.21-.18-.42-.25-.62a8.49,8.49,0,0,0-6.1-4.94A11.55,11.55,0,0,0,22.77,45.61ZM58.06,39a13.24,13.24,0,0,0-2.46.22,7.37,7.37,0,0,0-5.16,3.21,19.26,19.26,0,0,0-2,5.26c3.57-4.13,9.39-6.88,15-7.79A17.14,17.14,0,0,0,58.06,39Z" fill="#fff"/><rect x="6.3" y="51.06" width="3" height="9.66" fill="#fff"/><rect x="11.79" y="51.06" width="3" height="9.66" fill="#fff"/><rect x="17.28" y="51.06" width="3" height="9.66" fill="#fff"/><rect x="22.78" y="51.06" width="3" height="9.66" fill="#fff"/><rect x="28.27" y="51.06" width="3" height="9.66" fill="#fff"/><rect x="33.76" y="51.06" width="3" height="9.66" fill="#fff"/><rect x="50.24" y="51.06" width="3" height="9.66" fill="#fff"/><rect x="55.73" y="51.06" width="3" height="9.66" fill="#fff"/><rect x="61.22" y="51.06" width="3" height="9.66" fill="#fff"/><rect x="66.72" y="51.06" width="3" height="9.66" fill="#fff"/><rect x="72.21" y="51.06" width="3" height="9.66" fill="#fff"/><rect x="77.7" y="51.06" width="3" height="9.66" fill="#fff"/></svg>