<svg id="Calque_1" data-name="Calque 1" xmlns="http://www.w3.org/2000/svg" viewBox="0 0 87 87"><rect x="7.6" y="59.85" width="71.8" height="3" fill="#fff"/><path d="M45.16,30a.83.83,0,1,1,1.66,0v1.66a.83.83,0,0,0,.83.83H51a.83.83,0,0,0,.83-.83V30a5.81,5.81,0,1,0-11.62,0v7.47h5Z" fill="#fff"/><path d="M49.31,34.11a.83.83,0,1,0,0,1.66h.83v1.66h5V35.77H56a.83.83,0,0,0,0-1.66H49.31Z" fill="#fff"/><path d="M31.05,35.77h.83v1.66h5V35.77h.83a.83.83,0,0,0,0-1.66H31.05a.83.83,0,1,0,0,1.66Z" fill="#fff"/><path d="M44.66,39.81H16.54V50.88a7,7,0,0,0,7,7H62.34a8.13,8.13,0,0,0,8.12-8.13V39.81ZM42.34,55.53H23.5a4.65,4.65,0,0,1-4.64-4.65V42.13H42.34Zm25.8-5.81a5.81,5.81,0,0,1-5.8,5.81H44.66V42.13H68.14Z" fill="#fff"/></svg>