<svg id="Calque_1" data-name="Calque 1" xmlns="http://www.w3.org/2000/svg" viewBox="0 0 68 83"><path d="M65,48,52.26,60.35,47.8,55.89a1.2,1.2,0,0,0-1.68,0,1.18,1.18,0,0,0,0,1.68l5.28,5.29a1.22,1.22,0,0,0,.84.35,1.16,1.16,0,0,0,.83-.34L66.64,49.72A1.19,1.19,0,0,0,65,48Z" fill="#6ad0f8"/><path d="M57.64,51.18V13.77H36.3a7.07,7.07,0,0,0-13.95,0H1V75.13H57.64V63.27l-2.36,2.36v7.14H3.36V16.13H22.24v1.68a14.43,14.43,0,0,0-7.08,10.12H43.48A14.37,14.37,0,0,0,36.4,17.81V16.13H55.28V53.54ZM40.35,25.57h-22a11.93,11.93,0,0,1,5.11-5.7l1.19-.68V15A4.72,4.72,0,1,1,34,15v4.24l1.2.68A12,12,0,0,1,40.35,25.57Z" fill="#032a86"/><rect x="15.16" y="46.81" width="28.32" height="2.36" fill="#6ad0f8"/><rect x="15.16" y="37.37" width="28.32" height="2.36" fill="#6ad0f8"/><rect x="15.16" y="56.25" width="18.88" height="2.36" fill="#6ad0f8"/></svg>