<svg id="Calque_1" data-name="Calque 1" xmlns="http://www.w3.org/2000/svg" viewBox="0 0 87 87"><path d="M62.79,20.22H24a1.46,1.46,0,0,0-1.46,1.47V65.31A1.46,1.46,0,0,0,24,66.78H62.79a1.47,1.47,0,0,0,1.47-1.47V21.69A1.47,1.47,0,0,0,62.79,20.22ZM61.33,42H44.84V23.15H61.33ZM41.91,23.15V42H25.42V23.15ZM25.42,45H41.91V63.85H25.42ZM44.84,63.85V45H61.33V63.85Z" fill="#fff"/><path d="M85.35,13.57A1.47,1.47,0,0,0,84,13.44L67.32,20.33a1.48,1.48,0,0,0-.91,1.36V65.31a1.48,1.48,0,0,0,.91,1.36L84,73.56a1.38,1.38,0,0,0,.56.12,1.52,1.52,0,0,0,.82-.25A1.46,1.46,0,0,0,86,72.21V14.79A1.46,1.46,0,0,0,85.35,13.57ZM83.07,70,69.34,64.33V22.67L83.07,17Z" fill="#fff"/><path d="M19.68,20.33,3,13.44a1.47,1.47,0,0,0-1.38.13A1.46,1.46,0,0,0,1,14.79V72.21a1.46,1.46,0,0,0,.65,1.22,1.52,1.52,0,0,0,.82.25A1.38,1.38,0,0,0,3,73.56l16.65-6.89a1.48,1.48,0,0,0,.91-1.36V21.69A1.48,1.48,0,0,0,19.68,20.33Zm-2,44L3.93,70V17l13.73,5.69Z" fill="#fff"/></svg>