<svg id="Calque_1" data-name="Calque 1" xmlns="http://www.w3.org/2000/svg" viewBox="0 0 87 87"><path d="M49.73,11.88a.85.85,0,0,1,.85.84V23.08a12,12,0,0,0-8.3-3.26,9.64,9.64,0,0,0-1.24.07,11.51,11.51,0,0,0-1.43.23c-.17,0-.34.08-.53.13l-.66.2c-.19.06-.37.13-.54.2a3.93,3.93,0,0,0-.43.18l-.36.16c-.31.15-.62.31-.93.49l0,0,0,0-.07,0-.23.14A12.14,12.14,0,0,0,34,23.11V12.72a.85.85,0,0,1,.84-.84H49.73M34,40.81l.09.09.38.33.31.25a11.5,11.5,0,0,0,1.71,1.13,5.68,5.68,0,0,0,.55.28l.47.22a4.71,4.71,0,0,0,.52.21l.28.1.39.13.52.15.65.15.46.09h0l.17,0h.06l.24,0,.26,0,.47,0q.31,0,.63,0h.07c.27,0,.55,0,.79,0a12,12,0,0,0,7.54-3.25V74.28a.85.85,0,0,1-.85.84H34.82a.85.85,0,0,1-.84-.84V40.81M49.73,8.88H34.82A3.84,3.84,0,0,0,31,12.72V74.28a3.84,3.84,0,0,0,3.84,3.84H49.73a3.85,3.85,0,0,0,3.85-3.84V36.51H50.2a8,8,0,0,1-.67,1,9.06,9.06,0,0,1-6.67,3.56l-.61,0h-.07l-.43,0-.43,0h-.08l-.33,0h-.06l-.41-.08L40,40.8l-.41-.12-.34-.11-.13,0a2.39,2.39,0,0,1-.37-.15l-.4-.18-.39-.2a8.37,8.37,0,0,1-1.32-.87l-.23-.19-.28-.25a8.07,8.07,0,0,1-.59-.58l-.28-.33L35,37.42c-.09-.11-.17-.23-.26-.35l-.24-.37-.22-.39a7.33,7.33,0,0,1-.38-.8c-.06-.13-.11-.27-.17-.41s-.1-.28-.14-.43a1.21,1.21,0,0,1,0-.18.57.57,0,0,1,0-.14h0l0-.17,0-.16h0a.3.3,0,0,0,0-.1c0-.19-.07-.38-.1-.57s0-.23,0-.34a.49.49,0,0,1,0-.12l0-.41c0-.14,0-.28,0-.42s0-.33,0-.5l0-.41a3,3,0,0,1,0-.42,5.64,5.64,0,0,1,.15-.82,8.29,8.29,0,0,1,.36-1.2A9,9,0,0,1,35,26.5a3,3,0,0,1,.27-.35l.23-.28.06-.05.3-.32a8.54,8.54,0,0,1,1.57-1.25l.27-.17a8,8,0,0,1,.77-.4l.21-.1.35-.14.37-.14.54-.16.33-.08a8.45,8.45,0,0,1,1.12-.19c.3,0,.62-.05.93-.05a9.06,9.06,0,0,1,7.92,4.59h3.38V12.72a3.85,3.85,0,0,0-3.85-3.84Z" fill="#fff"/><path d="M83.87,32a2.63,2.63,0,0,1-2.63,2.63H49.62a1,1,0,0,0-.86.54,7.28,7.28,0,0,1-2.66,3l-.36.21a4.85,4.85,0,0,1-.61.29,2.5,2.5,0,0,1-.38.15,6.91,6.91,0,0,1-2.84.42l-.37,0-.35,0L40.83,39,40.47,39l-.34-.1a7.6,7.6,0,0,1-1.88-.91l-.29-.2c-.13-.11-.27-.21-.4-.33a8.38,8.38,0,0,1-.73-.73,4.23,4.23,0,0,1-.33-.41L36.3,36a6.2,6.2,0,0,1-.5-.86s0,0,0-.05c-.1-.21-.2-.42-.28-.64a5.53,5.53,0,0,1-.2-.66,5.12,5.12,0,0,1-.14-.68.83.83,0,0,1,0-.22s0-.06,0-.09,0-.12,0-.18a2.4,2.4,0,0,1,0-.28,7.12,7.12,0,0,1,0-.8,4.62,4.62,0,0,1,.07-.65c0-.13,0-.26.06-.39s0-.22.08-.33a5.94,5.94,0,0,1,.18-.6A7.58,7.58,0,0,1,36,28.47a5.84,5.84,0,0,1,.33-.53,3.06,3.06,0,0,1,.21-.29l.21-.27.23-.27.24-.25a7,7,0,0,1,.71-.62,2.76,2.76,0,0,1,.39-.28l.21-.14c.16-.1.33-.19.5-.28l.35-.16a2.52,2.52,0,0,1,.34-.15l.36-.12L40.4,25a6.08,6.08,0,0,1,.74-.16l.37-.05a6.62,6.62,0,0,1,.77,0,7.15,7.15,0,0,1,6.48,4,1,1,0,0,0,.86.54H81.24A2.63,2.63,0,0,1,83.87,32Z" fill="#fff"/></svg>