<svg id="Calque_1" data-name="Calque 1" xmlns="http://www.w3.org/2000/svg" viewBox="0 0 87 87"><path d="M86,62a1,1,0,0,0,0-.24v-.06a1.68,1.68,0,0,0-.08-.24L67.59,16.56a1.47,1.47,0,0,0-1.36-.91H20.77a1.47,1.47,0,0,0-1.36.91L1.11,61.48c0,.08-.05.16-.07.23v.06A1,1,0,0,0,1,62v7.87a1.47,1.47,0,0,0,1.47,1.47H84.53A1.47,1.47,0,0,0,86,69.88V62ZM74.37,41H61.91l-2.3-13.16H69ZM65.24,18.59,67.8,24.9H59.1L58,18.59Zm-19.82,0H55l1.1,6.31H45.42Zm0,9.26h11.2L58.92,41H45.42Zm0,16.11h14l2.9,16.61H45.42ZM32.89,18.59h9.58V24.9H31.79Zm9.58,9.26V41H29l2.3-13.16Zm0,16.11V60.57H25.56L28.46,44ZM21.76,18.59H29.9L28.8,24.9H19.2ZM18,27.85H28.28L26,41H12.63ZM11.43,44h14l-2.9,16.61H4.67Zm70.9,24.29H4.67v-5H82.33Zm-17-7.68L62.42,44H75.57l6.76,16.61Z" fill="#fff"/></svg>