<svg id="Calque_1" data-name="Calque 1" xmlns="http://www.w3.org/2000/svg" viewBox="0 0 87 87"><path d="M71.89,13.73H43.75l-.25,0H15.11a1.37,1.37,0,0,0-1.37,1.37V71.91a1.37,1.37,0,0,0,1.37,1.37H71.89a1.37,1.37,0,0,0,1.37-1.37V15.1A1.37,1.37,0,0,0,71.89,13.73ZM27.94,70.54H16.48V59.07H27.94ZM16.48,56.32V16.5H27.94V56.32Zm25.65,1.35h0V70.52H30.67V30.66H42.13Zm0-29.75H30.67V16.5H42.13ZM56.32,70.54H44.87V59.08H56.33Zm0-14.2H44.87V29.53a1.45,1.45,0,0,0,0-.48V16.5H47.3V48.94h1V16.5h8Zm14.19,14.2H59.06V30.68H70.52Zm0-42.61H59.06V16.5H70.52Z" fill="#fff"/><rect x="18.69" y="18.91" width="1" height="33.49" fill="#fff"/><rect x="32.93" y="33.87" width="1" height="33.49" fill="#fff"/><rect x="61.67" y="33.87" width="1" height="33.49" fill="#fff"/></svg>