<svg id="Calque_1" data-name="Calque 1" xmlns="http://www.w3.org/2000/svg" viewBox="0 0 87 87"><path d="M43.5,52.79H7.25a1.5,1.5,0,0,1-1.5-1.5V35.71a1.5,1.5,0,0,1,1.5-1.5H43.5a1.5,1.5,0,0,1,1.5,1.5V51.29A1.5,1.5,0,0,1,43.5,52.79Zm-34.75-3H42V37.21H8.75Z" fill="#fff"/><path d="M79.75,52.79H43.5a1.5,1.5,0,0,1-1.5-1.5V35.71a1.5,1.5,0,0,1,1.5-1.5H79.75a1.5,1.5,0,0,1,1.5,1.5V51.29A1.5,1.5,0,0,1,79.75,52.79ZM45,49.79H78.25V37.21H45Z" fill="#fff"/><path d="M25.1,41.16a.84.84,0,0,1-.53-.19l-4.83-4a.71.71,0,0,1-.19-.87.79.79,0,0,1,.71-.43H25.1a.76.76,0,0,1,.79.74v4.05a.74.74,0,0,1-.51.69A.72.72,0,0,1,25.1,41.16Zm-2.75-4,2,1.63V37.12Z" fill="#fff"/><path d="M12.38,51.79H7.55a.77.77,0,0,1-.8-.74V47a.75.75,0,0,1,.52-.7.84.84,0,0,1,.8.14l4.84,4a.71.71,0,0,1,.19.87A.8.8,0,0,1,12.38,51.79Zm-4-1.49h2l-2-1.63Z" fill="#fff"/><path d="M12.38,51.79a.8.8,0,0,1-.53-.19L7,47.56a.71.71,0,0,1,0-1.11L19.74,35.82a.82.82,0,0,1,1.05,0l4.84,4a.72.72,0,0,1,0,1.11L12.91,51.61A.81.81,0,0,1,12.38,51.79ZM8.74,47l3.64,3,11.53-9.63-3.65-3.05Z" fill="#fff"/><path d="M25.1,51.79H21.24a.78.78,0,0,1-.53-.19l-3.23-2.7a.71.71,0,0,1-.19-.87A.79.79,0,0,1,18,47.6h3.07V45.12a.76.76,0,0,1,.52-.7.82.82,0,0,1,.8.14l3.24,2.7a.74.74,0,0,1,.26.56v3.23A.76.76,0,0,1,25.1,51.79ZM21.54,50.3h2.77V48.16l-1.66-1.38v1.56a.77.77,0,0,1-.79.75H20.09Z" fill="#fff"/><path d="M10.78,43.05a.86.86,0,0,1-.53-.19L7,40.16a.74.74,0,0,1-.27-.56V36.37a.77.77,0,0,1,.8-.74H11.4a.81.81,0,0,1,.53.18l3.24,2.71a.73.73,0,0,1,.19.88.81.81,0,0,1-.72.42H11.57V42.3a.79.79,0,0,1-.79.75ZM8.34,39.26,10,40.64V39.08a.78.78,0,0,1,.79-.75h1.78L11.1,37.12H8.34Z" fill="#fff"/><path d="M43.21,51.81H38.38a.8.8,0,0,1-.72-.43l0-.11,0-.21a.74.74,0,0,1,.26-.56l4.83-4a.83.83,0,0,1,.8-.15A.76.76,0,0,1,44,47v4.05A.78.78,0,0,1,43.21,51.81Zm-2.75-1.49h2V48.68Z" fill="#fff"/><path d="M25.69,41.15a.86.86,0,0,1-.28,0,.76.76,0,0,1-.52-.7v-4a.77.77,0,0,1,.79-.74h4.83a.79.79,0,0,1,.72.42.72.72,0,0,1-.19.88l-4.83,4A.78.78,0,0,1,25.69,41.15Zm.79-4v1.64l1.95-1.64Z" fill="#fff"/><path d="M38.38,51.81a.86.86,0,0,1-.53-.19L25.16,41a.7.7,0,0,1-.27-.55.74.74,0,0,1,.27-.56L30,35.8a.87.87,0,0,1,1.06,0l12.7,10.66A.72.72,0,0,1,44,47a.76.76,0,0,1-.26.56l-4.83,4A.84.84,0,0,1,38.38,51.81Zm-11.5-11.4,11.5,9.65L42,47,30.51,37.36Z" fill="#fff"/><path d="M29.54,51.81H25.68a.78.78,0,0,1-.79-.75V47.83a.74.74,0,0,1,.27-.56l3.23-2.71a.83.83,0,0,1,.8-.14.76.76,0,0,1,.52.7v2.49h3.06a.79.79,0,0,1,.72.43.72.72,0,0,1-.19.87l-3.24,2.71A.81.81,0,0,1,29.54,51.81Zm-3.06-1.49h2.75l1.46-1.23H28.92a.77.77,0,0,1-.8-.74V46.78l-1.64,1.38Z" fill="#fff"/><path d="M40,43.05a.87.87,0,0,1-.28,0,.76.76,0,0,1-.52-.7V39.82H36.12a.8.8,0,0,1-.71-.43l-.06-.11,0-.21a.75.75,0,0,1,.27-.56l3.23-2.71a.81.81,0,0,1,.53-.18h3.85a.77.77,0,0,1,.79.74v3.23a.76.76,0,0,1-.26.56L40.5,42.86A.81.81,0,0,1,40,43.05ZM38.2,38.33H40a.77.77,0,0,1,.79.74v1.57l1.65-1.38V37.11H39.66Z" fill="#fff"/><path d="M61.35,41.16a.82.82,0,0,1-.53-.19l-4.84-4a.74.74,0,0,1-.19-.87.81.81,0,0,1,.72-.43h4.84a.77.77,0,0,1,.79.74v4.05a.74.74,0,0,1-.52.69A.71.71,0,0,1,61.35,41.16Zm-2.75-4,1.95,1.63V37.12Z" fill="#fff"/><path d="M48.63,51.79H43.79a.77.77,0,0,1-.79-.74V47a.76.76,0,0,1,.52-.7.82.82,0,0,1,.8.14l4.83,4a.71.71,0,0,1,.19.88A.79.79,0,0,1,48.63,51.79ZM44.58,50.3h2l-2-1.63Z" fill="#fff"/><path d="M48.63,51.79a.77.77,0,0,1-.53-.19l-4.83-4a.71.71,0,0,1,0-1.11L56,35.82a.84.84,0,0,1,1.06,0l4.83,4a.71.71,0,0,1,0,1.11L49.15,51.61A.8.8,0,0,1,48.63,51.79ZM45,47l3.64,3,11.52-9.63-3.64-3.05Z" fill="#fff"/><path d="M61.35,51.79H57.49A.77.77,0,0,1,57,51.6l-3.24-2.7a.73.73,0,0,1-.19-.87.8.8,0,0,1,.72-.43h3.07V45.12a.75.75,0,0,1,.51-.7.84.84,0,0,1,.81.14l3.23,2.7a.75.75,0,0,1,.27.56v3.23A.77.77,0,0,1,61.35,51.79ZM57.79,50.3h2.76V48.16L58.9,46.78v1.56a.77.77,0,0,1-.79.75H56.34Z" fill="#fff"/><path d="M47,43.05a.84.84,0,0,1-.53-.19l-3.23-2.7A.74.74,0,0,1,43,39.6V36.37a.77.77,0,0,1,.79-.74h3.86a.78.78,0,0,1,.53.19l3.23,2.7a.71.71,0,0,1,.19.88.79.79,0,0,1-.71.42H47.82V42.3a.74.74,0,0,1-.52.7A.65.65,0,0,1,47,43.05Zm-2.45-3.79,1.66,1.38V39.08a.77.77,0,0,1,.79-.75H48.8l-1.45-1.21H44.58Z" fill="#fff"/><path d="M79.45,51.81H74.63a.8.8,0,0,1-.72-.43l0-.11,0-.21a.75.75,0,0,1,.27-.56l4.83-4a.83.83,0,0,1,.8-.15.76.76,0,0,1,.52.7v4.05A.78.78,0,0,1,79.45,51.81Zm-2.74-1.49h2V48.68Z" fill="#fff"/><path d="M61.93,41.16a.86.86,0,0,1-.27,0,.76.76,0,0,1-.52-.7v-4a.76.76,0,0,1,.79-.74h4.83a.78.78,0,0,1,.72.43.74.74,0,0,1-.19.87l-4.83,4A.81.81,0,0,1,61.93,41.16Zm.79-4v1.64l2-1.64Z" fill="#fff"/><path d="M74.63,51.81a.84.84,0,0,1-.53-.19L61.4,41a.72.72,0,0,1-.26-.55.74.74,0,0,1,.26-.56l4.83-4.05a.86.86,0,0,1,1,0L80,46.46a.7.7,0,0,1,.27.55.74.74,0,0,1-.27.56l-4.82,4A.86.86,0,0,1,74.63,51.81ZM63.12,40.41l11.51,9.65L78.26,47l-11.5-9.65Z" fill="#fff"/><path d="M65.78,51.81H61.93a.77.77,0,0,1-.79-.75V47.83a.73.73,0,0,1,.26-.56l3.23-2.71a.84.84,0,0,1,.81-.14.75.75,0,0,1,.51.7v2.49H69a.79.79,0,0,1,.72.42.72.72,0,0,1-.19.88l-3.23,2.71A.82.82,0,0,1,65.78,51.81Zm-3.06-1.49h2.76l1.45-1.23H65.16a.76.76,0,0,1-.79-.74V46.78l-1.65,1.38Z" fill="#fff"/><path d="M76.22,43.05A.86.86,0,0,1,76,43a.76.76,0,0,1-.52-.7V39.82H72.37a.8.8,0,0,1-.72-.43l-.05-.11,0-.21a.74.74,0,0,1,.26-.56l3.23-2.71a.85.85,0,0,1,.53-.18h3.85a.77.77,0,0,1,.8.74v3.23a.74.74,0,0,1-.27.56l-3.23,2.71A.84.84,0,0,1,76.22,43.05Zm-1.77-4.72h1.77a.77.77,0,0,1,.8.74v1.57l1.64-1.38V37.11H75.91Z" fill="#fff"/></svg>