<svg id="Calque_1" data-name="Calque 1" xmlns="http://www.w3.org/2000/svg" viewBox="0 0 87 87"><path d="M54.21,51.22H64.29a.55.55,0,0,1,.53.56v1.87a.55.55,0,0,1-.53.56H54.21a.55.55,0,0,1-.53-.56V51.78A.55.55,0,0,1,54.21,51.22Z" fill="#fff"/><path d="M28.92,21.57a2.64,2.64,0,0,1-1,0,3.23,3.23,0,0,1-2.54-3.73,3.1,3.1,0,0,1,3.51-2.71l8.86,1.52a3.42,3.42,0,0,1,6.83,0l8.86-1.52a3.15,3.15,0,0,1,1,0A3.25,3.25,0,0,1,57,18.87a3.09,3.09,0,0,1-3.51,2.7l-8.84-1.51v4.22h2.73a.55.55,0,0,1,.52.56v2.64a.54.54,0,0,1-.52.56H46.2a9.14,9.14,0,0,1,2.6,3.05C63.93,31.28,63.56,44,63.56,44v6.35H54.94V44.69c-.24-4.22-5.12-4.38-6.24-4.37a8.46,8.46,0,0,1-15.11-.18H26.13v-9h7.46A9.14,9.14,0,0,1,36.19,28H35a.54.54,0,0,1-.52-.56V24.84a.55.55,0,0,1,.52-.56h2.73V20.06Z" fill="#fff"/><path d="M23.63,29a1.5,1.5,0,0,1,1.45,1.54v10.1a1.45,1.45,0,1,1-2.9,0V30.57A1.5,1.5,0,0,1,23.63,29Z" fill="#fff"/><path d="M63.92,68.42a4.69,4.69,0,1,1-9.33,0c0-3.19,4.66-9.55,4.66-9.55S63.92,65.23,63.92,68.42Z" fill="#fff"/></svg>