<svg id="Calque_1" data-name="Calque 1" xmlns="http://www.w3.org/2000/svg" viewBox="0 0 87 87"><polygon points="29.75 77.84 16.77 77.84 16.77 9.16 29.75 9.16 29.75 12.16 19.77 12.16 19.77 74.84 29.75 74.84 29.75 77.84" fill="#fff"/><path d="M39.38,5l26.35,7.86V74.11L39.38,82V5m-3-4V86l32.35-9.66V10.66L36.38,1Z" fill="#fff"/><rect x="32.38" y="1" width="4" height="85" fill="#fff"/><rect x="43.43" y="38.63" width="18.76" height="18.76" rx="3.21" fill="#fff"/><path d="M58.81,38.63h-3V34.12a3,3,0,1,0-6,0v4.51h-3V34.12a6,6,0,1,1,12,0Z" fill="#fff"/></svg>