<svg id="Calque_1" data-name="Calque 1" xmlns="http://www.w3.org/2000/svg" viewBox="0 0 87 87"><path d="M66.56,25.16v4.11c0,6.77-5.28,11.32-13.14,11.32H33.58c-7.86,0-13.14-4.55-13.14-11.32V25.16H66.56M67.86,23H19.14a.9.9,0,0,0-.9.91v5.41c0,8,6.3,13.53,15.34,13.53H53.42c9,0,15.34-5.56,15.34-13.53V23.86a.9.9,0,0,0-.9-.91Z" fill="#fff"/><path d="M52.65,47.3,51.23,74.79a3.31,3.31,0,0,1-3.31,3H39.08a3.32,3.32,0,0,1-3.31-3L34.35,47.3h18.3m3.19-2.69H31.16l1.72,30.15a6.33,6.33,0,0,0,6.32,5.73h8.6a6.33,6.33,0,0,0,6.32-5.73l1.72-30.15Z" fill="#fff"/><path d="M45.16,12.33a.84.84,0,0,1,1.67,0V14a.83.83,0,0,0,.83.83H51a.84.84,0,0,0,.84-.83V12.33a5.83,5.83,0,0,0-11.65,0v7.49h5Z" fill="#fff"/><path d="M49.32,16.49a.83.83,0,1,0,0,1.66h.83v1.67h5V18.15H56a.83.83,0,0,0,0-1.66H49.32Z" fill="#fff"/><path d="M31,18.15h.83v1.67h5V18.15h.83a.83.83,0,1,0,0-1.66H31a.83.83,0,1,0,0,1.66Z" fill="#fff"/><path d="M45,57.16H42a.85.85,0,0,1-.84-.84V48.58a.84.84,0,0,1,.84-.83h3a.84.84,0,0,1,.84.83v7.74A.85.85,0,0,1,45,57.16Zm-2.17-1.68H44.2V49.42H42.87Z" fill="#fff"/><path d="M47.79,65.22H39.31a.84.84,0,0,1-.63-.28.87.87,0,0,1-.2-.66l.72-5.91a3.08,3.08,0,0,1,3-2.89H45a3.1,3.1,0,0,1,3,2.89l.68,5.92a.84.84,0,0,1-.83.93Zm-7.53-1.67h6.59l-.58-5A1.44,1.44,0,0,0,45,57.16H42.19a1.45,1.45,0,0,0-1.32,1.41Z" fill="#fff"/><path d="M44.91,73.29H42.15a3.09,3.09,0,0,1-3-2.9l-.68-5.91a.84.84,0,0,1,.83-.93h8.48a.82.82,0,0,1,.62.28.84.84,0,0,1,.21.66l-.73,5.91A3.07,3.07,0,0,1,44.91,73.29Zm-4.66-8.07.58,5a1.43,1.43,0,0,0,1.32,1.41h2.76a1.45,1.45,0,0,0,1.32-1.41l.61-5Z" fill="#fff"/><path d="M46.08,49.42H40.89a.84.84,0,0,1-.67-.33,2.56,2.56,0,0,1-.53-1.57c0-.08,0-.15,0-.23a.85.85,0,0,1,.84-.78h5.89a.82.82,0,0,1,.83.77h0a2.37,2.37,0,0,1,0,.24,3,3,0,0,1-.52,1.57A.84.84,0,0,1,46.08,49.42Z" fill="#fff"/><path d="M51.78,62.48H47.73a.84.84,0,0,1-.83-.7l-.65-3.91a.84.84,0,0,1,.19-.68.86.86,0,0,1,.64-.29h4.7a.84.84,0,0,1,.84.84v3.91A.84.84,0,0,1,51.78,62.48Zm-3.34-1.67h2.5V58.57H48.07Z" fill="#fff"/></svg>