<svg id="Calque_1" data-name="Calque 1" xmlns="http://www.w3.org/2000/svg" viewBox="0 0 87 87"><rect x="26.27" y="59.64" width="3" height="3.66" fill="#fff"/><rect x="57.73" y="44.91" width="3" height="3.66" fill="#fff"/><rect x="57.73" y="52.28" width="3" height="3.66" fill="#fff"/><rect x="57.73" y="59.64" width="3" height="3.66" fill="#fff"/><rect x="57.73" y="67.01" width="3" height="3.66" fill="#fff"/><rect x="26.27" y="52.28" width="3" height="3.66" fill="#fff"/><rect x="26.27" y="44.91" width="3" height="3.66" fill="#fff"/><rect x="57.73" y="30.18" width="3" height="3.66" fill="#fff"/><rect x="57.73" y="22.81" width="3" height="3.66" fill="#fff"/><rect x="26.27" y="37.54" width="3" height="3.66" fill="#fff"/><rect x="57.73" y="37.54" width="3" height="3.66" fill="#fff"/><rect x="26.27" y="67.01" width="3" height="3.66" fill="#fff"/><rect x="26.27" y="22.81" width="3" height="3.66" fill="#fff"/><rect x="26.27" y="16.03" width="3.66" height="3" fill="#fff"/><rect x="57.06" y="16.03" width="3.66" height="3" fill="#fff"/><rect x="49.37" y="16.03" width="3.66" height="3" fill="#fff"/><rect x="41.67" y="16.03" width="3.66" height="3" fill="#fff"/><rect x="33.97" y="16.03" width="3.66" height="3" fill="#fff"/><rect x="26.27" y="30.18" width="3" height="3.66" fill="#fff"/><polygon points="52.06 42 45 42 45 34.94 42 34.94 42 42 34.94 42 34.94 45 42 45 42 52.06 45 52.06 45 45 52.06 45 52.06 42" fill="#fff"/><polygon points="6.16 9.63 6.16 77.38 29.27 77.38 29.27 74.38 26.27 74.38 21.35 74.38 9.16 74.38 9.16 12.63 77.84 12.63 77.84 74.38 65.51 74.38 60.73 74.38 57.73 74.38 57.73 77.38 80.84 77.38 80.84 9.63 6.16 9.63" fill="#fff"/></svg>