<svg id="Calque_1" data-name="Calque 1" xmlns="http://www.w3.org/2000/svg" viewBox="0 0 87 87"><path d="M78.47,34.79,76.1,44.14a12.88,12.88,0,0,1-12.49,9.73H23.39A12.88,12.88,0,0,1,10.9,44.14L8.53,34.79H78.47m3.86-3H4.67L8,44.88a15.89,15.89,0,0,0,15.4,12H63.61a15.89,15.89,0,0,0,15.4-12l3.32-13.09Z" fill="#fff"/><path d="M81.57,29.11a1.43,1.43,0,1,1,0,2.85H5.43a1.43,1.43,0,1,1,0-2.85H81.57m0-3H5.43a4.43,4.43,0,1,0,0,8.85H81.57a4.43,4.43,0,1,0,0-8.85Z" fill="#fff"/><circle cx="24.43" cy="57.74" r="3.15" fill="#fff"/><circle cx="62.57" cy="57.74" r="3.15" fill="#fff"/></svg>