<svg id="Calque_1" data-name="Calque 1" xmlns="http://www.w3.org/2000/svg" viewBox="0 0 87 87"><path d="M43.5,76.39A32.89,32.89,0,1,1,76.39,43.5,32.92,32.92,0,0,1,43.5,76.39Zm0-62.78A29.89,29.89,0,1,0,73.39,43.5,29.93,29.93,0,0,0,43.5,13.61Z" fill="#fff"/><path d="M24.28,49.15v-9h-.71V37.85h2.88v11.3Z" fill="#fff"/><path d="M34.84,42.42c.43,0,.65-.07.65-.22V40.29c0-.18-.22-.27-.65-.27h-7V37.85h7.22c1.72,0,2.58.69,2.58,2.06v2.63c0,1.35-.83,2-2.49,2H30.62c-.43,0-.65.08-.65.24V47h7.65v2.17H27.84V44.46c0-1.34.83-2,2.48-2Z" fill="#fff"/><path d="M41,44.76H38.91V42.6H41Zm0,4.39H38.91V47H41Z" fill="#fff"/><path d="M45,49.15c-1.71,0-2.56-.68-2.56-2v-7.2c0-1.37.85-2.06,2.56-2.06h4.65c1.72,0,2.58.69,2.58,2.06v7.2q0,2-2.58,2ZM49.42,47c.43,0,.64-.08.64-.25V40.29c0-.18-.21-.27-.64-.27H45.17c-.41,0-.62.09-.62.27v6.44c0,.17.21.25.62.25Z" fill="#fff"/><path d="M56.2,49.15c-1.7,0-2.56-.68-2.56-2v-7.2c0-1.37.86-2.06,2.56-2.06h4.66c1.71,0,2.57.69,2.57,2.06v7.2c0,1.36-.86,2-2.57,2ZM60.64,47c.43,0,.65-.08.65-.25V40.29c0-.18-.22-.27-.65-.27H56.4q-.63,0-.63.27v6.44c0,.17.21.25.63.25Z" fill="#fff"/></svg>