<svg id="Calque_1" data-name="Calque 1" xmlns="http://www.w3.org/2000/svg" viewBox="0 0 87 87"><path d="M79.9,38.38l5.71-8.31a2.26,2.26,0,0,0-3.72-2.55l-3.43,5A36.75,36.75,0,0,0,7.35,36.36a2.25,2.25,0,1,0,4.42.87,32.25,32.25,0,0,1,62.42-3.31L68.7,32.65a2.25,2.25,0,1,0-1,4.39l9.83,2.27.08,0H78a2.19,2.19,0,0,0,.77-.13h0l.09,0h0l.09,0,0,0,.05,0,.1-.06,0,0,.06,0,0,0,.07,0,.06-.05,0,0,.06,0,0,0,.08-.09h0A1.3,1.3,0,0,0,79.9,38.38Z" fill="#fff"/><path d="M77.67,48A2.26,2.26,0,0,0,75,49.77,32.24,32.24,0,0,1,12.59,53l5.71,1.32a2.21,2.21,0,0,0,.51,0,2.25,2.25,0,0,0,.5-4.44L9.52,47.7h0l-.11,0h-.6a2,2,0,0,0-.42.07h0l-.09,0h0l-.06,0-.06,0,0,0-.08,0H8l-.09,0h0a2.4,2.4,0,0,0-.26.18h0l-.07.06h0l0,.06,0,0,0,0,0,0,0,0-.06,0v0l-.06.08h0l-.06.08h0l0,0v0L1.39,56.93A2.25,2.25,0,0,0,2,60.06a2.22,2.22,0,0,0,1.27.4,2.24,2.24,0,0,0,1.86-1L8.4,54.69a36.74,36.74,0,0,0,71-4A2.25,2.25,0,0,0,77.67,48Z" fill="#fff"/><g id="NewGroupe4"><g id="NewGroup65-1"><path d="M26.33,29.06a.38.38,0,0,1,.38-.37H60.29a.38.38,0,0,1,.38.37V57.94a.38.38,0,0,1-.38.38H26.71a.38.38,0,0,1-.38-.38V29.06Zm9.28-4.24a.37.37,0,0,1,.35-.25H51a.38.38,0,0,1,.36.25l.77,2.37H34.83l.78-2.37ZM51.39,62.17a.36.36,0,0,1-.35.26H36a.38.38,0,0,1-.36-.25l-.77-2.36H52.17l-.78,2.35Zm8.9-35H54a.36.36,0,0,1-.35-.26l-.85-2.57A1.87,1.87,0,0,0,51,23.07H36a1.87,1.87,0,0,0-1.78,1.29l-.85,2.57a.36.36,0,0,1-.35.26H26.71a1.88,1.88,0,0,0-1.88,1.87V57.94a1.88,1.88,0,0,0,1.88,1.88H33a.37.37,0,0,1,.35.25l.85,2.57A1.87,1.87,0,0,0,36,63.93H51a1.87,1.87,0,0,0,1.78-1.29l.84-2.57a.39.39,0,0,1,.36-.25h6.27a1.88,1.88,0,0,0,1.88-1.88V29.06a1.88,1.88,0,0,0-1.88-1.87Z" fill="#fff"/><path d="M43.5,59.92a1,1,0,1,0,1,1,1,1,0,0,0-1-1Z" fill="#fff"/><path d="M37.85,59.92a1,1,0,1,0,1,1,1,1,0,0,0-1-1Z" fill="#fff"/><path d="M49.15,59.92a1,1,0,1,0,1,1,1,1,0,0,0-1-1Z" fill="#fff"/><path d="M49.14,27.1a1,1,0,1,0-1-1,1,1,0,0,0,1,1Z" fill="#fff"/><path d="M43.5,27.1a1,1,0,1,0-1-1,1,1,0,0,0,1,1Z" fill="#fff"/><path d="M37.85,27.1a1,1,0,1,0-1-1,1,1,0,0,0,1,1Z" fill="#fff"/></g></g><path d="M43.5,56.55a13,13,0,1,1,13-13A13.06,13.06,0,0,1,43.5,56.55Zm0-24.85A11.8,11.8,0,1,0,55.3,43.5,11.82,11.82,0,0,0,43.5,31.7Z" fill="#fff"/><rect x="43.18" y="33.1" width="0.62" height="4.65" fill="#fff"/><rect x="40.42" y="33.59" width="0.62" height="4.65" transform="translate(-9.83 16.1) rotate(-20)" fill="#fff"/><rect x="38" y="34.99" width="0.62" height="4.65" transform="translate(-15.03 33.35) rotate(-40)" fill="#fff"/><rect x="36.19" y="37.14" width="0.62" height="4.65" transform="translate(-15.93 51.35) rotate(-60)" fill="#fff"/><rect x="35.23" y="39.77" width="0.62" height="4.65" transform="translate(-12.09 69.8) rotate(-80.01)" fill="#fff"/><rect x="33.22" y="44.59" width="4.65" height="0.62" transform="translate(-7.27 6.87) rotate(-10.01)" fill="#fff"/><rect x="34.18" y="47.23" width="4.65" height="0.62" transform="translate(-18.89 24.64) rotate(-30.02)" fill="#fff"/><rect x="35.98" y="49.38" width="4.65" height="0.62" transform="translate(-24.38 47.09) rotate(-49.99)" fill="#fff"/><rect x="38.41" y="50.78" width="4.65" height="0.62" transform="translate(-21.2 71.9) rotate(-70.01)" fill="#fff"/><rect x="43.18" y="49.25" width="0.62" height="4.65" fill="#fff"/><rect x="45.95" y="48.76" width="0.62" height="4.65" transform="translate(-14.68 18.9) rotate(-20)" fill="#fff"/><rect x="48.37" y="47.36" width="0.62" height="4.65" transform="translate(-20.55 42.92) rotate(-40)" fill="#fff"/><rect x="50.18" y="45.21" width="0.62" height="4.65" transform="translate(-15.93 67.49) rotate(-60)" fill="#fff"/><rect x="51.13" y="42.58" width="0.62" height="4.65" transform="matrix(0.17, -0.98, 0.98, 0.17, -1.71, 87.77)" fill="#fff"/><rect x="49.12" y="41.79" width="4.65" height="0.62" transform="translate(-6.54 9.59) rotate(-10.01)" fill="#fff"/><rect x="48.16" y="39.16" width="4.65" height="0.62" transform="translate(-12.97 30.56) rotate(-30.02)" fill="#fff"/><rect x="46.36" y="37.01" width="4.65" height="0.62" transform="translate(-11.2 50.62) rotate(-49.99)" fill="#fff"/><rect x="43.93" y="35.61" width="4.65" height="0.62" transform="translate(-3.31 67.11) rotate(-70.01)" fill="#fff"/></svg>