<svg id="Calque_1" data-name="Calque 1" xmlns="http://www.w3.org/2000/svg" viewBox="0 0 87 87"><path d="M71.27,13.39H15.73a4.3,4.3,0,0,0-4.29,4.29V58.8h3V26.27a4.26,4.26,0,0,0,1.29.22H71.27a4.3,4.3,0,0,0,4.29-4.29V17.68A4.3,4.3,0,0,0,71.27,13.39Zm1.29,8.81a1.29,1.29,0,0,1-1.29,1.29H15.73a1.29,1.29,0,0,1-1.29-1.29V17.68a1.29,1.29,0,0,1,1.29-1.29H71.27a1.29,1.29,0,0,1,1.29,1.29Z" fill="#fff"/><path d="M72.29,34.65H17.38v-6H72.29Zm-52.91-2H70.29v-2H19.38Z" fill="#fff"/><path d="M72.29,41.31H17.38v-6H72.29Zm-52.91-2H70.29v-2H19.38Z" fill="#fff"/><path d="M72.29,48H17.38V42H72.29ZM19.38,46H70.29V44H19.38Z" fill="#fff"/><path d="M72.29,54.63H17.38v-6H72.29Zm-52.91-2H70.29v-2H19.38Z" fill="#fff"/><path d="M72.29,61.29H17.38v-6H72.29Zm-52.91-2H70.29v-2H19.38Z" fill="#fff"/><path d="M72.29,68H17.38V62H72.29ZM19.38,66H70.29V64H19.38Z" fill="#fff"/><path d="M72.29,74.61H17.38v-6H72.29Zm-52.91-2H70.29v-2H19.38Z" fill="#fff"/></svg>