<svg id="Calque_1" data-name="Calque 1" xmlns="http://www.w3.org/2000/svg" viewBox="0 0 87 87"><g id="NewGroupe4"><g id="NewGroup65-1"><path d="M11.83,26a.8.8,0,0,1,.8-.8H43.41a.8.8,0,0,1,.8.8V61a.8.8,0,0,1-.8.8H12.63a.8.8,0,0,1-.8-.8V26Zm9.28-9a.8.8,0,0,1,.76-.55H34.18a.8.8,0,0,1,.76.55l1.65,5H19.45l1.66-5ZM34.94,70.07a.8.8,0,0,1-.76.55H21.87a.79.79,0,0,1-.76-.55l-1.65-5H36.59l-1.65,5ZM43.41,22H40.54a.8.8,0,0,1-.76-.54L38,15.93a4,4,0,0,0-3.8-2.75H21.87a4,4,0,0,0-3.8,2.75l-1.8,5.5a.81.81,0,0,1-.76.54H12.63a4,4,0,0,0-4,4V61a4,4,0,0,0,4,4h2.88a.8.8,0,0,1,.76.55l1.8,5.48a4,4,0,0,0,3.8,2.75H34.18A4,4,0,0,0,38,71.07l1.8-5.48a.8.8,0,0,1,.76-.55h2.87a4,4,0,0,0,4-4V26a4,4,0,0,0-4-4Z" fill="#fff"/><path d="M23.8,45.11h8.45v6.37a1,1,0,0,1-.94.94H24.74a.94.94,0,0,1-.94-.94V45.11Zm8.45-3.2H23.8V35.53a.94.94,0,0,1,.94-.94h6.57a1,1,0,0,1,.94.94v6.38ZM24.74,55.62h6.57a4.13,4.13,0,0,0,4.13-4.14V35.53a4.14,4.14,0,0,0-4.13-4.14H24.74a4.15,4.15,0,0,0-4.14,4.14V51.48a4.14,4.14,0,0,0,4.14,4.14Z" fill="#fff"/><path d="M28,21.37a2.2,2.2,0,1,0-2.19-2.19A2.2,2.2,0,0,0,28,21.37Z" fill="#fff"/><path d="M28,70a2.2,2.2,0,1,0-2.19-2.19A2.2,2.2,0,0,0,28,70Z" fill="#fff"/></g></g><path d="M78.19,53.23l-12-20.76a1.3,1.3,0,0,0-2.25,0L52,53.23a1.3,1.3,0,0,0,1.13,2h24a1.3,1.3,0,0,0,1.13-2ZM65.91,51.88a1.17,1.17,0,0,1-1.65,0,1.18,1.18,0,0,1-.35-.83.89.89,0,0,1,0-.22.81.81,0,0,1,.07-.22.78.78,0,0,1,.11-.2,1.1,1.1,0,0,1,.14-.18,1.22,1.22,0,0,1,1.65,0l.14.18a1.28,1.28,0,0,1,.11.2,1.42,1.42,0,0,1,.07.22c0,.08,0,.15,0,.22A1.16,1.16,0,0,1,65.91,51.88Zm.34-5.62a1.17,1.17,0,0,1-2.33,0V39.41a1.17,1.17,0,0,1,2.33,0Z" fill="#fff"/></svg>