<svg id="Calque_1" data-name="Calque 1" xmlns="http://www.w3.org/2000/svg" viewBox="0 0 87 87"><path d="M52.86,39.48H34.14a1.5,1.5,0,0,1-1.5-1.5V16.89a1.5,1.5,0,0,1,1.5-1.5H52.86a1.5,1.5,0,0,1,1.5,1.5V38A1.5,1.5,0,0,1,52.86,39.48Zm-17.22-3H51.36V18.39H35.64Z" fill="#fff"/><path d="M76.6,60.46H10.4A1.5,1.5,0,0,1,8.9,59V53.63a1.5,1.5,0,0,1,1.5-1.5H76.6a1.5,1.5,0,0,1,1.5,1.5V59A1.5,1.5,0,0,1,76.6,60.46Zm-64.7-3H75.1V55.13H11.9Z" fill="#fff"/><path d="M72.86,55.13H14.14a1.5,1.5,0,0,1-.92-2.68l20-15.65a1.53,1.53,0,0,1,.92-.32H52.86a1.53,1.53,0,0,1,.92.32l20,15.65a1.5,1.5,0,0,1-.92,2.68Zm-54.37-3h50L52.34,39.48H34.66Z" fill="#fff"/><path d="M10.4,64.78v5.33H76.6V64.78Zm5,3.83a1.17,1.17,0,1,1,1.16-1.16A1.16,1.16,0,0,1,15.44,68.61Zm5.1,0a1.17,1.17,0,1,1,1.17-1.16A1.16,1.16,0,0,1,20.54,68.61Zm5.11,0a1.17,1.17,0,1,1,1.16-1.16A1.16,1.16,0,0,1,25.65,68.61Zm5.1,0a1.17,1.17,0,1,1,1.16-1.16A1.16,1.16,0,0,1,30.75,68.61Zm5.1,0A1.17,1.17,0,1,1,37,67.45,1.16,1.16,0,0,1,35.85,68.61Zm5.1,0a1.17,1.17,0,1,1,1.16-1.16A1.16,1.16,0,0,1,41,68.61Zm5.1,0a1.17,1.17,0,1,1,1.16-1.16A1.16,1.16,0,0,1,46.05,68.61Zm5.1,0a1.17,1.17,0,1,1,1.16-1.16A1.16,1.16,0,0,1,51.15,68.61Zm5.1,0a1.17,1.17,0,1,1,1.16-1.16A1.16,1.16,0,0,1,56.25,68.61Zm5.1,0a1.17,1.17,0,1,1,1.17-1.16A1.16,1.16,0,0,1,61.35,68.61Zm5.11,0a1.17,1.17,0,1,1,1.16-1.16A1.16,1.16,0,0,1,66.46,68.61Zm5.1,0a1.17,1.17,0,1,1,1.16-1.16A1.16,1.16,0,0,1,71.56,68.61Z" fill="#fff"/></svg>