<svg id="Calque_1" data-name="Calque 1" xmlns="http://www.w3.org/2000/svg" viewBox="0 0 87 87"><rect x="51.43" y="1" width="14.34" height="21.35" rx="0.8" fill="#fff"/><path d="M35.49,4V35.85H35.1a3.8,3.8,0,0,0-3.79,3.8v7.17a3.51,3.51,0,0,0,.13,1h-17V4H35.49m2.2-3H12.19a.79.79,0,0,0-.79.8V50a.79.79,0,0,0,.79.79h25.5a.79.79,0,0,0,.8-.79V1.8a.8.8,0,0,0-.8-.8ZM35.1,47.62a.79.79,0,0,1-.79-.8V39.65a.79.79,0,0,1,.79-.8h.4a.8.8,0,0,1,.8.8v7.17a.8.8,0,0,1-.8.8Z" fill="#fff"/><path d="M31.55,57.19a3.81,3.81,0,0,0,0,.59V66a3.79,3.79,0,0,0,3.79,3.79h.19V83H14.4V57.19H31.55m6.14-3H12.19a.79.79,0,0,0-.79.8V85.2a.79.79,0,0,0,.79.8h25.5a.8.8,0,0,0,.8-.8V55a.8.8,0,0,0-.8-.8ZM35.3,66.74a.79.79,0,0,1-.79-.79V57.78a.79.79,0,0,1,.79-.8.8.8,0,0,1,.8.8V66a.79.79,0,0,1-.8.79Z" fill="#fff"/><path d="M42.47,86H74.34a.8.8,0,0,0,.8-.8V55a.8.8,0,0,0-.8-.8H42.47a.8.8,0,0,0-.8.8V85.2A.8.8,0,0,0,42.47,86ZM46.6,62.76H71.1a.79.79,0,0,1,.8.79V81.48a.8.8,0,0,1-.8.8H46.6a.8.8,0,0,1-.8-.8V63.55A.79.79,0,0,1,46.6,62.76Zm1.71-4.31a1.26,1.26,0,1,1-1.25-1.26A1.25,1.25,0,0,1,48.31,58.45Zm23.59,0a1.26,1.26,0,1,1-1.25-1.26A1.25,1.25,0,0,1,71.9,58.45Zm-16.24,0a1.26,1.26,0,1,1-1.26-1.26A1.25,1.25,0,0,1,55.66,58.45Zm8,0a1.26,1.26,0,1,1-1.26-1.26A1.25,1.25,0,0,1,63.66,58.45Z" fill="#fff"/><path d="M65.55,25.17H51.66a.81.81,0,0,0-.31.06l-9.19,3.85a.81.81,0,0,0-.49.74V30a.8.8,0,0,0,.8.8H74.81a.79.79,0,0,0,.79-.8v-.26a.78.78,0,0,0-.5-.73l-9.25-3.73a.73.73,0,0,0-.3-.06Z" fill="#fff"/></svg>