<svg id="Calque_1" data-name="Calque 1" xmlns="http://www.w3.org/2000/svg" viewBox="0 0 87 87"><path d="M65.9,5.56H21.1a1.5,1.5,0,0,0-.37.05h0l0,0a1.47,1.47,0,0,0-.4.19h0a1.26,1.26,0,0,0-.31.3l-.05.06a1.58,1.58,0,0,0-.2.36s0,0,0,.08a1.62,1.62,0,0,0-.07.44V79.94a1.62,1.62,0,0,0,.07.44s0,.05,0,.08a1.58,1.58,0,0,0,.2.36l.05.06a1.47,1.47,0,0,0,.31.3h0a1.47,1.47,0,0,0,.4.19l0,0h0a1.36,1.36,0,0,0,.36,0H65.9a1.5,1.5,0,0,0,1.5-1.5V7.06A1.5,1.5,0,0,0,65.9,5.56ZM43.4,66l-4.94,8.39V12.57L43.4,21ZM27.53,21V66L22.6,74.43V12.57Zm3,0,4.93-8.39V74.43L30.53,66ZM29,17.6l-5.31-9H34.34Zm0,51.8,5.31,9H23.72Zm15.87,0,5.31,9H39.59Zm6.43,5L46.4,66V21l4.93-8.39ZM44.9,17.6l-5.31-9H50.21ZM64.4,78.44H54.33V8.56H64.4Z" fill="#fff"/><path d="M34.09,23l-2.68,1.55a.51.51,0,0,0-.19.69.5.5,0,0,0,.44.25.47.47,0,0,0,.25-.07l2.68-1.55a.49.49,0,0,0,.18-.68A.51.51,0,0,0,34.09,23Z" fill="#fff"/><path d="M34.09,26l-2.68,1.55a.5.5,0,0,0,.25.93.57.57,0,0,0,.25-.06l2.68-1.55a.51.51,0,0,0,.18-.69A.49.49,0,0,0,34.09,26Z" fill="#fff"/><path d="M47.52,25.51a.45.45,0,0,0,.25-.07l2.69-1.55a.49.49,0,0,0,.18-.68A.51.51,0,0,0,50,23l-2.69,1.55a.51.51,0,0,0-.18.69A.5.5,0,0,0,47.52,25.51Z" fill="#fff"/><path d="M47.52,28.47a.54.54,0,0,0,.25-.06l2.69-1.55a.51.51,0,0,0,.18-.69A.5.5,0,0,0,50,26l-2.69,1.55a.5.5,0,0,0,.25.93Z" fill="#fff"/><path d="M39.34,23.89,42,25.44a.47.47,0,0,0,.25.07.52.52,0,0,0,.44-.25.52.52,0,0,0-.19-.69L39.84,23a.5.5,0,0,0-.68.19A.49.49,0,0,0,39.34,23.89Z" fill="#fff"/><path d="M39.34,26.86,42,28.41a.57.57,0,0,0,.25.06.52.52,0,0,0,.44-.25.51.51,0,0,0-.19-.68L39.84,26a.5.5,0,0,0-.68.18A.51.51,0,0,0,39.34,26.86Z" fill="#fff"/><path d="M23.47,23.89l2.69,1.55a.43.43,0,0,0,.25.07.5.5,0,0,0,.43-.25.51.51,0,0,0-.18-.69L24,23a.51.51,0,0,0-.68.19A.49.49,0,0,0,23.47,23.89Z" fill="#fff"/><path d="M23.47,26.86l2.69,1.55a.51.51,0,0,0,.25.06.5.5,0,0,0,.43-.25.5.5,0,0,0-.18-.68L24,26a.5.5,0,0,0-.5.87Z" fill="#fff"/></svg>