<svg id="Calque_1" data-name="Calque 1" xmlns="http://www.w3.org/2000/svg" viewBox="0 0 87 87"><path d="M80.49,29.42v0h0c0-.08,0-.16,0-.24-.68-3.48-2.73-9.8-8.76-13.16a16.16,16.16,0,0,0-7.92-2c-3.95,0-8.38,1.25-13.18,3.73-9.74,5-16.33,15.68-19.59,31.69l-1.13-.71-4-4.47a3,3,0,0,0-4-.37L16.65,48,7.57,56.1a3.33,3.33,0,0,0-.71,3.95,2.56,2.56,0,0,0,2.26,1.38,2.6,2.6,0,0,0,1.6-.56l8.64-6.51,1.22,1.91,8.16,15.49a2.38,2.38,0,0,0,2,1.23H39a1.86,1.86,0,0,0,1.88-1.9c-.11-12.88,3-36.38,15.25-42.72A18,18,0,0,1,63.77,26a4.4,4.4,0,0,1,2.11.45,6.11,6.11,0,0,1,2.39,3.38,1.51,1.51,0,0,0,.13.29l.16,3a1.93,1.93,0,0,0,1.92,1.82h8.13A1.88,1.88,0,0,0,80,34.33,1.84,1.84,0,0,0,80.5,33V29.62A.67.67,0,0,0,80.49,29.42ZM18.43,51.91l-9.22,7a.2.2,0,0,1-.09,0l0,0A.86.86,0,0,1,9.25,58l9-8,5.22-4.05a.42.42,0,0,1,.25-.08.47.47,0,0,1,.33.13l3.22,3.62L22,53.78l-.89-1.39a1.82,1.82,0,0,0-2.66-.48ZM67.09,24.23a6.93,6.93,0,0,0-3.32-.76c-2.44,0-5.41.9-8.83,2.66-6.21,3.2-10.81,10.3-13.69,21.1a96,96,0,0,0-2.93,23.24H30.91L23.27,56l5.89-4.74,1.54,1a2.18,2.18,0,0,0,1.11.36,1.38,1.38,0,0,0,1.38-1.12l.05-.25c3-15.94,9.25-26.44,18.52-31.22,4.44-2.29,8.49-3.45,12-3.45a13.59,13.59,0,0,1,6.7,1.67c4.67,2.6,6.56,7.41,7.31,10.55H70.56A8.06,8.06,0,0,0,67.09,24.23Zm4,8.14L71,31.27h7v1.1Z" fill="#fff"/><rect x="68.86" y="38.25" width="2.52" height="6.28" fill="#fff"/><rect x="68.86" y="46.86" width="2.52" height="3.36" fill="#fff"/><rect x="68.86" y="52.35" width="2.52" height="2.28" fill="#fff"/><rect x="73.05" y="38.25" width="2.52" height="10.29" fill="#fff"/><rect x="77.36" y="38.36" width="2.52" height="7.76" fill="#fff"/><rect x="77.36" y="47.91" width="2.52" height="3.67" fill="#fff"/></svg>