<svg id="Calque_1" data-name="Calque 1" xmlns="http://www.w3.org/2000/svg" viewBox="0 0 87 87"><path d="M38.73,76.81c-5.42,0-9.87-3.44-13.51-7.08l-.43-.42a22.27,22.27,0,0,1-6.28-18.55L21,32.23a4.71,4.71,0,0,1,9.3-.24l1.68,9L53.37,19.59a4.78,4.78,0,0,1,8.14,3.79,4.78,4.78,0,0,1,6.74,6.75,4.82,4.82,0,0,1,3.8,1.38,4.78,4.78,0,0,1,0,6.76l-2.46,2.46a4.72,4.72,0,0,1,3.78,1.38,4.77,4.77,0,0,1,0,6.76L52.51,69.73C47.34,74.9,42.77,76.81,38.73,76.81ZM25.64,31.14h-.05a1.6,1.6,0,0,0-1.65,1.49L21.48,51.15a19.24,19.24,0,0,0,5.44,16l.42.42c6,6,12.92,10.13,23.05,0L71.25,46.74a1.76,1.76,0,0,0,0-2.51,1.78,1.78,0,0,0-2.51,0L59.8,53.17a2.44,2.44,0,0,1-3.45-3.44L69.93,36.15a1.78,1.78,0,0,0-2.52-2.52L53.83,47.21a2.49,2.49,0,0,1-3.44,0,2.43,2.43,0,0,1,0-3.45L66,28.2a1.79,1.79,0,0,0,0-2.52,1.82,1.82,0,0,0-2.51,0L47.87,41.25a2.44,2.44,0,0,1-3.45-3.45L58,24.22a1.77,1.77,0,1,0-2.51-2.51L33.3,43.9a2.44,2.44,0,0,1-4.12-1.28L27.31,32.54A1.59,1.59,0,0,0,25.64,31.14ZM52.51,45.88Zm-.8-.79Z" fill="#fff"/></svg>