<svg id="Calque_1" data-name="Calque 1" xmlns="http://www.w3.org/2000/svg" viewBox="0 0 87 87"><polygon points="44.32 37.64 55.08 37.64 55.08 26.88 57.86 26.88 57.86 37.64 68.61 37.64 68.61 40.42 57.86 40.42 57.86 51.17 55.08 51.17 55.08 40.42 44.32 40.42 44.32 37.64" fill="#fff"/><path d="M35.38,38.78a21.08,21.08,0,0,1,20.44-21l1.67-2.34a1.76,1.76,0,0,0-1.43-2.78H33.42a1.75,1.75,0,0,0-1.64,1.14L18.5,49.08a1.76,1.76,0,0,0,1.65,2.38h9.68a1.75,1.75,0,0,1,1.62,2.42L24.05,72a1.76,1.76,0,0,0,3,1.81L43,55A21.07,21.07,0,0,1,35.38,38.78Z" fill="#fff"/></svg>