<svg id="Calque_1" data-name="Calque 1" xmlns="http://www.w3.org/2000/svg" viewBox="0 0 87 87"><path d="M40.66,53.25v.68L35.56,59a1.38,1.38,0,0,0,2,1.95l3.14-3.14V66a1.38,1.38,0,0,0,1.39,1.38V51.87A1.38,1.38,0,0,0,40.66,53.25Z" fill="#fff"/><path d="M40.66,21v8.16c-1-1.05-2.09-2.1-3.14-3.14a1.38,1.38,0,0,0-2,1.95l5.1,5.1v.53A1.38,1.38,0,0,0,42.05,35V19.62A1.38,1.38,0,0,0,40.66,21Z" fill="#fff"/><path d="M21.87,33.45l7.07,4.08-4.3,1.15a1.38,1.38,0,1,0,.72,2.67l7-1.87,4.21,2.43a1.38,1.38,0,0,0,1.39-2.39l-4.21-2.43q-.95-3.48-1.87-7a1.38,1.38,0,1,0-2.67.72c.38,1.43.77,2.86,1.15,4.3l-7.07-4.08a1.36,1.36,0,0,0-1.88.5A1.38,1.38,0,0,0,21.87,33.45Z" fill="#fff"/><path d="M38.42,45.59a1.38,1.38,0,0,0-1.89-.5l-4.2,2.43-7-1.87a1.38,1.38,0,1,0-.72,2.67l4.3,1.15-7.07,4.08a1.38,1.38,0,0,0-.5,1.89,1.36,1.36,0,0,0,1.88.5l7.07-4.08c-.38,1.44-.77,2.87-1.15,4.3a1.38,1.38,0,1,0,2.67.72q.93-3.5,1.87-7l4.21-2.43A1.38,1.38,0,0,0,38.42,45.59Z" fill="#fff"/><path d="M42.05,67.25a1.38,1.38,0,0,0,1.38-1.38V58.08a1.38,1.38,0,0,0-1.38-1.38V67.25Z" fill="#fff"/><path d="M48,37.45a8.45,8.45,0,0,1-5.91,14.42v2.77a11.22,11.22,0,0,0,0-22.43V35A8.44,8.44,0,0,1,48,37.45Z" fill="#fff"/><path d="M43.32,28.76V21a1.37,1.37,0,0,0-1.27-1.36V30.13A1.37,1.37,0,0,0,43.32,28.76Z" fill="#fff"/><path d="M53.37,52.77a1.38,1.38,0,1,0-1.95,2c1.83,1.84,3.67,3.67,5.5,5.5a1.38,1.38,0,1,0,2-1.95Z" fill="#fff"/><path d="M55.27,43.37a1.38,1.38,0,0,0,1.38,1.38h7.79a1.38,1.38,0,0,0,0-2.76H56.65A1.38,1.38,0,0,0,55.27,43.37Z" fill="#fff"/><path d="M53.3,34l5.5-5.51a1.38,1.38,0,1,0-1.95-1.95L51.34,32a1.39,1.39,0,0,0,2,2Z" fill="#fff"/><path d="M43.5,4A39.5,39.5,0,1,1,4,43.5,39.55,39.55,0,0,1,43.5,4m0-3A42.5,42.5,0,1,0,86,43.5,42.5,42.5,0,0,0,43.5,1Z" fill="#fff"/></svg>