<svg id="Calque_1" data-name="Calque 1" xmlns="http://www.w3.org/2000/svg" viewBox="0 0 87 87"><path d="M78,23.49H76.7a23.68,23.68,0,0,0-3.62-.23c-6,0-17.92,1.52-31.46,11.41l0-4.65H23.42l-.92,3.84A15,15,0,1,0,33,60.7h8.64V54.27c8.88-10.58,17.14-16,23.32-18.78L67,41.2a2.35,2.35,0,0,0,2.2,1.53,2.07,2.07,0,0,0,.5,0l5.33-1.14a2.38,2.38,0,0,0,1.85-2.47l-.46-6.46H78ZM31.83,58.77a12.75,12.75,0,0,1-3.46,1.93A12.68,12.68,0,0,1,16.46,59a12.7,12.7,0,0,1,5.48-22.81A12.36,12.36,0,0,1,24,36h0a12.72,12.72,0,0,1,7.86,22.74ZM74.66,39.64l-5.33,1.15a.41.41,0,0,1-.47-.26l-2.14-5.8a30.55,30.55,0,0,1,7.8-2.07L75,39.21A.42.42,0,0,1,74.66,39.64ZM76.07,29.4v1.26h-.72c-.19,0-.45,0-.76.06A28.71,28.71,0,0,0,68.82,32a37.6,37.6,0,0,0-3.66,1.34l-.89.39-.34.15c-8.35,3.82-16.44,10.37-24,19.47l-.22.27v5.2H35.09a14.94,14.94,0,0,0-10.59-25L25,32H39.68v6.63l1.56-1.2C55,26.78,67.08,25.19,73.08,25.19a25.67,25.67,0,0,1,3,.16Z" fill="#fff"/><rect x="18.5" y="40" width="2.24" height="10.09" transform="translate(-26.1 27.07) rotate(-45)" fill="#fff"/></svg>