<svg id="Calque_1" data-name="Calque 1" xmlns="http://www.w3.org/2000/svg" viewBox="0 0 87 87"><path d="M61.84,21.07H25.16L8.61,9.73V77.27L25.16,65.93H61.84L78.39,77.27V9.73ZM23.2,63.64,11.61,71.58V60.26l11.59-4.1ZM23.2,53l-11.59,4.1V45H12a3.4,3.4,0,0,0,6.15,0h5.1Zm0-11H18.06A3.39,3.39,0,0,0,12,42h-.38V29.92L23.2,34Zm0-11.16-11.59-4.1V15.42L23.2,23.36ZM60.33,62.93H26.2V24.07H60.33Zm15.06,8.65L63.8,63.64V56.16l11.59,4.1Zm0-14.5L63.8,53V45h5.12A3.39,3.39,0,0,0,75,45h.36Zm0-15.08H75a3.39,3.39,0,0,0-6.11,0H63.8V34l11.59-4.1Zm0-15.26L63.8,30.84V23.36l11.59-7.94Z" fill="#fff"/><path d="M29.78,29.63v2.86a2.41,2.41,0,0,0,2.4,2.4H51a2.41,2.41,0,0,0,2.4-2.4v-.23h1.4v5.27L41.22,42a1.2,1.2,0,0,0-.82,1.14v3.29a2.4,2.4,0,0,0-1.63,2.27v8.65a2.4,2.4,0,0,0,2.39,2.4H42a2.41,2.41,0,0,0,2.4-2.4V48.72a2.41,2.41,0,0,0-1.63-2.27V44l13.59-4.48a1.19,1.19,0,0,0,.83-1.14V31.06a1.2,1.2,0,0,0-1.2-1.2h-2.6v-.23a2.41,2.41,0,0,0-2.4-2.4H32.18A2.41,2.41,0,0,0,29.78,29.63Zm20.61-1a1.55,1.55,0,0,1,1.53,1.54v1.76a1.54,1.54,0,0,1-1.53,1.54H32.75a1.54,1.54,0,0,1-1.54-1.54V30.13a1.55,1.55,0,0,1,1.54-1.54Z" fill="#fff"/></svg>