<svg id="Calque_1" data-name="Calque 1" xmlns="http://www.w3.org/2000/svg" viewBox="0 0 87 87"><path d="M69.82,33.77v4.69c0,7.74-6,12.94-15,12.94H32.17c-9,0-15-5.2-15-12.94V33.77H69.82m1.49-2.52H15.69a1,1,0,0,0-1,1v6.18c0,9.1,7.2,15.46,17.51,15.46H54.83c10.31,0,17.51-6.36,17.51-15.46V32.28a1,1,0,0,0-1-1Z" fill="#fff"/><path d="M50.71,58.5,49.6,69.63A2.63,2.63,0,0,1,47,72H40a2.63,2.63,0,0,1-2.62-2.37L36.29,58.5H50.71M53.5,56h-20l1.39,13.9A5.15,5.15,0,0,0,40,74.52h7a5.15,5.15,0,0,0,5.13-4.64L53.5,56Z" fill="#fff"/><path d="M45.4,19.13a.95.95,0,1,1,1.9,0V21a1,1,0,0,0,1,.95h3.8A1,1,0,0,0,53,21v-1.9a6.65,6.65,0,1,0-13.29,0v8.54h5.7Z" fill="#fff"/><path d="M50.15,23.87a.95.95,0,1,0,0,1.9h1v1.9h5.69v-1.9h1a1,1,0,0,0,0-1.9H50.15Z" fill="#fff"/><path d="M29.26,25.77h.95v1.9H35.9v-1.9h1a.95.95,0,1,0,0-1.9H29.26a.95.95,0,1,0,0,1.9Z" fill="#fff"/></svg>