<svg id="Calque_1" data-name="Calque 1" xmlns="http://www.w3.org/2000/svg" viewBox="0 0 87 87"><path d="M79.54,11.34H7.46A1.46,1.46,0,0,0,6,12.8v7.72A1.45,1.45,0,0,0,7.46,22H10V66.83a1.45,1.45,0,0,0,1.45,1.45h5.92V74.2a1.46,1.46,0,0,0,1.46,1.46h7.38a1.45,1.45,0,0,0,1.45-1.46V68.28H59.36V74.2a1.45,1.45,0,0,0,1.45,1.46h7.38a1.46,1.46,0,0,0,1.46-1.46V68.28h5.92A1.45,1.45,0,0,0,77,66.83V22h2.52A1.45,1.45,0,0,0,81,20.52V12.8A1.46,1.46,0,0,0,79.54,11.34ZM74.11,49.93H12.89V37.41H74.11ZM24.73,72.75H20.27V68.28h4.46Zm42,0H62.27V68.28h4.46Zm7.38-7.38H12.89V52.84H74.11Zm0-30.87H12.89V22H74.11Zm4-15.44H8.91V14.25H78.09Z" fill="#fff"/><path d="M43.5,64.25a5.15,5.15,0,1,0-5.14-5.14A5.14,5.14,0,0,0,43.5,64.25Zm0-7.38a2.24,2.24,0,1,1-2.23,2.24A2.24,2.24,0,0,1,43.5,56.87Z" fill="#fff"/><path d="M43.5,48.82a5.15,5.15,0,1,0-5.14-5.15A5.15,5.15,0,0,0,43.5,48.82Zm0-7.38a2.23,2.23,0,1,1-2.23,2.23A2.23,2.23,0,0,1,43.5,41.44Z" fill="#fff"/><path d="M43.5,33.38a5.15,5.15,0,1,0-5.14-5.15A5.15,5.15,0,0,0,43.5,33.38Zm0-7.38a2.24,2.24,0,1,1-2.23,2.23A2.23,2.23,0,0,1,43.5,26Z" fill="#fff"/></svg>