<svg id="Calque_1" data-name="Calque 1" xmlns="http://www.w3.org/2000/svg" viewBox="0 0 87 87"><path d="M43.5,18.79a2.5,2.5,0,0,1-2.5-2.5V6a2.5,2.5,0,0,1,5,0V16.29A2.5,2.5,0,0,1,43.5,18.79Z" fill="#fff"/><path d="M27.51,24a2.52,2.52,0,0,1-2-1l-6-8.33a2.5,2.5,0,1,1,4-2.94L29.53,20a2.5,2.5,0,0,1-2,4Z" fill="#fff"/><path d="M17.62,37.59a2.63,2.63,0,0,1-.77-.12L7.06,34.29a2.5,2.5,0,0,1,1.55-4.76l9.79,3.18a2.5,2.5,0,0,1-.78,4.88Z" fill="#fff"/><path d="M7.84,57.59a2.5,2.5,0,0,1-.78-4.88l9.79-3.18a2.5,2.5,0,1,1,1.55,4.75L8.61,57.47A2.63,2.63,0,0,1,7.84,57.59Z" fill="#fff"/><path d="M21.46,76.34a2.5,2.5,0,0,1-2-4l6-8.33A2.5,2.5,0,0,1,29.53,67l-6.05,8.33A2.5,2.5,0,0,1,21.46,76.34Z" fill="#fff"/><path d="M43.5,83.5A2.5,2.5,0,0,1,41,81V70.71a2.5,2.5,0,0,1,5,0V81A2.5,2.5,0,0,1,43.5,83.5Z" fill="#fff"/><path d="M65.55,76.34a2.51,2.51,0,0,1-2-1L57.47,67A2.5,2.5,0,0,1,61.52,64l6,8.33a2.51,2.51,0,0,1-2,4Z" fill="#fff"/><path d="M79.16,57.59a2.63,2.63,0,0,1-.77-.12l-9.78-3.19a2.5,2.5,0,1,1,1.54-4.75l9.79,3.18a2.5,2.5,0,0,1-.78,4.88Z" fill="#fff"/><path d="M69.38,37.59a2.5,2.5,0,0,1-.77-4.88l9.78-3.18a2.5,2.5,0,0,1,1.55,4.76l-9.79,3.18A2.63,2.63,0,0,1,69.38,37.59Z" fill="#fff"/><path d="M59.49,24a2.5,2.5,0,0,1-2-4l6.05-8.33a2.5,2.5,0,0,1,4,2.94l-6,8.33A2.52,2.52,0,0,1,59.49,24Z" fill="#fff"/><circle cx="43.5" cy="43.5" r="19.09" fill="#fff"/></svg>