<svg id="Calque_1" data-name="Calque 1" xmlns="http://www.w3.org/2000/svg" viewBox="0 0 87 87"><path d="M16.9,13.35v60.3H70.1V13.35ZM67.62,71.16H19.38V15.84H67.62Z" fill="#fff"/><rect x="21.44" y="59.47" width="6.42" height="10.05" fill="#fff"/><rect x="21.44" y="17.48" width="6.42" height="10.05" fill="#fff"/><polygon points="27.86 30.96 21.44 30.96 21.44 37.85 27.86 35.38 27.86 30.96" fill="#fff"/><polygon points="21.44 56.04 27.86 56.04 27.86 36.45 21.44 38.92 21.44 56.04" fill="#fff"/><polygon points="28.78 59.47 28.78 69.52 35.2 69.52 35.2 65.56 29.42 59.47 28.78 59.47" fill="#fff"/><polygon points="35.2 59.47 30.8 59.47 35.2 64.11 35.2 59.47" fill="#fff"/><polygon points="28.78 50.32 35.2 43.71 35.2 33.63 28.78 36.1 28.78 50.32" fill="#fff"/><polygon points="35.2 30.96 28.78 30.96 28.78 35.03 35.2 32.55 35.2 30.96" fill="#fff"/><polygon points="28.78 56.04 35.2 56.04 35.2 45.15 28.78 51.75 28.78 56.04" fill="#fff"/><rect x="28.78" y="17.48" width="6.42" height="10.05" fill="#fff"/><polygon points="36.11 56.04 38.84 56.04 38.84 59.47 36.11 59.47 36.11 65.08 40.32 69.52 42.53 69.52 42.53 37.6 36.11 44.21 36.11 56.04" fill="#fff"/><polygon points="36.11 69.52 38.94 69.52 36.11 66.53 36.11 69.52" fill="#fff"/><polygon points="42.53 17.48 36.11 17.48 36.11 27.53 38.84 27.53 38.84 30.96 36.11 30.96 36.11 42.77 42.53 36.17 42.53 17.48" fill="#fff"/><polygon points="58.22 30.96 51.8 30.96 51.8 44.52 58.22 47.88 58.22 30.96" fill="#fff"/><polygon points="51.8 56.04 58.22 56.04 58.22 49 51.8 45.65 51.8 56.04" fill="#fff"/><polygon points="51.8 27.53 58.22 27.53 58.22 22.01 51.8 24.48 51.8 27.53" fill="#fff"/><polygon points="58.22 17.48 51.8 17.48 51.8 23.41 58.22 20.93 58.22 17.48" fill="#fff"/><rect x="51.8" y="59.47" width="6.42" height="10.05" fill="#fff"/><rect x="59.14" y="30.96" width="6.42" height="25.08" fill="#fff"/><rect x="59.14" y="59.47" width="6.42" height="10.05" fill="#fff"/><polygon points="59.14 27.53 65.56 27.53 65.56 19.18 59.14 21.66 59.14 27.53" fill="#fff"/><polygon points="65.56 17.48 59.14 17.48 59.14 20.58 65.56 18.11 65.56 17.48" fill="#fff"/><polygon points="50.89 30.96 48.16 30.96 48.16 27.53 50.89 27.53 50.89 17.48 44.47 17.48 44.47 40.69 50.89 44.04 50.89 30.96" fill="#fff"/><polygon points="44.47 69.52 50.89 69.52 50.89 59.47 48.16 59.47 48.16 56.04 50.89 56.04 50.89 45.17 44.47 41.82 44.47 69.52" fill="#fff"/></svg>