<svg id="Calque_1" data-name="Calque 1" xmlns="http://www.w3.org/2000/svg" viewBox="0 0 87 87"><path d="M43.5,9.59,8.75,43.34v5.13h6.93V77.41H71.32V48.47h6.93V43.34ZM66.34,73.27H20.66V44L43.53,21,66.34,44Z" fill="#fff"/><path d="M29.78,39.68v2.86a2.41,2.41,0,0,0,2.4,2.4H51a2.41,2.41,0,0,0,2.4-2.4v-.23h1.4v5.28l-13.6,4.48a1.21,1.21,0,0,0-.82,1.14V56.5a2.41,2.41,0,0,0-1.63,2.27v8.66a2.4,2.4,0,0,0,2.39,2.4H42a2.41,2.41,0,0,0,2.4-2.4V58.77A2.42,2.42,0,0,0,42.8,56.5V54.08L56.39,49.6a1.19,1.19,0,0,0,.83-1.14V41.11a1.2,1.2,0,0,0-1.2-1.2h-2.6v-.23a2.41,2.41,0,0,0-2.4-2.4H32.18A2.41,2.41,0,0,0,29.78,39.68Zm20.61-1a1.54,1.54,0,0,1,1.53,1.54V42a1.54,1.54,0,0,1-1.53,1.54H32.75A1.54,1.54,0,0,1,31.21,42V40.19a1.54,1.54,0,0,1,1.54-1.54Z" fill="#fff"/></svg>