<svg id="Calque_1" data-name="Calque 1" xmlns="http://www.w3.org/2000/svg" viewBox="0 0 87 87"><path d="M11.81,28.67a1.3,1.3,0,0,0,1.3-1.3V22.74l3.77-1.49a1.3,1.3,0,0,0-1-2.42l-4.59,1.82a1.29,1.29,0,0,0-.82,1.2v5.52A1.3,1.3,0,0,0,11.81,28.67Z" fill="#fff"/><path d="M24.39,18.18a1.36,1.36,0,0,0,.48-.09L31,15.66a1.3,1.3,0,0,0-1-2.42l-6.13,2.43a1.3,1.3,0,0,0,.48,2.51Z" fill="#fff"/><path d="M75.67,20.65,44,8.1a1.3,1.3,0,0,0-.95,0h0L37.5,10.29a1.3,1.3,0,1,0,1,2.42l3.75-1.49V44.05L13.11,55.56V50.64a1.3,1.3,0,1,0-2.6,0v14.5a1.3,1.3,0,0,0,.82,1.21L43,78.9a1.33,1.33,0,0,0,1,0L75.67,66.35a1.3,1.3,0,0,0,.82-1.21V21.85A1.29,1.29,0,0,0,75.67,20.65ZM44.8,11.22,73.89,22.74V55.56L67.32,53V34a1.32,1.32,0,0,0-.82-1.21L53.15,27.46a1.3,1.3,0,0,0-1.78,1.21v18l-6.57-2.6ZM54,47.68V30.58l10.75,4.25v17.1ZM43.5,46.33,71.66,57.48,43.5,68.62,15.34,57.48Zm0,30-30.39-12V59.39L43,71.23a1.33,1.33,0,0,0,1,0L73.89,59.39v4.87Z" fill="#fff"/><path d="M11.81,43.27a1.3,1.3,0,0,0,1.3-1.3v-6.9a1.3,1.3,0,0,0-2.6,0V42A1.3,1.3,0,0,0,11.81,43.27Z" fill="#fff"/></svg>