<svg id="Calque_1" data-name="Calque 1" xmlns="http://www.w3.org/2000/svg" viewBox="0 0 87 87"><polygon points="86 66.69 83.1 66.69 83.1 49.27 42.95 23.75 3.9 49.26 3.9 66.69 1 66.69 1 47.69 42.92 20.31 86 47.68 86 66.69" fill="#fff"/><polygon points="78.6 66.69 75.7 66.69 75.7 52.43 43.13 31.4 10.48 52.43 10.48 66.69 7.58 66.69 7.58 50.85 43.13 27.95 78.6 50.85 78.6 66.69" fill="#fff"/><path d="M78.6,60.62h-71V51.16h71Zm-68.12-2.9H75.7V54.05H10.48Z" fill="#fff"/><circle cx="23.61" cy="47.15" r="1.82" fill="#fff"/><circle cx="29.29" cy="47.15" r="1.82" fill="#fff"/><circle cx="34.98" cy="41.82" r="1.82" fill="#fff"/><circle cx="34.98" cy="47.15" r="1.82" fill="#fff"/><circle cx="40.66" cy="36.5" r="1.82" fill="#fff"/><circle cx="40.66" cy="41.82" r="1.82" fill="#fff"/><circle cx="40.66" cy="47.15" r="1.82" fill="#fff"/><circle cx="46.34" cy="36.5" r="1.82" fill="#fff"/><circle cx="46.34" cy="41.82" r="1.82" fill="#fff"/><circle cx="46.34" cy="47.15" r="1.82" fill="#fff"/><circle cx="52.02" cy="41.82" r="1.82" fill="#fff"/><circle cx="52.02" cy="47.15" r="1.82" fill="#fff"/><circle cx="57.71" cy="47.15" r="1.82" fill="#fff"/><circle cx="63.39" cy="47.15" r="1.82" fill="#fff"/></svg>