<svg id="Calque_1" data-name="Calque 1" xmlns="http://www.w3.org/2000/svg" viewBox="0 0 87 87"><path d="M62,39.18a.93.93,0,0,0-.74-.61L49.3,36.83,44,26a.9.9,0,0,0-.81-.51.91.91,0,0,0-.81.51l-4,8.08,7,1a4.41,4.41,0,0,1,2.44,7.52l-7.33,7.14,1.17,6.82,1.53-.8,10.69,5.61a.88.88,0,0,0,.42.11.93.93,0,0,0,.53-.17.91.91,0,0,0,.36-.89l-2-11.9,8.65-8.43A.94.94,0,0,0,62,39.18Z" fill="#fff"/><path d="M79.11,39.18a.9.9,0,0,0-.73-.61L66.43,36.83,61.09,26a.91.91,0,0,0-.81-.51.92.92,0,0,0-.82.51l-4,8.08,7,1a4.41,4.41,0,0,1,2.45,7.52l-7.33,7.14,1.17,6.82,1.53-.8L71,61.39a.94.94,0,0,0,.42.11,1,1,0,0,0,.54-.17.91.91,0,0,0,.36-.89l-2-11.9,8.64-8.43A.89.89,0,0,0,79.11,39.18Z" fill="#fff"/><path d="M45.56,39.18a.92.92,0,0,0-.74-.61L32.88,36.83,27.54,26a.92.92,0,0,0-.82-.51.91.91,0,0,0-.81.51L20.57,36.83l-12,1.74a.9.9,0,0,0-.73.61.89.89,0,0,0,.23.93l8.64,8.43-2,11.9a.91.91,0,0,0,.36.89.9.9,0,0,0,1,.06l10.68-5.61,10.69,5.61a.88.88,0,0,0,.42.11.93.93,0,0,0,.53-.17.91.91,0,0,0,.36-.89l-2-11.9,8.65-8.43A.94.94,0,0,0,45.56,39.18Z" fill="#fff"/></svg>