<svg id="Calque_1" data-name="Calque 1" xmlns="http://www.w3.org/2000/svg" viewBox="0 0 87 87"><circle cx="42.53" cy="13.38" r="3.66" fill="#fff"/><circle cx="42.53" cy="73.62" r="3.66" fill="#fff"/><path d="M42.53,83.14a1.5,1.5,0,0,1-1.5-1.5V5.36a1.5,1.5,0,1,1,3,0V81.64A1.5,1.5,0,0,1,42.53,83.14Z" fill="#fff"/><path d="M39.31,29.34H34a1.59,1.59,0,0,1-1.59-1.59V25.67A1.59,1.59,0,0,1,34,24.08h5.3Z" fill="#fff"/><rect x="45.53" y="24.08" width="6.89" height="5.26" fill="#fff"/><path d="M54.56,11.46a7.31,7.31,0,0,0-7.31,7.31H61.87A7.31,7.31,0,0,0,54.56,11.46Z" fill="#fff"/><path d="M50.65,19.7a.56.56,0,0,0-.17-.4.58.58,0,0,0-.79,0,.59.59,0,0,0-.16.4.55.55,0,0,0,.16.39.56.56,0,0,0,.4.17.58.58,0,0,0,.56-.56Z" fill="#fff"/><path d="M49.62,21.69a.56.56,0,0,0-.67.42.55.55,0,0,0,.41.67h.13a.56.56,0,0,0,.13-1.1Z" fill="#fff"/><path d="M52.72,19.3a.57.57,0,0,0-.79,0,.59.59,0,0,0-.16.4.55.55,0,0,0,.16.39.54.54,0,0,0,.4.17.54.54,0,0,0,.39-.17.51.51,0,0,0,.16-.39A.55.55,0,0,0,52.72,19.3Z" fill="#fff"/><path d="M52.09,21.68a.55.55,0,0,0-.62.49.56.56,0,0,0,.49.62H52a.56.56,0,0,0,.06-1.11Z" fill="#fff"/><path d="M59.6,19.7a.56.56,0,0,0-.17-.4.57.57,0,0,0-.79,0,.59.59,0,0,0-.16.4.55.55,0,0,0,.16.39.56.56,0,0,0,.4.17.54.54,0,0,0,.39-.17A.52.52,0,0,0,59.6,19.7Z" fill="#fff"/><path d="M60.18,22.11a.57.57,0,0,0-.68-.42.56.56,0,0,0,.13,1.1h.13A.56.56,0,0,0,60.18,22.11Z" fill="#fff"/><path d="M61.37,27.18a.56.56,0,1,0-.54.68H61A.55.55,0,0,0,61.37,27.18Z" fill="#fff"/><path d="M60.77,24.64a.56.56,0,1,0-1.08.26.55.55,0,0,0,.54.43l.13,0A.55.55,0,0,0,60.77,24.64Z" fill="#fff"/><path d="M62,29.71a.56.56,0,0,0-.68-.41.56.56,0,0,0,.13,1.1l.13,0A.56.56,0,0,0,62,29.71Z" fill="#fff"/><path d="M62.42,32a.59.59,0,0,0-.8,0,.59.59,0,0,0-.16.4.57.57,0,0,0,.16.39.56.56,0,0,0,.8,0,.57.57,0,0,0,.16-.39A.59.59,0,0,0,62.42,32Z" fill="#fff"/><path d="M57.2,20.09a.55.55,0,0,0,.16-.39.59.59,0,0,0-.16-.4.59.59,0,0,0-.8,0,.59.59,0,0,0-.16.4.55.55,0,0,0,.16.39.56.56,0,0,0,.8,0Z" fill="#fff"/><path d="M57.76,27.86a.59.59,0,1,0-.07,0Z" fill="#fff"/><path d="M58.06,30.4a.57.57,0,0,0,.49-.62.56.56,0,0,0-.62-.49A.56.56,0,0,0,58,30.4Z" fill="#fff"/><path d="M57.46,25.33a.56.56,0,0,0-.13-1.12.57.57,0,0,0-.49.63.55.55,0,0,0,.55.49Z" fill="#fff"/><path d="M57.16,22.79A.56.56,0,0,0,57,21.68a.56.56,0,0,0-.49.62.57.57,0,0,0,.56.49Z" fill="#fff"/><path d="M57.9,32a.56.56,0,0,0-.17.4.54.54,0,0,0,.17.39.52.52,0,0,0,.39.17.56.56,0,0,0,.4-.17.57.57,0,0,0,.16-.39.59.59,0,0,0-.16-.4A.57.57,0,0,0,57.9,32Z" fill="#fff"/><path d="M54.17,19.3a.56.56,0,0,0-.17.4.52.52,0,0,0,.17.39.54.54,0,0,0,.39.17.56.56,0,0,0,.4-.17.55.55,0,0,0,.16-.39.59.59,0,0,0-.16-.4A.57.57,0,0,0,54.17,19.3Z" fill="#fff"/><path d="M54,36.35h1.16L56.4,20.93H52.73Zm.58-14.67a.55.55,0,0,1,.56.55.56.56,0,1,1-1.12,0A.55.55,0,0,1,54.56,21.68Zm0,2.53a.56.56,0,1,1-.56.56A.56.56,0,0,1,54.56,24.21Zm0,2.54a.56.56,0,1,1-.56.56A.56.56,0,0,1,54.56,26.75Zm0,2.53a.56.56,0,1,1-.56.56A.56.56,0,0,1,54.56,29.28ZM54.17,32A.57.57,0,0,1,55,32a.59.59,0,0,1,.16.4.57.57,0,0,1-.16.39.56.56,0,0,1-.4.17.58.58,0,0,1-.56-.56A.56.56,0,0,1,54.17,32Z" fill="#fff"/><path d="M49.5,66.76a3.78,3.78,0,0,1-1.66-.39c-3.68-1.8-4.8-10.74-6.09-25l1.13-.1c1.55,17.17,3.19,22.93,5.46,24A3.07,3.07,0,0,0,51.46,65,5.8,5.8,0,0,0,54,60.09V34.33h1.12V60.09a6.85,6.85,0,0,1-3,5.83A4.74,4.74,0,0,1,49.5,66.76Z" fill="#fff"/></svg>