<svg id="Calque_1" data-name="Calque 1" xmlns="http://www.w3.org/2000/svg" viewBox="0 0 87 87"><path d="M43.5,52.79H7.25a1.5,1.5,0,0,1-1.5-1.5V39.71a5.5,5.5,0,0,1,5.5-5.5H43.5a1.5,1.5,0,0,1,1.5,1.5V51.29A1.5,1.5,0,0,1,43.5,52.79Zm-34.75-3H42V37.21H11.25a2.5,2.5,0,0,0-2.5,2.5Z" fill="#fff"/><path d="M79.75,52.79H43.5a1.5,1.5,0,0,1-1.5-1.5V35.71a1.5,1.5,0,0,1,1.5-1.5H75.75a5.5,5.5,0,0,1,5.5,5.5V51.29A1.5,1.5,0,0,1,79.75,52.79ZM45,49.79H78.25V39.71a2.5,2.5,0,0,0-2.5-2.5H45Z" fill="#fff"/><path d="M19.52,49.6c-3.71,0-7.87-.19-12.49-.65l.1-1c21.56,2.18,33.21-1.87,35.17-2.63V41.23C28,34.62,7.49,43.86,7.28,44L6.87,43a68.51,68.51,0,0,1,12.47-4c6.55-1.41,16-2.32,23.67,1.38l.29.14V46l-.3.13C42.61,46.29,35,49.6,19.52,49.6Z" fill="#fff"/><path d="M25,46.5a5.26,5.26,0,0,1-.89-.07c-1.05-.17-1.91-.24-2.6-.29-1.95-.17-3-.26-4.23-2.16l-.34-.53.6-.21c.48-.16,11.91-4,16.79-1.52l.71.37-.65.48C34.14,42.74,29,46.5,25,46.5ZM18.48,44c.76,1,1.46,1,3.09,1.16.71.06,1.59.13,2.68.3,2.92.47,7.1-2,8.78-3.16C28.83,40.94,20.79,43.26,18.48,44Z" fill="#fff"/><path d="M56.32,49.57a25.72,25.72,0,0,1-12.8-3.07l-.26-.14V40.19l.27-.14c.48-.26,12.07-6.19,36-3.33l-.12,1c-21.65-2.58-33.29,2.23-35.16,3.1v5c14.24,7.78,34.78-3.07,35-3.18l.47.88C79.56,43.55,68.18,49.57,56.32,49.57Z" fill="#fff"/><path d="M56.46,46.83a11.4,11.4,0,0,1-5.83-1.29L50,45.18l.52-.45c.32-.28,8-6.91,13.39-5.91a34.23,34.23,0,0,0,3.42.45c2.6.26,3.9.38,5.43,3.22l.27.49-.52.21C72.07,43.38,63.4,46.83,56.46,46.83ZM51.78,45c5.6,2.53,17.23-1.56,19.86-2.55-1.13-1.89-2-2-4.36-2.2-.93-.09-2.08-.2-3.51-.47C59.65,39.05,53.64,43.53,51.78,45Z" fill="#fff"/></svg>