<svg id="Calque_1" data-name="Calque 1" xmlns="http://www.w3.org/2000/svg" viewBox="0 0 87 87"><path d="M70.94,72.44H16.06a1.5,1.5,0,0,1-1.5-1.5V16.06a1.5,1.5,0,0,1,1.5-1.5H70.94a1.5,1.5,0,0,1,1.5,1.5V70.94A1.5,1.5,0,0,1,70.94,72.44Zm-53.38-3H69.44V17.56H17.56Z" fill="#fff"/><path d="M59.15,60.65H27.85a1.5,1.5,0,0,1-1.5-1.5V43.61L24,28.07a1.54,1.54,0,0,1,.35-1.2,1.51,1.51,0,0,1,1.14-.52h36a1.51,1.51,0,0,1,1.14.52,1.54,1.54,0,0,1,.35,1.2L60.65,43.61V59.15A1.5,1.5,0,0,1,59.15,60.65Zm-29.8-3h28.3V43.5a1.64,1.64,0,0,1,0-.22l2.07-13.93H27.26l2.07,13.93a1.64,1.64,0,0,1,0,.22Z" fill="#fff"/><path d="M59.15,45H27.85a1.5,1.5,0,1,1,0-3h31.3a1.5,1.5,0,1,1,0,3Z" fill="#fff"/></svg>