<svg id="Calque_1" data-name="Calque 1" xmlns="http://www.w3.org/2000/svg" viewBox="0 0 87 87"><path d="M18.52,53.53a1.1,1.1,0,0,1-1.1-1.1V20.74a1.1,1.1,0,0,1,2.2,0V52.43A1.1,1.1,0,0,1,18.52,53.53Z" fill="#fff"/><path d="M28.7,63.7H8.34a1.09,1.09,0,0,1-1.1-1.09,11.28,11.28,0,1,1,22.55,0A1.09,1.09,0,0,1,28.7,63.7ZM9.5,61.51h18a9.08,9.08,0,0,0-18,0Z" fill="#fff"/><path d="M28.26,67.35H8.77a2.92,2.92,0,0,1,0-5.84H28.26a2.92,2.92,0,0,1,0,5.84ZM8.77,63.7a.73.73,0,0,0,0,1.46H28.26a.73.73,0,1,0,0-1.46Z" fill="#fff"/><path d="M59.6,46.46v-10a1.11,1.11,0,0,1,2.22,0v2.22a1.12,1.12,0,0,0,1.12,1.11h4.44a1.11,1.11,0,0,0,1.11-1.11V36.47a7.78,7.78,0,0,0-15.55,0v10Z" fill="#fff"/><path d="M65.16,42a1.11,1.11,0,0,0,0,2.22h1.11v2.22h6.66V44.24H74A1.11,1.11,0,0,0,74,42H65.16Z" fill="#fff"/><path d="M40.73,44.24h1.11v2.22H48.5V44.24h1.11a1.11,1.11,0,0,0,0-2.22H40.73a1.11,1.11,0,0,0,0,2.22Z" fill="#fff"/><path d="M79.07,50.76v3.86c0,6.38-5,10.66-12.35,10.66H48.05c-7.39,0-12.36-4.28-12.36-10.66V50.76H79.07m1.23-2.08H34.47a.85.85,0,0,0-.85.85v5.09c0,7.5,5.93,12.73,14.43,12.73H66.72c8.5,0,14.43-5.23,14.43-12.73V49.53a.85.85,0,0,0-.85-.85Z" fill="#fff"/></svg>