<svg id="Calque_1" data-name="Calque 1" xmlns="http://www.w3.org/2000/svg" viewBox="0 0 87 87"><path d="M59.76,71.64H27.24a1.5,1.5,0,0,1-1.5-1.5V16.86a1.5,1.5,0,0,1,1.5-1.5H59.76a1.5,1.5,0,0,1,1.5,1.5V70.14A1.5,1.5,0,0,1,59.76,71.64Zm-31-3H58.26V18.36H28.74Z" fill="#fff"/><path d="M11,81.64a1.47,1.47,0,0,1-.73-.19,1.5,1.5,0,0,1-.77-1.31V6.86a1.5,1.5,0,0,1,.77-1.31,1.53,1.53,0,0,1,1.52,0L28,15.58a1.53,1.53,0,0,1,.72,1.28V70.14A1.53,1.53,0,0,1,28,71.42l-16.26,10A1.5,1.5,0,0,1,11,81.64Zm1.5-72.1V77.46L25.74,69.3V17.7Zm14.77,60.6h0Z" fill="#fff"/><path d="M76,81.64a1.5,1.5,0,0,1-.79-.22L59,71.42a1.53,1.53,0,0,1-.72-1.28V16.86A1.53,1.53,0,0,1,59,15.58l16.26-10a1.53,1.53,0,0,1,1.52,0,1.5,1.5,0,0,1,.77,1.31V80.14a1.5,1.5,0,0,1-.77,1.31A1.47,1.47,0,0,1,76,81.64ZM61.26,69.3l13.27,8.16V9.54L61.26,17.7Z" fill="#fff"/><circle cx="15.91" cy="44.76" r="1.94" fill="#fff"/><circle cx="71.09" cy="44.76" r="1.94" fill="#fff"/><path d="M59.76,33.43H27.24A1.5,1.5,0,0,1,26.09,31l7-8.29a1.49,1.49,0,0,1,1.15-.53H52.76a1.49,1.49,0,0,1,1.15.53l7,8.29a1.5,1.5,0,0,1-1.15,2.46Zm-29.29-3H56.53l-4.46-5.28H34.93Z" fill="#fff"/><path d="M59.76,48.4H27.24a1.5,1.5,0,0,1-1.15-2.46l7-8.29a1.48,1.48,0,0,1,1.15-.53H52.76a1.48,1.48,0,0,1,1.15.53l7,8.29a1.5,1.5,0,0,1-1.15,2.46Zm-29.29-3H56.53l-4.46-5.28H34.93Z" fill="#fff"/><path d="M59.76,63.38H27.24a1.5,1.5,0,0,1-1.15-2.47l7-8.29a1.48,1.48,0,0,1,1.15-.53H52.76a1.48,1.48,0,0,1,1.15.53l7,8.29a1.5,1.5,0,0,1-1.15,2.47Zm-29.29-3H56.53l-4.46-5.29H34.93Z" fill="#fff"/></svg>