<svg id="Calque_1" data-name="Calque 1" xmlns="http://www.w3.org/2000/svg" viewBox="0 0 87 87"><polygon points="64.28 31.36 64.27 38.6 53.99 38.59 53.98 47.26 43.69 47.24 43.68 55.91 33.4 55.9 33.39 64.57 23.1 64.56 23.09 73.23 12.81 73.22 12.8 78.75 23.9 78.76 78.08 31.37 64.28 31.36" fill="#fff"/><path d="M8.11,80.88V86l17.83,0a2.54,2.54,0,0,0,1.68-.63L78.86,40.65V33.88L25,80.9Z" fill="#fff"/><path d="M10.72,55.42h4.17a2.56,2.56,0,0,0,1.68-.63l9.08-7.92,0,15.87h4.31l0-19.65L57.07,19.46l0,17.23h4.31l0-20.95h-.05l11-9.64h3.93A2.57,2.57,0,0,0,78.9,3.56,2.57,2.57,0,0,0,76.32,1H71.43a2.52,2.52,0,0,0-1.68.63L13.94,50.33H10.73a2.55,2.55,0,1,0,0,5.1Z" fill="#fff"/></svg>