<svg id="Calque_1" data-name="Calque 1" xmlns="http://www.w3.org/2000/svg" viewBox="0 0 87 87"><path d="M26.67,66.15a4.32,4.32,0,0,1-3.13-1.34L5.5,46a4.34,4.34,0,0,1,.55-6.49L8.86,37.4A24,24,0,0,1,8,30.27c.07-3.51.91-10,5.7-14.45a8.62,8.62,0,0,1,7.07-2.34c5.69.7,10.74,6.77,12.72,9.47L46,35a4.32,4.32,0,0,1,.56,5.57L39.38,51l7.23.46a1.17,1.17,0,0,0,1.12-.6l1-1.64a4,4,0,0,1,3.47-2h5.41V65.5h-5a4,4,0,0,1-3.35-1.79l-2-3a1.23,1.23,0,0,0-1-.54H33.08l-2.83,4.11A4.36,4.36,0,0,1,27,66.14Zm-7-49.74A5.67,5.67,0,0,0,15.73,18c-4,3.66-4.67,9.28-4.74,12.31a19.73,19.73,0,0,0,1,7.06l.42,1.07L7.84,41.89a1.3,1.3,0,0,0-.54,1,1.33,1.33,0,0,0,.37,1l18,18.85a1.33,1.33,0,0,0,2.07-.17l3.72-5.41H46.21A4.19,4.19,0,0,1,49.72,59l2,3a1,1,0,0,0,.86.45h2V50.22H52.17a1,1,0,0,0-.88.51l-1,1.64a4.2,4.2,0,0,1-3.9,2.07l-12.51-.79L44.05,38.9a1.35,1.35,0,0,0-.17-1.73L31.14,24.82c-1.32-1.81-6-7.78-10.73-8.36A6.27,6.27,0,0,0,19.67,16.41ZM13.13,38l-.55-2.18c-.94-3.79-1.35-12.21,3.85-17a4.59,4.59,0,0,1,3.85-1.3c3.31.4,6.69,3.79,9,6.56l1,1.21Zm6.53-17.51a1.68,1.68,0,0,0-1.2.55c-3.12,2.86-3.71,8-3.35,11.75l10.77-8c-2.26-2.52-4.44-4.1-6-4.28Z" fill="#fff"/><path d="M60,64.53a1.43,1.43,0,0,1-.58-.11,1.57,1.57,0,0,1-.49-.33A1.49,1.49,0,0,1,58.45,63c0-.09,0-.19,0-.29a1.52,1.52,0,0,1,.9-1.09,1.52,1.52,0,0,1,.28-.09,1.47,1.47,0,0,1,.59,0,1.52,1.52,0,0,1,.28.09A1.73,1.73,0,0,1,61,62a2,2,0,0,1,.18.23,1.61,1.61,0,0,1,.23.54c0,.1,0,.2,0,.29A1.49,1.49,0,0,1,60,64.53Z" fill="#fff"/><path d="M66.49,68.31a1.5,1.5,0,0,1,.54-2h0a1.5,1.5,0,0,1,2,.55h0a1.51,1.51,0,0,1-.55,2h0a1.59,1.59,0,0,1-.75.2h0A1.49,1.49,0,0,1,66.49,68.31Zm-2.77-2.77h0a1.5,1.5,0,0,1-.54-2h0A1.49,1.49,0,0,1,65.23,63h0a1.5,1.5,0,0,1,.54,2h0a1.5,1.5,0,0,1-1.3.75h0A1.5,1.5,0,0,1,63.72,65.54Z" fill="#fff"/><path d="M69,73.59a1.43,1.43,0,0,1-.58-.12,1.39,1.39,0,0,1-.48-.32,1.76,1.76,0,0,1-.33-.49,1.56,1.56,0,0,1-.11-.57,1.53,1.53,0,0,1,0-.3,1.47,1.47,0,0,1,.08-.28,2.15,2.15,0,0,1,.14-.26,2.11,2.11,0,0,1,.19-.23,1.92,1.92,0,0,1,.22-.18,1.65,1.65,0,0,1,.26-.14,1.52,1.52,0,0,1,.28-.09,1.94,1.94,0,0,1,.59,0,1.61,1.61,0,0,1,.54.23,2,2,0,0,1,.23.18,1.73,1.73,0,0,1,.32.49,1.41,1.41,0,0,1,.12.58,1.39,1.39,0,0,1-.12.57,1.54,1.54,0,0,1-.32.49A1.52,1.52,0,0,1,69,73.59Z" fill="#fff"/><path d="M59.94,58.27a1.47,1.47,0,0,1-1.06-.44,1.47,1.47,0,0,1-.43-1.06,1.48,1.48,0,0,1,2.07-1.38,1.3,1.3,0,0,1,.26.14,1.32,1.32,0,0,1,.22.18,1.52,1.52,0,0,1,.44,1.06,1.4,1.4,0,0,1-.11.58,1.29,1.29,0,0,1-.33.48A1.46,1.46,0,0,1,59.94,58.27Z" fill="#fff"/><path d="M73.08,67.81a1.5,1.5,0,0,1,1-1.89h0a1.51,1.51,0,0,1,1.9,1h0a1.5,1.5,0,0,1-1,1.89h0a1.48,1.48,0,0,1-.46.08h0A1.52,1.52,0,0,1,73.08,67.81Zm-2-3.84h0a1.5,1.5,0,0,1,.33-2.1h0a1.49,1.49,0,0,1,2.09.33h0a1.49,1.49,0,0,1-.33,2.09h0a1.43,1.43,0,0,1-.88.29h0A1.49,1.49,0,0,1,71.12,64Zm-3.06-3.06a1.49,1.49,0,0,1-.33-2.09h0a1.51,1.51,0,0,1,2.1-.34h0a1.51,1.51,0,0,1,.33,2.1h0a1.53,1.53,0,0,1-1.22.62h0A1.54,1.54,0,0,1,68.06,60.91Zm-3.84-2h0a1.51,1.51,0,0,1-1-1.89h0a1.51,1.51,0,0,1,1.89-1h0a1.5,1.5,0,0,1,1,1.89h0a1.48,1.48,0,0,1-1.42,1h0A1.47,1.47,0,0,1,64.22,59Z" fill="#fff"/><path d="M75.26,73.59a1.5,1.5,0,0,1-1.06-.44,1.41,1.41,0,0,1-.33-.49,1.38,1.38,0,0,1-.11-.57,1.53,1.53,0,0,1,0-.3,1,1,0,0,1,.08-.28,1.3,1.3,0,0,1,.14-.26A1.37,1.37,0,0,1,74.2,71a1.32,1.32,0,0,1,.22-.18,1.3,1.3,0,0,1,.26-.14,1.52,1.52,0,0,1,.28-.09,1.94,1.94,0,0,1,.59,0,1.61,1.61,0,0,1,.54.23,1.32,1.32,0,0,1,.22.18,1,1,0,0,1,.19.23,1.3,1.3,0,0,1,.14.26,1.41,1.41,0,0,1,.12.58,1.48,1.48,0,0,1-.45,1.06,1.31,1.31,0,0,1-.48.32A1.39,1.39,0,0,1,75.26,73.59Z" fill="#fff"/><path d="M60,52.33a1.5,1.5,0,0,1-1.06-.44,1.47,1.47,0,0,1-.44-1.06c0-.1,0-.2,0-.3a1.52,1.52,0,0,1,.09-.28A1.23,1.23,0,0,1,58.7,50a1.06,1.06,0,0,1,.19-.23,1.49,1.49,0,0,1,1.35-.41,1.47,1.47,0,0,1,.28.08l.26.14a1.37,1.37,0,0,1,.22.19,1.06,1.06,0,0,1,.19.23,1.23,1.23,0,0,1,.14.25,1.52,1.52,0,0,1,.09.28c0,.1,0,.2,0,.3a1.38,1.38,0,0,1-.11.57,1.33,1.33,0,0,1-.33.49,1.39,1.39,0,0,1-.48.32A1.42,1.42,0,0,1,60,52.33Z" fill="#fff"/><path d="M79.21,67.68h0a1.5,1.5,0,0,1,1.13-1.8h0A1.49,1.49,0,0,1,82.13,67h0A1.5,1.5,0,0,1,81,68.81h0a2.09,2.09,0,0,1-.34,0h0A1.51,1.51,0,0,1,79.21,67.68Zm-1.46-4.17a1.5,1.5,0,0,1,.7-2h0a1.51,1.51,0,0,1,2,.7h0a1.49,1.49,0,0,1-.7,2h0a1.38,1.38,0,0,1-.65.15h0A1.5,1.5,0,0,1,77.75,63.51Zm-2.36-3.74a1.5,1.5,0,0,1,.24-2.11h0a1.51,1.51,0,0,1,2.11.23h0A1.51,1.51,0,0,1,77.5,60h0a1.52,1.52,0,0,1-.94.33h0A1.5,1.5,0,0,1,75.39,59.77Zm-3.13-3.13h0A1.51,1.51,0,0,1,72,54.53h0a1.49,1.49,0,0,1,2.1-.24h0a1.5,1.5,0,0,1,.24,2.11h0A1.5,1.5,0,0,1,73.2,57h0A1.51,1.51,0,0,1,72.26,56.64Zm-3.74-2.36a1.5,1.5,0,0,1-.7-2h0a1.5,1.5,0,0,1,2-.7h0a1.49,1.49,0,0,1,.7,2h0a1.49,1.49,0,0,1-1.35.85h0A1.51,1.51,0,0,1,68.52,54.28Zm-4.17-1.46h0A1.5,1.5,0,0,1,63.22,51h0A1.5,1.5,0,0,1,65,49.89h0a1.49,1.49,0,0,1,1.13,1.79h0a1.5,1.5,0,0,1-1.46,1.17h0A1.24,1.24,0,0,1,64.35,52.82Z" fill="#fff"/><path d="M81.2,73.59a1.39,1.39,0,0,1-.57-.12,1.43,1.43,0,0,1-.49-.32,1.47,1.47,0,0,1-.32-1.64.94.94,0,0,1,.14-.26,1.3,1.3,0,0,1,.18-.23,2,2,0,0,1,.23-.18,1.61,1.61,0,0,1,.54-.23,1.94,1.94,0,0,1,.59,0,1.52,1.52,0,0,1,.28.09,1.65,1.65,0,0,1,.26.14,1.92,1.92,0,0,1,.22.18,1.37,1.37,0,0,1,.19.23,2.15,2.15,0,0,1,.14.26,1.47,1.47,0,0,1,.08.28,1.53,1.53,0,0,1,0,.3,1.56,1.56,0,0,1-.11.57,1.76,1.76,0,0,1-.33.49A1.5,1.5,0,0,1,81.2,73.59Z" fill="#fff"/></svg>