<svg id="Calque_1" data-name="Calque 1" xmlns="http://www.w3.org/2000/svg" viewBox="0 0 87 87"><rect x="35.25" y="15.52" width="16.49" height="3" fill="#fff"/><rect x="42" y="17.02" width="3" height="20.14" fill="#fff"/><path d="M54.79,57.34H32.21L38,35.66H49Zm-18.68-3H50.89l-4.2-15.68H40.31Z" fill="#fff"/><path d="M26.11,57.34H3.52L9.33,35.66h11Zm-18.68-3H22.21L18,38.66H11.63Z" fill="#fff"/><path d="M83.48,57.34H60.89l5.8-21.68h11Zm-18.69-3H79.57l-4.2-15.68H69Z" fill="#fff"/><path d="M29.16,71.48A15.86,15.86,0,0,1,13.32,55.64h3a12.84,12.84,0,0,0,25.68,0h3A15.86,15.86,0,0,1,29.16,71.48Z" fill="#fff"/><path d="M58.17,71.48A15.86,15.86,0,0,1,42.33,55.64h3a12.84,12.84,0,0,0,25.68,0h3A15.86,15.86,0,0,1,58.17,71.48Z" fill="#fff"/></svg>