<svg id="Calque_1" data-name="Calque 1" xmlns="http://www.w3.org/2000/svg" viewBox="0 0 87 87"><path d="M71.27,13.69H15.73A4.3,4.3,0,0,0,11.44,18V59.11h3V26.58a4.26,4.26,0,0,0,1.29.22H71.27a4.3,4.3,0,0,0,4.29-4.29V18A4.3,4.3,0,0,0,71.27,13.69Zm1.29,8.82a1.29,1.29,0,0,1-1.29,1.29H15.73a1.29,1.29,0,0,1-1.29-1.29V18a1.29,1.29,0,0,1,1.29-1.29H71.27A1.29,1.29,0,0,1,72.56,18Z" fill="#fff"/><rect x="18.38" y="32.96" width="52.91" height="4" fill="#fff"/><rect x="18.35" y="40.77" width="3" height="2" fill="#fff"/><path d="M21.35,66.85h-3V63.28h3Zm0-8h-3V55.25h3Zm0-8h-3V47.22h3Z" fill="#fff"/><polygon points="21.85 74.81 18.35 74.81 18.35 71.31 21.35 71.31 21.35 71.81 21.85 71.81 21.85 74.81" fill="#fff"/><path d="M63.23,74.81H59.55v-3h3.68Zm-8.28,0H51.27v-3H55Zm-8.28,0H43v-3h3.67Zm-8.27,0H34.72v-3H38.4Zm-8.28,0H26.45v-3h3.67Z" fill="#fff"/><polygon points="71.32 74.81 67.82 74.81 67.82 71.81 68.32 71.81 68.32 71.31 71.32 71.31 71.32 74.81" fill="#fff"/><path d="M71.32,66.85h-3V63.28h3Zm0-8h-3V55.25h3Zm0-8h-3V47.22h3Z" fill="#fff"/><rect x="68.32" y="40.77" width="3" height="2" fill="#fff"/><rect x="18.38" y="26.39" width="52.91" height="4" fill="#fff"/></svg>