<svg id="Calque_1" data-name="Calque 1" xmlns="http://www.w3.org/2000/svg" viewBox="0 0 87 87"><path d="M75.93,78.19H23.06a1.5,1.5,0,0,1-1.5-1.5V41.5a1.5,1.5,0,0,1,1.5-1.5H75.93a1.5,1.5,0,0,1,1.5,1.5V76.69A1.5,1.5,0,0,1,75.93,78.19Zm-51.37-3H74.43V43H24.56Z" fill="#fff"/><path d="M49.49,78.19a1.5,1.5,0,0,1-1.5-1.5V42.29a1.5,1.5,0,0,1,3,0v34.4A1.5,1.5,0,0,1,49.49,78.19Z" fill="#fff"/><circle cx="55.13" cy="59.09" r="1.64" fill="#fff"/><circle cx="43.85" cy="59.09" r="1.64" fill="#fff"/><path d="M23.06,78.19h-12a1.5,1.5,0,0,1-1.5-1.5V10.31a1.5,1.5,0,0,1,1.5-1.5h12a1.5,1.5,0,0,1,1.5,1.5V76.69A1.5,1.5,0,0,1,23.06,78.19Zm-10.49-3h9V11.81h-9Z" fill="#fff"/><path d="M23.06,50.48h-12a1.5,1.5,0,0,1,0-3h12a1.5,1.5,0,0,1,0,3Z" fill="#fff"/><path d="M54.2,42.26H44.78c-5.08,0-8.77-3.33-8.77-7.91V31.78a1.94,1.94,0,0,1,1.93-1.93H61A1.94,1.94,0,0,1,63,31.78v2.57C63,38.93,59.28,42.26,54.2,42.26ZM39,32.85v1.5c0,2.94,2.32,4.91,5.77,4.91H54.2c3.45,0,5.77-2,5.77-4.91v-1.5Zm22,0h0Z" fill="#fff"/></svg>