<svg id="Calque_1" data-name="Calque 1" xmlns="http://www.w3.org/2000/svg" viewBox="0 0 87 87"><path d="M70.22,31.81H21.59V25.34a4.6,4.6,0,1,1,9.19,0h2.9a7.5,7.5,0,1,0-15,0v6.47H16.78a4.32,4.32,0,0,0,0,8.64h2.09L24,51.87c-3.46,5.79-2.92,13.47-2.66,15.75A1.76,1.76,0,0,0,23,69.16H50.24A1.81,1.81,0,0,0,52,67.79l1.75-7.29a18.94,18.94,0,0,0,6.46-3.65c6.15-5.28,7.66-13.26,8-16.4h2a4.32,4.32,0,1,0,0-8.64Zm-11.78,23c-3.95,3.39-9.32,4.73-15.95,4l-.3,2.67a29.08,29.08,0,0,0,8.6-.21l-1.26,5.21H23.9c-.2-2.59-.35-9.16,2.69-13.73l.41-.6L22.06,40.45H65.5C65.11,43.41,63.65,50.34,58.44,54.82ZM70.22,37.55H16.78a1.42,1.42,0,1,1,0-2.84H70.22a1.42,1.42,0,0,1,0,2.84Z" fill="#fff"/></svg>