<svg id="Calque_1" data-name="Calque 1" xmlns="http://www.w3.org/2000/svg" viewBox="0 0 87 87"><path d="M79.9,38.38l5.71-8.31a2.26,2.26,0,0,0-3.72-2.55l-3.43,5A36.75,36.75,0,0,0,7.35,36.36a2.25,2.25,0,1,0,4.42.87,32.25,32.25,0,0,1,62.42-3.31L68.7,32.65a2.25,2.25,0,1,0-1,4.39l9.83,2.27.08,0H78a2.19,2.19,0,0,0,.77-.13h0l.09,0h0l.09,0,0,0,.05,0,.1-.06,0,0,.06,0,0,0,.07,0,.06-.05,0,0,.06,0,0,0,.08-.09h0A1.3,1.3,0,0,0,79.9,38.38Z" fill="#fff"/><path d="M77.67,48A2.26,2.26,0,0,0,75,49.77,32.24,32.24,0,0,1,12.59,53l5.71,1.32a2.21,2.21,0,0,0,.51,0,2.25,2.25,0,0,0,.5-4.44L9.52,47.7h0l-.11,0h-.6a2,2,0,0,0-.42.07h0l-.09,0h0l-.06,0-.06,0,0,0-.08,0H8l-.09,0h0a2.4,2.4,0,0,0-.26.18h0l-.07.06h0l0,.06,0,0,0,0,0,0,0,0-.06,0v0l-.06.08h0l-.06.08h0l0,0v0L1.39,56.93A2.25,2.25,0,0,0,2,60.06a2.22,2.22,0,0,0,1.27.4,2.24,2.24,0,0,0,1.86-1L8.4,54.69a36.74,36.74,0,0,0,71-4A2.25,2.25,0,0,0,77.67,48Z" fill="#fff"/><g id="NewGroupe4"><g id="NewGroup65-1"><path d="M26,35.14a.38.38,0,0,1,.38-.38H60.58a.38.38,0,0,1,.38.38V51.87a.38.38,0,0,1-.38.38H26.42a.38.38,0,0,1-.38-.38V35.14Zm9.43-4.32a.39.39,0,0,1,.36-.26H51.17a.39.39,0,0,1,.36.26l.79,2.41H34.68l.79-2.41ZM51.53,56.18a.39.39,0,0,1-.36.26H35.83a.39.39,0,0,1-.36-.26l-.79-2.4H52.32l-.79,2.4Zm9-23H54.2a.39.39,0,0,1-.36-.26L53,30.35A1.89,1.89,0,0,0,51.17,29H35.83A1.9,1.9,0,0,0,34,30.35L33.16,33a.39.39,0,0,1-.36.26H26.42a1.92,1.92,0,0,0-1.91,1.91V51.87a1.92,1.92,0,0,0,1.91,1.91H32.8a.38.38,0,0,1,.36.26L34,56.65A1.9,1.9,0,0,0,35.83,58H51.17A1.9,1.9,0,0,0,53,56.65L53.84,54a.38.38,0,0,1,.36-.26h6.38a1.92,1.92,0,0,0,1.91-1.91V35.14a1.92,1.92,0,0,0-1.91-1.91Z" fill="#fff"/><path d="M43.5,53.88a1,1,0,1,0,1,1,1,1,0,0,0-1-1Z" fill="#fff"/><path d="M41.49,44.27h4v3a.45.45,0,0,1-.44.45H41.93a.45.45,0,0,1-.44-.45v-3Zm4-1.53h-4v-3a.45.45,0,0,1,.44-.45h3.14a.45.45,0,0,1,.44.45v3Zm-3.58,6.54h3.14a2,2,0,0,0,2-2V39.7a2,2,0,0,0-2-2H41.93a2,2,0,0,0-2,2v7.61a2,2,0,0,0,2,2Z" fill="#fff"/><path d="M37.76,53.88a1.05,1.05,0,1,0,1,1,1,1,0,0,0-1-1Z" fill="#fff"/><path d="M49.24,53.88a1,1,0,1,0,1,1,1,1,0,0,0-1-1Z" fill="#fff"/><path d="M49.24,33.14a1,1,0,1,0-1.05-1,1,1,0,0,0,1.05,1Z" fill="#fff"/><path d="M43.49,33.14a1.05,1.05,0,1,0-1-1,1,1,0,0,0,1,1Z" fill="#fff"/><path d="M31.14,44.27h4v3a.45.45,0,0,1-.45.45H31.59a.45.45,0,0,1-.45-.45v-3Zm4-1.53h-4v-3a.45.45,0,0,1,.45-.45h3.13a.45.45,0,0,1,.45.45v3Zm-3.58,6.54h3.13a2,2,0,0,0,2-2V39.7a2,2,0,0,0-2-2H31.59a2,2,0,0,0-2,2v7.61a2,2,0,0,0,2,2Z" fill="#fff"/><path d="M37.75,33.14a1,1,0,1,0-1-1,1,1,0,0,0,1,1Z" fill="#fff"/><path d="M51.83,44.27h4v3a.45.45,0,0,1-.45.45H52.28a.45.45,0,0,1-.45-.45v-3Zm4-1.53h-4v-3a.45.45,0,0,1,.45-.45h3.13a.45.45,0,0,1,.45.45v3Zm-3.58,6.54h3.13a2,2,0,0,0,2-2V39.7a2,2,0,0,0-2-2H52.28a2,2,0,0,0-2,2v7.61a2,2,0,0,0,2,2Z" fill="#fff"/></g></g></svg>