<svg id="Calque_1" data-name="Calque 1" xmlns="http://www.w3.org/2000/svg" viewBox="0 0 87 87"><path d="M49.73,11.48,29.21,31.4l2.47,8.9L49.75,22.14,71,43.59V70.91H58.2V43.42H41.31V70.91H28.4l-2.82,0s0,3.55,0,3.84H75.69v-27h6.47V43ZM44.26,46.37h11V70.91h-11Z" fill="#fff"/><path d="M30.29,61.19a1.6,1.6,0,0,0,.27-1.42L19.3,19.25a1.63,1.63,0,0,0-3.14,0L4.9,59.77a1.63,1.63,0,0,0,1.57,2.07H16.1v12a1.63,1.63,0,0,0,3.26,0v-12H29A1.63,1.63,0,0,0,30.29,61.19ZM8.62,58.57l9.11-32.78,9.11,32.78Z" fill="#fff"/></svg>