<svg id="Calque_1" data-name="Calque 1" xmlns="http://www.w3.org/2000/svg" viewBox="0 0 87 87"><rect x="4.45" y="63.94" width="2" height="4.92" fill="#fff"/><polygon points="6.35 64.2 5.45 62.65 4.55 64.2 6.35 64.2" fill="#fff"/><path d="M81.55,71.32H5.45a1.5,1.5,0,0,1,0-3h76.1a1.5,1.5,0,1,1,0,3Z" fill="#fff"/><rect x="7.38" y="63.94" width="2" height="4.92" fill="#fff"/><polygon points="9.28 64.2 8.38 62.65 7.48 64.2 9.28 64.2" fill="#fff"/><rect x="10.3" y="63.94" width="2" height="4.92" fill="#fff"/><polygon points="12.2 64.2 11.3 62.65 10.41 64.2 12.2 64.2" fill="#fff"/><rect x="13.23" y="63.94" width="2" height="4.92" fill="#fff"/><polygon points="15.13 64.2 14.23 62.65 13.33 64.2 15.13 64.2" fill="#fff"/><rect x="16.16" y="63.94" width="2" height="4.92" fill="#fff"/><polygon points="18.06 64.2 17.16 62.65 16.26 64.2 18.06 64.2" fill="#fff"/><rect x="19.08" y="63.94" width="2" height="4.92" fill="#fff"/><polygon points="20.98 64.2 20.09 62.65 19.19 64.2 20.98 64.2" fill="#fff"/><rect x="22.01" y="63.94" width="2" height="4.92" fill="#fff"/><polygon points="23.91 64.2 23.01 62.65 22.11 64.2 23.91 64.2" fill="#fff"/><rect x="24.94" y="63.94" width="2" height="4.92" fill="#fff"/><polygon points="26.84 64.2 25.94 62.65 25.04 64.2 26.84 64.2" fill="#fff"/><rect x="27.87" y="63.94" width="2" height="4.92" fill="#fff"/><polygon points="29.76 64.2 28.87 62.65 27.97 64.2 29.76 64.2" fill="#fff"/><rect x="30.79" y="63.94" width="2" height="4.92" fill="#fff"/><polygon points="32.69 64.2 31.79 62.65 30.89 64.2 32.69 64.2" fill="#fff"/><rect x="33.72" y="63.94" width="2" height="4.92" fill="#fff"/><polygon points="35.62 64.2 34.72 62.65 33.82 64.2 35.62 64.2" fill="#fff"/><rect x="36.65" y="63.94" width="2" height="4.92" fill="#fff"/><polygon points="38.54 64.2 37.65 62.65 36.75 64.2 38.54 64.2" fill="#fff"/><rect x="39.57" y="63.94" width="2" height="4.92" fill="#fff"/><polygon points="41.47 64.2 40.57 62.65 39.68 64.2 41.47 64.2" fill="#fff"/><rect x="42.5" y="63.94" width="2" height="4.92" fill="#fff"/><polygon points="44.4 64.2 43.5 62.65 42.6 64.2 44.4 64.2" fill="#fff"/><rect x="45.43" y="63.94" width="2" height="4.92" fill="#fff"/><polygon points="47.32 64.2 46.43 62.65 45.53 64.2 47.32 64.2" fill="#fff"/><rect x="48.35" y="63.94" width="2" height="4.92" fill="#fff"/><polygon points="50.25 64.2 49.35 62.65 48.46 64.2 50.25 64.2" fill="#fff"/><rect x="51.28" y="63.94" width="2" height="4.92" fill="#fff"/><polygon points="53.18 64.2 52.28 62.65 51.38 64.2 53.18 64.2" fill="#fff"/><rect x="54.21" y="63.94" width="2" height="4.92" fill="#fff"/><polygon points="56.1 64.2 55.21 62.65 54.31 64.2 56.1 64.2" fill="#fff"/><rect x="57.13" y="63.94" width="2" height="4.92" fill="#fff"/><polygon points="59.03 64.2 58.13 62.65 57.24 64.2 59.03 64.2" fill="#fff"/><rect x="60.06" y="63.94" width="2" height="4.92" fill="#fff"/><polygon points="61.96 64.2 61.06 62.65 60.16 64.2 61.96 64.2" fill="#fff"/><rect x="62.99" y="63.94" width="2" height="4.92" fill="#fff"/><polygon points="64.89 64.2 63.99 62.65 63.09 64.2 64.89 64.2" fill="#fff"/><rect x="65.92" y="63.94" width="2" height="4.92" fill="#fff"/><polygon points="67.81 64.2 66.92 62.65 66.02 64.2 67.81 64.2" fill="#fff"/><rect x="68.84" y="63.94" width="2" height="4.92" fill="#fff"/><polygon points="70.74 64.2 69.84 62.65 68.94 64.2 70.74 64.2" fill="#fff"/><rect x="71.77" y="63.94" width="2" height="4.92" fill="#fff"/><polygon points="73.67 64.2 72.77 62.65 71.87 64.2 73.67 64.2" fill="#fff"/><rect x="74.7" y="63.94" width="2" height="4.92" fill="#fff"/><polygon points="76.59 64.2 75.69 62.65 74.8 64.2 76.59 64.2" fill="#fff"/><rect x="77.62" y="63.94" width="2" height="4.92" fill="#fff"/><polygon points="79.52 64.2 78.62 62.65 77.72 64.2 79.52 64.2" fill="#fff"/><rect x="80.55" y="63.94" width="2" height="4.92" fill="#fff"/><polygon points="82.45 64.2 81.55 62.65 80.65 64.2 82.45 64.2" fill="#fff"/><path d="M25.05,51.61A1.47,1.47,0,0,1,24,51.17L4.39,31.57a1.49,1.49,0,0,1,0-2.12L17.72,16.12a1.55,1.55,0,0,1,2.12,0l19.6,19.6a1.48,1.48,0,0,1,.32,1.63,1.49,1.49,0,0,1-1.38.93c-10.84,0-11.8,11.45-11.84,11.93a1.49,1.49,0,0,1-1,1.3A1.37,1.37,0,0,1,25.05,51.61ZM7.57,30.51,24.05,47c1.15-4.48,4.31-10,11-11.39L18.78,19.3Z" fill="#fff"/><circle cx="42.59" cy="41.45" r="1.72" fill="#fff"/><circle cx="42.89" cy="48.39" r="1.72" fill="#fff"/><circle cx="38.06" cy="45.99" r="1.72" fill="#fff"/><circle cx="38.45" cy="52.84" r="1.72" fill="#fff"/><circle cx="32.4" cy="49.22" r="1.72" fill="#fff"/></svg>