<svg id="Calque_1" data-name="Calque 1" xmlns="http://www.w3.org/2000/svg" viewBox="0 0 87 87"><path d="M79.9,38.38l5.71-8.31a2.26,2.26,0,0,0-3.72-2.55l-3.43,5A36.75,36.75,0,0,0,7.35,36.36a2.25,2.25,0,1,0,4.42.87,32.25,32.25,0,0,1,62.42-3.31L68.7,32.65a2.25,2.25,0,1,0-1,4.39l9.83,2.27.08,0H78a2.19,2.19,0,0,0,.77-.13h0l.09,0h0l.09,0,0,0,.05,0,.1-.06,0,0,.06,0,0,0,.07,0,.06-.05,0,0,.06,0,0,0,.08-.09h0A1.3,1.3,0,0,0,79.9,38.38Z" fill="#fff"/><path d="M77.67,48A2.26,2.26,0,0,0,75,49.77,32.24,32.24,0,0,1,12.59,53l5.71,1.32a2.21,2.21,0,0,0,.51,0,2.25,2.25,0,0,0,.5-4.44L9.52,47.7h0l-.11,0h-.6a2,2,0,0,0-.42.07h0l-.09,0h0l-.06,0-.06,0,0,0-.08,0H8l-.09,0h0a2.4,2.4,0,0,0-.26.18h0l-.07.06h0l0,.06,0,0,0,0,0,0,0,0-.06,0v0l-.06.08h0l-.06.08h0l0,0v0L1.39,56.93A2.25,2.25,0,0,0,2,60.06a2.22,2.22,0,0,0,1.27.4,2.24,2.24,0,0,0,1.86-1L8.4,54.69a36.74,36.74,0,0,0,71-4A2.25,2.25,0,0,0,77.67,48Z" fill="#fff"/><path d="M54.6,55.68H32.4v-32H54.6ZM34,54.05H53V25.31H34Z" fill="#fff"/><path d="M55.56,25.31H31.44v-.82a3.28,3.28,0,0,1,3.27-3.27H52.29a3.28,3.28,0,0,1,3.27,3.27ZM33.29,23.67H53.71a1.66,1.66,0,0,0-1.42-.82H34.71A1.66,1.66,0,0,0,33.29,23.67Z" fill="#fff"/><path d="M52.29,58.13H34.71a3.27,3.27,0,0,1-3.27-3.27v-.81H55.56v.81A3.27,3.27,0,0,1,52.29,58.13Zm-19-2.45a1.66,1.66,0,0,0,1.42.82H52.29a1.66,1.66,0,0,0,1.42-.82Z" fill="#fff"/><polygon points="39.43 57.87 47.57 57.87 46.48 60.32 40.52 60.32 39.43 57.87" fill="#fff"/><rect x="41.34" y="59.31" width="1.63" height="6.47" fill="#fff"/><polygon points="54.74 65.69 44.45 65.69 44.45 59.09 46.09 59.09 46.09 64.06 54.74 64.06 54.74 65.69" fill="#fff"/></svg>