<svg id="Calque_1" data-name="Calque 1" xmlns="http://www.w3.org/2000/svg" viewBox="0 0 87 87"><path d="M73.84,37.72H39.68a3.19,3.19,0,0,0-3.19,3.19v.85a2.85,2.85,0,0,0,0,.41H34.68l1.64-21.51a3.19,3.19,0,0,0,2.28-3.05v-.84a3.19,3.19,0,0,0-3.19-3.19H29V12.34H24.21v1.24h-11A3.19,3.19,0,0,0,10,16.77v.84a3.18,3.18,0,0,0,2.23,3l.06,25.49v.1A1.79,1.79,0,0,0,14,47.87h9.25l3.76,8.91c-3.57,6-3,13.93-2.74,16.28a1.81,1.81,0,0,0,1.78,1.6H54.23A1.87,1.87,0,0,0,56,73.24l1.81-7.53a20,20,0,0,0,6.68-3.78c6.37-5.47,7.93-13.76,8.31-17h1A3.19,3.19,0,0,0,77,41.76v-.85A3.19,3.19,0,0,0,73.84,37.72ZM12.75,16.77a.42.42,0,0,1,.41-.41H35.41a.42.42,0,0,1,.42.41v.84a.42.42,0,0,1-.42.42H13.16a.42.42,0,0,1-.41-.42Zm2.23,4H33.52L31.89,42.17H28.45L23,45.09H15Zm47.73,39c-4.09,3.51-9.64,4.9-16.5,4.13l-.31,2.76a30,30,0,0,0,8.89-.22L53.5,71.88H27c-.2-2.68-.35-9.48,2.79-14.2l.42-.62L25.82,46.72,29.14,45H70C69.61,48,68.11,55.18,62.71,59.82ZM74.25,41.76a.42.42,0,0,1-.41.41H39.68a.42.42,0,0,1-.41-.41v-.85a.42.42,0,0,1,.41-.41H73.84a.42.42,0,0,1,.41.41Z" fill="#fff"/></svg>