<svg id="Calque_1" data-name="Calque 1" xmlns="http://www.w3.org/2000/svg" viewBox="0 0 87 87"><path d="M31.86,62.6A10.28,10.28,0,0,1,21.59,52.33a1.38,1.38,0,0,0-2.75,0,13,13,0,0,0,13,13,1.38,1.38,0,0,0,0-2.75Z" fill="#fff"/><path d="M55.14,21.65a13,13,0,0,0-13,13,1.38,1.38,0,0,0,2.76,0A10.27,10.27,0,0,1,55.14,24.4a1.38,1.38,0,1,0,0-2.75Z" fill="#fff"/><path d="M76.63,66,73.9,63.39V34.66a18.76,18.76,0,0,0-37.51,0V52.33a4.53,4.53,0,1,1-9.06,0V23.61L30.06,21a1.38,1.38,0,0,0,.42-1V16a1.38,1.38,0,0,0-1.38-1.38H11.32A1.38,1.38,0,0,0,10,16v4a1.38,1.38,0,0,0,.42,1l2.73,2.64V52.33a18.76,18.76,0,1,0,37.51,0V34.66a4.53,4.53,0,0,1,9.06,0V63.39L56.94,66a1.38,1.38,0,0,0-.42,1v4a1.38,1.38,0,0,0,1.38,1.38H75.68A1.38,1.38,0,0,0,77.05,71V67A1.38,1.38,0,0,0,76.63,66ZM12.7,17.33h15v2.06l-2.34,2.26H15L12.7,19.39ZM55.14,27.38a7.29,7.29,0,0,0-7.28,7.28V52.33a16,16,0,1,1-32,0V24.4h8.72V52.33a7.29,7.29,0,1,0,14.57,0V34.66a16,16,0,0,1,32,0V62.6H62.43V34.66A7.3,7.3,0,0,0,55.14,27.38ZM74.3,69.67h-15V67.61l2.34-2.26H72l2.34,2.26Z" fill="#fff"/></svg>