<svg id="Calque_1" data-name="Calque 1" xmlns="http://www.w3.org/2000/svg" viewBox="0 0 87 87"><path d="M75.36,15.9H54.47L33.55,6l-.09,0-.18,0-.18,0h-.37l-.19,0-.18,0-.09,0L11,16a1.5,1.5,0,0,0-.86,1.36V69.59A1.5,1.5,0,0,0,11,71L32.27,81l.15,0,.12,0a1.5,1.5,0,0,0,.37,0,1.65,1.65,0,0,0,.38,0l.11,0,.15,0,20.92-9.86H75.36a1.5,1.5,0,0,0,1.5-1.5V17.4A1.5,1.5,0,0,0,75.36,15.9ZM13.14,18.35,31.41,9.76V77.23L13.14,68.64ZM34.41,9.77l18.23,8.58V68.64L34.41,77.23ZM73.86,68.09H55.64V18.9H73.86Z" fill="#fff"/><circle cx="18.86" cy="43.5" r="3.42" fill="#fff"/></svg>