<svg id="Calque_1" data-name="Calque 1" xmlns="http://www.w3.org/2000/svg" viewBox="0 0 87 87"><path d="M66.1,36.87l15-6.63L43.5,13.65,5.88,30.24l15,6.63-15,6.63,15,6.63-15,6.63L43.5,73.35,81.12,56.76l-15-6.63,15-6.63ZM13.31,30.24,43.5,16.92,73.69,30.24l-11.31,5-3.71,1.64-11.31,5L43.64,43.5l-.14-.06-.15.06-3.71-1.64-11.31-5-3.71-1.64ZM73.69,56.76,43.5,70.08,13.31,56.76l11.31-5L43.5,60.1l18.88-8.33ZM62.38,48.49l-3.71,1.64L43.5,56.82,28.33,50.13l-3.71-1.64-11.31-5,11.31-5,11.3,5,3.72,1.64,3.86,1.7,3.86-1.7,3.72-1.64,11.3-5,11.31,5Z" fill="#fff"/><circle cx="18.92" cy="40.22" r="1.82" fill="#fff"/><circle cx="18.92" cy="46.5" r="1.82" fill="#fff"/><circle cx="24.54" cy="40.22" r="1.82" fill="#fff"/><circle cx="24.54" cy="46.5" r="1.82" fill="#fff"/><circle cx="30.15" cy="40.22" r="1.82" fill="#fff"/><circle cx="30.15" cy="46.5" r="1.82" fill="#fff"/><circle cx="35.76" cy="46.5" r="1.82" fill="#fff"/><circle cx="35.76" cy="52.78" r="1.82" fill="#fff"/><circle cx="41.37" cy="46.5" r="1.82" fill="#fff"/><circle cx="41.37" cy="52.78" r="1.82" fill="#fff"/><circle cx="46.98" cy="46.5" r="1.82" fill="#fff"/><circle cx="46.98" cy="52.78" r="1.82" fill="#fff"/><circle cx="52.6" cy="46.5" r="1.82" fill="#fff"/><circle cx="52.6" cy="52.78" r="1.82" fill="#fff"/><circle cx="58.21" cy="40.22" r="1.82" fill="#fff"/><circle cx="58.21" cy="46.5" r="1.82" fill="#fff"/><circle cx="63.82" cy="40.22" r="1.82" fill="#fff"/><circle cx="63.82" cy="46.5" r="1.82" fill="#fff"/><circle cx="69.43" cy="40.33" r="1.82" fill="#fff"/><polygon points="5.88 43.5 5.88 47.67 43.5 64.01 81.12 47.67 81.12 43.5 43.5 60.1 5.88 43.5" fill="#fff"/></svg>