<svg id="Calque_1" data-name="Calque 1" xmlns="http://www.w3.org/2000/svg" viewBox="0 0 87 87"><path d="M43.5,17.83a141.56,141.56,0,0,1,8.94,11.63,81.33,81.33,0,0,1,7,12c2,4.34,2.9,8,2.78,11v.12a17.68,17.68,0,0,1-1.47,7.11,18.29,18.29,0,0,1-4,5.82,18.52,18.52,0,0,1-5.95,3.93,19.07,19.07,0,0,1-14.54,0,18.52,18.52,0,0,1-5.95-3.93,18.29,18.29,0,0,1-4-5.82,17.68,17.68,0,0,1-1.47-7.11v-.12c-.12-2.95.82-6.65,2.78-11a81.33,81.33,0,0,1,7-12A141.56,141.56,0,0,1,43.5,17.83m0-5-.76.83a146.21,146.21,0,0,0-11,14,83.47,83.47,0,0,0-7.25,12.54c-2.18,4.8-3.21,9-3.08,12.44A21,21,0,0,0,23.19,61a21.45,21.45,0,0,0,4.72,6.87,22.33,22.33,0,0,0,31.18,0A21.45,21.45,0,0,0,63.81,61a21,21,0,0,0,1.74-8.39c.13-3.45-.9-7.64-3.08-12.44a83.47,83.47,0,0,0-7.25-12.54,146.21,146.21,0,0,0-11-14l-.76-.83Z" fill="#fff"/><path d="M43.5,67.84a15.86,15.86,0,0,1-16-15.67,2.24,2.24,0,0,1,4.47,0A11.43,11.43,0,0,0,43.5,63.46a2.19,2.19,0,1,1,0,4.38Z" fill="#fff"/></svg>