<svg id="Calque_1" data-name="Calque 1" xmlns="http://www.w3.org/2000/svg" viewBox="0 0 87 87"><path d="M17.29,69.73c-4.51,0-8-5.9-8-13.43s3.53-13.44,8-13.44,8,5.9,8,13.44S21.8,69.73,17.29,69.73Zm0-23.87c-2.38,0-5,4.29-5,10.44s2.66,10.43,5,10.43,5-4.29,5-10.43S19.67,45.86,17.29,45.86Z" fill="#fff"/><path d="M60.78,70.92h-7.2a1.5,1.5,0,0,1,0-3c2.48,0,5.24-4.77,5.24-11.62s-2.76-11.63-5.24-11.63a1.5,1.5,0,0,1,0-3h7.2C65.4,41.67,69,48.1,69,56.3S65.4,70.92,60.78,70.92Zm-2.14-3h2.14c2.47,0,5.23-4.77,5.23-11.62s-2.76-11.63-5.23-11.63H58.64c1.94,2.65,3.18,6.84,3.18,11.63S60.58,65.27,58.64,67.92Z" fill="#fff"/><path d="M51.34,45.86H17.29a1.5,1.5,0,0,1,0-3H51.34a1.5,1.5,0,0,1,0,3Z" fill="#fff"/><path d="M51.34,69.73H17.29a1.5,1.5,0,0,1,0-3H51.34a1.5,1.5,0,0,1,0,3Z" fill="#fff"/><path d="M51.34,45.86a1.5,1.5,0,0,1-.7-2.82l2.24-1.19a1.5,1.5,0,1,1,1.41,2.64l-2.24,1.2A1.49,1.49,0,0,1,51.34,45.86Z" fill="#fff"/><path d="M53.12,70.92a1.51,1.51,0,0,1-.86-.27l-1.69-1.2a1.49,1.49,0,0,1-.36-2.09A1.51,1.51,0,0,1,52.3,67L54,68.2a1.5,1.5,0,0,1-.87,2.72Z" fill="#fff"/><path d="M40.61,45.86a1.5,1.5,0,0,1-1.5-1.5V37.61h-10v6.75a1.5,1.5,0,0,1-3,0V36.11a1.5,1.5,0,0,1,1.5-1.5h13a1.5,1.5,0,0,1,1.5,1.5v8.25A1.5,1.5,0,0,1,40.61,45.86Z" fill="#fff"/><path d="M26.62,32.81V28.38H41.37a3.62,3.62,0,0,0,2.33-.86l9.59-9.08a3.55,3.55,0,0,1,2.33-.86H76.25v5.33H56.52a3.6,3.6,0,0,0-2.33.86L45.5,32a3.57,3.57,0,0,1-2.33.86H26.62" fill="#fff"/></svg>