<svg id="Calque_1" data-name="Calque 1" xmlns="http://www.w3.org/2000/svg" viewBox="0 0 87 87"><path d="M80.08,33,62.64,46.61H6.92L24.36,33H80.08M83,32H24L4,47.61H63L83,32Z" fill="#fff"/><path d="M62.9,55.52H3.51V50.11H62.82L83.49,34v5.18Zm-58.39-1h58L82.49,38.65V36L63.16,51.11H4.51Z" fill="#fff"/><path d="M26.52,45.41c-7.13,0-13.21-.43-16.26-1.6a.51.51,0,0,1-.28-.65.5.5,0,0,1,.64-.29c10,3.87,55.35-.81,58.24-1.11l7.58-5.91c-6-1.92-17.64-2.19-33.73-.77-12.66,1.12-24.21,3-25,3.12a.5.5,0,0,1-.19-1c.44-.08,45.69-7.52,60.18-2a.49.49,0,0,1,.31.4.49.49,0,0,1-.18.46l-8.42,6.56a.47.47,0,0,1-.25.11C67.71,42.89,44,45.41,26.52,45.41Z" fill="#fff"/><path d="M32.11,42.72c-7.41,0-13.13-.51-14.08-2a.47.47,0,0,1,0-.46.52.52,0,0,1,.36-.3c.31-.06,32-6.55,56.34-2.54a.52.52,0,0,1,.41.37.49.49,0,0,1-.18.52l-2.43,1.9a.64.64,0,0,1-.26.1C68.73,40.65,47,42.72,32.11,42.72Zm-12.45-2c5.35,2.19,34.07.39,52.33-1.4l1.41-1.1C52,35,25.35,39.64,19.66,40.72Z" fill="#fff"/><path d="M50.09,40.76a127.51,127.51,0,0,1-12.82-.82.5.5,0,0,1,0-1c20.67-2,21.11-.72,21.25-.29.08.25.06.63-.54,1h0C56.62,40.49,53.5,40.76,50.09,40.76Zm-7.25-1.31c5.29.39,12,.57,14.32-.49C55.31,38.67,49.35,38.93,42.84,39.45Z" fill="#fff"/><circle cx="6.37" cy="51.84" r="0.64" fill="#fff"/><circle cx="6.37" cy="53.86" r="0.64" fill="#fff"/><circle cx="8.56" cy="51.84" r="0.64" fill="#fff"/><circle cx="8.56" cy="53.86" r="0.64" fill="#fff"/><circle cx="10.75" cy="51.84" r="0.64" fill="#fff"/><circle cx="10.75" cy="53.86" r="0.64" fill="#fff"/><circle cx="12.94" cy="51.84" r="0.64" fill="#fff"/><circle cx="12.94" cy="53.86" r="0.64" fill="#fff"/><circle cx="15.13" cy="51.84" r="0.64" fill="#fff"/><circle cx="15.13" cy="53.86" r="0.64" fill="#fff"/><circle cx="17.32" cy="51.84" r="0.64" fill="#fff"/><circle cx="17.32" cy="53.86" r="0.64" fill="#fff"/><circle cx="19.51" cy="51.84" r="0.64" fill="#fff"/><circle cx="19.51" cy="53.86" r="0.64" fill="#fff"/><circle cx="21.7" cy="51.84" r="0.64" fill="#fff"/><circle cx="21.7" cy="53.86" r="0.64" fill="#fff"/><circle cx="23.9" cy="51.84" r="0.64" fill="#fff"/><circle cx="23.9" cy="53.86" r="0.64" fill="#fff"/><circle cx="26.09" cy="51.84" r="0.64" fill="#fff"/><circle cx="26.09" cy="53.86" r="0.64" fill="#fff"/><circle cx="28.28" cy="51.84" r="0.64" fill="#fff"/><circle cx="28.28" cy="53.86" r="0.64" fill="#fff"/><circle cx="30.47" cy="51.84" r="0.64" fill="#fff"/><circle cx="30.47" cy="53.86" r="0.64" fill="#fff"/><circle cx="32.66" cy="51.84" r="0.64" fill="#fff"/><circle cx="32.66" cy="53.86" r="0.64" fill="#fff"/><circle cx="34.85" cy="51.84" r="0.64" fill="#fff"/><circle cx="34.85" cy="53.86" r="0.64" fill="#fff"/><circle cx="37.04" cy="51.84" r="0.64" fill="#fff"/><circle cx="37.04" cy="53.86" r="0.64" fill="#fff"/><circle cx="39.23" cy="51.84" r="0.64" fill="#fff"/><circle cx="39.23" cy="53.86" r="0.64" fill="#fff"/><circle cx="41.42" cy="51.84" r="0.64" fill="#fff"/><circle cx="41.42" cy="53.86" r="0.64" fill="#fff"/><circle cx="43.62" cy="51.84" r="0.64" fill="#fff"/><circle cx="43.62" cy="53.86" r="0.64" fill="#fff"/><circle cx="45.81" cy="51.84" r="0.64" fill="#fff"/><circle cx="45.81" cy="53.86" r="0.64" fill="#fff"/><circle cx="48" cy="51.84" r="0.64" fill="#fff"/><circle cx="48" cy="53.86" r="0.64" fill="#fff"/><circle cx="50.19" cy="51.84" r="0.64" fill="#fff"/><circle cx="50.19" cy="53.86" r="0.64" fill="#fff"/><circle cx="52.38" cy="51.84" r="0.64" fill="#fff"/><circle cx="52.38" cy="53.86" r="0.64" fill="#fff"/><circle cx="54.57" cy="51.84" r="0.64" fill="#fff"/><circle cx="54.57" cy="53.86" r="0.64" fill="#fff"/><circle cx="56.76" cy="51.84" r="0.64" fill="#fff"/><circle cx="56.76" cy="53.86" r="0.64" fill="#fff"/><circle cx="58.95" cy="51.84" r="0.64" fill="#fff"/><circle cx="58.95" cy="53.86" r="0.64" fill="#fff"/><circle cx="61.14" cy="51.84" r="0.64" fill="#fff"/><circle cx="61.14" cy="53.86" r="0.64" fill="#fff"/><circle cx="63.08" cy="51.84" r="0.64" fill="#fff"/><circle cx="63.08" cy="53.86" r="0.64" fill="#fff"/><circle cx="65.04" cy="50.19" r="0.64" fill="#fff"/><circle cx="65.04" cy="52.21" r="0.64" fill="#fff"/><circle cx="67.02" cy="48.2" r="0.64" fill="#fff"/><circle cx="67.02" cy="50.22" r="0.64" fill="#fff"/><circle cx="69.01" cy="46.86" r="0.64" fill="#fff"/><circle cx="69.01" cy="48.88" r="0.64" fill="#fff"/><circle cx="71" cy="45.21" r="0.64" fill="#fff"/><circle cx="71" cy="47.22" r="0.64" fill="#fff"/><circle cx="72.98" cy="43.86" r="0.64" fill="#fff"/><circle cx="72.98" cy="45.88" r="0.64" fill="#fff"/><circle cx="74.97" cy="42.26" r="0.64" fill="#fff"/><circle cx="74.97" cy="44.27" r="0.64" fill="#fff"/><circle cx="76.96" cy="40.91" r="0.64" fill="#fff"/><circle cx="76.96" cy="42.93" r="0.64" fill="#fff"/><circle cx="78.94" cy="39.28" r="0.64" fill="#fff"/><circle cx="78.94" cy="41.3" r="0.64" fill="#fff"/><circle cx="80.94" cy="37.29" r="0.64" fill="#fff"/><circle cx="80.94" cy="39.3" r="0.64" fill="#fff"/></svg>