<svg id="Calque_1" data-name="Calque 1" xmlns="http://www.w3.org/2000/svg" viewBox="0 0 87 87"><path d="M62.53,73.5a.87.87,0,0,0,.89-.84V52.49a70.09,70.09,0,0,0-9.73,21Z" fill="#fff"/><path d="M20.13,50.18A57.52,57.52,0,0,1,26,52,43.08,43.08,0,0,1,44.35,26.38l-5.29-2.46C23.77,31.6,20.58,47.39,20.13,50.18Z" fill="#fff"/><path d="M13.5,57v4.12C24,65,28.64,70,30.67,73.5h6.21C34.81,68.7,29.11,61.1,13.5,57Z" fill="#fff"/><path d="M47.07,27.64A39.3,39.3,0,0,0,28.49,52.93a42.14,42.14,0,0,1,7,3.71,53.43,53.43,0,0,1,17.4-25.78,18.35,18.35,0,0,0-3.47-2.13Z" fill="#fff"/><path d="M34.62,23.58H14.39a.86.86,0,0,0-.89.84V48.88c1.31.2,2.65.43,4,.71C18.13,46.32,21.5,32.05,34.62,23.58Z" fill="#fff"/><path d="M13.5,63.89v4a31.31,31.31,0,0,1,4.58,2.62,18.6,18.6,0,0,1,3.43,3h5.94C25.4,70.66,21.35,66.94,13.5,63.89Z" fill="#fff"/><path d="M42.75,67.32a29.36,29.36,0,0,0-7-7.42,1.33,1.33,0,0,1-.52-.38,39.18,39.18,0,0,0-8.57-4.66,1.29,1.29,0,0,1-.36-.14,60.32,60.32,0,0,0-12.8-3.3v3C31.67,59,37.73,68.12,39.74,73.5h5.95A26,26,0,0,0,43.15,68,1.22,1.22,0,0,1,42.75,67.32Z" fill="#fff"/><path d="M13.5,72.66a.87.87,0,0,0,.89.84h3.34a24.88,24.88,0,0,0-4.23-2.74Z" fill="#fff"/><path d="M60.11,41.54a64.18,64.18,0,0,0-14.63,25.3,28.1,28.1,0,0,1,3,6.66h2.5A71.34,71.34,0,0,1,63.26,48.32Z" fill="#fff"/><path d="M43.56,64.07A66.8,66.8,0,0,1,58.94,39l-.67-1.44a17.93,17.93,0,0,0-3.45-5,50.71,50.71,0,0,0-17,25.69A32.32,32.32,0,0,1,43.56,64.07Z" fill="#fff"/><path d="M72.15,20.37a11.31,11.31,0,0,1-5.52-5.52L63.42,8l-3.2,6.89a11.35,11.35,0,0,1-5.52,5.52l-6.89,3.21,6.89,3.2a11.39,11.39,0,0,1,5.52,5.52l3.2,6.89,3.21-6.89a11.35,11.35,0,0,1,5.52-5.52L79,23.58Z" fill="#fff"/></svg>