<svg id="Calque_1" data-name="Calque 1" xmlns="http://www.w3.org/2000/svg" viewBox="0 0 87 87"><path d="M75.31,49.72H42.2V26.2a18,18,0,0,0-18-18h-15v42.5A3.67,3.67,0,0,0,8,53.42a3.71,3.71,0,0,0,3.7,3.7h0l2.1,8.28a13.27,13.27,0,0,0,11.25,9.91,2.54,2.54,0,0,0-.15.83,2.64,2.64,0,1,0,5.27,0,2.46,2.46,0,0,0-.11-.72H56.91a2.46,2.46,0,0,0-.11.72,2.64,2.64,0,1,0,5.27,0,2.54,2.54,0,0,0-.15-.83A13.27,13.27,0,0,0,73.17,65.4l2.1-8.28h0a3.7,3.7,0,0,0,0-7.4ZM12.18,11.22H24.23a15,15,0,0,1,15,15v23h-27ZM70.74,64.78A10.76,10.76,0,0,1,60.3,72.91H26.7a10.76,10.76,0,0,1-10.44-8.13l-1.94-7.66H72.68Zm5.11-10.32H11.15a1.18,1.18,0,0,1,.54-2.23H75.31a1.18,1.18,0,0,1,.54,2.23Z" fill="#fff"/></svg>