<svg id="Calque_1" data-name="Calque 1" xmlns="http://www.w3.org/2000/svg" viewBox="0 0 87 87"><path d="M79.9,38.38l5.71-8.31a2.26,2.26,0,0,0-3.72-2.55l-3.43,5A36.75,36.75,0,0,0,7.35,36.36a2.25,2.25,0,1,0,4.42.87,32.25,32.25,0,0,1,62.42-3.31L68.7,32.65a2.25,2.25,0,1,0-1,4.39l9.83,2.27.08,0H78a2.19,2.19,0,0,0,.77-.13h0l.09,0h0l.09,0,0,0,.05,0,.1-.06,0,0,.06,0,0,0,.07,0,.06-.05,0,0,.06,0,0,0,.08-.09h0A1.3,1.3,0,0,0,79.9,38.38Z" fill="#fff"/><path d="M77.67,48A2.26,2.26,0,0,0,75,49.77,32.24,32.24,0,0,1,12.59,53l5.71,1.32a2.21,2.21,0,0,0,.51,0,2.25,2.25,0,0,0,.5-4.44L9.52,47.7h0l-.11,0h-.6a2,2,0,0,0-.42.07h0l-.09,0h0l-.06,0-.06,0,0,0-.08,0H8l-.09,0h0a2.4,2.4,0,0,0-.26.18h0l-.07.06h0l0,.06,0,0,0,0,0,0,0,0-.06,0v0l-.06.08h0l-.06.08h0l0,0v0L1.39,56.93A2.25,2.25,0,0,0,2,60.06a2.22,2.22,0,0,0,1.27.4,2.24,2.24,0,0,0,1.86-1L8.4,54.69a36.74,36.74,0,0,0,71-4A2.25,2.25,0,0,0,77.67,48Z" fill="#fff"/><path d="M55.31,56.46H31.69v-34H55.31ZM33.43,54.72H53.57V24.15H33.43Z" fill="#fff"/><path d="M56.33,24.15H30.67v-.87a3.48,3.48,0,0,1,3.48-3.48h18.7a3.48,3.48,0,0,1,3.48,3.48ZM32.64,22.41H54.36a1.75,1.75,0,0,0-1.51-.87H34.15A1.75,1.75,0,0,0,32.64,22.41Z" fill="#fff"/><path d="M52.85,59.07H34.15a3.48,3.48,0,0,1-3.48-3.48v-.87H56.33v.87A3.48,3.48,0,0,1,52.85,59.07ZM32.64,56.46a1.75,1.75,0,0,0,1.51.87h18.7a1.75,1.75,0,0,0,1.51-.87Z" fill="#fff"/><polygon points="39.17 58.78 47.83 58.78 46.67 61.39 40.33 61.39 39.17 58.78" fill="#fff"/><rect x="41.2" y="60.32" width="1.74" height="6.88" fill="#fff"/><polygon points="55.46 67.1 44.51 67.1 44.51 60.09 46.25 60.09 46.25 65.36 55.46 65.36 55.46 67.1" fill="#fff"/></svg>