<svg id="Calque_1" data-name="Calque 1" xmlns="http://www.w3.org/2000/svg" viewBox="0 0 87 87"><path d="M67.34,27.78H61.19V10.42A4.44,4.44,0,0,0,56.76,6h0a4.43,4.43,0,0,0-4.42,4.42V27.78H34.66V10.42A4.43,4.43,0,0,0,30.24,6h0a4.44,4.44,0,0,0-4.43,4.42V27.78H19.66A2.7,2.7,0,0,0,17,30.47V42.06a16.14,16.14,0,0,0,6.52,13l6.75,5H56.76l6.75-5a16.14,16.14,0,0,0,6.52-13V30.47A2.7,2.7,0,0,0,67.34,27.78ZM66,42.06a12.19,12.19,0,0,1-4.9,9.75L55.44,56H31.56l-5.67-4.21A12.19,12.19,0,0,1,21,42.06V31.8H66Z" fill="#fff"/><path d="M30.24,67.62V70.7A1.34,1.34,0,0,0,31.58,72h6.15a1.35,1.35,0,0,1,1.35,1.35v3.07A4.53,4.53,0,0,0,43.56,81a4.44,4.44,0,0,0,4.36-4.42V73.39A1.35,1.35,0,0,1,49.27,72h6.15a1.34,1.34,0,0,0,1.34-1.34V65.41H30.24Z" fill="#fff"/></svg>