<svg id="Calque_1" data-name="Calque 1" xmlns="http://www.w3.org/2000/svg" viewBox="0 0 87 87"><g id="NewGroupe4"><g id="NewGroup65-1"><path d="M15.87,20.26a.6.6,0,0,1,.6-.6H70.53a.6.6,0,0,1,.6.6V66.74a.6.6,0,0,1-.6.61H16.47a.6.6,0,0,1-.6-.61V20.26Zm14.92-6.82a.59.59,0,0,1,.57-.41H55.64a.59.59,0,0,1,.57.41l1.25,3.81H29.54l1.25-3.81ZM56.21,73.56a.59.59,0,0,1-.57.41H31.36a.59.59,0,0,1-.57-.41l-1.25-3.8H57.46l-1.25,3.8ZM70.53,17.25H60.44a.63.63,0,0,1-.58-.41L58.5,12.69a3,3,0,0,0-2.86-2.08H31.36a3,3,0,0,0-2.86,2.08l-1.36,4.14a.62.62,0,0,1-.58.42H16.47a3,3,0,0,0-3,3V66.74a3,3,0,0,0,3,3h10.1a.6.6,0,0,1,.57.41l1.36,4.14a3,3,0,0,0,2.86,2.08H55.64a3,3,0,0,0,2.86-2.08l1.36-4.14a.6.6,0,0,1,.57-.41h10.1a3,3,0,0,0,3-3V20.26a3,3,0,0,0-3-3Z" fill="#fff"/><path d="M43.5,69.93a1.66,1.66,0,1,0,1.66,1.65,1.66,1.66,0,0,0-1.66-1.65Z" fill="#fff"/><path d="M34.41,69.93a1.66,1.66,0,1,0,1.66,1.65,1.65,1.65,0,0,0-1.66-1.65Z" fill="#fff"/><path d="M52.59,69.93a1.66,1.66,0,1,0,1.65,1.65,1.65,1.65,0,0,0-1.65-1.65Z" fill="#fff"/><path d="M52.58,17.1a1.66,1.66,0,1,0-1.66-1.65,1.66,1.66,0,0,0,1.66,1.65Z" fill="#fff"/><path d="M43.49,17.1a1.66,1.66,0,1,0-1.66-1.65,1.65,1.65,0,0,0,1.66,1.65Z" fill="#fff"/><path d="M34.41,17.1a1.66,1.66,0,1,0-1.66-1.65,1.65,1.65,0,0,0,1.66,1.65Z" fill="#fff"/></g></g><path d="M43.49,64.5a21,21,0,1,1,21-21A21,21,0,0,1,43.49,64.5Zm0-40a19,19,0,1,0,19,19A19,19,0,0,0,43.49,24.51Z" fill="#fff"/><rect x="42.99" y="26.77" width="1" height="7.49" fill="#fff"/><rect x="38.55" y="27.55" width="1" height="7.49" transform="translate(-8.35 15.24) rotate(-20)" fill="#fff"/><rect x="34.64" y="29.81" width="1" height="7.49" transform="translate(-13.34 30.44) rotate(-40)" fill="#fff"/><rect x="31.74" y="33.26" width="1" height="7.49" transform="translate(-15.93 46.43) rotate(-60)" fill="#fff"/><rect x="30.2" y="37.5" width="1" height="7.49" transform="translate(-15.25 64.32) rotate(-80.01)" fill="#fff"/><rect x="26.95" y="45.26" width="7.49" height="1" transform="translate(-7.49 6.04) rotate(-10.01)" fill="#fff"/><rect x="28.49" y="49.5" width="7.49" height="1" transform="translate(-20.69 22.84) rotate(-30.02)" fill="#fff"/><rect x="31.4" y="52.96" width="7.49" height="1" transform="translate(-28.4 46.01) rotate(-49.99)" fill="#fff"/><rect x="35.3" y="55.21" width="7.49" height="1" transform="translate(-26.66 73.36) rotate(-70.01)" fill="#fff"/><rect x="42.99" y="52.75" width="1" height="7.49" fill="#fff"/><rect x="47.44" y="51.97" width="1" height="7.49" transform="translate(-16.16 19.75) rotate(-20)" fill="#fff"/><rect x="51.34" y="49.71" width="1" height="7.49" transform="translate(-22.23 45.83) rotate(-40)" fill="#fff"/><rect x="54.25" y="46.26" width="1" height="7.49" transform="translate(-15.93 72.41) rotate(-60)" fill="#fff"/><rect x="55.79" y="42.02" width="1" height="7.49" transform="translate(1.45 93.25) rotate(-80)" fill="#fff"/><rect x="52.54" y="40.75" width="7.49" height="1" transform="translate(-6.32 10.42) rotate(-10.01)" fill="#fff"/><rect x="51" y="36.51" width="7.49" height="1" transform="translate(-11.17 32.36) rotate(-30.02)" fill="#fff"/><rect x="48.1" y="33.05" width="7.49" height="1" transform="translate(-7.18 51.69) rotate(-49.99)" fill="#fff"/><rect x="44.19" y="30.79" width="7.49" height="1" transform="translate(2.14 65.64) rotate(-70.01)" fill="#fff"/></svg>