<svg id="Calque_1" data-name="Calque 1" xmlns="http://www.w3.org/2000/svg" viewBox="0 0 87 87"><path d="M14.62,73.5H72.38a1.12,1.12,0,0,0,1.12-1.12V14.62a1.12,1.12,0,0,0-1.12-1.12H14.62a1.12,1.12,0,0,0-1.12,1.12V72.38A1.12,1.12,0,0,0,14.62,73.5ZM53.88,48.07a10.06,10.06,0,0,0-.59,3.55c0,.29,0,.58,0,.87a11.23,11.23,0,0,1-3.39,7.58c-.36.32-.76.62-1.18.93a17.71,17.71,0,0,0-1.61,1.33,9.29,9.29,0,0,0-2.4,8.94H41c-1.55-2.35-.3-5.93,1.62-8.37.67-.85,1.45-1.7,2.2-2.51,1.79-2,3.65-4,4.58-6.59a20.06,20.06,0,0,0,.87-5.54c0-.53.06-1.07.11-1.59a5.41,5.41,0,0,1,.45-2,3.88,3.88,0,0,1,1.33-1.36,7,7,0,0,1,8.72.91,14.83,14.83,0,0,1,1.58,2.24,10,10,0,0,0,3.49,3.87,8.79,8.79,0,0,0,4.25.79c.37,0,.73,0,1.09,0v2.12a17,17,0,0,1-5.4.29,5.35,5.35,0,0,1-4-2.63,11.29,11.29,0,0,1-.54-1.53c-.43-1.47-1-3.3-2.82-3.88S54.61,46.33,53.88,48.07Zm.73-26c1.29,0,2.4,0,3.14.59A5,5,0,0,1,59,25.31c.08.3.17.61.26.9a12.74,12.74,0,0,0,12,8.73v3.22A19.27,19.27,0,0,1,57.19,27.84l-.14-.29a7.22,7.22,0,0,0-1.38-2.14A7.17,7.17,0,0,0,52.4,23.8c-.36-.11-.69-.2-1-.32a8,8,0,0,1-5.1-7.75h1.52c0,2.19.68,4.55,2.74,5.68A8.19,8.19,0,0,0,54.61,22.09Zm-22,28.15c1.18-1.08,2.79-2.55,3.15-4.64a8.33,8.33,0,0,0-.4-3.64,9.31,9.31,0,0,1-.4-2.22v0c0-1.62,1.05-3.08,2.15-4.62a20.58,20.58,0,0,0,1.8-2.83A10.27,10.27,0,0,0,40,27.68a10.39,10.39,0,0,0-1.26-5A21.58,21.58,0,0,0,36.9,20c-1.1-1.45-2.15-2.83-2.26-4.3h2.3a1.14,1.14,0,0,0,.24.54,31.7,31.7,0,0,1,4.94,7.28,9.87,9.87,0,0,1,.31,8A15.25,15.25,0,0,1,41,33.83a13.11,13.11,0,0,0-2,3.56A13.5,13.5,0,0,0,38.61,42c0,.48,0,.93,0,1.38a13.59,13.59,0,0,1-3.77,9.71,9.08,9.08,0,0,1-9.47,2.14c-.45-.19-.9-.43-1.37-.68a8.49,8.49,0,0,0-3.95-1.3,6.53,6.53,0,0,0-4.34,1.94V50.42a1.05,1.05,0,0,0,.27-.2,4.24,4.24,0,0,1,3.15-1.32,4.26,4.26,0,0,1,3.17,1.27c.19.21.38.45.58.71a6.77,6.77,0,0,0,1.54,1.59C26,53.49,28.59,53.93,32.63,50.24ZM15.73,63.79v-.93a15.61,15.61,0,0,0,6.15-1.06,8.41,8.41,0,0,1,3.44-.61,8.43,8.43,0,0,1,1.51.36,8.78,8.78,0,0,0,2.11.47,9.93,9.93,0,0,0,1.22,0,4.35,4.35,0,0,1,1.37.06c1.13.33,1.71,1.88,1.95,2.78a14.76,14.76,0,0,1,.3,6.41H32.31V71c0-3-1.13-5.49-3.09-6.74-2.18-1.39-4.87-1.07-7.45-.51-2,.43-4.24.92-5.92.06Z" fill="#fff"/></svg>