<svg id="Calque_1" data-name="Calque 1" xmlns="http://www.w3.org/2000/svg" viewBox="0 0 87 87"><circle cx="70.9" cy="23.69" r="1.68" fill="#fff"/><circle cx="70.9" cy="30.37" r="1.68" fill="#fff"/><circle cx="70.9" cy="37.05" r="1.68" fill="#fff"/><circle cx="70.9" cy="43.73" r="1.68" fill="#fff"/><circle cx="70.9" cy="50.41" r="1.68" fill="#fff"/><circle cx="70.9" cy="57.1" r="1.68" fill="#fff"/><circle cx="70.9" cy="63.78" r="1.68" fill="#fff"/><circle cx="70.9" cy="70.46" r="1.68" fill="#fff"/><circle cx="65.23" cy="23.69" r="1.68" fill="#fff"/><circle cx="65.23" cy="30.37" r="1.68" fill="#fff"/><circle cx="65.23" cy="37.05" r="1.68" fill="#fff"/><circle cx="65.23" cy="43.73" r="1.68" fill="#fff"/><circle cx="65.23" cy="50.41" r="1.68" fill="#fff"/><circle cx="65.23" cy="57.1" r="1.68" fill="#fff"/><circle cx="65.23" cy="63.78" r="1.68" fill="#fff"/><circle cx="65.23" cy="70.46" r="1.68" fill="#fff"/><circle cx="59.56" cy="23.69" r="1.68" fill="#fff"/><circle cx="59.56" cy="30.37" r="1.68" fill="#fff"/><circle cx="59.56" cy="37.05" r="1.68" fill="#fff"/><circle cx="59.56" cy="43.73" r="1.68" fill="#fff"/><circle cx="59.56" cy="50.41" r="1.68" fill="#fff"/><circle cx="59.56" cy="57.1" r="1.68" fill="#fff"/><circle cx="59.56" cy="63.78" r="1.68" fill="#fff"/><circle cx="59.56" cy="70.46" r="1.68" fill="#fff"/><circle cx="53.88" cy="23.69" r="1.68" fill="#fff"/><circle cx="53.88" cy="30.37" r="1.68" fill="#fff"/><circle cx="53.88" cy="37.05" r="1.68" fill="#fff"/><circle cx="53.88" cy="43.73" r="1.68" fill="#fff"/><circle cx="53.88" cy="50.41" r="1.68" fill="#fff"/><circle cx="53.88" cy="57.1" r="1.68" fill="#fff"/><circle cx="53.88" cy="63.78" r="1.68" fill="#fff"/><circle cx="53.88" cy="70.46" r="1.68" fill="#fff"/><circle cx="48.21" cy="23.69" r="1.68" fill="#fff"/><circle cx="48.21" cy="30.37" r="1.68" fill="#fff"/><circle cx="48.21" cy="37.05" r="1.68" fill="#fff"/><circle cx="48.21" cy="43.73" r="1.68" fill="#fff"/><circle cx="48.21" cy="50.41" r="1.68" fill="#fff"/><circle cx="48.21" cy="57.1" r="1.68" fill="#fff"/><circle cx="48.21" cy="63.78" r="1.68" fill="#fff"/><circle cx="48.21" cy="70.46" r="1.68" fill="#fff"/><circle cx="42.54" cy="23.69" r="1.68" fill="#fff"/><circle cx="42.54" cy="30.37" r="1.68" fill="#fff"/><circle cx="42.54" cy="37.05" r="1.68" fill="#fff"/><circle cx="42.54" cy="43.73" r="1.68" fill="#fff"/><circle cx="42.54" cy="50.41" r="1.68" fill="#fff"/><circle cx="42.54" cy="57.1" r="1.68" fill="#fff"/><circle cx="42.54" cy="63.78" r="1.68" fill="#fff"/><circle cx="42.54" cy="70.46" r="1.68" fill="#fff"/><path d="M24.06,66.69c-2.61,0-4.57,1.27-4.57,3s2,3,4.57,3,4.56-1.27,4.56-3S26.66,66.69,24.06,66.69Z" fill="#fff"/><path d="M78.42,76.82V17.35a1.68,1.68,0,0,0-1.68-1.68H39.27c-.6-1.9-2.21-3.59-4.69-4.88A23.22,23.22,0,0,0,24.06,8.5a23.26,23.26,0,0,0-10.53,2.29c-3.19,1.66-4.95,4-4.95,6.56v52.3c0,2.57,1.76,4.9,4.95,6.56A23.26,23.26,0,0,0,24.06,78.5H76.74A1.68,1.68,0,0,0,78.42,76.82ZM75.06,19V75.15H36.31l.39-.3,0,0,.37-.31.13-.12.25-.24.13-.13.24-.26.1-.11.3-.37v0l.26-.37.08-.12.16-.28.08-.14c0-.09.1-.19.14-.28l.06-.13c.06-.14.11-.27.16-.41h0c0-.14.09-.27.12-.41a.5.5,0,0,1,0-.13l.06-.3,0-.15c0-.1,0-.2,0-.31s0-.09,0-.13,0-.29,0-.44V19ZM11.94,17.35c0-2.6,5-5.5,12.12-5.5s12.11,2.9,12.11,5.5v46.7l-.42-.28-.12-.08-.38-.23-.15-.08c-.17-.1-.34-.2-.52-.29A23.22,23.22,0,0,0,24.06,60.8a23.26,23.26,0,0,0-10.53,2.29l-.52.28-.15.09-.37.23-.13.08-.42.28Zm0,52.3c0-2.6,5-5.49,12.12-5.49s12.11,2.89,12.11,5.49-5,5.5-12.11,5.5S11.94,72.25,11.94,69.65Z" fill="#fff"/></svg>