<svg id="Calque_1" data-name="Calque 1" xmlns="http://www.w3.org/2000/svg" viewBox="0 0 87 87"><rect x="17.04" y="25.86" width="52.91" height="4" fill="#fff"/><rect x="17.01" y="33.67" width="3" height="2" fill="#fff"/><path d="M20,59.75H17V56.18h3Zm0-8H17V48.15h3Zm0-8H17V40.13h3Z" fill="#fff"/><polygon points="20.51 67.71 17.01 67.71 17.01 64.21 20.01 64.21 20.01 64.71 20.51 64.71 20.51 67.71" fill="#fff"/><path d="M61.89,67.71H58.21v-3h3.68Zm-8.28,0H49.94v-3h3.67Zm-8.27,0H41.66v-3h3.68Zm-8.28,0H33.39v-3h3.67Zm-8.27,0H25.11v-3h3.68Z" fill="#fff"/><polygon points="69.99 67.71 66.49 67.71 66.49 64.71 66.99 64.71 66.99 64.21 69.99 64.21 69.99 67.71" fill="#fff"/><path d="M70,59.75H67V56.18h3Zm0-8H67V48.15h3Zm0-8H67V40.13h3Z" fill="#fff"/><rect x="66.99" y="33.67" width="3" height="2" fill="#fff"/><rect x="17.04" y="19.29" width="52.91" height="4" fill="#fff"/></svg>