<svg id="Calque_1" data-name="Calque 1" xmlns="http://www.w3.org/2000/svg" viewBox="0 0 87 87"><path d="M17.1,20.71a6.64,6.64,0,0,0-6.63,6.63V76.87a6.63,6.63,0,1,0,13.25,0V27.34A6.64,6.64,0,0,0,17.1,20.71Zm3.34,56.16a3.35,3.35,0,1,1-6.69,0V27.34a3.35,3.35,0,1,1,6.69,0Z" fill="#fff"/><path d="M34.73,20.71a6.64,6.64,0,0,0-6.63,6.63V76.87a6.63,6.63,0,0,0,13.26,0V27.34A6.64,6.64,0,0,0,34.73,20.71Zm3.35,56.16a3.35,3.35,0,0,1-6.7,0V27.34a3.35,3.35,0,0,1,6.7,0Z" fill="#fff"/><path d="M52.36,20.71a6.64,6.64,0,0,0-6.62,6.63V76.87a6.63,6.63,0,1,0,13.25,0V27.34A6.64,6.64,0,0,0,52.36,20.71Zm3.35,56.16a3.35,3.35,0,1,1-6.69,0V27.34a3.35,3.35,0,1,1,6.69,0Z" fill="#fff"/><path d="M80.78,27.28H76.62a6.63,6.63,0,0,0-13.25.06V76.87a6.63,6.63,0,1,0,13.26,0V38.46h4.15a3.75,3.75,0,0,0,3.75-3.75V31A3.75,3.75,0,0,0,80.78,27.28ZM73.35,76.87a3.35,3.35,0,0,1-6.7,0V27.34a3.35,3.35,0,1,1,6.7,0V76.87Zm7.9-42.16a.47.47,0,0,1-.47.47H76.63V30.56h4.15a.47.47,0,0,1,.47.47Z" fill="#fff"/><path d="M33.83,12.65a5.12,5.12,0,0,0,1.73,3.48,1.66,1.66,0,0,0,1.07.39,1.63,1.63,0,0,0,1.07-2.87,1.94,1.94,0,0,1-.6-1.14,1.85,1.85,0,0,1,.68-1.27,5.34,5.34,0,0,0,1.81-3.73,4.88,4.88,0,0,0-1.73-3.44L37.78,4A1.64,1.64,0,0,0,35.46,6.3l.1.1c.32.31.75.74.75,1.13a2.5,2.5,0,0,1-.85,1.4A4.91,4.91,0,0,0,33.83,12.65Z" fill="#fff"/><path d="M43.9,12.51a1.83,1.83,0,0,1,.67-1.27,5.25,5.25,0,0,0,1.81-3.72,4.88,4.88,0,0,0-1.72-3.45L44.57,4A1.64,1.64,0,1,0,42.25,6.3l.1.1c.32.31.75.74.75,1.13a2.45,2.45,0,0,1-.85,1.39,5,5,0,0,0-1.63,3.73,5.12,5.12,0,0,0,1.73,3.48,1.66,1.66,0,0,0,1.07.39,1.63,1.63,0,0,0,1.07-2.87A1.9,1.9,0,0,1,43.9,12.51Z" fill="#fff"/><path d="M47.41,12.65a5.16,5.16,0,0,0,1.73,3.48,1.66,1.66,0,0,0,1.07.39,1.63,1.63,0,0,0,1.07-2.87,1.9,1.9,0,0,1-.59-1.14,1.87,1.87,0,0,1,.67-1.27,5.25,5.25,0,0,0,1.81-3.72,4.84,4.84,0,0,0-1.72-3.45L51.36,4A1.64,1.64,0,0,0,49,6.3l.11.1c.31.31.74.74.75,1.13A2.42,2.42,0,0,1,49,8.92,5,5,0,0,0,47.41,12.65Z" fill="#fff"/></svg>