<svg id="Calque_1" data-name="Calque 1" xmlns="http://www.w3.org/2000/svg" viewBox="0 0 87 87"><path d="M55.15,25.16h0a.72.72,0,0,0,.69-.75l-.11-2.19a.71.71,0,0,0-.75-.69.72.72,0,0,0-.68.75l.1,2.2A.72.72,0,0,0,55.15,25.16Z" fill="#fff"/><path d="M55.35,29.51h0a.72.72,0,0,0,.68-.75l-.1-2.2a.72.72,0,0,0-.72-.68h0a.72.72,0,0,0-.68.75l.1,2.2A.71.71,0,0,0,55.35,29.51Z" fill="#fff"/><path d="M55.56,33.86h0a.73.73,0,0,0,.69-.75l-.11-2.2a.7.7,0,0,0-.75-.68.72.72,0,0,0-.68.75l.1,2.19A.72.72,0,0,0,55.56,33.86Z" fill="#fff"/><path d="M55.76,38.2h0a.71.71,0,0,0,.68-.75l-.1-2.19a.72.72,0,0,0-1.44.06l.11,2.2A.71.71,0,0,0,55.76,38.2Z" fill="#fff"/><path d="M55.87,38.92h0a.72.72,0,0,0-.68.75l.1,2.2a.72.72,0,0,0,.72.68h0a.71.71,0,0,0,.68-.75l-.1-2.2A.71.71,0,0,0,55.87,38.92Z" fill="#fff"/><path d="M58,24.17a.72.72,0,0,0,.54-.86l-.47-2.14a.72.72,0,1,0-1.4.31l.47,2.14a.72.72,0,0,0,.7.57Z" fill="#fff"/><path d="M58.93,28.42a.73.73,0,0,0,.55-.86L59,25.42a.73.73,0,0,0-.86-.55.71.71,0,0,0-.54.86l.47,2.14a.72.72,0,0,0,.7.57Z" fill="#fff"/><path d="M59.87,32.67a.73.73,0,0,0,.55-.86l-.48-2.14a.72.72,0,0,0-.85-.55.73.73,0,0,0-.55.86L59,32.12a.72.72,0,0,0,.7.57Z" fill="#fff"/><path d="M60.81,36.92a.71.71,0,0,0,.54-.86l-.47-2.14a.72.72,0,0,0-.85-.55.73.73,0,0,0-.55.86L60,36.37a.72.72,0,0,0,.7.57Z" fill="#fff"/><path d="M61.82,38.17a.72.72,0,1,0-1.4.31l.47,2.14a.72.72,0,0,0,.7.57l.16,0a.72.72,0,0,0,.54-.86Z" fill="#fff"/><path d="M61.19,21.92l-.83-2a.72.72,0,1,0-1.32.55l.83,2a.71.71,0,0,0,.66.45.86.86,0,0,0,.27-.05A.72.72,0,0,0,61.19,21.92Z" fill="#fff"/><path d="M61.51,26.49a.71.71,0,0,0,.66.45.81.81,0,0,0,.27-.05.72.72,0,0,0,.4-.94l-.83-2a.72.72,0,1,0-1.33.55Z" fill="#fff"/><path d="M64.48,30l-.83-2a.72.72,0,0,0-1.33.55l.83,2a.72.72,0,0,0,.67.45.66.66,0,0,0,.27-.06A.71.71,0,0,0,64.48,30Z" fill="#fff"/><path d="M66.12,34l-.83-2a.72.72,0,1,0-1.32.55l.83,2a.71.71,0,0,0,.66.45.66.66,0,0,0,.27-.06A.71.71,0,0,0,66.12,34Z" fill="#fff"/><path d="M66.94,36a.72.72,0,1,0-1.33.55l.83,2a.71.71,0,0,0,.66.45.67.67,0,0,0,.28-.06.71.71,0,0,0,.39-.93Z" fill="#fff"/><path d="M63.44,20.54l-1.16-1.86a.72.72,0,0,0-1-.23.72.72,0,0,0-.23,1l1.17,1.86a.71.71,0,0,0,.61.34.67.67,0,0,0,.38-.11A.72.72,0,0,0,63.44,20.54Z" fill="#fff"/><path d="M64.53,25a.73.73,0,0,0,.61.33.75.75,0,0,0,.38-.1.73.73,0,0,0,.23-1l-1.17-1.87a.71.71,0,1,0-1.21.76Z" fill="#fff"/><path d="M66.83,28.69a.72.72,0,0,0,.61.34.76.76,0,0,0,.38-.11.72.72,0,0,0,.23-1l-1.16-1.86a.72.72,0,0,0-1-.23.71.71,0,0,0-.23,1Z" fill="#fff"/><path d="M70.35,31.62l-1.16-1.86a.72.72,0,1,0-1.22.76l1.16,1.86a.72.72,0,0,0,.61.34.67.67,0,0,0,.38-.11A.72.72,0,0,0,70.35,31.62Z" fill="#fff"/><path d="M71.49,33.45a.72.72,0,1,0-1.22.76l1.17,1.87a.72.72,0,0,0,.61.33.62.62,0,0,0,.37-.11.7.7,0,0,0,.23-1Z" fill="#fff"/><path d="M63.42,17.45a.71.71,0,0,0-.06,1l1.46,1.65a.77.77,0,0,0,.54.24.7.7,0,0,0,.48-.19.71.71,0,0,0,0-1l-1.46-1.64A.71.71,0,0,0,63.42,17.45Z" fill="#fff"/><path d="M67.72,23.36a.75.75,0,0,0,.53.24.7.7,0,0,0,.48-.19.71.71,0,0,0,.06-1l-1.46-1.64a.73.73,0,0,0-1-.06.71.71,0,0,0,0,1Z" fill="#fff"/><path d="M69.05,25.09l1.46,1.65a.75.75,0,0,0,.54.24.66.66,0,0,0,.47-.19.7.7,0,0,0,.06-1l-1.46-1.64a.72.72,0,1,0-1.07.95Z" fill="#fff"/><path d="M73,27.39a.71.71,0,0,0-1-.06.72.72,0,0,0-.06,1L73.41,30a.73.73,0,0,0,.53.24.7.7,0,0,0,.48-.19.72.72,0,0,0,.06-1Z" fill="#fff"/><path d="M77.46,32.31,76,30.66a.72.72,0,0,0-1.07,1l1.46,1.64a.72.72,0,0,0,1.08-.95Z" fill="#fff"/><path d="M42.19,36.75H38.8a.79.79,0,0,0-.79.79v4a.72.72,0,0,0,.71.73V64.83a10,10,0,0,1-20,0V42.17a1.68,1.68,0,1,0-3.36,0V64.83a13.36,13.36,0,0,0,26.71,0V42.22h.2a.74.74,0,0,0,.74-.73c0-.87,0-2.39,0-4A.79.79,0,0,0,42.19,36.75Z" fill="#fff"/><path d="M64.28,14.26l-1.46-3.21a3.43,3.43,0,0,0-3.77-2.18A25.19,25.19,0,0,0,38,33.14v2.1a.79.79,0,0,0,.79.79h3.4a.79.79,0,0,0,.79-.78c0-.57,0-1.09,0-1.55a17.29,17.29,0,0,1,5.31-12c.42-.39.85-.77,1.29-1.13a1,1,0,0,1,1.47.33v0a1.22,1.22,0,0,0,1.65.57L63.66,16A1.35,1.35,0,0,0,64.28,14.26Z" fill="#fff"/></svg>