<svg id="Calque_1" data-name="Calque 1" xmlns="http://www.w3.org/2000/svg" viewBox="0 0 87 87"><path d="M70.43,14.16h-5.6v-.5A5.18,5.18,0,0,0,59.67,8.5H19.15A5.18,5.18,0,0,0,14,13.66v6.15A5.18,5.18,0,0,0,19.15,25H59.67a5.18,5.18,0,0,0,5.16-5.16v-.49h3V30.67L38.6,40.31a2.59,2.59,0,0,0-1.77,2.45v7.08a5.18,5.18,0,0,0-3.51,4.88V73.34a5.17,5.17,0,0,0,5.16,5.16h1.86a5.17,5.17,0,0,0,5.16-5.16V54.72A5.16,5.16,0,0,0,42,49.84V44.63L71.23,35A2.57,2.57,0,0,0,73,32.53V16.74A2.58,2.58,0,0,0,70.43,14.16ZM58.31,21.84H20.37a3.3,3.3,0,0,1-3.3-3.3V14.75a3.31,3.31,0,0,1,3.3-3.31H58.31a3.32,3.32,0,0,1,3.31,3.31v3.79A3.31,3.31,0,0,1,58.31,21.84Z" fill="#fff"/></svg>