<svg id="Calque_1" data-name="Calque 1" xmlns="http://www.w3.org/2000/svg" viewBox="0 0 87 87"><path d="M20,6.94V80.06H67V6.94ZM63.79,76.83H23.21V71.61H63.79Zm0-8.22H23.21V10.17H42.77V13h2.69V10.17H63.79Z" fill="#fff"/><path d="M40.59,20.57a.47.47,0,0,0-.15-.35.51.51,0,1,0,0,.71A.48.48,0,0,0,40.59,20.57Z" fill="#fff"/><path d="M39.67,22.37a.49.49,0,0,0-.61.37.51.51,0,0,0,.37.61h.12A.5.5,0,0,0,40,23,.5.5,0,0,0,39.67,22.37Z" fill="#fff"/><path d="M39.13,24.65a.5.5,0,1,0-.23,1H39a.5.5,0,0,0,.12-1Z" fill="#fff"/><path d="M38.05,29.22a.49.49,0,0,0-.6.37.5.5,0,0,0,.37.61h.12a.51.51,0,0,0,.49-.39A.5.5,0,0,0,38.05,29.22Z" fill="#fff"/><path d="M38.59,26.93a.52.52,0,0,0-.61.38.5.5,0,0,0,.38.6l.11,0a.51.51,0,0,0,.12-1Z" fill="#fff"/><path d="M37,31.63a.54.54,0,0,0-.14.36.5.5,0,0,0,.14.35.51.51,0,0,0,.72,0A.5.5,0,0,0,37.9,32a.54.54,0,0,0-.14-.36A.53.53,0,0,0,37,31.63Z" fill="#fff"/><path d="M41.74,20.22a.5.5,0,0,0-.14.35.51.51,0,0,0,.14.36.51.51,0,0,0,.72,0,.51.51,0,0,0,.14-.36.5.5,0,0,0-.14-.35A.53.53,0,0,0,41.74,20.22Z" fill="#fff"/><path d="M41.89,22.36a.49.49,0,0,0-.56.44.51.51,0,0,0,.44.56h.06a.51.51,0,0,0,.5-.44A.5.5,0,0,0,41.89,22.36Z" fill="#fff"/><path d="M41.35,26.92a.52.52,0,0,0-.56.44.51.51,0,0,0,.45.56h.06a.51.51,0,0,0,.05-1Z" fill="#fff"/><path d="M41.62,24.64a.5.5,0,1,0-.12,1h.06a.5.5,0,0,0,.06-1Z" fill="#fff"/><path d="M41.09,29.21a.49.49,0,0,0-.56.44.5.5,0,0,0,.44.56H41a.5.5,0,0,0,.06-1Z" fill="#fff"/><path d="M40.4,31.63a.55.55,0,0,0-.15.36.51.51,0,0,0,.51.5.51.51,0,0,0,.5-.5.51.51,0,0,0-.15-.36A.51.51,0,0,0,40.4,31.63Z" fill="#fff"/><path d="M48.65,20.57a.51.51,0,0,0-.86-.35.47.47,0,0,0-.15.35.48.48,0,0,0,.15.36.51.51,0,0,0,.35.15.51.51,0,0,0,.51-.51Z" fill="#fff"/><path d="M49.17,22.74a.5.5,0,0,0-1,.23.5.5,0,0,0,.49.39h.12A.51.51,0,0,0,49.17,22.74Z" fill="#fff"/><path d="M49.26,27.54a.52.52,0,0,0,.5.39l.11,0a.5.5,0,0,0,.38-.6.51.51,0,1,0-1,.23Z" fill="#fff"/><path d="M49.1,24.65a.5.5,0,0,0,.12,1h.11a.5.5,0,1,0-.23-1Z" fill="#fff"/><path d="M49.8,29.82a.51.51,0,0,0,.49.39h.12a.5.5,0,0,0,.37-.61.49.49,0,0,0-.6-.37A.5.5,0,0,0,49.8,29.82Z" fill="#fff"/><path d="M50.33,32a.5.5,0,0,0,.14.35.51.51,0,0,0,.72,0,.5.5,0,0,0,.14-.35.54.54,0,0,0-.14-.36.53.53,0,0,0-.72,0A.54.54,0,0,0,50.33,32Z" fill="#fff"/><path d="M46.49,20.93a.51.51,0,0,0,.14-.36.5.5,0,0,0-.14-.35.53.53,0,0,0-.72,0,.5.5,0,0,0-.14.35.51.51,0,0,0,.14.36.51.51,0,0,0,.72,0Z" fill="#fff"/><path d="M47,27.92a.51.51,0,0,0,.45-.56.52.52,0,0,0-.56-.44.51.51,0,0,0-.45.56.51.51,0,0,0,.5.45Z" fill="#fff"/><path d="M47.26,30.21a.5.5,0,0,0,.44-.56.49.49,0,0,0-.56-.44.5.5,0,0,0,.06,1Z" fill="#fff"/><path d="M46.73,25.64a.5.5,0,1,0-.12-1,.5.5,0,0,0,0,1Z" fill="#fff"/><path d="M46.46,23.36a.51.51,0,0,0,.44-.56.49.49,0,0,0-.56-.44.5.5,0,0,0-.44.56.51.51,0,0,0,.5.44Z" fill="#fff"/><path d="M47.12,31.63A.51.51,0,0,0,47,32a.51.51,0,0,0,.5.5A.51.51,0,0,0,48,32a.55.55,0,0,0-.15-.36A.51.51,0,0,0,47.12,31.63Z" fill="#fff"/><path d="M43.76,20.22a.51.51,0,0,0-.15.35.51.51,0,0,0,.15.36.51.51,0,0,0,.35.15.51.51,0,0,0,.51-.51.51.51,0,0,0-.86-.35Z" fill="#fff"/><path d="M44.11,29.2a.51.51,0,1,0,.51.51A.51.51,0,0,0,44.11,29.2Z" fill="#fff"/><path d="M44.11,24.64a.5.5,0,1,0,.51.5A.5.5,0,0,0,44.11,24.64Z" fill="#fff"/><path d="M44.11,22.35a.51.51,0,0,0-.5.51.51.51,0,0,0,1,0A.51.51,0,0,0,44.11,22.35Z" fill="#fff"/><path d="M44.11,26.92a.5.5,0,0,0-.5.5.51.51,0,1,0,1,0A.5.5,0,0,0,44.11,26.92Z" fill="#fff"/><path d="M43.76,31.63a.55.55,0,0,0-.15.36.51.51,0,0,0,.15.35.47.47,0,0,0,.35.15.48.48,0,0,0,.36-.15.51.51,0,0,0,.15-.35.55.55,0,0,0-.15-.36A.51.51,0,0,0,43.76,31.63Z" fill="#fff"/><path d="M38.74,18.39a.51.51,0,0,0,.51.51H49a.51.51,0,0,0,.51-.51v-.84H38.74Z" fill="#fff"/><polygon points="45.46 13.36 42.77 13.36 38.91 17.22 49.32 17.22 45.46 13.36" fill="#fff"/><path d="M29.09,43.5A2.92,2.92,0,1,0,32,46.42,2.92,2.92,0,0,0,29.09,43.5Z" fill="#fff"/></svg>