<svg id="Calque_1" data-name="Calque 1" xmlns="http://www.w3.org/2000/svg" viewBox="0 0 87 87"><circle cx="21.97" cy="43.5" r="3.42" fill="#fff"/><path d="M71.59,46.9v2.24H65l-3.07,1a7.31,7.31,0,0,1,.16,1.56v.42h9.46v4.15H62.13v3h9.46v4.14H61.46a7.35,7.35,0,0,1-2.49,3H71.59v4.15h-30V66.43h8a7.35,7.35,0,0,1-2.49-3H41.6V59.29h4.87v-3H41.6V52.14h4.87v-.42a7.42,7.42,0,0,1,.47-2.58H41.6V45h6.62A6.13,6.13,0,0,1,49,42.89H44.88a7.4,7.4,0,0,1-6.28-3.51V73.63H15.41V13.37H38.6V28.74a7.54,7.54,0,0,1,3-2.74V23.57h30v4.14H69.23l.17.18a6.21,6.21,0,0,1,5.19,4.23V7.41h-36v3H12.41V76.63H38.6v3h36V43.4A6.2,6.2,0,0,1,71.59,46.9Zm-30-36.49h30v3h-30Zm0,6h30v4.15h-30Zm30,60.17h-30v-3h30Z" fill="#fff"/><path d="M68.72,32.86h-2.6v-.23a2.41,2.41,0,0,0-2.4-2.4H44.88a2.41,2.41,0,0,0-2.4,2.4v2.86a2.41,2.41,0,0,0,2.4,2.4H63.72a2.41,2.41,0,0,0,2.4-2.4v-.23h1.4v5.27L53.93,45a1.19,1.19,0,0,0-.83,1.14v3.29a2.4,2.4,0,0,0-1.63,2.27v8.65a2.41,2.41,0,0,0,2.4,2.4h.86a2.41,2.41,0,0,0,2.4-2.4V51.72a2.4,2.4,0,0,0-1.63-2.27V47l13.6-4.48a1.2,1.2,0,0,0,.82-1.14V34.06A1.2,1.2,0,0,0,68.72,32.86Zm-4.09,2a1.55,1.55,0,0,1-1.54,1.54H45.45a1.54,1.54,0,0,1-1.54-1.54V33.13a1.55,1.55,0,0,1,1.54-1.54H63.09a1.55,1.55,0,0,1,1.54,1.54Z" fill="#fff"/></svg>