<svg id="Calque_1" data-name="Calque 1" xmlns="http://www.w3.org/2000/svg" viewBox="0 0 87 87"><path d="M29.34,42.5H19.05a1.51,1.51,0,0,1-1.3-.75l-5.14-8.91a1.49,1.49,0,0,1,0-1.5l5.14-8.91a1.49,1.49,0,0,1,1.3-.75H29.34a1.49,1.49,0,0,1,1.3.75l5.14,8.91a1.49,1.49,0,0,1,0,1.5l-5.14,8.91A1.51,1.51,0,0,1,29.34,42.5Zm-9.42-3h8.55l4.28-7.41-4.28-7.41H19.92l-4.28,7.41Z" fill="#fff"/><path d="M29.34,65.28H19.05a1.51,1.51,0,0,1-1.3-.75l-5.14-8.91a1.49,1.49,0,0,1,0-1.5l5.14-8.91a1.49,1.49,0,0,1,1.3-.75H29.34a1.49,1.49,0,0,1,1.3.75l5.14,8.91a1.49,1.49,0,0,1,0,1.5l-5.14,8.91A1.51,1.51,0,0,1,29.34,65.28Zm-9.42-3h8.55l4.28-7.41-4.28-7.41H19.92l-4.28,7.41Z" fill="#fff"/><path d="M68,42.5H57.66a1.51,1.51,0,0,1-1.3-.75l-5.14-8.91a1.49,1.49,0,0,1,0-1.5l5.14-8.91a1.49,1.49,0,0,1,1.3-.75H68a1.49,1.49,0,0,1,1.3.75l5.14,8.91a1.49,1.49,0,0,1,0,1.5l-5.14,8.91A1.51,1.51,0,0,1,68,42.5Zm-9.42-3h8.55l4.28-7.41-4.28-7.41H58.53l-4.28,7.41Z" fill="#fff"/><path d="M68,65.28H57.66a1.51,1.51,0,0,1-1.3-.75l-5.14-8.91a1.49,1.49,0,0,1,0-1.5l5.14-8.91a1.49,1.49,0,0,1,1.3-.75H68a1.49,1.49,0,0,1,1.3.75l5.14,8.91a1.49,1.49,0,0,1,0,1.5l-5.14,8.91A1.51,1.51,0,0,1,68,65.28Zm-9.42-3h8.55l4.28-7.41-4.28-7.41H58.53l-4.28,7.41Z" fill="#fff"/><path d="M48.71,32.09H38.42a1.51,1.51,0,0,1-1.3-.75L32,22.43a1.54,1.54,0,0,1,0-1.5L37.12,12a1.49,1.49,0,0,1,1.3-.75H48.71A1.5,1.5,0,0,1,50,12l5.14,8.91a1.49,1.49,0,0,1,0,1.5L50,31.34A1.52,1.52,0,0,1,48.71,32.09Zm-9.43-3h8.56l4.28-7.41-4.28-7.41H39.28L35,21.68Z" fill="#fff"/><path d="M48.71,75.73H38.42a1.49,1.49,0,0,1-1.3-.75L32,66.07a1.54,1.54,0,0,1,0-1.5l5.15-8.91a1.51,1.51,0,0,1,1.3-.75H48.71a1.52,1.52,0,0,1,1.3.75l5.14,8.91a1.49,1.49,0,0,1,0,1.5L50,75A1.5,1.5,0,0,1,48.71,75.73Zm-9.43-3h8.56l4.28-7.41-4.28-7.41H39.28L35,65.32Z" fill="#fff"/><path d="M48.71,53.91H38.42a1.51,1.51,0,0,1-1.3-.75L32,44.25a1.54,1.54,0,0,1,0-1.5l5.15-8.91a1.51,1.51,0,0,1,1.3-.75H48.71a1.52,1.52,0,0,1,1.3.75l5.14,8.91a1.49,1.49,0,0,1,0,1.5L50,53.16A1.52,1.52,0,0,1,48.71,53.91Zm-9.43-3h8.56l4.28-7.41-4.28-7.41H39.28L35,43.5Z" fill="#fff"/></svg>