<svg id="Calque_1" data-name="Calque 1" xmlns="http://www.w3.org/2000/svg" viewBox="0 0 87 87"><path d="M67.47,33.55c.75-10.7-2.38-19.8-9.31-27.06a1.62,1.62,0,0,0-1.8-.36L23,20.79a1.6,1.6,0,0,0-.65,2.39c5.35,7.53,7,21.08,6.19,28v.15s0,0,0,.06a1.8,1.8,0,0,0,.11.56l0,.07a1.14,1.14,0,0,0,.1.19.56.56,0,0,1,0,.08,1.22,1.22,0,0,0,.15.17l0,0,6.77,6.8-2.53,2.55a3,3,0,0,0-1.12-.22,2.92,2.92,0,0,0-2.07.86L19.8,72.76a3,3,0,0,0,0,4.14L23,80.14a2.92,2.92,0,0,0,4.14,0L37.44,69.85a3,3,0,0,0,.63-3.2l2.53-2.54,6.77,6.79a1.61,1.61,0,0,0,1.13.47,1.63,1.63,0,0,0,1.14-.47L63.22,57.27c2-2,3.59-10.32,3.9-12C68.23,39.26,68.35,35.4,67.47,33.55ZM35,67.78l-9.87,9.9-2.85-2.85,9.87-9.91,1.81,1.81.89.9h0Zm4.49-7.07h0L36,64.23l-.28-.29h0l6.79-6.82a.88.88,0,0,1,.5-.3.08.08,0,0,1,.08,0s0,.14-.07.28a1.56,1.56,0,0,1-.22.28l-.31.31Zm5.51-1,0,0a4.28,4.28,0,0,0,1-1.58,3.35,3.35,0,0,0,0-2.47,3.27,3.27,0,0,0-3-2h0a3.84,3.84,0,0,0-2.77,1.24L38,57,32.4,51.34l4.43-4.44,8-8.06c.22-.22,1.85-1.09,6.31-2.18h0l0,0a56.36,56.36,0,0,1,11.56-1.7h.42l.31,0h0l.26,0h0l.23,0h0l.19,0h0a1.93,1.93,0,0,1,.38.09c.27.8.31,4.19-.76,9.86s-2.42,9.48-3,10L48.5,67.51l-5.64-5.67Zm19.38-27.9h-.14l-.3,0h-.06l-.29,0h-.78A55.34,55.34,0,0,0,52.36,33.1a6.78,6.78,0,0,0-.4-1.67,1.6,1.6,0,1,0-3,1.16,5,5,0,0,1,.24,1.26c-3.51.92-5.74,1.84-6.63,2.73l-5.23,5.25a4.3,4.3,0,0,0-.1-.67,1.6,1.6,0,1,0-3.13.63,13.06,13.06,0,0,1,0,3.25L32,47.25c0-7.43-1.82-17.44-5.93-24.29L56.6,9.52C62.13,15.69,64.67,23,64.36,31.81Z" fill="#fff"/><path d="M35.86,23.69a1.6,1.6,0,0,0-1.23,1.9,50.67,50.67,0,0,1,1,8.17,1.59,1.59,0,0,0,1.59,1.53h.07a1.61,1.61,0,0,0,1.53-1.67,51.73,51.73,0,0,0-1-8.7A1.61,1.61,0,0,0,35.86,23.69Z" fill="#fff"/><path d="M45.11,18.14A1.58,1.58,0,0,0,43.89,18a1.62,1.62,0,0,0-1,.76A1.57,1.57,0,0,0,42.79,20a13.33,13.33,0,0,1,.58,4.15,1.62,1.62,0,0,0,.43,1.15,1.58,1.58,0,0,0,1.11.51H45a1.59,1.59,0,0,0,1.6-1.54,16.64,16.64,0,0,0-.7-5.15A1.62,1.62,0,0,0,45.11,18.14Z" fill="#fff"/><path d="M56.52,23.13a10.44,10.44,0,0,1,0,3.94,1.59,1.59,0,0,0,.25,1.2,1.62,1.62,0,0,0,1,.68l.3,0a1.59,1.59,0,0,0,1.57-1.29,13.57,13.57,0,0,0,0-5.16,1.61,1.61,0,0,0-1.87-1.27,1.54,1.54,0,0,0-1,.68A1.59,1.59,0,0,0,56.52,23.13Z" fill="#fff"/><path d="M51.58,17.57a1.6,1.6,0,0,0-1.08,2,6.74,6.74,0,0,1,.24,2.24,1.61,1.61,0,0,0,1.52,1.67h.08a1.6,1.6,0,0,0,1.6-1.52,10.08,10.08,0,0,0-.37-3.29A1.61,1.61,0,0,0,51.58,17.57Z" fill="#fff"/></svg>