<svg id="Calque_1" data-name="Calque 1" xmlns="http://www.w3.org/2000/svg" viewBox="0 0 87 87"><path d="M78.36,35.09a4.63,4.63,0,0,1,2.47,8.56,3,3,0,0,0-1.39,2.53V59.31a2.55,2.55,0,0,1-2.55,2.54,2.5,2.5,0,0,1-1-.19,3,3,0,0,0-1.14-.22H12.85a3.05,3.05,0,0,0-1.15.22,2.45,2.45,0,0,1-1,.19,2.55,2.55,0,0,1-2.55-2.54V46.54a3,3,0,0,0-1.64-2.67,4.64,4.64,0,1,1,6.73-4.17V40a1.82,1.82,0,0,0,0,.33v6.35a3,3,0,0,0,3,3H71.34a3,3,0,0,0,3-3V42.76a3,3,0,0,0-.24-1.19,4.64,4.64,0,0,1,4.26-6.48m0-3a7.65,7.65,0,0,0-7,10.67v3.88H16.28V40.46c0-.12,0-.24,0-.36s0-.24,0-.37A7.64,7.64,0,1,0,5.19,46.54V59.31a5.54,5.54,0,0,0,5.55,5.54,5.7,5.7,0,0,0,2.11-.41H74.78a5.66,5.66,0,0,0,2.11.41,5.54,5.54,0,0,0,5.55-5.54V46.18a7.63,7.63,0,0,0-4.08-14.09Z" fill="#fff"/><path d="M67.05,25.15a4.54,4.54,0,0,1,4.46,3.69,13.13,13.13,0,0,0-6.1,11.1c0,.19,0,.37,0,.56H22.62c0-.19,0-.37,0-.56a13.25,13.25,0,0,0-7-11.63A4.54,4.54,0,0,1,20,25.15h47.1m0-3H20a7.53,7.53,0,0,0-7.54,7.53v.54A10.12,10.12,0,0,1,19,43.43a7.45,7.45,0,0,0,.95.07h47.1A7.12,7.12,0,0,0,69,43.24a10.25,10.25,0,0,1-.56-3.3,10.14,10.14,0,0,1,6.18-9.34v-.92a7.53,7.53,0,0,0-7.54-7.53Z" fill="#fff"/></svg>