<svg id="Calque_1" data-name="Calque 1" xmlns="http://www.w3.org/2000/svg" viewBox="0 0 87 87"><path d="M79.9,38.38l5.71-8.31a2.26,2.26,0,0,0-3.72-2.55l-3.43,5A36.75,36.75,0,0,0,7.35,36.36a2.25,2.25,0,1,0,4.42.87,32.25,32.25,0,0,1,62.42-3.31L68.7,32.65a2.25,2.25,0,1,0-1,4.39l9.83,2.27.08,0H78a2.19,2.19,0,0,0,.77-.13h0l.09,0h0l.09,0,0,0,.05,0,.1-.06,0,0,.06,0,0,0,.07,0,.06-.05,0,0,.06,0,0,0,.08-.09h0A1.3,1.3,0,0,0,79.9,38.38Z" fill="#fff"/><path d="M77.67,48A2.26,2.26,0,0,0,75,49.77,32.24,32.24,0,0,1,12.59,53l5.71,1.32a2.21,2.21,0,0,0,.51,0,2.25,2.25,0,0,0,.5-4.44L9.52,47.7h0l-.11,0h-.6a2,2,0,0,0-.42.07h0l-.09,0h0l-.06,0-.06,0,0,0-.08,0H8l-.09,0h0a2.4,2.4,0,0,0-.26.18h0l-.07.06h0l0,.06,0,0,0,0,0,0,0,0-.06,0v0l-.06.08h0l-.06.08h0l0,0v0L1.39,56.93A2.25,2.25,0,0,0,2,60.06a2.22,2.22,0,0,0,1.27.4,2.24,2.24,0,0,0,1.86-1L8.4,54.69a36.74,36.74,0,0,0,71-4A2.25,2.25,0,0,0,77.67,48Z" fill="#fff"/><path d="M44.06,28.61H33.15a.84.84,0,0,0-.79.55l-6.4,17a.84.84,0,0,0,.79,1.14h4.67a.85.85,0,0,1,.78,1.17l-3.56,8.71a.84.84,0,0,0,1.42.87L43.78,42a.85.85,0,0,0-.63-1.4l-4.32-.06a.85.85,0,0,1-.68-1.34L44.75,30A.85.85,0,0,0,44.06,28.61Z" fill="#fff"/><path d="M60.2,51.77H47.83A.9.9,0,0,1,47,50.63l6.18-22.26a.9.9,0,0,1,1.73,0l6.18,22.26a.9.9,0,0,1-.86,1.14ZM49,50H59L54,32Z" fill="#fff"/><path d="M54,59.28a.89.89,0,0,1-.9-.89V50.87a.9.9,0,1,1,1.79,0v7.52A.89.89,0,0,1,54,59.28Z" fill="#fff"/></svg>