<svg id="Calque_1" data-name="Calque 1" xmlns="http://www.w3.org/2000/svg" viewBox="0 0 87 87"><polygon points="76.86 86 73.81 86 73.81 4.05 13.19 4.05 13.19 86 10.14 86 10.14 1 76.86 1 76.86 86" fill="#fff"/><rect x="26.76" y="42.74" width="33.65" height="3.05" fill="#fff"/><polygon points="31.74 52.54 23.46 44.26 31.74 35.99 33.9 38.15 27.78 44.26 33.9 50.38 31.74 52.54" fill="#fff"/><polygon points="55.26 52.54 53.1 50.38 59.22 44.26 53.1 38.15 55.26 35.99 63.54 44.26 55.26 52.54" fill="#fff"/><polygon points="70.4 86 67.35 86 67.35 9.47 19.65 9.47 19.65 86 16.6 86 16.6 6.42 70.4 6.42 70.4 86" fill="#fff"/></svg>