<svg id="Calque_1" data-name="Calque 1" xmlns="http://www.w3.org/2000/svg" viewBox="0 0 87 87"><path d="M65.37,36.18v3.9c0,6.42-5,10.74-12.46,10.74H34.09c-7.45,0-12.46-4.32-12.46-10.74v-3.9H65.37m1.23-2.09H20.4a.85.85,0,0,0-.86.85v5.14c0,7.55,6,12.83,14.55,12.83H52.91c8.57,0,14.55-5.28,14.55-12.83V34.94a.85.85,0,0,0-.86-.85Z" fill="#fff"/><rect x="7.68" y="34.1" width="13.95" height="3" fill="#fff"/><rect x="7.68" y="34.1" width="3" height="18.82" fill="#fff"/><rect x="76.32" y="34.1" width="3" height="18.82" fill="#fff"/><rect x="65.37" y="34.1" width="13.95" height="3" fill="#fff"/></svg>