<svg id="Calque_1" data-name="Calque 1" xmlns="http://www.w3.org/2000/svg" viewBox="0 0 87 87"><path d="M43.5,4A39.5,39.5,0,1,1,4,43.5,39.55,39.55,0,0,1,43.5,4m0-3A42.5,42.5,0,1,0,86,43.5,42.5,42.5,0,0,0,43.5,1Z" fill="#fff"/><path d="M22.9,35.09V49.48H18.83V38.24H16.15V35.09Z" fill="#fff"/><path d="M28.12,48.89a5.94,5.94,0,0,1-2.25-2.58,9.24,9.24,0,0,1-.81-4,9.24,9.24,0,0,1,.81-4,5.94,5.94,0,0,1,2.25-2.58,6.49,6.49,0,0,1,6.56,0,5.94,5.94,0,0,1,2.25,2.58,9.24,9.24,0,0,1,.81,4,9.24,9.24,0,0,1-.81,4,5.94,5.94,0,0,1-2.25,2.58,6.55,6.55,0,0,1-6.56,0ZM33,45.44a6.18,6.18,0,0,0,.61-3.15A6.25,6.25,0,0,0,33,39.13a1.85,1.85,0,0,0-1.63-1,1.88,1.88,0,0,0-1.66,1,6.37,6.37,0,0,0-.6,3.16,6.3,6.3,0,0,0,.6,3.15,1.86,1.86,0,0,0,1.66,1A1.83,1.83,0,0,0,33,45.44Z" fill="#fff"/><path d="M42.2,48.89A5.94,5.94,0,0,1,40,46.31a9.24,9.24,0,0,1-.81-4,9.24,9.24,0,0,1,.81-4,5.94,5.94,0,0,1,2.25-2.58,6.49,6.49,0,0,1,6.56,0A5.94,5.94,0,0,1,51,38.27a9.1,9.1,0,0,1,.82,4,9.1,9.1,0,0,1-.82,4,5.94,5.94,0,0,1-2.25,2.58,6.55,6.55,0,0,1-6.56,0Zm4.93-3.45a6.28,6.28,0,0,0,.61-3.15,6.35,6.35,0,0,0-.61-3.16,1.85,1.85,0,0,0-3.29,0,6.25,6.25,0,0,0-.61,3.16,6.18,6.18,0,0,0,.61,3.15,1.85,1.85,0,0,0,3.29,0Z" fill="#fff"/><path d="M54,41.81a4,4,0,0,1-1-2.92,4.56,4.56,0,0,1,.47-2.11,3.32,3.32,0,0,1,1.31-1.39,3.73,3.73,0,0,1,1.9-.49A3.5,3.5,0,0,1,59.33,36a4,4,0,0,1,1,2.91,4,4,0,0,1-1,2.92,3.84,3.84,0,0,1-5.32,0Zm11.16-6.72h3L58.3,49.48h-3Zm-7.63,5.35a2.86,2.86,0,0,0,.33-1.55,2.82,2.82,0,0,0-.33-1.54,1,1,0,0,0-1.75,0,2.75,2.75,0,0,0-.34,1.53,2.77,2.77,0,0,0,.34,1.54,1,1,0,0,0,1.75,0Zm6.61,8.16a4.69,4.69,0,0,1,0-5.83,3.83,3.83,0,0,1,5.33,0,4.64,4.64,0,0,1,0,5.83,3.87,3.87,0,0,1-5.34,0Zm3.55-1.38a3.76,3.76,0,0,0,0-3.08,1,1,0,0,0-.88-.5,1,1,0,0,0-.89.5,3.76,3.76,0,0,0,0,3.08,1,1,0,0,0,.89.49A1,1,0,0,0,67.7,47.22Z" fill="#fff"/></svg>